<?xml version="1.0" encoding="UTF-8" standalone="no"?>
<svg xmlns="http://www.w3.org/2000/svg" viewBox="-29.558000564575195 -85.92000579833984 47.305171966552734 51.036094665527344" width="100%" height="100%">
<g><path d="M1.12-73.437c-0.481-1.773-0.861-3.573-0.904-5.377c-0.043-1.818,0.52-3.727,1.871-4.944c0.495-0.446,1.104-0.795,1.768-0.854c2.089-0.188,4.07,1.842,5.216,3.351c0,0,7.312,12.715,8.665,15.163c0.048,0.086-0.073,0.407-0.093,0.492c-0.376,1.607-1.328,3.079-2.481,4.236c-0.996,1-2.184,1.794-3.451,2.409c-0.812,0.394-1.653,0.692-2.509,0.973C8.3-57.691,7.147-57.61,6.197-57.604c-1.324-3.993-2.774-7.969-3.954-12.006C1.876-70.865,1.471-72.144,1.12-73.437z"></path><path style="fill:#141414;" d="M12.201-75.809c-0.942,1.659-1.452,3.619-1.189,5.5c1.026-1.005,1.786-2.226,2.302-3.557C12.938-74.525,12.563-75.178,12.201-75.809z"></path><path style="fill:#141414;" d="M15.162-61.37c1.153-1.157,2.105-2.629,2.481-4.236c0.02-0.085,0.141-0.406,0.093-0.492c-0.549-0.993-2.08-3.678-3.705-6.517c-0.688,1.46-1.676,2.731-2.897,3.806c0.546,2.939,1.45,5.801,2.956,8.371C14.464-60.729,14.827-61.034,15.162-61.37z"></path></g><!---0025-00890003900058--><g><path style="fill:#262626;" d="M10.036-51.149c-0.105-2.276-0.193-4.553-0.271-6.831c-0.08-2.36-0.003-4.657,0.04-7.016c0.056-3.034,0.065-6.054-0.109-9.087c-0.087-1.514-0.105-3.137-0.417-4.628c-0.329-1.571-0.774-3.141-1.917-4.31c-1.006-1.028-2.296-1.748-3.62-2.282c-0.364-0.147-0.736-0.276-1.114-0.385c-0.313-0.091-0.691-0.11-0.986-0.232c0.446,0.547,0.552,1.222,0.402,1.904c-0.101,0.46-0.412,0.731-0.804,0.982c-1.133,0.724-2.416,0.8-3.724,0.847c-0.831,0.03-1.667,0.016-2.492-0.098c-1.545-0.215-3.06-0.663-4.438-1.4c-0.733-0.392-1.432-0.857-2.059-1.404c-0.045-0.039-0.639-0.664-0.664-0.654c-2.236,0.926-4.999,1.9-6.262,4.133c-0.821,1.45-0.663,3.156-0.643,4.766c0.025,1.975,0.133,3.948,0.248,5.92c0.252,4.318,0.475,8.555-0.055,12.859c-0.8,6.494-1.644,12.983-2.5,19.47c-0.063,0.476,2.888,1.704,3.195,1.835c2.915,1.243,5.951,1.459,9.043,1.822c1.916,0.224,4.178-0.29,6.022-0.768c0.986-0.256,1.958-0.575,2.958-0.769c1.389-0.271,2.791-0.231,4.193-0.359c2.271-0.207,5.129-0.72,6.69-2.521c0.039-0.045,0.079-0.092,0.1-0.148c0.027-0.069,0.025-0.146,0.021-0.22c-0.04-0.815-0.21-1.617-0.301-2.425c-0.094-0.835-0.167-1.672-0.226-2.51C10.196-46.82,10.136-48.986,10.036-51.149z"></path><path style="fill:#141414;" d="M-10.108-57.632c0.198-3.005,0.143-6.132-0.108-9.13c-0.247-2.948-0.812-5.899-1.95-8.64c-0.897-2.16-2.086-5.275-4.659-5.806c-0.64-0.132-1.285-0.011-1.873,0.264c-0.471,1.292-0.36,2.73-0.343,4.101c0.025,1.975,0.133,3.948,0.248,5.92c0.252,4.318,0.475,8.555-0.055,12.859c-0.8,6.494-1.644,12.983-2.5,19.47c-0.063,0.476,2.888,1.704,3.195,1.835c2.352,1.003,4.783,1.336,7.259,1.619L-10.108-57.632z"></path><path d="M-16.099-48.591c1.174-0.186,1.758-2.175,2.111-3.13c0.546-1.479,0.919-3.156,1.204-4.702c0.598-3.244,0.846-6.53,0.806-9.83c-0.013-1.038-0.083-2.07-0.123-3.106c-0.025-0.661-0.107-1.843-0.478-2.751c-0.294-0.72-0.771-1.268-1.545-1.249c-0.577,0.014-1.057,0.445-1.413,0.901c-1.533,1.964-2.05,4.82-2.49,7.212c-0.209,1.138-0.392,2.281-0.539,3.429c-0.044,1.248-0.129,2.497-0.284,3.753c-0.01,0.082-0.021,0.164-0.031,0.245c-0.025,1.061-0.003,2.124,0.093,3.188c0.152,1.68,0.435,3.383,1.202,4.904C-17.302-49.168-16.806-48.479-16.099-48.591z"></path><path style="fill:#141414;" d="M3.621-85.345c-0.326-0.127-0.656-0.246-0.992-0.343c-0.313-0.091-0.692-0.11-0.986-0.232c0.445,0.547,0.552,1.222,0.402,1.904c-0.101,0.46-0.412,0.731-0.804,0.982c-1.133,0.724-2.416,0.8-3.724,0.847c-0.831,0.03-1.667,0.016-2.492-0.098c-1.545-0.215-3.06-0.663-4.438-1.4c-0.733-0.392-1.432-0.857-2.059-1.404c-0.045-0.039-0.638-0.664-0.664-0.654c-0.587,0.243-1.211,0.492-1.834,0.763c1.413,1.907,3.642,3.079,5.935,3.758c1.892,0.56,3.791,0.763,5.756,0.701c1.626-0.052,3.283-0.174,4.702-1.065c0.36-0.226,0.685-0.51,0.928-0.861c0.493-0.712,0.503-1.767,0.352-2.591C3.682-85.141,3.651-85.243,3.621-85.345z"></path><g><path style="fill:#FFFDFD;" d="M-5.801-75.062l0.508-0.065v2.239l-0.508,0.065V-75.062z"></path><path style="fill:#FFFDFD;" d="M-3.023-74.291c0,0.22-0.032,0.381-0.096,0.485s-0.173,0.172-0.327,0.205v-0.655c-0.173,0.045-0.342,0.085-0.509,0.121v1.077l0.499-0.063c0.184-0.023,0.351-0.082,0.502-0.176c0.151-0.095,0.27-0.23,0.354-0.409c0.084-0.179,0.126-0.404,0.126-0.677c0-0.049-0.014-0.082-0.018-0.128c-0.182,0.049-0.362,0.098-0.54,0.146C-3.03-74.338-3.023-74.321-3.023-74.291z"></path><path style="fill:#FFFDFD;" d="M-3.479-75.357l-0.475,0.06v1.162c0.167-0.036,0.336-0.076,0.509-0.121v-0.629c0.065-0.005,0.118-0.005,0.16,0.001c0.042,0.006,0.085,0.03,0.129,0.074c0.044,0.043,0.078,0.108,0.1,0.195c0.017,0.067,0.022,0.158,0.026,0.25c0.178-0.049,0.358-0.098,0.54-0.146c-0.02-0.287-0.091-0.518-0.239-0.66C-2.9-75.337-3.15-75.399-3.479-75.357z"></path><path style="fill:#FFFDFD;" d="M-2.112-73.292l0.508-0.064v-1.371c-0.17,0.036-0.339,0.075-0.508,0.118V-73.292z"></path><path style="fill:#FFFDFD;" d="M-2.112-75.531v0.922c0.169-0.042,0.338-0.082,0.508-0.118v-0.869L-2.112-75.531z"></path><path style="fill:#FFFDFD;" d="M-0.599-75.247c0.065-0.005,0.118-0.005,0.16,0.001c0.042,0.005,0.085,0.03,0.129,0.073c0.044,0.043,0.078,0.108,0.1,0.195c0.006,0.025,0.005,0.064,0.01,0.092c0.189,0.003,0.377,0.015,0.561,0.045c-0.016-0.306-0.09-0.546-0.244-0.694c-0.171-0.165-0.421-0.227-0.75-0.185l-0.475,0.061v0.841c0.17-0.026,0.34-0.046,0.509-0.058V-75.247z"></path><path style="fill:#FFFDFD;" d="M-0.2-74.885c0.011,0.071,0.024,0.14,0.024,0.233c0,0.22-0.032,0.381-0.096,0.484c-0.063,0.104-0.173,0.172-0.327,0.205v-0.913c-0.169,0.012-0.339,0.032-0.509,0.058v1.398l0.499-0.063c0.184-0.023,0.351-0.082,0.502-0.176c0.151-0.094,0.27-0.23,0.354-0.409s0.126-0.404,0.126-0.677c0-0.036-0.011-0.06-0.013-0.094C0.177-74.87-0.011-74.882-0.2-74.885z"></path><path style="fill:#FFFDFD;" d="M1.391-75.976v0.512l0.347-0.044v1.285C1.826-74.153,1.915-74.085,2-74c-0.085-0.085-0.174-0.153-0.262-0.223v0.442l0.515-0.065v-1.728l0.351-0.044v-0.512L1.391-75.976z"></path><path style="fill:#FFFDFD;" d="M2.919-76.17l0.509-0.064v0.83l0.451-0.058v-0.83l0.509-0.064v2.239l-0.509,0.064v-0.931l-0.451,0.058v0.931l-0.509,0.064V-76.17z"></path><path style="fill:#FFFDFD;" d="M4.867-76.418l1.028-0.13v0.477l-0.52,0.066v0.412l0.451-0.057v0.465l-0.451,0.057v0.407l0.523-0.066v0.479l-1.032,0.131V-76.418z"></path><path style="fill:#FFFDFD;" d="M-8.958-66.5v-0.962c0.297,0.136,0.546,0.19,0.748,0.165c0.118-0.015,0.21-0.059,0.278-0.132c0.068-0.074,0.102-0.164,0.102-0.271c0-0.082-0.027-0.156-0.082-0.221s-0.149-0.141-0.283-0.227c-0.324-0.206-0.558-0.407-0.704-0.602c-0.145-0.195-0.218-0.423-0.218-0.685c0-0.356,0.112-0.662,0.337-0.915c0.224-0.253,0.515-0.402,0.871-0.448c0.264-0.034,0.526-0.01,0.785,0.07v0.924c-0.278-0.117-0.503-0.165-0.677-0.143c-0.115,0.015-0.207,0.054-0.273,0.12c-0.067,0.065-0.1,0.147-0.1,0.246c0,0.174,0.155,0.349,0.466,0.526c0.186,0.103,0.374,0.26,0.564,0.467c0.19,0.207,0.286,0.464,0.286,0.77c0,0.356-0.125,0.667-0.374,0.933c-0.25,0.265-0.566,0.422-0.949,0.471C-8.441-66.379-8.701-66.409-8.958-66.5z"></path><path style="fill:#FFFDFD;" d="M-6.21-70.898l0.961-0.122v2.906c0,0.136,0.037,0.239,0.109,0.309c0.072,0.071,0.169,0.098,0.291,0.082c0.125-0.016,0.225-0.07,0.298-0.165c0.073-0.093,0.11-0.214,0.11-0.363v-2.872l0.955-0.121v2.708c0,0.369-0.048,0.671-0.145,0.906c-0.097,0.234-0.239,0.417-0.428,0.544c-0.188,0.128-0.452,0.214-0.79,0.256c-0.499,0.063-0.85-0.02-1.055-0.249c-0.204-0.23-0.306-0.649-0.306-1.257V-70.898z"></path><path style="fill:#FFFDFD;" d="M-0.266-69.81c0.031-0.063,0.049-0.127,0.07-0.19c-0.304,0-0.62,0-0.938,0c-0.083,0.159-0.27,0.263-0.57,0.307V-70c-0.338,0-0.658,0-0.937,0v2.775l0.937-0.119v-1.88l0.016-0.002l0.757,1.784l0.989-0.126l-0.748-1.766C-0.503-69.453-0.362-69.611-0.266-69.81z"></path><path style="fill:#FFFDFD;" d="M-1.703-70.673c0.223-0.022,0.382,0.001,0.478,0.072c0.096,0.07,0.144,0.202,0.144,0.393c0,0.079-0.02,0.147-0.052,0.208c0.318,0,0.633,0,0.938,0c0.045-0.136,0.076-0.271,0.076-0.407c0-0.39-0.128-0.682-0.383-0.876c-0.255-0.194-0.604-0.263-1.045-0.207l-1.091,0.139V-70c0.278,0,0.598,0,0.937,0V-70.673z"></path><path style="fill:#FFFDFD;" d="M2.461-72l-0.569,2.268c-0.038,0.148-0.071,0.337-0.102,0.566l-0.012,0.001c-0.036-0.25-0.102-0.551-0.198-0.898l-0.51-1.76l-0.977,0.124L0.633-70C0.764-70,0.89-70,1-70c-0.11,0-0.236,0-0.367,0l0.721,2.268l0.869-0.11l1.24-4.284L2.461-72z"></path><path style="fill:#FFFDFD;" d="M3.967-72.191l1.895-0.241v0.878l-0.959,0.122v0.761l0.832-0.105v0.856l-0.832,0.105v0.751l0.965-0.123v0.881l-1.901,0.242V-72.191z"></path><path style="fill:#FFFDFD;" d="M6.214-72.477l1.051-0.133c0.233,0.564,0.402,1,0.507,1.309l0.012-0.002c0.105-0.343,0.272-0.822,0.501-1.437l1.076-0.137l-1.107,2.4v1.867l-0.949,0.121v-1.867L6.214-72.477z"></path><path style="fill:#FFFDFD;" d="M-4.559-64.585l0.007-0.001c0.021,0.167,0.063,0.348,0.096,0.523c0.159-0.008,0.318-0.02,0.478-0.031l-0.286-1.04l-0.57,0.072l-0.263,1.025c0.148-0.005,0.297-0.008,0.445-0.015C-4.62-64.23-4.581-64.413-4.559-64.585z"></path><path style="fill:#FFFDFD;" d="M-4.456-64.064c0.026,0.136,0.042,0.265,0.075,0.406l-0.347,0.044c0.033-0.151,0.05-0.292,0.076-0.439c-0.148,0.007-0.297,0.01-0.445,0.015l-0.331,1.29l0.519-0.066l0.088-0.385l0.537-0.068l0.085,0.363l0.528-0.067l-0.308-1.123C-4.137-64.084-4.297-64.072-4.456-64.064z"></path><path style="fill:#FFFDFD;" d="M-2.899-65.308l-0.514,0.065v1.108c0.167-0.015,0.335-0.035,0.503-0.053l-0.007-0.15l0.076,0.143c0.169-0.018,0.338-0.033,0.507-0.056L-2.899-65.308z"></path><path style="fill:#FFFDFD;" d="M-3.413-63.003l0.509-0.065v-0.993l-0.006-0.126c-0.167,0.018-0.335,0.039-0.503,0.053V-63.003z"></path><path style="fill:#FFFDFD;" d="M-1.764-65.453l-0.509,0.065v1.05l0.006,0.077c0.168-0.023,0.335-0.053,0.503-0.079V-65.453z"></path><path style="fill:#FFFDFD;" d="M-2.266-64.261l0.013,0.162l-0.081-0.151c-0.169,0.022-0.338,0.037-0.507,0.056l0.557,1.048l0.521-0.066v-1.127C-1.931-64.314-2.099-64.284-2.266-64.261z"></path><path style="fill:#FFFDFD;" d="M-0.363-64.617c0.003,0.039,0.011,0.066,0.011,0.111c0,0.22-0.032,0.381-0.096,0.485c-0.064,0.104-0.173,0.172-0.327,0.205v-0.709c-0.17,0.036-0.339,0.079-0.509,0.11v1.142l0.499-0.063c0.184-0.023,0.351-0.082,0.502-0.176c0.151-0.094,0.27-0.23,0.354-0.409c0.084-0.179,0.126-0.404,0.126-0.677c0-0.061-0.017-0.103-0.022-0.158C-0.003-64.709-0.183-64.661-0.363-64.617z"></path><path style="fill:#FFFDFD;" d="M-0.774-65.102c0.065-0.005,0.118-0.005,0.16,0.001c0.042,0.005,0.085,0.03,0.129,0.074c0.044,0.043,0.078,0.108,0.1,0.195c0.015,0.057,0.017,0.138,0.022,0.214c0.18-0.043,0.36-0.092,0.54-0.141c-0.024-0.271-0.093-0.493-0.235-0.63c-0.171-0.165-0.421-0.227-0.75-0.185l-0.475,0.06v1.097c0.17-0.031,0.339-0.074,0.509-0.11V-65.102z"></path><path style="fill:#FFFDFD;" d="M2.061-65.426l0.007-0.001C2.085-65.291,2.121-65.142,2.146-65c0.159,0,0.318,0,0.477,0l-0.268-0.976l-0.57,0.072L1.554-65c0.144,0,0.288,0,0.433,0C2.01-65.142,2.043-65.288,2.061-65.426z"></path><path style="fill:#FFFDFD;" d="M2.146-65c0.03,0.167,0.051,0.327,0.093,0.502l-0.347,0.044C1.932-64.641,1.956-64.819,1.987-65c-0.144,0-0.288,0-0.433,0l-0.362,1.412l0.519-0.066l0.088-0.385l0.537-0.068l0.085,0.363l0.528-0.067L2.624-65C2.465-65,2.305-65,2.146-65z"></path><path style="fill:#FFFDFD;" d="M3.715-66.148l-0.509,0.064V-65c0.17,0,0.339,0,0.509,0V-66.148z"></path><path style="fill:#FFFDFD;" d="M3.715-64.428V-65c-0.17,0-0.339,0-0.509,0v1.155l0.911-0.116v-0.519L3.715-64.428z"></path><path style="fill:#FFFDFD;" d="M4.461-66.243l0.508-0.065v1.721l0.403-0.051v0.519l-0.911,0.116V-66.243z"></path><path style="fill:#FFFDFD;" d="M-6.6-60.715l0.508-0.065v2.239L-6.6-58.476V-60.715z"></path><path style="fill:#FFFDFD;" d="M-3.212-60.161v0.376c0,0.291-0.07,0.529-0.211,0.712C-3.563-58.889-3.755-58.781-4-58.75c-0.273,0.035-0.483-0.041-0.632-0.228c-0.148-0.187-0.223-0.469-0.223-0.85c0-0.384,0.074-0.684,0.222-0.901c0.148-0.217,0.365-0.344,0.65-0.38c0.319-0.041,0.551,0.101,0.694,0.423l-0.485,0.261c-0.04-0.066-0.078-0.113-0.112-0.142c-0.035-0.028-0.083-0.039-0.143-0.031c-0.103,0.013-0.176,0.076-0.219,0.19c-0.042,0.113-0.064,0.29-0.064,0.532c0,0.225,0.024,0.387,0.073,0.486c0.048,0.101,0.126,0.144,0.232,0.13c0.17-0.021,0.258-0.155,0.264-0.398l-0.236,0.03v-0.435L-3.212-60.161z"></path><path style="fill:#FFFDFD;" d="M-1.848-60c-0.011,0.147-0.029,0.269-0.064,0.337c-0.051,0.099-0.124,0.154-0.219,0.167c-0.088,0.011-0.156-0.026-0.203-0.113c-0.035-0.067-0.053-0.209-0.061-0.39c-0.143,0-0.318,0-0.537,0c0.012,0.338,0.075,0.605,0.203,0.776c0.142,0.189,0.348,0.268,0.619,0.233c0.261-0.033,0.463-0.163,0.604-0.388C-1.402-59.542-1.35-59.758-1.321-60C-1.541-60-1.702-60-1.848-60z"></path><path style="fill:#FFFDFD;" d="M-2.402-60.157c0-0.431,0.091-0.657,0.275-0.68c0.194-0.025,0.292,0.182,0.292,0.618c0,0.086-0.007,0.15-0.012,0.219c0.145,0,0.306,0,0.526,0c0.011-0.092,0.029-0.177,0.029-0.281c0-0.376-0.072-0.656-0.215-0.84c-0.144-0.184-0.351-0.259-0.623-0.225c-0.255,0.032-0.454,0.158-0.596,0.378c-0.143,0.22-0.214,0.511-0.214,0.872c0,0.036,0.009,0.06,0.01,0.095c0.219,0,0.394,0,0.537,0C-2.396-60.053-2.402-60.094-2.402-60.157z"></path><polygon style="fill:#FFFDFD;" points="-1.112,-61.412 -1.112,-60.9 -0.765,-60.944 -0.765,-59.217 -0.25,-59.282 -0.25,-61.01 0.101,-61.055 0.101,-61.566 "></polygon><path style="fill:#FFFDFD;" d="M1.54-61.749l-0.488,0.062L1.222-61c0.16,0,0.317,0,0.483,0L1.54-61.749z"></path><path style="fill:#FFFDFD;" d="M2.897-61l-0.085,0.424l-0.007,0.001L2.718-61c-0.263,0-0.52,0-0.776,0l-0.107,0.564l-0.007,0.001L1.705-61c-0.166,0-0.323,0-0.483,0l0.367,1.484l0.453-0.058l0.211-0.999c0.012-0.059,0.032-0.178,0.061-0.354l0.007-0.001c0.016,0.1,0.035,0.203,0.059,0.309l0.213,0.975l0.46-0.058L3.354-61C3.201-61,3.049-61,2.897-61z"></path><path style="fill:#FFFDFD;" d="M2.54-61.876L2.097-61.82L1.942-61c0.256,0,0.513,0,0.776,0L2.54-61.876z"></path><path style="fill:#FFFDFD;" d="M3.588-62.009l-0.502,0.063L2.897-61c0.152,0,0.304,0,0.457,0L3.588-62.009z"></path><path style="fill:#FFFDFD;" d="M4.447-61.607l0.007,0C4.479-61.414,4.525-61.205,4.566-61c0.167,0,0.33,0,0.494,0l-0.317-1.156l-0.571,0.072L3.894-61c0.15,0,0.299,0,0.448,0C4.379-61.204,4.422-61.41,4.447-61.607z"></path><path style="fill:#FFFDFD;" d="M4.566-61c0.022,0.109,0.033,0.209,0.059,0.322l-0.347,0.044C4.305-60.759,4.319-60.877,4.342-61c-0.148,0-0.298,0-0.448,0l-0.316,1.231l0.519-0.066l0.088-0.385l0.537-0.068l0.086,0.363l0.528-0.067L5.06-61C4.896-61,4.733-61,4.566-61z"></path><path style="fill:#FFFDFD;" d="M6.579-61.2c-0.104-0.112-0.206-0.197-0.306-0.253c-0.169-0.097-0.253-0.191-0.253-0.285c0-0.054,0.018-0.098,0.055-0.134c0.036-0.035,0.086-0.057,0.148-0.064c0.094-0.012,0.216,0.013,0.367,0.077v-0.501c-0.141-0.043-0.283-0.057-0.426-0.039c-0.194,0.024-0.352,0.106-0.474,0.243c-0.122,0.138-0.183,0.303-0.183,0.497c0,0.142,0.04,0.266,0.118,0.372C5.696-61.195,5.81-61.099,5.955-61c0.258,0,0.504,0,0.742,0C6.671-61.074,6.633-61.141,6.579-61.2z"></path><path style="fill:#FFFDFD;" d="M5.955-61c0.019,0.013,0.032,0.026,0.053,0.039c0.073,0.047,0.124,0.088,0.154,0.123c0.029,0.036,0.044,0.076,0.044,0.121c0,0.058-0.019,0.107-0.055,0.146c-0.037,0.04-0.087,0.064-0.151,0.072c-0.109,0.014-0.245-0.016-0.406-0.089v0.521c0.14,0.05,0.281,0.065,0.423,0.047c0.208-0.026,0.38-0.111,0.515-0.256c0.135-0.144,0.203-0.312,0.203-0.506c0-0.079-0.013-0.151-0.037-0.218C6.459-61,6.213-61,5.955-61z"></path><path style="fill:#FFFDFD;" d="M-7.061-56.534l1.213-0.154v0.512l-0.351,0.044v1.728l-0.515,0.065v-1.728l-0.348,0.044V-56.534z"></path><path style="fill:#FFFDFD;" d="M-5.533-56.729l0.509-0.064v0.83l0.451-0.058v-0.83l0.509-0.064v2.239l-0.509,0.064v-0.931l-0.451,0.058v0.931l-0.509,0.064V-56.729z"></path><path style="fill:#FFFDFD;" d="M-3.566-56.978l0.508-0.065v2.239l-0.508,0.065V-56.978z"></path><path style="fill:#FFFDFD;" d="M-2.562-54.909v-0.521c0.162,0.073,0.296,0.103,0.406,0.089c0.063-0.008,0.114-0.032,0.151-0.072c0.037-0.04,0.055-0.089,0.055-0.146c0-0.045-0.015-0.085-0.044-0.121c-0.03-0.035-0.081-0.077-0.154-0.123c-0.176-0.112-0.303-0.221-0.381-0.326c-0.079-0.106-0.118-0.23-0.118-0.372c0-0.193,0.061-0.359,0.183-0.497c0.122-0.137,0.279-0.218,0.473-0.243c0.143-0.019,0.285-0.005,0.426,0.039v0.501c-0.151-0.064-0.273-0.089-0.367-0.078c-0.062,0.008-0.112,0.03-0.148,0.065c-0.037,0.036-0.055,0.08-0.055,0.134c0,0.094,0.084,0.188,0.253,0.285c0.101,0.057,0.203,0.142,0.306,0.253c0.104,0.113,0.155,0.252,0.155,0.417c0,0.193-0.067,0.362-0.203,0.506c-0.135,0.144-0.307,0.229-0.515,0.256C-2.281-54.844-2.422-54.859-2.562-54.909z"></path><path style="fill:#FFFDFD;" d="M-0.215-55.207v-0.521c0.161,0.073,0.296,0.103,0.406,0.089c0.064-0.008,0.114-0.032,0.151-0.072c0.037-0.04,0.055-0.089,0.055-0.147c0-0.045-0.014-0.085-0.044-0.12S0.272-56.055,0.2-56.101c-0.176-0.113-0.303-0.222-0.382-0.327c-0.079-0.106-0.118-0.23-0.118-0.372c0-0.193,0.061-0.359,0.183-0.497c0.122-0.137,0.279-0.218,0.473-0.243c0.143-0.018,0.285-0.005,0.426,0.039V-57c-0.15-0.063-0.273-0.089-0.367-0.077c-0.062,0.008-0.112,0.03-0.148,0.064c-0.037,0.036-0.055,0.081-0.055,0.134c0,0.094,0.084,0.188,0.253,0.285c0.101,0.056,0.203,0.141,0.306,0.253c0.104,0.113,0.155,0.253,0.155,0.418c0,0.193-0.067,0.362-0.203,0.506c-0.135,0.144-0.307,0.229-0.515,0.256C0.066-55.142-0.075-55.157-0.215-55.207z"></path><path style="fill:#FFFDFD;" d="M1.29-57.595l0.508-0.064v0.83l0.451-0.058v-0.83l0.509-0.064v2.239L2.25-55.478v-0.931l-0.451,0.058v0.931L1.29-55.356V-57.595z"></path><polygon style="fill:#FFFDFD;" points="3.256,-55.606 3.765,-55.67 3.765,-57.91 3.256,-57.845 "></polygon><path style="fill:#FFFDFD;" d="M5.55-57.136c0.003-0.005,0.001-0.011,0.004-0.016c-0.157-0.054-0.307-0.115-0.458-0.175c-0.014,0.135-0.116,0.223-0.325,0.254v-0.384c-0.179-0.081-0.345-0.176-0.509-0.273v1.997l0.509-0.064v-1.02l0.008-0.001l0.411,0.968l0.537-0.068L5.32-56.877C5.42-56.942,5.498-57.028,5.55-57.136z"></path><path style="fill:#FFFDFD;" d="M4.77-57.604c0.121-0.013,0.207,0.001,0.259,0.039c0.052,0.039,0.078,0.109,0.078,0.213c0,0.011-0.011,0.016-0.012,0.026c0.151,0.06,0.301,0.121,0.458,0.175c0.048-0.102,0.075-0.206,0.075-0.309c0-0.211-0.069-0.369-0.208-0.475c-0.139-0.105-0.328-0.143-0.567-0.112l-0.592,0.075v0.243c0.164,0.097,0.329,0.192,0.509,0.273V-57.604z"></path><path style="fill:#FFFDFD;" d="M6.707-57.771l0.351-0.045v-0.512l-1.213,0.154v0.512l0.347-0.044v0.755c0.172,0.051,0.342,0.104,0.515,0.154V-57.771z"></path><path style="fill:#FFFDFD;" d="M6.192-56.951v0.973l0.515-0.065v-0.754C6.534-56.847,6.364-56.9,6.192-56.951z"></path></g><path style="fill-opacity:0.32;" d="M-1.321-43.101c0,0,4.742-9.81,6.582-18.647c-0.072,0.344,0.071,0.854,0.094,1.202c0.328,5.056,0.507,11.048-3.306,14.929C1.094-44.643,0.107-43.367-1.321-43.101z"></path></g><!---0033-00880002600035--><g><path style="fill:#262626;" d="M-10.484-79.822c-0.126-0.584-0.284-1.166-0.539-1.707c-0.44-0.937-1.17-1.735-2.064-2.257c-0.523-0.306-1.119-0.521-1.724-0.486c-1.31,0.075-2.722,1.235-3.686,2.055c-1.053,0.897-1.923,1.998-2.59,3.208c-0.624,1.134-1.208,2.289-1.756,3.461c-2.279,4.87-4.254,9.855-6.715,14.646c1.776,2.412,5.214,3.865,8.028,4.61c2.499,0.662,5.161,0.773,7.675,0.173c0.146-0.035,0.394-2.069,0.44-2.307c0.15-0.77,0.292-1.542,0.444-2.312c0.327-1.661,0.65-3.323,0.967-4.986c0.456-2.393,0.902-4.788,1.336-7.185c0.203-1.117,0.531-2.286,0.568-3.415C-10.059-77.496-10.269-78.675-10.484-79.822z"></path><path style="fill:#141414;" d="M-11.627-67.848c-0.035-0.7-0.081-1.405-0.266-2.082c-0.577-2.109-2.344-3.517-4.061-4.87c0.618,1.674,1.239,3.354,2.071,4.933c0.272,0.516,0.57,1.029,0.698,1.598c0.247,1.097-0.198,2.187-0.405,3.242c-0.236,1.204-0.574,2.396-0.86,3.589c-0.451,1.88-0.901,3.76-1.352,5.639c0.655-0.063,1.306-0.169,1.947-0.322c0.146-0.035,0.394-2.069,0.44-2.307c0.15-0.77,0.292-1.542,0.444-2.312c0.327-1.661,0.65-3.323,0.967-4.986c0.129-0.678,0.251-1.358,0.379-2.037C-11.625-67.79-11.625-67.819-11.627-67.848z"></path><path style="fill:#141414;" d="M-23.407-74.304c-0.179,0.393-0.358,0.786-0.535,1.179c2.657,3.79,7.137,6.326,12.057,6.767c0.069-0.361,0.134-0.724,0.202-1.085C-16.56-67.847-20.979-70.445-23.407-74.304z"></path><path d="M-13.118-67.643c0.006,0.366-0.041,0.73-0.116,1.092c0.447,0.076,0.893,0.153,1.349,0.194c0.019-0.101,0.038-0.203,0.057-0.304c0.048-0.26,0.097-0.521,0.145-0.781C-12.168-67.482-12.644-67.56-13.118-67.643z"></path></g></svg>
