<?xml version="1.0" encoding="UTF-8" standalone="no"?>
<svg xmlns="http://www.w3.org/2000/svg" viewBox="-24.64761734008789 -84.97200012207031 38.07938766479492 31.680500030517578" width="100%" height="100%"><!---0002-00880001700027-->
<g><path style="fill:#E6BBA8;" d="M2.22-77.312c-0.934-2.642-1.617-5.436,0.437-6.625c1.494-0.863,3.635,0.781,3.956,2.312C7.396-77.907,14.756-63.998,9.408-64C6.371-64.001,3.868-72.649,2.22-77.312z"></path><path style="fill:#B37E78;fill-opacity:0.5;" d="M2.22-77.312c0.677,1.915,1.499,4.497,2.442,6.881c1.873-1.604,2.198-4.739,1.832-7.359c-0.152-1.087-0.524-2.264-1.121-3.244c-0.781-1.28-1.952-2.211-3.517-2.182C0.843-81.82,1.442-79.515,2.22-77.312z"></path></g><!---0003-00770002000013--><g><path style="fill:#AAABAD;" d="M11.333-72.792c0.088,0.583,0.192,1.202,0.28,1.784c0.653,0.16,1.166,1.007,1.803,1.757c0.117,0.962-0.479,1.543-1.158,2.089c-0.337,0.271-0.58,0.454-1.014,0.434c-0.449-0.021-0.897-0.073-1.341-0.144c-0.892-0.143-1.769-0.365-2.644-0.587c-1.03-0.261-2.069-0.526-3.019-1.002c-1.355-0.679-2.464-1.754-3.549-2.812c-0.285-0.278-0.947-1.053-0.238-1.272c0.552-0.17,1.247,0.361,1.769,0.492c0.846,0.212,1.719,0.317,2.591,0.319C6.335-71.731,8-71.945,9.117-73.075c0.03-0.031,0.06-0.062,0.089-0.093c0.097-0.105,0.19-0.217,0.309-0.296c0.278-0.185,0.703-0.052,0.983,0.075C10.809-73.25,11.103-73.042,11.333-72.792z"></path><path style="fill:#909193;" d="M11.613-71.007c-0.019,0.41-0.196,0.758-0.47,1.068c-1.474,0.11-2.958,0.025-4.41-0.251c0.166,0.032,0.413,0.281,0.564,0.371c0.217,0.129,0.441,0.246,0.671,0.351c0.455,0.208,0.932,0.368,1.421,0.476c0.472,0.104,0.967,0.171,1.451,0.163c0.282-0.005,0.57-0.001,0.847-0.057c0.326-0.066,0.447-0.127,0.524-0.452L11.613-71.007z"></path><path style="fill:#909193;" d="M13.417-69.25c-0.168-0.198-0.328-0.402-0.483-0.599c0.021,0.215,0.036,0.431,0.009,0.645c-0.035,0.271-0.14,0.541-0.342,0.725c-0.849,0.773-2.357,0.27-3.334,0.079c-2.068-0.404-4.204-0.865-6.107-1.797c-0.989-0.482-1.948-0.892-2.841-1.523c0.119,0.181,0.27,0.347,0.374,0.447c1.085,1.058,2.194,2.133,3.549,2.812c0.95,0.476,1.989,0.741,3.019,1.002c0.875,0.222,1.752,0.444,2.644,0.587c0.444,0.071,0.891,0.123,1.341,0.144c0.434,0.021,0.677-0.162,1.014-0.434C12.938-67.707,13.534-68.288,13.417-69.25z"></path><path style="fill:#D8D8D8;" d="M9-72.236c0.641-0.288,1.184-0.703,1.58-1.107c-0.028-0.014-0.053-0.034-0.081-0.047c-0.281-0.126-0.705-0.26-0.983-0.075c-0.119,0.079-0.212,0.191-0.309,0.296c-0.029,0.032-0.059,0.063-0.089,0.093C8-71.945,6.335-71.731,4.814-71.733c-0.872-0.002-1.745-0.107-2.591-0.319c-0.501-0.125-1.159-0.612-1.698-0.503c0.525,0.576,1.32,0.864,2.098,1.01c0.029,0.005,0.058,0.011,0.088,0.016c0.574,0.103,1.156,0.154,1.739,0.154C5.921-71.374,7.659-71.634,9-72.236z"></path></g><!---0022-00880003400038--><g><path style="fill:#F4D5BF;" d="M-1.469-58.658c0.1-0.195,0.217-0.377,0.355-0.518c0.092-0.094,0.21-0.168,0.34-0.182c0.37-0.039,0.573,0.29,0.698,0.588c0.175,0.417,0.309,0.824,0.401,1.274c0.203,0.997,0.241,2.032,0.067,3.037c-0.045,0.259-0.106,0.52-0.238,0.746c-0.259,0.444-0.841,0.567-1.25,0.225c-0.24-0.201-0.375-0.5-0.483-0.794c-0.258-0.7-0.409-1.444-0.413-2.191c-0.002-0.481,0.068-0.963,0.217-1.421C-1.698-58.132-1.598-58.406-1.469-58.658z"></path><path style="fill:#E6BBA8;" d="M-1.109-54.916c-0.145-0.5-0.215-1.04-0.126-1.556c0.059-0.34,0.184-0.688,0.299-1.013c0.034-0.097,0.438-0.895,0.419-0.92c0.201,0.266,0.369,0.558,0.498,0.866c0.074,0.176,0.135,0.362,0.132,0.553c-0.004,0.191-0.083,0.388-0.242,0.494c0.184,0.303,0.152,0.722-0.058,1.007c-0.095,0.129-0.224,0.234-0.289,0.381c-0.093,0.209-0.022,0.467-0.005,0.687c0.024,0.314,0.025,0.59,0.112,0.902C-0.686-53.917-0.967-54.426-1.109-54.916z"></path><path style="fill:#F4D5BF;" d="M7.272-71.94c-2.506,0.95-5.079,1.712-7.648,2.472c-1.386,0.41-2.778,0.821-4.208,1.028c-1.43,0.207-2.708,0.582-4.047,0.04c-1.736-0.703-2.385-2.585-2.146-4.33c0.197-1.441,0.746-2.855,1.628-4.017c1.519-2.001,4.173-2.973,6.604-2.279c0.231,0.066,0.458,0.145,0.68,0.238c0.273,0.114,0.549,0.295,0.785,0.471c0.621-0.983,1.612-1.727,2.73-2.048c0.837-0.24,2.182-0.307,2.97,0.13c0.764,0.423,0.752,1.28,1.137,2.025c0.217,0.42,0.474,0.821,0.803,1.161c0.789,0.813,1.809,1.528,2.15,2.688c0.144,0.49-0.172,1.112-0.509,1.496C7.862-72.48,7.75-72.122,7.272-71.94z"></path><path style="fill:#E6BBA8;" d="M-8.632-68.4c1.34,0.542,2.617,0.167,4.047-0.04c1.43-0.207,2.822-0.618,4.208-1.028c0.615-0.182,1.231-0.364,1.845-0.549c0.023-0.067,0.06-0.128,0.079-0.197c0.042-0.154,0.074-0.321,0.018-0.47c-0.264-0.704-1.569,0.197-1.942,0.333c-0.827,0.302-1.693,0.478-2.548,0.684c-1.091,0.263-2.266,0.165-3.298-0.276s-2.067-1.027-2.445-2.084c-0.641-1.791-0.349-3.62,0.447-5.347c-0.308,0.233-0.599,0.487-0.869,0.764c-0.257,0.264-0.522,0.55-0.709,0.87c-0.398,0.681-0.664,1.466-0.839,2.233c-0.059,0.257-0.106,0.517-0.142,0.778C-11.017-70.986-10.367-69.103-8.632-68.4z"></path><path style="fill:#B37E78;fill-opacity:0.5;" d="M-7.248-68.126c-1.725-1.453-2.977-3.497-3.303-5.715c-0.098,0.366-0.175,0.737-0.226,1.11c-0.239,1.745,0.41,3.628,2.146,4.33C-8.166-68.212-7.708-68.139-7.248-68.126z"></path><path style="fill:#E6BBA8;" d="M1.096-74.567C1-75.196,1.027-75.859,1.115-76.489c0.039-0.277,0.072-0.705-0.286-0.785c-0.22-0.049-0.474-0.025-0.689,0.037c-0.355,0.102-0.655,0.347-0.93,0.584C-0.392-75.788,0.324-75.125,1.096-74.567z"></path><path style="fill:#FCFCFC;fill-opacity:0.28;" d="M6.03-74.814c-0.198-0.44-0.727-0.703-1.197-0.594c-0.47,0.109-0.83,0.577-0.814,1.06c0.308-0.211,0.665-0.235,1.038-0.253S5.735-74.585,6.03-74.814z"></path><path style="fill:#FCFCFC;fill-opacity:0.28;" d="M-4.333-74.108c-0.059-0.31,0.094-0.643,0.354-0.822c0.26-0.179,0.61-0.206,0.906-0.096s0.535,0.35,0.673,0.634C-2.99-74.243-3.724-74.097-4.333-74.108z"></path><path style="fill:#FCFCFC;fill-opacity:0.28;" d="M-3.826-75.347c0.147-0.194-0.071-0.454-0.157-0.632c-0.083-0.173-0.205-0.432-0.415-0.475c-0.125-0.026-0.283,0.041-0.359,0.143c-0.076,0.103-0.029,0.179,0.023,0.307c0.108,0.261,0.27,0.499,0.473,0.694C-4.144-75.2-3.95-75.212-3.826-75.347z"></path><path style="fill:#FCFCFC;fill-opacity:0.28;" d="M4.24-75.569c0.232,0.158,0.553,0.028,0.52-0.259c-0.033-0.276-0.252-0.468-0.432-0.652c-0.095-0.098-0.2-0.193-0.331-0.234c-0.13-0.04-0.292-0.01-0.367,0.104c-0.057,0.085-0.053,0.2-0.017,0.296c0.036,0.096,0.102,0.177,0.166,0.257C3.91-75.893,4.067-75.687,4.24-75.569z"></path><path style="fill:#FCFCFC;" d="M-3.886-75.63c-0.027,0.09-0.08,0.171-0.149,0.234c-0.059,0.053-0.167,0.137-0.247,0.078c-0.058-0.043-0.039-0.125-0.015-0.182c0.041-0.094,0.103-0.179,0.18-0.247c0.059-0.053,0.156-0.093,0.212-0.037C-3.866-75.746-3.87-75.682-3.886-75.63z"></path><path style="fill:#FCFCFC;" d="M4.609-75.984c-0.027,0.09-0.08,0.171-0.149,0.234c-0.059,0.053-0.167,0.137-0.247,0.078c-0.058-0.043-0.039-0.125-0.015-0.182c0.041-0.094,0.103-0.179,0.18-0.247c0.059-0.053,0.156-0.093,0.212-0.037C4.629-76.101,4.625-76.037,4.609-75.984z"></path><path style="fill:#B37E78;fill-opacity:0.5;" d="M-1.031-77.48c0.169,1.066,0.996,1.749,1.757,2.438c0.79,0.763,1.244,1.802,1.491,2.854l-0.739,0.126c-0.107-0.972-0.403-1.957-1.025-2.723C-0.209-75.538-1.005-76.413-1.031-77.48L-1.031-77.48z"></path><path style="fill:#B37E78;fill-opacity:0.5;" d="M-0.089-57.07c-0.111-0.111-0.257-0.195-0.414-0.198c-0.297-0.007-0.324,0.181-0.08,0.31c0.193,0.102,0.347,0.256,0.493,0.418c0.087-0.077,0.14-0.178,0.168-0.293C0.026-56.915-0.021-57.001-0.089-57.07z"></path><path style="fill:#B37E78;fill-opacity:0.5;" d="M-0.855-55.039c-0.365,0.027-0.307-0.492-0.198-0.698c0.123-0.233,0.377-0.437,0.648-0.41c0.064,0.006,0.13,0.027,0.175,0.073c0.065,0.066,0.074,0.169,0.061,0.261c-0.033,0.237-0.181,0.444-0.358,0.604C-0.621-55.125-0.73-55.048-0.855-55.039z"></path><path style="fill:#FCFCFC;fill-opacity:0.28;" d="M-0.246-55.252c0.083-0.111,0.166-0.222,0.248-0.333c0.035-0.047,0.077-0.098,0.135-0.104c0.077-0.008,0.137,0.069,0.16,0.143c0.062,0.2-0.025,0.412-0.111,0.603c-0.078,0.172-0.247,0.429-0.473,0.302C-0.526-54.777-0.363-55.095-0.246-55.252z"></path><path style="fill:#E6BBA8;" d="M-11.573-63.802c-0.921-0.937-1.766-1.956-2.474-3.064c-0.512-0.802-0.896-1.654-1.406-2.458c-0.537-0.848-1.016-1.731-1.436-2.643c-0.496-1.079-0.908-2.198-1.229-3.341c-0.622-2.217-0.511-4.601,0.871-6.52c0.908-1.262,2.288-1.887,3.996-2.637c-0.259,0.065-0.795,0.473-0.992,0.646c-0.252,0.222-0.484,0.466-0.694,0.729c-0.827,1.033-1.039,2.474-0.929,3.757c0.064,0.745,0.181,1.486,0.338,2.217c0.634,2.939,1.909,5.682,3.08,8.435c0.392,0.922,0.775,1.849,1.12,2.789C-11.106-65.289-11.426-64.427-11.573-63.802z"></path><path style="fill:#E6BBA8;" d="M5.639-78.507c-0.519-1.257-0.758-2.862-1.549-3.965c-0.749-1.044-1.319-2.014-4.25-2.5c0.691,0.107,2.725,0.154,3.403,0.325c0.711,0.179,1.44,0.408,1.974,0.91c0.623,0.585,0.89,1.472,0.901,2.326C6.13-80.557,5.854-79.334,5.639-78.507z"></path></g><!---0019-00780003200022--><g><path style="fill:#CDCED1;" d="M2.34-61.985c0.279,0.348,0.652,0.619,1.069,0.776C3.492-62.21,3.824-63.3,4.271-64.2c-0.123-0.206-0.366-0.364-0.586-0.459C3.178-63.774,2.752-62.917,2.34-61.985z"></path><path style="fill:#FFFFFF;" d="M-12.392-61.155c2.962,0.715,6.087,0.746,9.062,0.088c-1.073-0.927-2.18-1.985-3.254-2.912c-1.82,0.324-3.707,0.346-5.5-0.104C-12.051-63.099-12.131-62.104-12.392-61.155z"></path><path style="fill:#CDCED1;" d="M-3.418-61.146c-1.046-0.909-2.121-1.931-3.165-2.833c-1.82,0.324-3.707,0.346-5.5-0.104c0.033,0.984-0.048,1.979-0.308,2.929c1.276,0.308,2.583,0.481,3.894,0.535c0.123-0.655,0.202-1.339,0.248-1.963c1.551,0.579,3.088,1.171,4.728,1.445C-3.474-61.131-3.45-61.142-3.418-61.146z"></path><path style="fill:#FFFFFF;" d="M-10.639-70.361c-0.81,0.758-1.577,1.131-2.669,1.349c-0.772,0.154-1.557,0.065-2.337,0.069c0.297,1.238,0.812,2.422,1.515,3.483c2.377,0.031,4.764,0.597,6.864,1.712c2.1,1.114,3.582,2.481,4.94,4.432c0.1,0.143,1.245,0.33,1.41,0.323c0.377-0.016,0.752-0.074,1.119-0.164c0.603-0.149,1.422-0.366,1.85-0.846c0.1-0.113,0.094-0.632,0.132-0.796c0.065-0.282,0.148-0.56,0.246-0.832c0.184-0.512,0.412-1.022,0.691-1.488c0.419-0.7,0.897-1.36,1.324-2.054c0.369-0.6,1.035-1.289,0.913-2.048c1.055,0.081,2.176-0.371,2.923-1.121c0.747-0.75,1.179-1.788,1.262-2.843c0.083-1.055-0.169-2.124-0.645-3.069c-0.814-0.599-2.56-0.735-3.829-0.474s-2.366,0.851-3.235,1.812c-1.911-1.365-4.352-1.753-6.633-1.193S-9-72-10.639-70.361z"></path><path style="fill:#CDCED1;" d="M-8.826-64.452c-1.054-1.737-1.76-3.675-2.091-5.68c-0.713,0.596-1.425,0.927-2.392,1.119c-0.772,0.154-1.557,0.065-2.337,0.07c0.297,1.238,0.812,2.422,1.515,3.483C-12.324-65.436-10.513-65.1-8.826-64.452z"></path><path style="fill:#A1A2A4;" d="M-15.645-68.943c0.297,1.238,0.812,2.422,1.515,3.483c0.52,0.007,1.04,0.05,1.558,0.108c-0.501-1.159-0.873-2.372-1.093-3.615C-14.322-68.892-14.985-68.947-15.645-68.943z"></path><path style="fill:#C8C9CC;" d="M8.897-74.255c-0.105-0.077-0.225-0.146-0.358-0.208l0,0c0.498,1.473,0.335,3.604-1.232,4.258c-2.316,0.965-4.646-0.589-7.002-0.249c-1.255,0.181-2.472,0.568-3.726,0.757c-1.156,0.174-2.604,0.223-3.648-0.406c-0.731-0.44-1.281-1.2-1.629-1.997c0,0,0,0,0,0c0.004,0.009-0.1,0.091-0.24,0.197c-0.468,0.379-0.916,0.782-1.346,1.196c-0.095,0.179-0.13,0.377-0.06,0.63c0.316,1.138,1.376,2.183,2.363,2.764c1.145,0.674,2.555,0.738,3.871,0.557c1.316-0.181,2.592-0.586,3.905-0.789c1.591-0.246,3.228-0.188,4.798,0.166c0.658,0.148,1.31,0.162,1.924,0.022c0.05-0.013,0.099-0.025,0.149-0.041c0.109-0.03,0.218-0.062,0.325-0.102c0.218-0.089,0.429-0.196,0.628-0.321c0.026-0.016,0.051-0.033,0.077-0.05c0.211-0.14,0.41-0.296,0.585-0.472c0.747-0.75,1.179-1.788,1.262-2.843C9.626-72.241,9.374-73.309,8.897-74.255z"></path><path style="fill:#C8C9CC;" d="M5.357-67.53c-0.208-0.142-0.467-0.287-0.699-0.188c-0.162,0.069-0.254,0.237-0.335,0.393c-0.456,0.883-1.053,1.822-1.509,2.705c0.317,0.181,0.578,0.442,0.799,0.732c0.28-0.426,0.564-0.85,0.831-1.285c0.369-0.6,1.035-1.289,0.913-2.048c0.103,0.008,0.207-0.012,0.311-0.014C5.588-67.353,5.476-67.448,5.357-67.53z"></path><path style="fill:#A1A2A4;" d="M4.132-66.396c0.35,0.044,0.702,0.059,1.055,0.062c0.136-0.281,0.218-0.574,0.171-0.879c-0.262-0.021-0.523-0.052-0.781-0.105C4.529-66.985,4.352-66.652,4.132-66.396z"></path><path style="fill:#9D9FAD;" d="M5.068-74.729c-1.269,0.26-2.366,0.851-3.235,1.812c-1.911-1.365-4.352-1.753-6.633-1.193c-0.858,0.211-1.665,0.562-2.426,1.005c-0.151,1.2-0.143,2.466,0.308,3.583c0.472,1.169,1.5,2.479,2.384,2.905c0.032,0.015,0.054,0.869,0.073,0.97c0.059,0.324,0.151,0.656,0.295,0.954c0.278,0.575,0.674,1.095,0.956,1.674c0.587,1.205,0.985,2.502,1.17,3.829c0.173,0.039,0.366,0.17,0.539,0.209c0.025,0.006,0.053,0.003,0.078,0.008c0.216-0.003,0.429-0.018,0.505-0.022c0.377-0.016,0.752-0.074,1.119-0.164c0.407-0.101,0.906-0.24,1.323-0.462c0.029-0.161,0.037-0.536,0.046-0.603c0.037-0.261,0.085-0.52,0.142-0.777c0.106-0.477,0.237-0.95,0.409-1.407c0.25-0.664,0.516-1.323,0.839-1.956c0.517-1.013,1.51-1.701,1.72-2.867c1.547-0.291,2.654-1.546,3.006-3.062c0.335-1.444-0.009-3.409-0.982-4.554C6.143-74.87,5.569-74.832,5.068-74.729z"></path><path style="fill:#9D9FAD;" d="M5.068-74.729c-1.269,0.26-2.366,0.851-3.235,1.812c-1.911-1.365-4.352-1.753-6.633-1.193c-0.858,0.211-1.665,0.562-2.426,1.005c-0.151,1.2-0.143,2.466,0.308,3.583c0.472,1.169,1.5,2.479,2.384,2.905c0.032,0.015,0.054,0.869,0.073,0.97c0.059,0.324,0.151,0.656,0.295,0.954c0.278,0.575,0.674,1.095,0.956,1.674c0.587,1.205,0.985,2.502,1.17,3.829c0.173,0.039,0.366,0.17,0.539,0.209c0.025,0.006,0.053,0.003,0.078,0.008c0.216-0.003,0.429-0.018,0.505-0.022c0.377-0.016,0.752-0.074,1.119-0.164c0.407-0.101,0.906-0.24,1.323-0.462c0.029-0.161,0.037-0.536,0.046-0.603c0.037-0.261,0.085-0.52,0.142-0.777c0.106-0.477,0.237-0.95,0.409-1.407c0.25-0.664,0.516-1.323,0.839-1.956c0.517-1.013,1.51-1.701,1.72-2.867c1.547-0.291,2.654-1.546,3.006-3.062c0.335-1.444-0.009-3.409-0.982-4.554C6.143-74.87,5.569-74.832,5.068-74.729z"></path><path style="fill:#9D9FAD;" d="M5.068-74.729c-1.269,0.26-2.366,0.851-3.235,1.812c-1.911-1.365-4.352-1.753-6.633-1.193c-0.858,0.211-1.665,0.562-2.426,1.005c-0.151,1.2-0.143,2.466,0.308,3.583c0.472,1.169,1.5,2.479,2.384,2.905c0.032,0.015,0.054,0.869,0.073,0.97c0.059,0.324,0.151,0.656,0.295,0.954c0.278,0.575,0.674,1.095,0.956,1.674c0.587,1.205,0.985,2.502,1.17,3.829c0.173,0.039,0.366,0.17,0.539,0.209c0.025,0.006,0.053,0.003,0.078,0.008c0.216-0.003,0.429-0.018,0.505-0.022c0.377-0.016,0.752-0.074,1.119-0.164c0.407-0.101,0.906-0.24,1.323-0.462c0.029-0.161,0.037-0.536,0.046-0.603c0.037-0.261,0.085-0.52,0.142-0.777c0.106-0.477,0.237-0.95,0.409-1.407c0.25-0.664,0.516-1.323,0.839-1.956c0.517-1.013,1.51-1.701,1.72-2.867c1.547-0.291,2.654-1.546,3.006-3.062c0.335-1.444-0.009-3.409-0.982-4.554C6.143-74.87,5.569-74.832,5.068-74.729z"></path><path style="fill:#9D9FAD;" d="M5.068-74.729c-1.269,0.26-2.366,0.851-3.235,1.812c-1.911-1.365-4.352-1.753-6.633-1.193c-0.858,0.211-1.665,0.562-2.426,1.005c-0.151,1.2-0.143,2.466,0.308,3.583c0.472,1.169,1.5,2.479,2.384,2.905c0.032,0.015,0.054,0.869,0.073,0.97c0.059,0.324,0.151,0.656,0.295,0.954c0.278,0.575,0.674,1.095,0.956,1.674c0.587,1.205,0.985,2.502,1.17,3.829c0.173,0.039,0.366,0.17,0.539,0.209c0.025,0.006,0.053,0.003,0.078,0.008c0.216-0.003,0.429-0.018,0.505-0.022c0.377-0.016,0.752-0.074,1.119-0.164c0.407-0.101,0.906-0.24,1.323-0.462c0.029-0.161,0.037-0.536,0.046-0.603c0.037-0.261,0.085-0.52,0.142-0.777c0.106-0.477,0.237-0.95,0.409-1.407c0.25-0.664,0.516-1.323,0.839-1.956c0.517-1.013,1.51-1.701,1.72-2.867c1.547-0.291,2.654-1.546,3.006-3.062c0.335-1.444-0.009-3.409-0.982-4.554C6.143-74.87,5.569-74.832,5.068-74.729z"></path><path style="fill:#7D808C;" d="M-2.306-61.989c-0.196-0.484-0.421-0.957-0.678-1.412c-0.25-0.442-0.556-0.851-0.754-1.321c-0.132-0.314-0.238-0.641-0.286-0.979C-4.039-65.812-3.977-66.649-4-66.667c-1.315-1.016-2.408-2.563-2.63-4.231c-0.107-0.805-0.192-1.624-0.136-2.437c-0.152,0.079-0.31,0.144-0.459,0.23c-0.151,1.2-0.143,2.466,0.308,3.583c0.472,1.169,1.5,2.479,2.384,2.905c0.032,0.015,0.054,0.869,0.073,0.97c0.059,0.324,0.151,0.656,0.295,0.954c0.278,0.575,0.674,1.095,0.956,1.674c0.587,1.205,0.985,2.502,1.17,3.829c0.152,0.034,0.319,0.133,0.475,0.184c0.01,0.001,0.016,0.007,0.025,0.01c0.012,0.004,0.026,0.012,0.038,0.015c0.014,0.003,0.028,0.003,0.042,0.004C-1.638-60.005-1.913-61.02-2.306-61.989z"></path><path style="fill:#A1A2A4;" d="M-5.475-66.73c0.208,0.021,0.44-0.037,0.643-0.004c-1.233-0.205-2.322-1.108-3.159-1.989c-0.045-0.047-0.089-0.095-0.133-0.143c-0.637-0.703-1.225-1.474-1.628-2.337c-0.284,0.258-0.563,0.521-0.832,0.788c0.296,0.862,0.904,1.674,1.495,2.256c0.66,0.649,1.479,1.186,2.402,1.354C-6.28-66.73-5.886-66.772-5.475-66.73z"></path><path style="fill:#7D808C;" d="M7.702-70.376c-0.866,0.606-2.062,0.581-3.128,0.443c-1.144-0.147-2.266-0.498-3.419-0.496c-1.009,0.001-1.915,0.282-2.88,0.536c-1.029,0.27-2.189,0.6-3.254,0.495c-0.729-0.072-1.441-0.29-2.089-0.629c0.048,0.17,0.086,0.343,0.153,0.507c0.381,0.943,1.124,1.971,1.862,2.56c0.201,0.14,0.407,0.274,0.618,0.395c2.613-0.068,5.392,0.396,7.463,2.095c0.53-0.953,1.454-1.636,1.656-2.759c1.155-0.217,2.063-0.972,2.596-1.971c0.006-0.011,0.011-0.021,0.017-0.032c0.173-0.33,0.306-0.686,0.392-1.059C7.694-70.319,7.696-70.349,7.702-70.376z"></path><path style="fill:#545761;" d="M4.53-67.32c-0.34-0.065-0.623-0.202-0.951-0.295c-0.706-0.2-1.45-0.294-2.182-0.215c0.903-0.261,1.833-0.472,2.77-0.549c-0.737-0.101-1.52-0.198-2.264-0.08c-0.708,0.111-1.279,0.337-1.917,0.662c-0.692,0.352-1.423,0.667-2.169,0.893c0.092-0.028,0.299,0.047,0.398,0.059c0.139,0.017,0.279,0.029,0.419,0.039c0.283,0.02,0.567,0.028,0.851,0.035c0.303,0.008,0.598,0.038,0.892,0.078c0.41,0.055,0.816,0.127,1.232,0.18c0.766,0.096,1.539,0.125,2.31,0.154c0.144,0.005,0.285,0.008,0.426,0.013c0.154-0.27,0.279-0.557,0.337-0.885c0.057-0.011,0.11-0.032,0.166-0.045C4.726-67.289,4.612-67.304,4.53-67.32z"></path><path style="fill:#545761;" d="M4.53-67.32c-0.34-0.065-0.623-0.202-0.951-0.295c-0.706-0.2-1.45-0.294-2.182-0.215c0.903-0.261,1.833-0.472,2.77-0.549c-0.737-0.101-1.52-0.198-2.264-0.08c-0.708,0.111-1.279,0.337-1.917,0.662c-0.692,0.352-1.423,0.667-2.169,0.893c0.092-0.028,0.299,0.047,0.398,0.059c0.139,0.017,0.279,0.029,0.419,0.039c0.283,0.02,0.567,0.028,0.851,0.035c0.303,0.008,0.598,0.038,0.892,0.078c0.41,0.055,0.816,0.127,1.232,0.18c0.766,0.096,1.539,0.125,2.31,0.154c0.144,0.005,0.285,0.008,0.426,0.013c0.154-0.27,0.279-0.557,0.337-0.885c0.057-0.011,0.11-0.032,0.166-0.045C4.726-67.289,4.612-67.304,4.53-67.32z"></path><path style="fill:#7D808C;" d="M-0.611-70.931c0.638-0.309,1.322-0.436,2.03-0.469c0.832-0.039,1.573-0.002,2.316,0.416C2.348-70.633,0.777-70.584-0.611-70.931z"></path><g><path style="fill:#FFFFFF;fill-opacity:0.29;" d="M-0.846-69.933c0.026,0.014,0.056,0.022,0.083,0.035c0.029,0.267,0.246,0.54,0.439,0.691c0.253,0.199,0.565,0.274,0.88,0.211c0.175-0.035,0.398-0.138,0.447-0.363c0.904-0.016,1.312-1.05,1.015-1.823c-0.1-0.26-0.356-0.397-0.601-0.499c-0.016-0.44-0.248-0.916-0.706-1.063c-0.434-0.161-1.075,0.107-1.083,0.614c0.145-0.237,0.37-0.435,0.65-0.485c0.335-0.06,0.665,0.108,0.839,0.395c0.109,0.179,0.11,0.355,0.176,0.595c0.063,0.133,0.239,0.176,0.363,0.24c0.679,0.588,0.195,2.013-0.767,1.9c0.034,0.409-0.618,0.441-0.905,0.316c-0.197-0.075-0.358-0.227-0.469-0.403c-0.047-0.075-0.072-0.17-0.109-0.253c0.659,0.212,1.532,0.002,1.671-0.755c0.24-0.841-1.142-1.692-1.458-0.66c-0.116,0.345-0.105,1.051,0.42,0.938c0.462-0.037,0.991-0.579,0.506-0.75c0.288,0.307-0.271,0.563-0.531,0.606c-0.367,0.104-0.344-0.463-0.262-0.753c0.088-0.386,0.468-0.474,0.784-0.28c0.7,0.361,0.479,1.444-0.282,1.571C-0.217-69.829-1-69.938-1.13-70.52c-0.066-0.295-0.015-0.624,0.094-0.902c0.067-0.172,0.164-0.332,0.26-0.49c-0.004,0.006-0.155,0.068-0.183,0.094c-0.051,0.048-0.096,0.105-0.132,0.164c-0.087,0.141-0.145,0.305-0.18,0.467C-1.371-70.719-1.297-70.183-0.846-69.933z"></path><path style="fill:#FFFFFF;fill-opacity:0.29;" d="M2.746-70.521c-0.031-0.503-0.256-1.113-0.794-1.343c-0.004-0.174-0.011-0.354-0.049-0.532c-0.086-0.401-0.422-0.755-0.856-0.901c-0.443-0.149-0.954-0.036-1.292,0.285c-0.321-0.182-0.734-0.1-1.047,0.068l0.04,0.13c0.176-0.099,0.381-0.172,0.583-0.172c0.144,0,0.282,0.033,0.397,0.11l0.045,0.03l0.038-0.039c0.303-0.311,0.782-0.428,1.194-0.289c0.392,0.132,0.694,0.448,0.771,0.805C1.814-72.188,1.819-72,1.823-71.818l0.001,0.044l0.041,0.015c0.51,0.194,0.722,0.771,0.751,1.246c0.021,0.342-0.017,0.826-0.315,1.186c-0.246,0.295-0.72,0.474-1.087,0.265l-0.06-0.034l-0.031,0.061c-0.143,0.283-0.483,0.483-0.934,0.549c-0.538,0.08-1.057-0.034-1.421-0.307c-0.41-0.308-0.612-0.85-0.482-1.289l0.011-0.038l-0.029-0.027c-0.209-0.201-0.335-0.574-0.363-0.835c-0.027-0.255,0.009-0.538,0.109-0.842c0.138-0.424,0.357-0.749,0.635-0.94c0.029-0.02,0.067-0.031,0.099-0.049l-0.04-0.13c-0.044,0.024-0.093,0.044-0.133,0.071c-0.301,0.208-0.538,0.557-0.685,1.008c-0.104,0.321-0.143,0.623-0.114,0.896c0.029,0.273,0.158,0.659,0.375,0.888c-0.126,0.489,0.092,1.056,0.539,1.392c0.311,0.233,0.723,0.357,1.167,0.357c0.115,0,0.233-0.008,0.351-0.025c0.277-0.041,0.763-0.167,1-0.562c0.417,0.194,0.926-0.005,1.192-0.326C2.726-69.638,2.768-70.156,2.746-70.521z"></path><path style="fill:#FFFFFF;fill-opacity:0.29;" d="M1.297-68.434c-1.301,0.814-3.423,0.332-3.817-1.272c-0.012-0.053-0.003-0.05-0.062-0.049c-0.85,0.018-1.328-1.24-0.554-1.696c0.135,0.213,0.602,1.191,1.296,1.275c-0.604-0.347-1.125-1.024-1.205-1.87c0.009-0.201,0.06-0.398,0.146-0.579c0.03-0.062,0.232-0.453,0.311-0.439c0.104,0.018,0.208,0.035,0.314,0.035c0.127,0,0.253-0.013,0.378-0.04l0.083-0.018l-0.038-0.075c-0.046-0.09-0.104-0.187-0.169-0.285c-0.004-0.006,0.335-0.109,0.371-0.114c0.118-0.015,0.239,0.001,0.357,0.01c0.18,0.012,0.358,0.045,0.53,0.099c0.031,0.01,0.418,0.176,0.427,0.121c0.032-0.205,0.111-0.398,0.214-0.579c-0.054-0.018-0.107-0.039-0.161-0.056c-0.009,0.009-0.021,0.013-0.03,0.022c-0.134,0.138-0.236,0.317-0.244,0.51c-0.235-0.161-0.485-0.214-0.761-0.242c-0.144-0.014-0.277-0.031-0.422-0.009c-0.033,0.005-0.378,0.107-0.371,0.117c-0.123-0.17-0.288-0.316-0.474-0.418l-0.11,0.08c0.311,0.148,0.541,0.457,0.687,0.724c-0.344,0.055-0.698,0.002-1.01-0.149c-0.314-0.153-0.577-0.403-0.746-0.708c0.308-0.076,0.678-0.036,1.031,0.111c0.014,0.006,0.025,0.016,0.038,0.022l0.11-0.08c-0.034-0.019-0.063-0.047-0.099-0.062c-0.414-0.173-0.837-0.207-1.194-0.094l-0.072,0.023l0.034,0.068c0.179,0.363,0.478,0.661,0.842,0.838c0.104,0.051,0.215,0.085,0.327,0.115c-0.356,0.404-0.542,0.962-0.376,1.496c-0.399,0.218-0.644,0.715-0.506,1.163c0.125,0.445,0.541,0.774,1.002,0.805c0.446,1.658,2.63,2.161,3.995,1.311c0.44,0.294,1.632-0.09,1.696-0.889C2.689-68.559,1.996-68.309,1.297-68.434z"></path><path style="fill:#6B6E78;" d="M2.618-68.507c-0.015,0.011-0.077,0-0.096,0c-0.034,0-0.067,0-0.101,0c-0.163,0.003-0.326,0.019-0.487,0.041c-0.082,0.011-0.163,0.025-0.245,0.039c-0.074,0.013-0.145,0.04-0.218,0.059c-0.038,0.01-0.077,0.015-0.115,0.023c-0.013,0.003-0.078,0.027-0.087,0.021C1.546-68.14,2.215-68.222,2.618-68.507z"></path><path style="fill:#6B6E78;" d="M1.358-68.32c-0.337,0.038-0.812,0.257-1.129,0.402C0.576-67.976,1.062-68.136,1.358-68.32z"></path><path style="fill:#FFFFFF;fill-opacity:0.29;" d="M3.09-71.114c0.531-0.78-0.237-1.945-1.116-2.022c0,0-0.022,0.128-0.022,0.128C2.865-72.818,3.212-71.965,3.09-71.114z"></path><path style="fill:#FFFFFF;fill-opacity:0.29;" d="M6.15-74.839c-0.223,0.222-0.393,0.538-0.701,0.652c-0.482,0.203-0.935,0.912-0.506,1.383c-0.093-0.541,0.088-0.997,0.595-1.233c0.371-0.119,0.574-0.599,0.877-0.805C6.326-74.843,6.238-74.842,6.15-74.839z"></path><path style="fill:#6B6E78;" d="M4.112-66.979c0.041-0.018,0.081-0.035,0.12-0.056c0.078-0.042,0.146-0.097,0.213-0.15c0.033-0.026,0.066-0.053,0.1-0.077c0.029-0.021,0.055-0.03,0.082-0.044c-0.03-0.005-0.072-0.009-0.097-0.014c-0.032-0.006-0.059-0.018-0.09-0.026c-0.026,0.019-0.051,0.039-0.077,0.059c-0.064,0.052-0.125,0.101-0.193,0.137c-0.035,0.019-0.072,0.034-0.109,0.05c-0.041,0.018-0.081,0.035-0.12,0.056c-0.104,0.055-0.173,0.125-0.205,0.209c-0.077,0.203,0.118,0.391,0.319,0.48c0.096,0.003,0.192,0.005,0.287,0.009c0.005-0.01,0.01-0.02,0.016-0.03c0.035-0.063,0.064-0.131,0.095-0.196c-0.022-0.093-0.07-0.182-0.144-0.243c0.046,0.119,0.159,0.348-0.055,0.381c-0.123,0.019-0.313-0.124-0.373-0.224c-0.071-0.117,0.008-0.212,0.12-0.272C4.038-66.948,4.075-66.963,4.112-66.979z"></path><path style="fill:#FFFFFF;fill-opacity:0.29;" d="M5.386-67.923c-0.136-0.123-0.344-0.166-0.556-0.114c-0.183,0.043-0.343,0.146-0.488,0.25l-0.066,0.047c-0.117,0.084-0.237,0.171-0.367,0.228c-0.061,0.027-0.125,0.048-0.188,0.07c-0.154,0.051-0.312,0.105-0.43,0.229c-0.126,0.133-0.176,0.333-0.127,0.51c0.032,0.115,0.111,0.238,0.216,0.3c0.039,0.023,0.082,0.027,0.123,0.045c0.085,0.036,0.074,0.037,0.108,0.12c0.076,0.188,0.22,0.325,0.403,0.403c0.011-0.014,0.02-0.029,0.031-0.044c-0.079-0.076-0.161-0.15-0.219-0.243c-0.053-0.084-0.097-0.193-0.048-0.28c-0.187-0.027-0.434-0.138-0.488-0.335c-0.037-0.134,0.001-0.286,0.097-0.386c0.095-0.1,0.232-0.146,0.377-0.195c0.068-0.022,0.136-0.045,0.2-0.074c0.142-0.063,0.269-0.154,0.391-0.242l0.065-0.047c0.135-0.096,0.282-0.19,0.443-0.229c0.166-0.039,0.335-0.008,0.438,0.085c0.101,0.09,0.143,0.273,0.048,0.382l0.003,0.003c0.054-0.022,0.113-0.033,0.166-0.057C5.553-67.643,5.507-67.815,5.386-67.923z"></path><path style="fill:#6B6E78;" d="M3.897-67.508c-0.057,0.024-0.116,0.045-0.176,0.065c-0.154,0.051-0.312,0.105-0.43,0.229c-0.126,0.133-0.176,0.333-0.127,0.51c0.032,0.115,0.111,0.238,0.216,0.3c0.022,0.013,0.045,0.018,0.069,0.025c0.108,0.004,0.216,0.01,0.324,0.015c0.003-0.013-0.003-0.027,0.004-0.039c-0.187-0.027-0.434-0.138-0.488-0.335c-0.037-0.134,0.001-0.286,0.097-0.386c0.095-0.1,0.232-0.146,0.377-0.195c0.068-0.022,0.136-0.045,0.2-0.074c0.035-0.016,0.064-0.042,0.098-0.06C4.006-67.473,3.95-67.489,3.897-67.508z"></path><path style="fill:#FFFFFF;fill-opacity:0.29;" d="M5.458-68.664c-0.302-0.039-0.619,0.07-0.842,0.285c-0.024,0.023-0.048,0.048-0.071,0.073c-0.081,0.084-0.156,0.163-0.234,0.176c-0.168-0.008-0.596-0.022-0.917,0.038c-0.311,0.06-0.575,0.189-0.763,0.372c-0.226,0.221-0.339,0.52-0.302,0.801c0.046,0.352,0.303,0.546,0.621,0.643c0.036,0.224,0.112,0.446,0.256,0.621c0.117,0.142,0.286,0.23,0.465,0.263c0.003-0.004,0.006-0.008,0.009-0.012c0.005-0.006,0.01-0.012,0.014-0.019c-0.326-0.182-0.54-0.557-0.498-0.93c-0.31-0.137-0.657-0.175-0.711-0.586c-0.03-0.228,0.068-0.484,0.255-0.667c0.165-0.161,0.401-0.275,0.681-0.329c0.302-0.058,0.715-0.044,0.895-0.036c0.148-0.022,0.25-0.13,0.341-0.225c0.022-0.023,0.044-0.046,0.066-0.067c0.189-0.18,0.456-0.268,0.714-0.242c0.164,0.017,0.324,0.086,0.453,0.188c0.136,0.108,0.218,0.242,0.333,0.384c0.008-0.007,0.015-0.016,0.023-0.023C6.292-68.35,5.789-68.628,5.458-68.664z"></path><path style="fill:#6B6E78;" d="M2.487-66.94c-0.03-0.228,0.068-0.484,0.255-0.667c0.06-0.059,0.139-0.104,0.217-0.149c-0.075-0.014-0.151-0.023-0.227-0.034c-0.032,0.025-0.073,0.042-0.101,0.07c-0.226,0.221-0.339,0.52-0.302,0.801c0.03,0.231,0.156,0.388,0.325,0.5c0.145,0.009,0.291,0.017,0.436,0.024C2.812-66.502,2.535-66.576,2.487-66.94z"></path><path style="fill:#FFFFFF;fill-opacity:0.29;" d="M0.769-64.378c0.131,0.249,0.347,0.451,0.61,0.551c0.249,0.093,0.542,0.153,0.817,0.053c0.098,0.171,0.259,0.303,0.453,0.342l0.026-0.127c-0.195-0.037-0.356-0.189-0.424-0.373c-0.252,0.135-0.553,0.088-0.826-0.016c-0.262-0.098-0.478-0.309-0.587-0.565c-0.698,0.17-1.178-0.656-0.84-1.232c0.025-0.044,0.022-0.038-0.011-0.078c-0.316-0.396-0.322-0.884-0.126-1.35c-0.448,0.318-0.383,1.052,0.007,1.406c-0.151,0.306-0.14,0.68,0.035,0.973C0.066-64.489,0.44-64.339,0.769-64.378z"></path><path style="fill:#6B6E78;" d="M-0.252-66.754c0.019-0.143,0.055-0.278,0.114-0.42c-0.144,0.102-0.24,0.248-0.284,0.41C-0.371-66.762-0.303-66.758-0.252-66.754z"></path><path style="fill:#FFFFFF;fill-opacity:0.29;" d="M3.302-64.922c-0.417,0.794-1.445,0.765-1.998,0.109c0.219,0.685,1.074,0.804,1.644,0.479c0.005-0.01,0.009-0.02,0.013-0.029c0.1-0.196,0.221-0.378,0.347-0.556C3.308-64.919,3.302-64.922,3.302-64.922z"></path><path style="fill:#FFFFFF;fill-opacity:0.29;" d="M2.574-66.136c-0.175-0.239-0.45-0.44-0.685-0.556c-0.442-0.219-1.076,0.066-1.121,0.585c0.025,0.412,0.34,1.058,0.854,1.002c0.358-0.053,0.518-0.532,0.29-0.794c-0.089-0.128-0.283-0.235-0.441-0.135c-0.17,0.116-0.073,0.332,0.027,0.423c-0.243-0.33,0.134-0.561,0.339-0.235c0.158,0.233,0.048,0.588-0.237,0.633c-0.276,0.058-0.471-0.243-0.606-0.487c-0.383-0.556,0.303-1.159,0.85-0.881c0.348,0.167,0.785,0.511,0.785,0.927c-0.083,0.403-0.501,0.747-0.92,0.708l-0.009,0.13c0.323,0.024,0.653-0.134,0.842-0.389C2.846-65.52,2.779-65.855,2.574-66.136z"></path><path style="fill:#FFFFFF;fill-opacity:0.29;" d="M1.228-63.31c-0.324,0.032-0.61,0.188-0.763,0.417c-0.167,0.248-0.164,0.587,0,0.805c-0.247,0.215-0.388,0.575-0.341,0.883c0.048,0.313,0.27,0.595,0.561,0.719c-0.066,0.254,0.013,0.51,0.223,0.71c0.108,0.103,0.248,0.18,0.407,0.243c0.062-0.028,0.128-0.047,0.187-0.078c-0.205-0.062-0.381-0.142-0.504-0.259c-0.191-0.182-0.251-0.407-0.171-0.634l0.021-0.062l-0.062-0.021c-0.275-0.095-0.489-0.352-0.533-0.639c-0.043-0.281,0.104-0.626,0.344-0.803l0.06-0.044l-0.052-0.053C0.438-62.294,0.423-62.6,0.572-62.82c0.132-0.197,0.382-0.332,0.668-0.361c0.268-0.023,0.519,0.048,0.784,0.127l0.031,0.009l0.026-0.019c0.111-0.082,0.239-0.136,0.372-0.176c0.02-0.048,0.037-0.097,0.057-0.145c-0.171,0.038-0.337,0.097-0.48,0.197C1.775-63.264,1.514-63.339,1.228-63.31z"></path><path style="fill:#FFFFFF;fill-opacity:0.29;" d="M1.359-61.487c-0.043,0.234,0.042,0.489,0.219,0.649c0.033,0.03,0.065,0.034,0.098,0.045c0.008-0.042,0.014-0.084,0.023-0.125c-0.012-0.007-0.02-0.004-0.033-0.016c-0.144-0.13-0.214-0.338-0.178-0.529c0.035-0.191,0.175-0.359,0.355-0.43c0.038-0.015,0.08-0.021,0.121-0.03c0.015-0.049,0.032-0.097,0.048-0.145c-0.072,0.013-0.145,0.026-0.216,0.054C1.573-61.928,1.402-61.721,1.359-61.487z"></path><path style="fill:#FFFFFF;fill-opacity:0.29;" d="M1.081-61.933c-0.207,0.147-0.343,0.411-0.294,0.676c0.043,0.272,0.275,0.504,0.535,0.518c-0.214-0.13-0.357-0.324-0.397-0.541c-0.037-0.234,0.115-0.464,0.304-0.607c-0.301-0.644,0.516-1.161,0.978-0.732c0.017-0.045,0.036-0.089,0.053-0.134C1.732-63.183,0.841-62.657,1.081-61.933z"></path><path style="fill:#FFFFFF;fill-opacity:0.29;" d="M-0.765-60.269c0.148-0.369,0.08-0.812-0.176-1.117c-0.249-0.295-0.714-0.439-1.118-0.347c-0.195-0.193-0.436-0.337-0.697-0.417l-0.031,0.102c0.004,0.01,0.006,0.02,0.01,0.029c0.246,0.079,0.471,0.217,0.651,0.403l0.026,0.028l0.037-0.01c0.368-0.096,0.797,0.028,1.022,0.296c0.232,0.276,0.289,0.698,0.138,1.025l-0.021,0.046l0.04,0.032c0.164,0.132,0.374,0.347,0.442,0.626c0.043,0.177,0.028,0.359-0.012,0.535c0.046-0.006,0.091-0.01,0.137-0.017c0.034-0.182,0.045-0.368,0.001-0.548C-0.387-59.896-0.592-60.123-0.765-60.269z"></path><path style="fill:#FFFFFF;fill-opacity:0.29;" d="M-1.361-60.03c0.025-0.251,0.032-0.515-0.06-0.756c-0.111-0.29-0.372-0.491-0.634-0.491c-0.002,0-0.003,0-0.005,0c-0.145,0.001-0.279,0.06-0.413,0.128c0.013,0.042,0.021,0.085,0.034,0.127c0.133-0.068,0.254-0.124,0.38-0.125c0.001,0,0.003,0,0.004,0c0.245,0,0.438,0.211,0.513,0.408C-1.455-60.51-1.468-60.249-1.495-60L-1.5-59.954l0.042,0.02c0.156,0.076,0.253,0.172,0.305,0.3c0.064,0.159,0.036,0.329,0.001,0.443c-0.023,0.075-0.067,0.143-0.103,0.214c0.05-0.002,0.102-0.003,0.145-0.005c0.027-0.058,0.063-0.109,0.082-0.171c0.042-0.135,0.074-0.336-0.004-0.53C-1.092-59.829-1.2-59.942-1.361-60.03z"></path><path style="fill:#FFFFFF;fill-opacity:0.29;" d="M-2.293-60.463c0.011,0.044,0.024,0.088,0.035,0.132c0.148,0.026,0.291,0.09,0.389,0.205c0.127,0.15,0.182,0.364,0.141,0.556c-0.02,0.09-0.206,0.255-0.324,0.305c0.004,0.026,0.01,0.051,0.014,0.077c0.022,0.005,0.046,0.019,0.069,0.027c0.161-0.082,0.343-0.267,0.368-0.381c0.049-0.231-0.015-0.487-0.169-0.667C-1.9-60.362-2.095-60.441-2.293-60.463z"></path><path style="fill:#FFFFFF;fill-opacity:0.29;" d="M-0.551-63.327c-0.158-0.195-0.37-0.338-0.602-0.453l-0.05,0.119c0.212,0.106,0.407,0.238,0.552,0.416c0.255,0.315,0.387,0.626,0.404,0.95c-0.375-0.018-0.739-0.193-0.983-0.478c-0.244-0.284-0.364-0.667-0.327-1.04c0.128,0.033,0.24,0.094,0.355,0.151l0.05-0.119c-0.142-0.07-0.286-0.141-0.447-0.175l-0.067-0.015l-0.011,0.068c-0.066,0.43,0.063,0.884,0.348,1.214c0.283,0.328,0.71,0.524,1.144,0.524c0.002,0,0.003,0,0.005,0h0.065v-0.065C-0.117-62.607-0.259-62.966-0.551-63.327z"></path><path style="fill:#FFFFFF;fill-opacity:0.29;" d="M-4.491-73.125c-0.194,0.358-0.602,0.666-1.014,0.766l-0.033,0.008l-0.012,0.031c-0.29,0.715-0.947,1.243-1.696,1.413c0.005,0.043,0.011,0.086,0.017,0.129c0.784-0.174,1.473-0.721,1.786-1.462c0.436-0.116,0.86-0.443,1.066-0.822c0.189-0.348,0.232-0.768,0.139-1.154c-0.042,0.008-0.085,0.016-0.127,0.024C-4.277-73.836-4.317-73.447-4.491-73.125z"></path><path style="fill:#FFFFFF;fill-opacity:0.29;" d="M-5.292-73.338c0.127-0.18,0.165-0.446,0.145-0.656c-0.042,0.012-0.082,0.028-0.124,0.041c-0.004,0.188-0.041,0.417-0.127,0.539c-0.105,0.149-0.261,0.277-0.464,0.38c-0.188,0.095-0.461,0.158-0.655,0.185l-0.039,0.005l-0.013,0.037c-0.127,0.351-0.399,0.645-0.732,0.815c-0.001,0.049,0.001,0.098,0.001,0.147c0.378-0.173,0.689-0.495,0.839-0.881c0.201-0.031,0.468-0.096,0.657-0.191C-5.582-73.03-5.409-73.172-5.292-73.338z"></path><path style="fill:#FFFFFF;fill-opacity:0.29;" d="M-6.589-73.423c-0.031,0.099-0.058,0.2-0.113,0.288c-0.13,0.21-0.334,0.366-0.561,0.467c-0.005,0.051-0.009,0.101-0.013,0.152c0.279-0.107,0.529-0.297,0.684-0.55c0.083-0.135,0.141-0.286,0.173-0.442C-6.476-73.481-6.532-73.451-6.589-73.423z"></path><path style="fill:#FFFFFF;fill-opacity:0.29;" d="M-4.355-71.301l-0.037-0.059l-0.056,0.041c-0.31,0.225-0.526,0.571-0.593,0.949c-0.006,0.035-0.004,0.07-0.008,0.105l0.136-0.006c0.003-0.026-0.005-0.051-0.001-0.076c0.057-0.321,0.232-0.618,0.485-0.823c0.166,0.289,0.225,0.602,0.176,0.931c-0.044,0.294-0.208,0.572-0.487,0.828c-0.153-0.256-0.208-0.562-0.173-0.859l-0.136,0.006c-0.035,0.346,0.047,0.701,0.242,0.989l0.041,0.06l0.055-0.047c0.337-0.29,0.535-0.612,0.587-0.957C-4.066-70.604-4.144-70.968-4.355-71.301z"></path><path style="fill:#FFFFFF;fill-opacity:0.29;" d="M4.01-70.474l-0.131,0.05c0.135,0.154,0.239,0.338,0.281,0.536c0.059,0.272-0.033,0.558-0.282,0.87c-0.246-0.188-0.417-0.466-0.473-0.771c-0.057-0.306,0.005-0.627,0.169-0.891c0.115,0.063,0.216,0.154,0.305,0.256L4.01-70.474c-0.12-0.147-0.267-0.271-0.431-0.349l-0.05-0.024l-0.032,0.046c-0.207,0.3-0.287,0.678-0.221,1.036c0.066,0.358,0.276,0.683,0.576,0.89l0.049,0.033l0.038-0.045c0.305-0.364,0.419-0.7,0.348-1.028C4.243-70.118,4.143-70.311,4.01-70.474z"></path><path style="fill:#FFFFFF;fill-opacity:0.29;" d="M4.698-72.832c-0.127-0.188-0.313-0.321-0.519-0.428l-0.044,0.114c0.158,0.082,0.305,0.185,0.421,0.339c-0.242,0.181-0.594,0.154-0.846,0.041c-0.267-0.121-0.482-0.328-0.685-0.54c0.347-0.056,0.761-0.021,1.109,0.16l0.044-0.114c-0.364-0.187-0.817-0.256-1.297-0.151L2.77-73.386l0.079,0.083c0.226,0.238,0.482,0.508,0.808,0.655c0.139,0.062,0.304,0.102,0.469,0.102c0.202,0,0.405-0.058,0.562-0.201l0.042-0.038L4.698-72.832z"></path><path style="fill:#FFFFFF;fill-opacity:0.29;" d="M7.416-70.294c0.039-0.027,0.079-0.064,0.121-0.086c0.053-0.028,0.12-0.039,0.175-0.061c0.01-0.051,0.018-0.104,0.026-0.156c-0.318,0.17-0.719,0.191-1.047,0.037c-0.106-0.051-0.248-0.14-0.318-0.281C6.27-71.048,6.35-71.301,6.475-71.46c0.012-0.015,0.029-0.023,0.042-0.037L6.373-71.54c-0.103,0.131-0.157,0.285-0.173,0.425c-0.232,0.093-0.475-0.016-0.763-0.344c-0.207-0.236-0.313-0.548-0.292-0.858c0.015-0.223,0.114-0.426,0.242-0.608L5.318-73.08c-0.01,0.013-0.025,0.025-0.035,0.038c-0.078,0.106-0.141,0.224-0.186,0.347c-0.045,0.018-0.096,0.061-0.12,0.081c-0.071,0.059-0.135,0.126-0.189,0.201c-0.105,0.143-0.177,0.312-0.201,0.489c-0.008,0.059,0,0.121,0.004,0.183l0.128-0.061c0-0.034-0.008-0.071-0.004-0.104c0.021-0.156,0.084-0.305,0.177-0.431c0.046-0.062,0.098-0.118,0.157-0.168c0.002-0.001,0.005-0.003,0.006-0.005c-0.013,0.062-0.036,0.122-0.04,0.185c-0.023,0.344,0.095,0.691,0.324,0.953c0.099,0.113,0.368,0.42,0.701,0.42c0.052,0,0.107-0.015,0.162-0.032c0.007,0.066,0.023,0.129,0.05,0.187c-0.259,0.215-0.183,0.796-0.632,0.423c0.035,0.211,0.385,0.327,0.5,0.101c0.083-0.162,0.128-0.307,0.215-0.409c0.074,0.093,0.169,0.177,0.301,0.24c0.17,0.08,0.358,0.12,0.547,0.12c0.016,0,0.032-0.006,0.049-0.007c-0.145,0.103-0.305,0.179-0.467,0.252l0.121,0.096c0.08-0.037,0.164-0.068,0.241-0.113C7.227-70.155,7.32-70.227,7.416-70.294z"></path><path style="fill:#FFFFFF;fill-opacity:0.29;" d="M6.619-70c-0.261,0.094-0.501,0.127-0.719,0.104c-0.254-0.029-0.479-0.146-0.615-0.32c-0.15-0.191-0.186-0.452-0.089-0.648l0.025-0.051l-0.047-0.031c-0.273-0.184-0.453-0.542-0.455-0.857l-0.128,0.061c0.022,0.324,0.197,0.668,0.466,0.872c-0.09,0.233-0.042,0.521,0.125,0.735c0.158,0.202,0.414,0.336,0.703,0.369c0.05,0.006,0.101,0.009,0.16,0.016l0.021,0.027c0.147,0.184,0.394,0.292,0.665,0.292c0.01,0,0.02,0,0.029,0c0.254-0.007,0.55-0.092,0.745-0.272c0.018-0.046,0.031-0.094,0.047-0.14c-0.261,0.134-0.515,0.283-0.822,0.283c-0.215,0-0.409-0.078-0.533-0.212c0.149-0.016,0.303-0.045,0.465-0.104c0.077-0.028,0.148-0.07,0.223-0.105l-0.121-0.096C6.715-70.055,6.672-70.018,6.619-70z"></path><path style="fill:#FFFFFF;fill-opacity:0.29;" d="M7.049-71.855l0.094-0.041c0.125-0.053,0.253-0.108,0.371-0.184c0.076-0.049,0.158-0.127,0.231-0.221c-0.009-0.065-0.019-0.131-0.03-0.196c-0.062,0.14-0.176,0.246-0.272,0.307c-0.109,0.07-0.227,0.121-0.352,0.174l-0.095,0.041c-0.214,0.095-0.455,0.222-0.623,0.434c0,0,0,0,0,0l0.144,0.043C6.666-71.662,6.865-71.773,7.049-71.855z"></path><path style="fill:#FFFFFF;fill-opacity:0.29;" d="M5.57-73.161c0.058-0.052,0.122-0.099,0.189-0.14c-0.047,0.266-0.03,0.526,0.055,0.763c-0.039,0.203-0.035,0.471,0.172,0.628c0.396,0.277,1.093-0.174,0.798-0.628c-0.131-0.209-0.501-0.117-0.465,0.141c0.006-0.234,0.319-0.271,0.407-0.098c0.213,0.366-0.391,0.673-0.664,0.479c-0.128-0.138-0.153-0.32-0.116-0.536c0.076-0.362,0.38-0.735,0.672-0.845c0.464-0.159,0.567,0.333,0.639,0.691c0.225-0.413-0.212-1.021-0.682-0.815c-0.34,0.137-0.564,0.43-0.687,0.755c-0.072-0.359,0.005-0.767,0.237-1.142c0.138-0.224,0.324-0.377,0.511-0.419c0.14-0.033,0.282-0.003,0.42,0.085c0.055,0.036,0.092,0.097,0.136,0.149c-0.051-0.1-0.099-0.203-0.157-0.296c-0.141-0.068-0.283-0.098-0.429-0.064c-0.223,0.051-0.433,0.22-0.592,0.478c-0.106,0.172-0.172,0.351-0.22,0.53c-0.04,0.001-0.083,0.018-0.113,0.036c-0.133,0.082-0.263,0.204-0.363,0.33l0.071,0.155C5.446-73.006,5.496-73.094,5.57-73.161z"></path><path style="fill:#FFFFFF;fill-opacity:0.29;" d="M7.395-73.645c0.002,0.014,0.01,0.024,0.011,0.038l0.003,0C7.405-73.62,7.4-73.632,7.395-73.645z"></path><path style="fill:#FFFFFF;fill-opacity:0.29;" d="M-1.759-67.359c0.65,0.332,0.611,0.969,0.456,1.568c-0.032,0.23,0.035,0.424,0.049,0.637c0.005,0.076,0.012,0.147,0.002,0.223c-0.049,0.358-0.355,0.611-0.687,0.708c-0.32,0.094-0.831,0.07-1.028-0.252c-0.024-0.04-0.023-0.073-0.043-0.123c-0.025-0.063-0.09-0.24-0.153-0.271c0.279,0.14,0.574,0.192,0.798,0.192c0.113,0,0.208-0.012,0.272-0.028c0.194-0.052,0.337-0.157,0.427-0.315c0.113-0.199,0.13-0.468,0.047-0.758c-0.023-0.081-0.068-0.145-0.101-0.219l-0.132,0.029c0.034,0.077,0.084,0.14,0.108,0.225c0.072,0.253,0.059,0.493-0.035,0.659c-0.072,0.126-0.188,0.211-0.347,0.253c-0.229,0.061-0.875,0.046-1.318-0.385c-0.124-0.143-0.248-0.291-0.326-0.459c-0.124-0.264-0.052-0.519,0.025-0.788c0.062-0.221,0.127-0.449,0.087-0.695c-0.024-0.146-0.099-0.3-0.197-0.415c0.084-0.225,0.312-0.331,0.715-0.331c0.018,0,0.035,0,0.053,0c0.313,0.006,0.615,0.139,0.83,0.364c0.171,0.179,0.279,0.415,0.319,0.659c0.02,0.125,0.023,0.253,0.007,0.379c-0.002,0.018-0.008,0.05-0.014,0.079c-0.164-0.215-0.368-0.378-0.6-0.474c-0.123-0.166-0.324-0.344-0.579-0.297c-0.471,0.105-0.61,0.924-0.076,1.013c0.111,0.021,0.222-0.044,0.274-0.142c0.038-0.071,0.024-0.118-0.01-0.185c-0.017-0.032-0.034-0.062-0.062-0.087c-0.019-0.018-0.059-0.028-0.074-0.046c0.054,0.064,0.08,0.154,0.066,0.237c-0.013,0.077-0.099,0.107-0.172,0.113c-0.128,0.009-0.198-0.083-0.236-0.193c-0.075-0.219,0.103-0.56,0.344-0.586c0.264-0.028,0.462,0.295,0.555,0.496c0.124,0.267,0.183,0.573,0.062,0.85c-0.196,0.45-0.629,0.193-0.941,0.004c0.153,0.445,0.896,0.533,1.061,0.047c0.129-0.344,0.064-0.706-0.094-1.017c0.25,0.151,0.439,0.413,0.575,0.721l0.132-0.029c-0.044-0.099-0.08-0.206-0.136-0.294c0.058-0.091,0.068-0.323,0.068-0.373c0.001-0.226-0.07-0.442-0.173-0.643c0.046-0.091,0.03-0.352,0.022-0.4c-0.032-0.186-0.11-0.364-0.231-0.509c-0.238-0.287-0.701-0.438-1.095-0.365c-0.064-0.127-0.176-0.224-0.307-0.296l-0.066,0.115c0.122,0.067,0.226,0.157,0.274,0.28l0.021,0.053l0.055-0.014c0.357-0.084,0.802,0.05,1.018,0.31c0.098,0.118,0.164,0.26,0.196,0.41c0.015,0.072,0.022,0.146,0.021,0.22c0,0.012-0.003,0.029-0.005,0.043c-0.038-0.055-0.06-0.12-0.106-0.169c-0.238-0.25-0.574-0.396-0.921-0.404c-0.171-0.001-0.681-0.004-0.864,0.375c-0.052-0.039-0.111-0.069-0.176-0.089c0.017-0.336-0.464-0.672,0.115-0.752c-0.179-0.117-0.501,0.063-0.412,0.3c0.064,0.17,0.141,0.302,0.157,0.435c-0.119-0.008-0.245,0.004-0.38,0.06c-0.188,0.077-0.352,0.205-0.485,0.36c0.028-0.23,0.079-0.456,0.169-0.672c0.107-0.256,0.245-0.459,0.409-0.601c0.178-0.154,0.393-0.24,0.598-0.24c0.018,0,0.036,0,0.054,0.002c0.097,0.007,0.182,0.049,0.264,0.094l0.066-0.115c-0.098-0.054-0.204-0.099-0.32-0.108c-0.247-0.015-0.526,0.08-0.746,0.269c-0.04,0.035-0.073,0.084-0.119,0.108l-0.036-0.002c-0.247-0.016-0.499,0.102-0.684,0.316c-0.136,0.157-0.299,0.416-0.283,0.644c0.03,0.036,0.061,0.071,0.092,0.105c0.019-0.238,0.143-0.495,0.29-0.664c0.147-0.17,0.343-0.268,0.532-0.27c-0.089,0.12-0.17,0.255-0.237,0.414c-0.089,0.213-0.168,0.453-0.183,0.685c-0.005,0.079,0.001,0.154-0.011,0.235c0.034,0.031,0.067,0.062,0.101,0.091c0.14-0.228,0.312-0.42,0.578-0.529c0.108-0.044,0.27-0.088,0.422-0.045c0.222,0.063,0.355,0.293,0.388,0.492c0.035,0.217-0.023,0.422-0.084,0.639c-0.08,0.281-0.162,0.571-0.018,0.879c0.095,0.202,0.242,0.372,0.384,0.535c0.035,0.04,0.07,0.08,0.104,0.121c0.146,0.174,0.318,0.408,0.342,0.669c0.028,0.307-0.18,0.618-0.469,0.724c0.022,0.037,0.042,0.075,0.064,0.112c0.318-0.127,0.539-0.454,0.53-0.799c0.686,0.567,1.986,0.063,1.852-0.905c-0.015-0.203-0.08-0.421-0.051-0.609C-0.956-66.397-0.947-67.248-1.759-67.359z"></path><path style="fill:#6B6E78;" d="M0.283-66.463c0.01,0.018,0.022,0.035,0.036,0.051c-0.189-0.232-0.202-0.59-0.031-0.835s0.511-0.357,0.794-0.26c0.142-0.271,0.278-0.457,0.58-0.566c0.244-0.088,0.52-0.082,0.76,0.017c-0.507-0.041-1.123,0.068-1.261,0.676c-0.247-0.065-0.544-0.027-0.725,0.153c-0.107,0.106-0.196,0.361-0.178,0.545C0.264-66.608,0.248-66.528,0.283-66.463z"></path></g></g><!---0026-00860001600029--><g><path style="fill:#F4D5BF;" d="M-15.986-82.063c0.069-0.032,0.139-0.062,0.21-0.09c0.686-0.272,1.31-0.322,1.998-0.042c1.324,0.539,1.518,2.47,1.409,3.627c-0.086,0.917-0.291,1.847-0.661,2.692c-1.052,2.404-3.911,12.144-5.313,14.438c-1.312,1.708-3.74,2.573-3.875-0.688c-0.037-0.907,0.138-1.844,0.274-2.736c0.233-1.526,0.528-3.044,0.861-4.551c0.381-1.727,0.816-3.444,1.331-5.136c0.245-0.804,0.474-1.644,0.81-2.415c0.174-0.399,0.324-0.622,0.35-1.076C-18.494-79.746-17.569-81.336-15.986-82.063z"></path><path style="fill:#E6BBA8;" d="M-22.142-61.447c0.005,0.03,0.012,0.058,0.018,0.087c0.007,0.035,0.014,0.071,0.022,0.104c0.004,0.021,0.008,0.042,0.013,0.061c0.017,0.065,0.034,0.129,0.053,0.189c0.018,0.057,0.039,0.109,0.06,0.16c0.025,0.062,0.048,0.126,0.076,0.18c0,0,0,0,0,0l0,0l0,0c0.447-2.087,0.882-4.161,1.328-6.251c0.304-1.425,0.689-2.88,1.209-4.252c0.395-1.04,1.455-3.243,1.48-3.783c0.083-1.833,0.387-3.506,0.917-4.833c0.105-0.262,0.233-0.513,0.381-0.751c0.459-0.737,1.057-1.378,1.772-1.84c-0.316,0.016-0.633,0.092-0.964,0.224c-0.071,0.028-0.141,0.058-0.21,0.09c-1.334,0.613-2.194,1.84-2.491,3.233c-0.051,0.265-0.099,0.531-0.114,0.791c-0.026,0.453-0.176,0.677-0.35,1.076c-0.007,0.015-0.011,0.032-0.017,0.047c-0.146,0.674-0.481,1.37-0.682,2.015c-0.179,0.572-0.335,1.15-0.496,1.727c-0.09,0.323-0.186,0.644-0.271,0.968c-0.135,0.517-0.257,1.037-0.38,1.557c-0.05,0.21-0.102,0.42-0.15,0.631c-0.031,0.131-0.064,0.262-0.094,0.394c-0.099,0.444-0.19,0.889-0.282,1.335c-0.064,0.31-0.132,0.619-0.192,0.929c-0.083,0.429-0.155,0.86-0.23,1.291c-0.07,0.403-0.146,0.805-0.208,1.209c-0.031,0.207-0.065,0.416-0.098,0.627c-0.01,0.067-0.019,0.134-0.029,0.201c-0.017,0.111-0.032,0.222-0.047,0.333c-0.055,0.432-0.09,0.864-0.097,1.295c0,0.093-0.007,0.188-0.003,0.28c0.008,0.183,0.025,0.349,0.046,0.506C-22.163-61.559-22.152-61.503-22.142-61.447z"></path></g><!---0028-00740002000013--><g><path style="fill:#CDCED1;" d="M-22.331-70.521c-0.088,0.583-0.136,1.132-0.224,1.715C-23.208-68.646-24-68-24.637-67.25c-0.117,0.962,0.757,1.744,1.436,2.291c0.708,0.57,1.395,0.783,2.291,0.862c1.835,0.162,3.715-0.188,5.361-1.017c2.086-1.051,3.746-2.908,4.65-5.061c-0.516-0.553-1.682,0.179-2.266,0.325c-0.846,0.212-1.719,0.317-2.591,0.319c-0.88,0.002-1.788-0.114-2.654-0.327c-0.449-0.111-0.892-0.248-1.326-0.408c-0.315-0.117-0.804-0.33-1.034-0.587C-21.295-71.014-21.884-70.837-22.331-70.521z"></path><path style="fill:#AAABAD;" d="M-12.991-67.799c-0.094,0.04-0.294,0.12-0.394,0.07c-0.202-0.101,0.037-0.286,0.126-0.376c0.128-0.129,0.258-0.259,0.371-0.402c0.097-0.122,0.151-0.272,0.242-0.391c0.184-0.24,0.586-0.404,0.879-0.333c0.698,0.169-0.424,1.09-0.662,1.192C-12.616-67.959-12.803-67.879-12.991-67.799z"></path><path style="fill:#FFFFFF;" d="M-12.862-69.455c-0.076-0.214-0.458-0.14-0.613-0.132c-0.313,0.017-0.627,0.013-0.94-0.011c-0.031-0.002-0.061-0.009-0.091-0.012c-0.415,0.049-0.833,0.077-1.25,0.077c-0.88,0.002-1.788-0.114-2.654-0.327c-0.449-0.111-0.892-0.248-1.326-0.408c-0.315-0.117-0.804-0.33-1.034-0.587c-0.305-0.093-0.63-0.063-0.939,0.034c0.14,0.321,0.619,0.631,0.843,0.771c1.038,0.645,2.274,0.882,3.492,0.988s2.48,0.045,3.688-0.146c-2.058,0.862-4.384,1.164-6.601,0.911c0.12,0.014,0.323,0.204,0.433,0.266c0.159,0.089,0.321,0.171,0.488,0.245c0.327,0.146,0.667,0.262,1.016,0.346c0.713,0.171,1.452,0.2,2.178,0.099c0.679-0.095,1.328-0.354,1.897-0.733c0.258-0.171,0.506-0.359,0.735-0.569C-13.394-68.78-12.776-69.212-12.862-69.455z"></path><path style="fill:#AAABAD;" d="M-23.29-67.953c0.217-0.257,0.523-0.437,0.853-0.502c0.75,0.787,1.741,1.294,2.802,1.531c1.061,0.237,2.156,0.263,3.243,0.288c-1.524,0.463-3.201,0.566-4.752,0.203c-0.425-0.1-0.848-0.231-1.225-0.451C-22.748-67.103-23.102-67.559-23.29-67.953z"></path><path style="fill:#FFFFFF;" d="M-13.689-67.439c-1.302,1.268-2.738,2.213-4.536,2.621c-1.021-0.12-2.018-0.427-2.938-0.884c-0.804-0.399-1.806-0.937-1.996-1.903c0.501,0.508,1.14,0.87,1.827,1.064s1.481,0.274,2.194,0.278C-17.287-66.255-15.415-66.766-13.689-67.439z"></path></g></svg>
