<?xml version="1.0" encoding="UTF-8" standalone="no"?>
<svg xmlns="http://www.w3.org/2000/svg" viewBox="-28.284305572509766 -133.79629516601562 46.6440544128418 139.4430389404297" width="100%" height="100%"> <g transform="translate(0, -27) scale(0.7)" preserveAspectRatio="none">
        <path style="fill:#111215;" d="M17.644-110.538c-0.299-0.065-0.942-0.701-1.4-0.639c-1.901,1.554-5.562,1.437-7.747,1.031c-0.18,0.131-0.206,0.461-0.142,0.766C12.617-107.595,15.756-108.864,17.644-110.538z"></path>
        <path style="fill:#EFC1B7;" d="M8.384-108.743c0.256,1.168,2.657,3.068,4.551,2.735c0.241-0.042,0.175-1.19-0.159-1.92C11.695-107.827,10.172-107.998,8.384-108.743z"></path>
        <path style="fill:#EFC1B7;" d="M10.366-112.634c0.504,0.11,1.125,1.196,1.125,1.902c-0.738,0.124-1.864,0.104-2.687-0.132C8.804-111.65,9.751-112.768,10.366-112.634z"></path>
        <path style="fill:#E6958A;" d="M14.063-109.339c-0.337-3.055-1.895-7.92-3.915-11.916c0.565,3.996,2.199,9.184,2.431,12.068c1.326,1.606,2.47,7.113,2.483,10.902C15.954-102.692,15.048-107.581,14.063-109.339z"></path>
        <path style="fill:#662B1F;" d="M14.063-109.339c-0.028-0.255-0.077-0.541-0.122-0.82c-0.472,0.107-0.957,0.191-1.455,0.231c0.034,0.252,0.074,0.515,0.092,0.74c0.14,0.17,0.277,0.392,0.413,0.642c0.47-0.038,0.918-0.112,1.341-0.22C14.243-108.979,14.154-109.177,14.063-109.339z"></path>
        <path style="fill:#EFC1B7;" d="M14.428-110.914c0.521-0.089,1.077-0.334,1.46-0.72c-0.607-1-0.98-1.321-2.093-1.339C14.275-112.539,14.344-111.155,14.428-110.914z"></path>
        <path style="fill:#EFC1B7;" d="M12.486-117.729c0.59,1.488,1.236,3.585,1.31,4.756c0.594,0.378,1.508,1.101,1.894,1.024C14.981-113.996,13.867-116.409,12.486-117.729z"></path>
    </g>
    <g transform="translate(0, -27) scale(0.7)" preserveAspectRatio="none">
        <ellipse style="fill:#EFC1B7;fill-opacity:0.01;" cx="14.693" cy="-112.379" rx="0.217" ry="0.369"></ellipse>
    </g>
    <g transform="translate(0, -27) scale(0.7)" preserveAspectRatio="none">
        <path style="fill:#EFC1B7;" d="M-2.293-106.688c0.38-0.339,0.014-1.739-0.224-2.446c-0.753,0.044-2.562,2.394-2.382,3.063C-3.876-106.127-2.782-106.252-2.293-106.688z"></path>
        <path style="fill:#FFFFFF;" d="M-2.914-107.122c-1.395,1.17-4.659,1.805-6.432,1.104c-1.061-0.419-2.206-1.265-2.885-1.906c-1.275-1.182-1.471-2.329-1.742-2.906c1.664-1.59,5.726-4.848,11.145-0.93C-2.466-110.833-2.243-109.463-2.914-107.122z"></path>
        <path style="fill:#EFC1B7;" d="M-13.652-107.237c-0.408-0.561-0.649-1.379-0.973-2.442c0.756,0.876,2.577,3.087,4.851,3.833C-11.869-105.805-13.236-106.666-13.652-107.237z"></path>
    </g>
    <g transform="translate(0, -27) scale(0.7)" preserveAspectRatio="none">
        <path style="fill:#525866;" d="M-9.499-110.438c-0.007,2.158,1.408,3.907,3.165,3.906c1.756,0,3.183-1.747,3.191-3.903c0.008-2.154-1.406-3.904-3.161-3.904C-8.06-114.339-9.49-112.592-9.499-110.438z"></path>
        <path style="fill:#07050F;" d="M-8.751-110.466c-0.006,1.742,1.137,3.154,2.556,3.153c1.417,0.001,2.57-1.409,2.577-3.151c0.005-1.74-1.136-3.152-2.553-3.152C-7.591-113.616-8.744-112.205-8.751-110.466z"></path>
        <path style="fill:#292C33;" d="M-7.667-110.748c-0.028,1.199,0.75,2.191,1.739,2.214c0.989,0.021,1.813-0.932,1.838-2.131c0.027-1.201-0.75-2.192-1.74-2.215C-6.82-112.901-7.642-111.949-7.667-110.748z"></path>
        <path style="fill:#111215;" d="M-6.88-110.73c-0.017,0.672,0.419,1.229,0.973,1.24c0.555,0.013,1.016-0.522,1.03-1.193c0.015-0.673-0.421-1.229-0.974-1.241C-6.407-111.936-6.867-111.402-6.88-110.73z"></path>
        <path style="fill:#FFFFFF;" d="M-9.429-111.251c0.225,0.604,2.582,0.534,2.686,0.231c0.16-0.468-1.036-2.07-1.885-1.836C-9.377-112.651-9.629-111.789-9.429-111.251z"></path>
        <path style="fill:#FFFFFF;" d="M-5.317-108.124c0.228,0.646,1.322-0.175,1.191-0.729C-4.313-109.646-5.488-108.608-5.317-108.124z"></path>
    </g>
    <g transform="translate(0, -27) scale(0.7)" preserveAspectRatio="none">
        <path style="fill:#FEE2CA;" d="M-2.233-110.956c-4.108-4.388-9.275-1.712-11.91-0.322c0.395-4.045,4.19-5.974,8.031-5.589C-3.565-116.612-2.139-114.168-2.233-110.956z"></path>
        <path style="fill:#EFC1B7;" d="M-2.2-112.696c-0.394-1.202-0.624-1.86-1.171-2.035c-0.902-0.289-3.432-0.621-5.485,0.036C-6.151-114.783-3.727-114.149-2.2-112.696z"></path>
        <path style="fill:#111215;" d="M-11.721-111.529c2.143-1.638,6.973-2.298,9.77,1.282c-0.109-0.639-0.297-1.189-0.47-1.535c-3.179-3.381-8.599-2.813-12.299,0.265c0.188,1.003,1.165,2.846,2.49,3.593C-13.981-110.359-12.241-111.132-11.721-111.529z"></path>
    </g>
</svg>
