<svg xmlns:xlink="http://www.w3.org/1999/xlink" xmlns="http://www.w3.org/2000/svg" viewBox="-29.14435386657715 -93.62846374511719 46.30208969116211 50.490665435791016" width="406" height="325"><!--00003-00720001500020--><g><path style="" d="M10.167-53.542c0.602,0.613,3.834,0.917,5.543-0.653c0.813-0.747,0.316-1.568,0.134-2.5 c-0.056-0.284-0.456-3.228-0.558-3.233c-1.158-0.062-7.545,0.538-6.538,2.763C9.255-56.044,9.565-54.155,10.167-53.542z" fill="#171717"></path><path d="M14.814-56.347c-0.137-0.71-0.273-1.42-0.41-2.13c-0.047-0.245-0.069-1.241-0.307-1.403 c-0.047,0.004-0.099,0.01-0.148,0.014c-0.17,0.158-0.206,0.832-0.223,0.994c-0.087,0.857-0.094,1.759,0.065,2.608 c0.176,0.942,0.433,1.88,0.701,2.811c0.265-0.106,0.518-0.236,0.756-0.391C15.052-54.927,14.852-56.147,14.814-56.347z"></path><path d="M12.561-53.052c-0.384-1.507-0.807-3.004-1.313-4.475l0.088-1.562c-0.072-0.108-0.165-0.197-0.266-0.276 c-1.554,0.424-2.812,1.119-2.323,2.2c0.508,1.121,0.818,3.01,1.42,3.623C10.471-53.231,11.448-53.002,12.561-53.052z"></path><path style="" d="M15.111-66.117c1.032,1.516,2.29,3.247,2.006,4.92c-0.327,1.925-1.777,3.491-3.527,4.267 c-1.265,0.563-3.766,0.872-4.965,0.18c-1.837-1.06-2.225-3.812-3.057-5.713c-1.334-3.052,0.15-7.166,3.722-7.756 c1.44-0.238,2.985,0.287,3.982,1.354c0.457,0.489,0.798,1.074,1.134,1.654C14.608-66.863,14.853-66.497,15.111-66.117z" fill="#C4C4C4"></path><path style="" d="M14.727-57.583c-0.007-0.634-0.106-1.453-0.372-2.664c-0.135,0.092-0.26,0.197-0.402,0.279 c-1.77,1.023-3.906,1.248-5.917,0.838c0.361,0.824,0.802,1.8,1.202,2.618l0,0c1.303,0.352,3.273,0.062,4.351-0.417 C13.989-57.107,14.369-57.33,14.727-57.583L14.727-57.583z" fill="#171717"></path><path style="" d="M12.05-65.73c-0.532-1.525-1.112-3.034-1.724-4.529c-0.345-0.027-0.694-0.016-1.036,0.04 c-1.761,0.291-3.011,1.44-3.67,2.895c0.027,0.182,0.058,0.366,0.086,0.555c0.04,0.274,0.612,3.307,0.665,3.292 c1.31-0.376,2.608-0.795,3.891-1.257C10.91-64.968,11.579-65.228,12.05-65.73z" fill="#171717"></path><path style="" d="M8.037-59.13c-0.37-0.846-0.655-1.531-0.723-1.716c-0.332-0.913-0.643-1.821-0.972-2.721 c-0.37,0.028-0.74,0.031-1.112,0.009c0.079,0.374,0.184,0.743,0.338,1.097c0.387,0.884,0.681,1.949,1.066,2.945 C7.09-59.349,7.561-59.227,8.037-59.13z" fill="#171717"></path><path style="" d="M14.349-60.242c1.074-0.73,1.949-1.754,2.494-2.93l0,0c-0.397-1.02-1.104-2.022-1.732-2.944 c-0.259-0.38-0.503-0.746-0.705-1.095c-0.054-0.093-0.112-0.182-0.167-0.275c-0.407,0.433-0.869,0.825-1.338,1.179 c-0.296,0.223-0.601,0.438-0.914,0.643c0.557,1.042,1.096,2.092,1.56,3.178C13.858-61.758,14.129-61.006,14.349-60.242z" fill="#171717"></path></g><!---0003-00870001700025--><g><path style="" d="M12.429-71.805c0.802,2.515,0.717,5.52-1.375,7.373c-0.996,0.882-2.451,1.271-3.716,0.861 c-1.449-0.47-2.407-1.827-3.155-3.154c-2.038-3.612-3.785-7.916-4.619-11.969c-0.169-0.823-0.289-1.687-0.052-2.493 c0.235-0.798,0.793-1.455,1.346-2.076c0.401-0.45,0.818-0.905,1.353-1.184c1.65-0.859,4.524,0.176,5.633,1.544 c1.093,1.348,1.152,3.228,1.664,4.886c0.504,1.635,1.466,3.083,2.254,4.601C12.022-72.916,12.248-72.373,12.429-71.805z" fill="#C4C4C4"></path><path style="" d="M7.444-75.078c-0.762-1.734-1.542-3.456-2.44-5.106c-1.354,0.771-2.769,1.432-4.23,1.975 c0.298,1.209,0.632,2.409,1.021,3.592c0.193,0.588,0.396,1.175,0.607,1.76c1.561-0.362,3.203-1.254,4.309-1.825 C6.956-74.809,7.201-74.942,7.444-75.078z" fill="#171717"></path><path style="" d="M12.006-65.596c0.003-0.005,0.006-0.01,0.009-0.015c-0.576-1.079-1.172-2.148-1.726-3.238 c-0.198-0.39-0.384-0.786-0.573-1.181c-1.599,1.024-3.394,1.743-5.258,2.093c0.172,0.363,0.337,0.73,0.517,1.088 c0.425,0.842,0.775,1.699,1.102,2.563l0,0c0.354,0.29,0.745,0.527,1.182,0.681l0,0c1.598-0.139,3.158-0.7,4.498-1.59 C11.853-65.322,11.923-65.462,12.006-65.596z" fill="#171717"></path><path style="" d="M2.798-83.686c0.824,1.115,1.547,2.29,2.206,3.502c1.123-0.64,2.204-1.352,3.23-2.137 c-0.114-0.202-0.241-0.397-0.39-0.581c-1.109-1.369-3.983-2.403-5.633-1.544c-0.035,0.018-0.066,0.043-0.101,0.063 C2.319-84.183,2.571-83.993,2.798-83.686z" fill="#171717"></path><path style="" d="M-0.239-77.844c0.341-0.112,0.677-0.241,1.013-0.366c-0.102-0.415-0.217-0.828-0.306-1.247 c-0.056-0.266-0.341-1.477-0.542-2.605c-0.172,0.276-0.322,0.562-0.414,0.874c-0.237,0.806-0.118,1.67,0.052,2.493 C-0.378-78.413-0.306-78.128-0.239-77.844z" fill="#171717"></path><path style="" d="M7.444-75.078c0.743,1.69,1.476,3.387,2.272,5.049c0.941-0.603,1.813-1.31,2.591-2.111 c-0.159-0.445-0.337-0.877-0.544-1.275c-0.638-1.229-1.378-2.418-1.908-3.691C9.274-76.219,8.384-75.601,7.444-75.078z" fill="#171717"></path><path style="" d="M2.402-72.858c-0.356,0.083-0.703,0.128-1.043,0.144c0.656,1.697,1.418,3.354,2.241,4.911 c0.287-0.036,0.573-0.08,0.858-0.134c-0.492-1.037-0.96-2.086-1.385-3.153C2.839-71.676,2.616-72.266,2.402-72.858z" fill="#171717"></path></g><!---0023-00960003700054--><g><g><g><path style="" d="M9.167-46c0,0,1.278-6.597,1.333-7.667c0.024-0.46-0.822-1.414-1.092-1.787 C9.092-55.891,8.5-56.006,7.966-56.08C2.517-56.836-3.03-56.88-8.49-56.211C-11.288-55.868-19-53.333-19-53.333l0.667,6.833 c0,0,4.5,2.667,10.5,3.167C5.123-42.254,9.167-46,9.167-46z" fill="#262626"></path><path style="" d="M9.408-55.454C9.092-55.891,8.5-56.006,7.966-56.08C2.517-56.836-3.03-56.88-8.49-56.211 C-11.288-55.868-19-53.333-19-53.333l0.359,3.679c0.888,0.905,2.03,1.593,3.391,1.904c6.597,1.506,13.951,2.536,20.5,0.833 c1.826-0.475,3.37-1.426,4.596-2.697c0.315-1.73,0.628-3.536,0.654-4.053C10.524-54.126,9.678-55.081,9.408-55.454z" fill="#171717"></path><path style="" d="M-7.571-49.484c-1.175,0.312-0.822,3.997-0.564,6.118c0.101,0.01,0.2,0.024,0.302,0.032 c0.523,0.044,1.008,0.067,1.502,0.096C-6.293-45.571-6.379-49.8-7.571-49.484z" fill="#171717"></path><path style="" d="M-4.217-49.322c-1.209,0.233-1.094,4.024-0.983,6.144c0.619,0.023,1.226,0.039,1.799,0.04 C-3.205-45.489-3.029-49.551-4.217-49.322z" fill="#171717"></path><path style="" d="M8.919-53.624L8.495-50.75c-0.187,1.87-0.422,3.734-0.682,5.595C8.765-45.629,9.167-46,9.167-46 s1.278-6.597,1.333-7.667c0.01-0.197-0.142-0.485-0.337-0.778C9.637-54.395,9.133-54.103,8.919-53.624z" fill="#171717"></path><path style="" d="M-10.819-49.33l1.207-1.202c-1.064-1.779-2.869-3.044-4.837-3.695 c-0.307-0.101-0.622-0.165-0.936-0.239C-17.394-53.86-19-53.333-19-53.333l0.667,6.833c0,0,3.281,1.937,7.969,2.818 C-10.553-45.562-10.715-47.444-10.819-49.33z" fill="#171717"></path><path d="M-15.361-49.997l0.491-1.414c-0.19-1.05-0.734-1.999-1.476-2.762c-1.533,0.472-2.654,0.84-2.654,0.84l0.667,6.833 c0,0,1.359,0.8,3.571,1.605C-14.962-46.596-15.162-48.296-15.361-49.997z"></path><path style="" d="M4.986-44.114c0.063-1.807,0.397-3.535,0.647-5.328c-0.626,0.132-1.194,0.394-1.802,0.56 c-0.576,0.157-1.208,0.087-1.782,0.322c-0.147,0.06-0.151,3.337-0.156,5.079C3.099-43.651,4.113-43.874,4.986-44.114z" fill="#171717"></path><path style="" d="M-14.011-84.139c1.671-0.904,3.634-1.492,3.634-1.492l0.912-6.023 c4.003-4.042,8.345-0.219,8.345-0.219l0.919,6.127c0,0,5.25-0.113,6.438,3.53c0.754,2.312-0.965,4.106-0.866,5.143 c0.036,0.373,0.055,0.722,0.072,1.066c1.973-3.415,2.075-9.017,1.669-11.955c-0.596-4.312-6.792-5.02-10.456-5.454 c-3.335-0.395-6.961-0.241-10.342,0.477c-1.33,0.282-2.775,0.306-3.39,1.705c-0.695,1.582,0.521,3.652,1.386,4.883 C-15.157-85.594-14.592-84.861-14.011-84.139z" fill="#A6A6A6"></path><path style="" d="M-13.703-91.084c-0.369,0.215-0.727,0.474-0.956,0.835s-0.305,0.843-0.099,1.217l0.002-0.008 c0.187,0.371,0.564,0.61,0.949,0.767c0.467,0.19,0.97,0.289,1.474,0.288c0.145,0,0.298-0.011,0.42-0.089 c0.127-0.082,0.2-0.225,0.275-0.356c0.44-0.768,1.154-1.344,1.948-1.743l0.224-1.48c0.105-0.106,0.21-0.185,0.315-0.28 C-10.707-92.159-12.342-91.878-13.703-91.084z" fill="#C2C2C2"></path><path style="" d="M-3.122-82.407c1.69-0.029,3.395-0.626,4.619-1.792c1.21,4.014,1.575,8.28,1.064,12.441 c-0.175,1.421-0.457,2.851-1.101,4.131c-0.517,1.028-1.461,2.031-2.607,1.934c-0.669-0.056-1.247-0.481-1.75-0.926 c-2.341-2.068-3.929-4.912-4.744-7.927c-0.678-2.507-0.851-5.143-0.66-7.728c0.094-1.274,0.543-1.202,1.62-0.816 C-5.527-82.676-4.359-82.386-3.122-82.407z" fill="#525252"></path><path style="" d="M-1.092-72.039c-0.03,0.143-0.056,0.307,0.033,0.423c0.087,0.114,0.248,0.134,0.391,0.134 c1.152,0.005,2.233-0.672,2.93-1.589c0.697-0.917,1.054-2.049,1.264-3.182c0.548-2.956-0.226-5.287-1.527-7.949 c-0.202,0.312-0.236,0.698-0.284,1.067c-0.26,1.98-1.257,3.725-1.667,5.675C-0.332-75.653-0.712-73.846-1.092-72.039z" fill="#333333"></path><path style="" d="M2.268-83.23c0.15,0.218,0.088,0.529-0.075,0.736c-0.163,0.208-0.406,0.335-0.644,0.45 c-1.145,0.556-2.35,0.988-3.587,1.285c-0.299,0.072-0.6,0.136-0.905,0.179c-0.688,0.097-1.549,0.157-2.201-0.102 c0.709-0.505,2.063-0.402,2.922-0.566C-0.6-81.558,0.95-82.233,2.268-83.23z" fill="#333333"></path><path style="" d="M1.114-74.941c-0.133,1.598-0.267,3.197-0.4,4.795c1.776-3.952,3.152-8.083,4.098-12.311 c0.18-0.802,0.344-1.612,0.389-2.433c0.014-0.253,0.008-0.53-0.151-0.726c-1.018-1.252-3.994-0.82-5.373-0.81 C1.743-82.823,1.445-78.915,1.114-74.941z" fill="#A6A6A6"></path><path style="" d="M1.963-85.803c-0.33-0.817-0.77-1.584-1.213-2.345c-0.167-0.287-0.34-0.625-0.223-0.935 c0.09-0.239,0.335-0.39,0.584-0.449c0.862-0.204,1.681,0.5,2.138,1.259c0.698,1.16,0.947,2.529,1.134,3.87 c0.195,1.401,0.335,2.827,0.132,4.227c-0.121,0.835-0.372,1.66-0.783,2.399c-0.181,0.325-0.941,1.282-1.209,0.502 c-0.107-0.311,0.107-1.002,0.137-1.337c0.042-0.459,0.076-0.919,0.097-1.379c0.043-0.926,0.036-1.857-0.063-2.78 C2.582-83.807,2.354-84.834,1.963-85.803z" fill="#C2C2C2"></path><path style="" d="M10.814-65.026c0,0-0.261-6.281-0.368-9.436c-0.084-2.496-0.559-4.978-1.402-7.329 c-0.224-0.625-0.479-1.25-0.878-1.781c-0.599-0.797-1.952-1.857-3.038-1.782C4.5-85.31,4.695-84.816,4.55-84.169 c-0.178,0.796-0.366,1.59-0.549,2.385c-0.363,1.58-0.728,3.165-1.27,4.693c-0.53,1.495-1.225,2.926-1.919,4.352 c-1.304-1.908-2.872-3.461-4.28-5.248c-1.484-1.882-3.101-3.668-4.933-5.218c-1.19-1.007-2.477-1.922-3.459-3.133 c-0.717-0.884-4.023,1.188-4.738,1.698c-1.429,1.02-2.643,2.458-2.965,4.226c-0.61,3.353,1.655,9.894,1.396,13.247 c0,0-3.085,8.215-2.5,12.5c0.373,2.734,2.363,5.156,5.333,5.833c6.597,1.506,13.951,2.536,20.5,0.833 c4.169-1.084,6.972-4.543,7.5-9C12.954-59.432,10.814-65.026,10.814-65.026z" fill="#FFFFFF"></path><path style="" d="M-2.25-57.322c1.008,0.065,2.016,0.129,3.025,0.194 c0.418,0.027,0.844,0.053,1.249-0.055c0.344-0.092,0.655-0.275,0.959-0.46c0.986-0.598,2.059-1.061,2.966-1.785 c0.953-0.761,1.315-2.439,1.749-3.555c-2.247,0.86-4.136,2.106-6.167,3.348c-0.641,0.392-1.282,0.785-1.924,1.177 C-0.766-58.23-1.828-57.295-2.25-57.322z" fill="#1C1C1C" fill-opacity="0.36"></path><path style="" d="M6.969-51.09c-2.962,1.862-6.248,3.202-9.662,3.967 c2.68,0.028,5.33-0.219,7.859-0.877c4.034-1.049,6.77-4.332,7.422-8.581C11.315-54.301,9.208-52.497,6.969-51.09z" fill="#1C1C1C" fill-opacity="0.36"></path><path style="" d="M-11.111-50.771c-0.761-2.674-1.115-4.538-0.851-7.328 c0.053-0.563,0.076-1.212-0.336-1.599c-0.112-0.105-0.266-0.251-0.182-0.38c0.042-0.066,0.129-0.084,0.206-0.097 c1.069-0.177,2.138-0.355,3.207-0.532c-1.315-1.623-3.639-3.417-3.312-5.605c0.492-3.288,0.309-6.676-0.535-9.891 c-0.434-1.653-1.055-3.288-2.113-4.63c-1.181-1.499-2.471-1.866-3.741-1.562c-0.38,0.603-0.663,1.263-0.793,1.981 c-0.61,3.353,1.655,9.894,1.396,13.247c0,0-3.085,8.215-2.5,12.5c0.373,2.734,2.363,5.156,5.333,5.833 c2.094,0.478,4.264,0.907,6.461,1.217c-0.178-0.151-0.312-0.267-0.37-0.319C-10.124-48.74-10.777-49.606-11.111-50.771z" fill="#1C1C1C" fill-opacity="0.36"></path><g><path style="" d="M5.899-61.86c-0.179-0.783-0.152-1.596-0.144-2.399c0.007-0.662-0.005-1.319-0.03-1.972 c-0.093,0.036-0.183,0.079-0.276,0.113c-1.941,0.71-3.996,0.988-6.068,1.113c0.104,0.856,0.195,1.712,0.264,2.568 c0.088,1.088,0.153,2.181,0.351,3.255c0.038,0.208,0.092,0.413,0.139,0.619c2.176-0.234,4.344-0.736,6.363-1.561 C6.26-60.689,6.037-61.259,5.899-61.86z" fill="#2B2B2B"></path><path style="" d="M5.899-61.86c-0.022-0.097-0.033-0.196-0.049-0.294c-1.487,0.749-2.869,1.632-4.32,2.519 c-0.479,0.293-0.959,0.587-1.438,0.88c0.015,0.064,0.029,0.128,0.043,0.192c2.176-0.234,4.344-0.736,6.363-1.561 C6.26-60.689,6.037-61.259,5.899-61.86z" fill="#0F0F0F"></path><path style="" d="M-16.299-77.914c0.594,1.843,1.09,3.715,1.499,5.607c2.223,0.288,4.456,0.479,6.692,0.528 c-0.596-2.593-1.413-5.138-2.381-7.614c-1.534,0.338-3.06,0.709-4.575,1.111C-15.399-78.193-15.827-78.058-16.299-77.914z" fill="#2B2B2B"></path><path style="" d="M-14.023-59.729c2.185,0.505,4.424,0.792,6.654,1.019c0.173-2.062,0.409-4.09,0.289-6.209 c-0.562-0.015-1.125-0.022-1.687-0.056c-1.685-0.103-3.358-0.318-4.991-0.697c0.071,0.732,0.134,1.465,0.177,2.199 c0.042,0.726,0.071,1.458-0.037,2.178C-13.699-60.762-13.857-60.244-14.023-59.729z" fill="#2B2B2B"></path><path style="" d="M9.211-81.262c-0.366-0.019-0.732-0.021-1.098-0.033c0.918,1.81,1.368,3.902,1.544,5.988 c0.234-0.115,0.472-0.219,0.703-0.34C10.201-77.557,9.816-79.444,9.211-81.262z" fill="#2B2B2B"></path><path style="" d="M9.802-68.289c0.057,1.808,0.225,3.598,0.734,5.331c0.044,0.149,0.097,0.295,0.145,0.442 c0.266-0.204,0.542-0.394,0.795-0.614c0.067,0.206,0.136,0.424,0.205,0.649c-0.444-1.44-0.867-2.546-0.867-2.546 s-0.071-1.709-0.154-3.788C10.383-68.626,10.092-68.455,9.802-68.289z" fill="#2B2B2B"></path><path style="" d="M-15.645-53.834c-0.322,1.562-0.544,3.138-0.594,4.718c0.292,0.109,0.59,0.211,0.906,0.283 c2.433,0.555,4.97,1.045,7.531,1.357c0.053-1.441,0.096-2.885,0.139-4.328C-10.384-52.21-13.062-52.889-15.645-53.834z" fill="#2B2B2B"></path><g><path style="" d="M-16.299-77.914c0.594,1.843,1.09,3.715,1.499,5.607c0.863,0.112,1.729,0.195,2.594,0.275 c-0.119-1.407-0.351-2.804-0.709-4.17c-0.214-0.817-0.476-1.629-0.812-2.404c-0.445,0.112-0.895,0.207-1.338,0.325 C-15.399-78.193-15.827-78.058-16.299-77.914z" fill="#0F0F0F"></path><path style="" d="M-11.981-48.135c0.934,0.176,1.878,0.333,2.826,0.471c0.09,0.013,0.181,0.025,0.272,0.038 c-0.172-0.145-0.302-0.258-0.359-0.31c-0.882-0.805-1.535-1.67-1.869-2.835c-0.184-0.646-0.343-1.243-0.476-1.819 c-1.373-0.345-2.729-0.758-4.059-1.244c-0.322,1.562-0.544,3.138-0.594,4.718c0.292,0.109,0.59,0.211,0.906,0.283 c0.941,0.215,1.901,0.415,2.868,0.603C-12.304-48.199-12.143-48.166-11.981-48.135z" fill="#0F0F0F"></path><path style="" d="M-14.023-59.729c0.651,0.15,1.307,0.277,1.965,0.392c-0.056-0.134-0.131-0.257-0.241-0.361 c-0.112-0.105-0.266-0.251-0.182-0.38c0.042-0.066,0.129-0.084,0.206-0.097c1.069-0.177,2.138-0.355,3.207-0.532 c-1.126-1.39-2.986-2.906-3.294-4.685c-0.468-0.082-0.934-0.173-1.396-0.28c0.071,0.732,0.134,1.465,0.177,2.199 c0.042,0.726,0.071,1.458-0.037,2.178C-13.699-60.762-13.857-60.244-14.023-59.729z" fill="#0F0F0F"></path></g><path style="" d="M4.868-73.408c-0.344-1.745-0.774-3.479-1.275-5.22C3.52-78.882,3.5-79.219,3.469-79.563 c-0.214,0.834-0.45,1.661-0.738,2.472c-0.53,1.495-1.225,2.926-1.919,4.352c-1.304-1.908-2.872-3.461-4.28-5.248 c-0.166-0.21-0.34-0.414-0.509-0.622l-0.177,1.64c0.881,1.568,1.558,3.228,2.093,4.94C0.286-72.282,2.616-72.724,4.868-73.408z" fill="#2B2B2B"></path><path style="" d="M1.849-51.668c-0.284,0.056-0.57,0.095-0.856,0.134c-0.069,1.446-0.274,2.891-0.589,4.308 C2.023-47.352,3.618-47.597,5.167-48c0.785-0.204,1.503-0.517,2.185-0.88c0.001-0.003,0.003-0.006,0.004-0.009 c0.374-0.959,0.584-1.975,0.696-2.998c0.067-0.619,0.076-1.237,0.058-1.854C6.118-52.615,4.146-52.121,1.849-51.668z" fill="#2B2B2B"></path><path style="" d="M7.351-48.88c0.001-0.003,0.003-0.006,0.004-0.009c0.364-0.934,0.572-1.923,0.685-2.92 c-0.353,0.249-0.709,0.491-1.071,0.719c-2.007,1.262-4.171,2.262-6.414,3.028c-0.052,0.274-0.088,0.551-0.149,0.824 c0.19-0.015,0.382-0.024,0.572-0.043c0.159-0.015,0.318-0.029,0.477-0.047c0.541-0.061,1.078-0.137,1.611-0.228 c0.135-0.023,0.27-0.049,0.405-0.074c0.57-0.107,1.136-0.224,1.695-0.37c0.409-0.106,0.795-0.251,1.177-0.402 C6.689-48.546,7.025-48.706,7.351-48.88z" fill="#0F0F0F"></path><path style="" d="M11.977-56.609c-0.096,1.512-0.544,3.012-1.163,4.405c-0.105,0.237-0.227,0.466-0.341,0.698 c1.171-1.516,1.944-3.387,2.194-5.495c0.012-0.099,0.013-0.211,0.017-0.32C12.459-57.073,12.219-56.84,11.977-56.609z" fill="#2B2B2B"></path><path style="" d="M10.814-52.204c-0.092,0.207-0.197,0.407-0.298,0.61c0.058-0.076,0.115-0.153,0.17-0.231 c0.158-0.221,0.312-0.445,0.454-0.68c0.145-0.243,0.276-0.497,0.402-0.754c0.079-0.158,0.159-0.314,0.23-0.476 c0.164-0.38,0.308-0.773,0.431-1.179c0.017-0.056,0.038-0.11,0.054-0.167c0.139-0.485,0.252-0.985,0.331-1.5 c-0.226,0.404-0.486,0.788-0.76,1.163C11.63-54.314,11.269-53.229,10.814-52.204z" fill="#0F0F0F"></path><path style="" d="M9.802-68.289c-0.058-1.862,0.002-3.743-0.062-5.602c-0.016-0.469-0.044-0.942-0.084-1.417 c-1.543,0.761-3.143,1.399-4.789,1.899c0.465,2.36,0.767,4.739,0.858,7.177c1.364-0.53,2.649-1.245,3.925-1.965 C9.702-68.225,9.751-68.259,9.802-68.289z" fill="#2B2B2B"></path><path style="" d="M-16.299-77.914c-0.568-1.763-1.212-3.502-1.945-5.203c0.283-0.342,0.595-0.659,0.93-0.951 c0.584-0.26,1.182-0.48,1.812-0.575c1.033-0.156,2.178,0.063,2.902,0.815c0.371,0.385,0.605,0.879,0.825,1.366 c0.456,1.008,0.879,2.034,1.284,3.069c1.661-0.365,3.33-0.691,5.007-0.966c-0.916-1.006-1.88-1.966-2.919-2.846 c-1.19-1.007-2.477-1.922-3.459-3.133c-0.717-0.884-4.023,1.188-4.738,1.698c-1.429,1.02-2.643,2.458-2.965,4.226 c-0.16,0.881-0.12,1.984,0.019,3.189C-18.493-77.27-17.291-77.612-16.299-77.914z" fill="#0F0F0F"></path><path style="" d="M0.64-56.389c-0.152-0.728-0.341-1.449-0.504-2.175c-0.91,0.098-1.821,0.165-2.723,0.168 c-1.409,0.006-2.816-0.119-4.218-0.257c-0.188-0.018-0.376-0.039-0.564-0.058c-0.056,0.663-0.105,1.33-0.132,2.006 c-0.064,1.628-0.114,3.264-0.163,4.901c1.61,0.241,3.233,0.397,4.86,0.442c1.268,0.035,2.541,0.002,3.796-0.171 C1.071-53.162,0.974-54.793,0.64-56.389z" fill="#2B2B2B"></path><path style="" d="M-2.25-57.322c0.905,0.058,1.809,0.116,2.714,0.174c-0.111-0.472-0.222-0.943-0.328-1.416 c-0.139,0.015-0.277,0.023-0.416,0.036c-0.038,0.023-0.075,0.046-0.113,0.069C-0.766-58.23-1.828-57.295-2.25-57.322z" fill="#0F0F0F"></path><path style="" d="M-14.142-59.349c0.041-0.126,0.079-0.254,0.119-0.381c-1.069-0.247-2.126-0.541-3.161-0.914 c-0.85-0.307-1.687-0.659-2.489-1.077c-0.054-0.028-0.1-0.056-0.149-0.083c-0.471,1.856-0.863,3.893-0.907,5.625 c0.499,0.341,1.038,0.621,1.498,0.842c1.169,0.561,2.368,1.057,3.586,1.502C-15.261-55.698-14.73-57.543-14.142-59.349z" fill="#0F0F0F"></path><path style="" d="M11.977-56.609c0.039-0.622,0.025-1.246-0.071-1.865c-0.216-1.393-0.79-2.699-1.225-4.041 c-1.274,0.976-2.68,1.777-4.182,2.391c0.387,0.918,0.825,1.818,1.083,2.776c0.318,1.181,0.494,2.391,0.528,3.607 c0.267-0.151,0.534-0.311,0.802-0.486C9.996-54.936,11.042-55.718,11.977-56.609z" fill="#2B2B2B"></path><path style="" d="M-17.781-67.026c1.298,0.6,2.647,1.034,4.023,1.353c-0.216-2.23-0.57-4.444-1.042-6.634 c-1.349-0.175-2.695-0.381-4.035-0.619c0.402,2.16,0.777,4.247,0.67,5.726C-18.041-67.144-17.914-67.087-17.781-67.026z" fill="#0F0F0F"></path><path style="" d="M8.113-81.295c-0.504-0.994-1.137-1.911-1.971-2.677l-0.298-1.281 c-0.244-0.073-0.487-0.116-0.716-0.1C4.5-85.31,4.695-84.816,4.55-84.169c-0.178,0.796-0.366,1.59-0.549,2.385 c-0.037,0.159-0.074,0.318-0.111,0.477C5.298-81.357,6.706-81.343,8.113-81.295z" fill="#2B2B2B"></path><path style="" d="M-8.108-71.779c0.49,2.132,0.839,4.293,1.008,6.468c0.01,0.131,0.012,0.26,0.019,0.39 c1.224,0.032,2.448,0.039,3.672,0.016c0.928-0.017,1.86-0.046,2.79-0.102c-0.289-2.382-0.734-4.749-1.444-7.023 c-0.951,0.103-1.903,0.185-2.857,0.225C-5.982-71.759-7.045-71.755-8.108-71.779z" fill="#2B2B2B"></path></g><path style="" d="M8.166-83.572c-0.51-0.679-1.567-1.542-2.541-1.739 c-0.508,2.625-1.264,5.202-2.285,7.674c-0.299,0.723-0.619,1.441-1.013,2.119c-0.125,0.215-0.362,0.479-0.552,0.754 c-0.088,0.194-0.179,0.387-0.27,0.579c-0.023,0.143-0.006,0.283,0.083,0.414c0.772,1.144,2.761-1.65,3.174-2.18 c1.642-2.103,3.218-4.415,3.778-6.987C8.426-83.156,8.314-83.375,8.166-83.572z" fill="#1C1C1C" fill-opacity="0.36"></path><g><path style="" d="M1.547-71.289c-0.064-0.124-0.134-0.245-0.198-0.369c-0.032,0.063-0.068,0.123-0.1,0.185 C1.35-71.412,1.444-71.347,1.547-71.289z" fill="#C4C4C4"></path><path style="" d="M-4.728-79.288c-0.032-0.035-0.064-0.069-0.096-0.104 c-0.944-1.017-1.891-2.031-2.841-3.042c-0.426-0.454-0.839-0.929-1.305-1.341c-0.257-0.227-0.64-0.749-0.907-0.892 c-1.083-0.581-2.219-1.054-3.41-1.371c-0.133-0.035-0.27-0.06-0.406-0.091c-1.761,0.621-3.511,1.69-4.655,3.134 c0.743-0.043,1.504-0.022,1.668,0.008c1.016,0.184,2.198,0.044,3.153,0.366c1.869,0.629,3.541,1.453,4.986,2.794 c1.497,1.388,3.154,2.638,4.767,3.914c1.356,1.074,2.777,2.179,4.468,2.546C-1.1-75.352-2.908-77.326-4.728-79.288z" fill="#1C1C1C" fill-opacity="0.36"></path></g><path style="" d="M7.568-84.211c0.071-1.688-0.074-3.428-0.801-4.952c-0.506-1.059-1.475-1.906-2.469-2.497 c-0.523-0.311-1.088-0.57-1.68-0.722c-1.15-0.295-2.187-0.673-3.394-0.706c0.411,0.011,0.857,0.373,1.244,0.494 c0.369,0.115,0.682,0.218,1.029,0.411c0.594,0.331,1.237,0.686,1.753,1.134c0.809,0.703,1.029,1.896,1.014,2.931 c-0.045,3.315-0.791,6.723-1.667,9.908c-0.497,1.805-1.268,3.382-1.149,5.317c1.368-2.165,3.702-3.448,4.794-5.765 C7.082-80.439,7.486-82.262,7.568-84.211z" fill="#FFFFFF"></path><path style="" d="M6.243-78.658c0.532-1.131,0.873-2.283,1.084-3.469c-0.036-0.119-0.071-0.239-0.119-0.354 c-0.537-1.303-1.922-1.921-3.27-1.815c-0.211,1.42-0.512,2.834-0.854,4.22c0.262,0.058,0.5,0.133,0.553,0.163 c0.474,0.272,0.612,0.758,0.723,1.269c0.167,0.764,0.199,1.544,0.179,2.327C5.208-77.016,5.82-77.759,6.243-78.658z" fill="#2B2B2B"></path><path style="" d="M2.314-74.632c-0.239,0.438-0.468,0.904-0.609,1.383 c1.387-1.951,3.51-3.225,4.539-5.409c0.839-1.781,1.243-3.604,1.325-5.553c0.038-0.907,0.004-1.826-0.14-2.721 C7.273-82.264,4.496-78.638,2.314-74.632z" fill="#1C1C1C" fill-opacity="0.24"></path><path style="" d="M-20.255-85.862c0.268,1.124,0.582,2.243,1.375,3.121c0.61-0.793,2.094-1.451,3.129-1.524 c0.581-0.041,1.16,0.069,1.732,0.178c4.085,0.781,7.061,3.533,9.662,6.679c1.436,1.738,3.379,3.589,5.479,4.486 c-0.289-0.886-0.45-1.663-0.908-2.514c-0.509-0.944-1.124-1.814-1.691-2.721c-1.158-1.717-2.341-3.416-3.525-5.115 c-0.543-0.78-1.088-1.563-1.714-2.279c-0.533-0.61-1.224-1.061-1.747-1.66c-1.17-1.339-2.606-2.445-4.195-3.243 c-0.395-0.199-2.097-0.58-2.282-0.898c-0.272-0.466,1.099-1.017,1.483-1.153c0.577-0.205,1.077-0.504,1.656-0.734 c-1.459-0.047-2.927,0.214-4.28,0.763c-0.417,0.169-0.832,0.371-1.15,0.688c-0.76,0.757-0.751,1.871-1.535,2.655 c-0.62,0.62-1.523,1.105-1.655,1.972c-0.044,0.29,0.01,0.585,0.071,0.872C-20.321-86.146-20.289-86.004-20.255-85.862z" fill="#FFFFFF"></path><path style="" d="M-5.003-83.271c-0.192-0.275-0.387-0.549-0.583-0.822c-0.24,0.074-0.463,0.18-0.629,0.29 c-0.901,0.6-1.346,1.844-1.257,2.958c0.005,0.062,0.019,0.121,0.027,0.182c1.1,0.973,2.112,2.079,3.072,3.24 c-0.001-0.061-0.008-0.12-0.006-0.182c0.012-0.396,0.025-0.798,0.146-1.175c0.18-0.56,0.716-1.157,1.279-1.516 C-3.636-81.288-4.315-82.283-5.003-83.271z" fill="#2B2B2B"></path><path style="" d="M-11.046-83.099c-0.575-0.897-0.844-2.018-0.456-3.034c0.234-0.611,0.758-1.074,1.341-1.37 c0.332-0.168,0.685-0.284,1.044-0.384c-1.038-1.034-2.233-1.909-3.542-2.567c-0.232-0.116-0.908-0.296-1.469-0.488 c-0.28,0.137-0.533,0.346-0.739,0.649c-0.116,0.171-0.2,0.366-0.241,0.568c-0.038,0.187-0.038,0.38,0.008,0.565 c0.042,0.169,0.123,0.336,0.101,0.508c-0.017,0.138-0.098,0.259-0.177,0.374c-0.283,0.414-0.756,0.848-0.782,1.363 c-0.029,0.61,0.2,1.202,0.459,1.755c0.149,0.318,0.332,0.618,0.502,0.924c0.327,0.035,0.653,0.088,0.976,0.15 C-12.957-83.883-11.972-83.541-11.046-83.099z" fill="#2B2B2B"></path><path style="" d="M1.091-73.018c-0.136-0.427-0.25-0.833-0.382-1.233 c-0.652-0.51-1.237-1.111-1.801-1.721c-1.968-2.127-3.78-4.405-5.91-6.368c-2.13-1.964-4.641-3.627-7.477-4.22 c-1.846-0.386-3.756-0.305-5.635-0.155c-0.107-0.258-0.165-0.532-0.195-0.809c-0.051,0.115-0.092,0.234-0.112,0.364 c-0.044,0.29,0.01,0.585,0.071,0.872c0.03,0.143,0.062,0.285,0.096,0.427c0.268,1.124,0.582,2.243,1.375,3.121 c0.61-0.793,2.094-1.451,3.129-1.524c0.581-0.041,1.16,0.069,1.732,0.178c4.085,0.781,7.061,3.533,9.662,6.679 c1.42,1.719,3.336,3.544,5.409,4.452C1.066-72.975,1.076-72.998,1.091-73.018z" fill="#1C1C1C" fill-opacity="0.24"></path><path d="M5.167-48c0.122-0.032,1.792-2.875,0.798-7.771C5.776-56.703,5.553-57.599,5.25-58.5c-0.372-1.103-0.834-1.325-0.958-2.5 c-0.114-1.078-0.09-3.072-0.183-4.159c-0.151-1.756-0.535-3.817-1.061-5.499c-0.298-0.953-1.199-2.332-2.363-1.187 c-0.547,0.539-0.369,0.942-0.152,1.53c0.293,0.793,0.439,1.648,0.587,2.482c0.322,1.812,0.5,3.646,0.678,5.477 c0.029,0.3,0.049,0.606,0.069,0.916c0.069,1.083,0.135,2.198,0.569,3.165c0.576,1.281,0.746,2,0.939,2.9 c0.5,2.333-0.104,5.797-0.917,7.919C3.373-47.592,4.278-47.769,5.167-48z"></path><path style="" d="M2.977-47.465c0.478-0.092,0.953-0.195,1.424-0.314c0.515-0.984,0.854-2.321,0.973-4.252 c0.059-0.947-0.299-4.705-0.63-5.652c-0.224-0.641-0.852-2.044-1.005-2.386c-0.036-0.339-0.175-1.701-0.204-2.574 c-0.116-3.593-0.844-7.344-2.019-10.504c-0.193,0.438-0.397,0.872-0.609,1.301c0.943,2.849,1.527,6.099,1.629,9.235 c0.033,1.037,0.209,2.66,0.217,2.729l0.042,0.152c0.008,0.017,0.77,1.702,1.005,2.376c0.263,0.755,0.631,4.371,0.576,5.262 C4.229-49.71,3.75-48.37,2.977-47.465z" fill="#C4C4C4"></path><path style="" d="M0.907-71.847c0.302,0.912,0.552,1.873,0.776,2.851c0.311-0.075,0.664-0.167,0.986-0.256 c-0.265-1.156-0.589-2.275-0.96-3.339c-0.152-0.012-0.304-0.01-0.455,0.004C1.139-72.34,1.028-72.091,0.907-71.847z" fill="#8C8C8C"></path><path style="" d="M10.814-65.026c0,0-0.037-0.881-0.088-2.149 c-0.389,2.424-0.959,4.82-1.723,7.153c0.633-0.233,1.266-0.466,1.899-0.699c0.132-0.049,0.273-0.104,0.354-0.219 c0.058-0.083,0.077-0.187,0.094-0.287c0.091-0.544,0.148-1.092,0.21-1.64C11.163-64.112,10.814-65.026,10.814-65.026z" fill="#1C1C1C" fill-opacity="0.36"></path><path style="" d="M10.769-66.111c-0.001-0.013-0.001-0.024-0.002-0.038c-0.012-0.299-0.026-0.642-0.042-1.026 c-0.149,0.926-0.332,1.846-0.535,2.762c0.094,0.488,0.204,0.974,0.345,1.455c0.044,0.149,0.097,0.295,0.145,0.442 c0.266-0.203,0.541-0.394,0.793-0.613c-0.36-1.107-0.66-1.898-0.66-1.898s-0.013-0.318-0.034-0.828 C10.777-65.935,10.773-66.021,10.769-66.111z" fill="#0F0F0F"></path><path style="" d="M0.262-69.853c0.84,0.043,1.689-0.094,2.473-0.398c0.091-0.035,0.186-0.076,0.246-0.154 c0.121-0.158,0.047-0.383-0.03-0.566c-0.446-1.047-0.891-2.094-1.337-3.141c-0.448-1.053-1.314-0.926-1.381,0.17 C0.149-72.592,0.232-71.206,0.262-69.853z" fill="#8C8C8C"></path><path style="" d="M0.575-70.259c0.84,0.043,1.689-0.094,2.473-0.398c0.091-0.035,0.186-0.076,0.246-0.154 c0.121-0.158,0.047-0.383-0.03-0.566c-0.446-1.047-0.891-2.094-1.337-3.141c-0.448-1.053-1.314-0.926-1.381,0.17 C0.462-72.998,0.545-71.612,0.575-70.259z" fill="#C4C4C4"></path></g><path style="" d="M-17.39-91.6c-0.598,0.745-0.654,1.745-1.377,2.468 c-0.164,0.164-0.347,0.318-0.53,0.472c2.445-0.144,4.917,0.167,7.235,0.959c-0.322-0.417-0.812-0.665-1.291-0.886 c-1.258-0.58-2.563-1.068-3.754-1.775c-0.138-0.082-0.282-0.175-0.348-0.321c-0.065-0.142-0.043-0.307-0.019-0.461 C-17.454-91.279-17.407-91.443-17.39-91.6z" fill="#1C1C1C" fill-opacity="0.24"></path><path style="" d="M-13.458-92.504c0.577-0.205,1.077-0.504,1.656-0.734c-1.459-0.047-2.927,0.214-4.28,0.763 c-0.417,0.169-0.832,0.371-1.15,0.688c-0.079,0.078-0.145,0.163-0.209,0.248c0.154-0.137,0.295-0.289,0.461-0.411 c0.707-0.518,1.721-0.362,2.538-0.102C-14.086-92.265-13.649-92.436-13.458-92.504z" fill="#2B2B2B"></path><path style="" d="M4.298-91.66c-0.365-0.217-0.757-0.393-1.158-0.54c-0.343,0.091-0.676,0.218-0.982,0.391 c-0.002,0.001-0.004,0.003-0.006,0.004c0.387,0.228,0.769,0.47,1.099,0.756c0.586,0.51,0.857,1.277,0.96,2.054 c0.764-0.399,1.674-0.516,2.501-0.257C6.195-90.268,5.262-91.087,4.298-91.66z" fill="#2B2B2B"></path><path style="" d="M0.525-86.459c-0.315,0.016-0.611,0.031-0.849,0.033c1.602,2.791,1.78,5.767,1.626,8.814 c0.4-1.635,0.588-3.32,0.412-4.989C1.573-83.946,1.178-85.279,0.525-86.459z" fill="#969696"></path><path style="" d="M-0.532-87.957l0.332,2.211c0,0,0.451-0.007,1.11,0.069C0.546-86.508,0.066-87.281-0.532-87.957z" fill="#969696"></path><g><path style="" d="M3.051-67.316c-0.326,0.091-0.649,0.192-0.968,0.303c0.055,0.326,0.094,0.654,0.139,0.981 c0.333-0.066,0.665-0.132,0.998-0.197C3.169-66.593,3.112-66.955,3.051-67.316z" fill="#A1A1A1"></path><path style="" d="M3.629-61.224c-0.031-0.364-0.061-0.756-0.08-1.109c-0.331,0.091-0.659,0.192-0.983,0.304 c0.021,0.334,0.048,0.68,0.076,1C2.971-61.094,3.3-61.159,3.629-61.224z" fill="#A1A1A1"></path><path style="" d="M3.281-65.766c-0.33,0.091-0.656,0.192-0.979,0.303c0.04,0.332,0.074,0.661,0.104,0.993 c0.331-0.066,0.663-0.131,0.994-0.197C3.366-65.033,3.327-65.399,3.281-65.766z" fill="#A1A1A1"></path><path style="" d="M4.772-57.59c-0.009-0.031-0.019-0.068-0.028-0.094c-0.084-0.24-0.225-0.588-0.376-0.946 c-0.323,0.09-0.643,0.19-0.959,0.299c0.151,0.355,0.291,0.698,0.376,0.937C4.114-57.459,4.443-57.525,4.772-57.59z" fill="#A1A1A1"></path><path style="" d="M4.352-51.809c0.34-0.067,0.68-0.134,1.02-0.202c0-0.008,0.002-0.014,0.002-0.021 c0.014-0.228,0.004-0.62-0.024-1.094c-0.331,0.093-0.658,0.196-0.983,0.309c0.015,0.308,0.019,0.562,0.009,0.723 C4.37-51.993,4.36-51.905,4.352-51.809z" fill="#A1A1A1"></path><path style="" d="M5.18-55.085c-0.328,0.09-0.652,0.19-0.974,0.3c0.036,0.339,0.068,0.677,0.095,0.999 c0.329-0.065,0.658-0.13,0.987-0.195C5.258-54.339,5.221-54.714,5.18-55.085z" fill="#A1A1A1"></path><path style="" d="M3.739-60.07c-0.01-0.093-0.028-0.267-0.049-0.482c-0.328,0.088-0.654,0.186-0.976,0.295 c0.021,0.211,0.037,0.356,0.039,0.374l0.042,0.152c0.003,0.005,0.086,0.19,0.2,0.448C3.33-59.35,3.665-59.416,4-59.483 C3.885-59.744,3.787-59.963,3.739-60.07z" fill="#8C8C8C"></path></g><path style="" d="M4.892-49.061c-0.379,0.107-0.761,0.2-1.145,0.288c-0.211,0.526-0.467,0.952-0.771,1.308 c0.478-0.092,0.953-0.195,1.424-0.314C4.593-48.147,4.751-48.583,4.892-49.061z" fill="#8C8C8C"></path><path style="" d="M1.07-71.824c-0.051,0.019-0.091,0.034-0.114,0.046c-0.042,0.239-0.047,0.484-0.014,0.725 c0.008,0.057,0.019,0.116,0.056,0.159c0.056,0.066,0.154,0.076,0.241,0.078c0.486,0.01,0.974-0.077,1.427-0.254 c0.054-0.021,0.11-0.045,0.144-0.092c0.151-0.205-0.264-0.765-0.376-0.899C2.31-72.207,1.419-71.95,1.07-71.824z" fill="#8C8C8C"></path><path style="" d="M1.177-74.57c-0.046,0.005-0.092,0.029-0.136,0.08c-0.067,0.078-0.076,0.188-0.077,0.291 c-0.001,0.309,0.008,1.014,0.42,1.098c0.489,0.1,0.409-0.587,0.312-0.869C1.649-74.112,1.409-74.594,1.177-74.57z" fill="#8C8C8C"></path><path d="M-13.747-53.142c0.224,0.329,0.515,0.703,0.749,0.873c0.657,0.477,0.944,0.124,1.703-0.332 c1.378-0.828,2.677-1.788,3.874-2.862c1.768-1.586,3.434-3.029,1.327-5.172c-1.331,0.981-2.486,2.4-3.792,3.469 c-1.379,1.129-2.999,2.233-4.104,3.64C-13.929-53.421-13.844-53.286-13.747-53.142z"></path><path d="M11.665-59.864c0.723,1.045,0.972,2.036,1.02,3.279c0.32-0.28,0.508-0.689,0.579-1.108s0.033-0.85-0.045-1.268 c-0.172-0.931-0.544-2.083-1.216-2.78c-0.451-0.469-1.277-1.135-1.959-1.142c-0.673-0.007-1.346,0.21-1.887,0.609 c-0.079,0.058,0.995,0.319,1.041,0.331c0.429,0.111,0.814,0.368,1.153,0.644C10.856-60.887,11.298-60.401,11.665-59.864z"></path><path style="" d="M-6.437-58.692c0.353-0.345,0.711-0.732,0.973-1.153c-0.154-0.253-0.36-0.516-0.63-0.79 c-1.331,0.981-2.486,2.4-3.792,3.469c-1.379,1.129-2.999,2.233-4.104,3.64c0.061,0.105,0.146,0.24,0.244,0.384 c0.041,0.06,0.086,0.122,0.131,0.184c0.218-0.199,0.409-0.374,0.531-0.459C-10.747-55.056-8.487-56.688-6.437-58.692z" fill="#383838"></path></g><path style="" d="M-3.415-66.161c0.578-0.003,1.314-5.078,1.134-6.12c-0.281-1.625-1.999-3.003-3.615-2.235 c-0.982,0.466-1.243,1.484-1.347,2.471c-0.405-0.138-0.681-0.442-1.137-0.542c-0.517-0.114-1.072-0.101-1.554,0.136 c-0.883,0.435-1.306,1.564-1.055,2.516c0.385,1.462,1.634,2.232,2.802,2.873C-6.789-66.295-5.022-66.153-3.415-66.161z" fill="#7B1010"></path><path style="" d="M-3.852-66.771c0.471-0.002,1.07-4.134,0.923-4.982c-0.229-1.323-1.627-2.444-2.943-1.82 c-0.8,0.38-1.012,1.208-1.096,2.011c-0.33-0.113-0.554-0.359-0.925-0.441c-0.421-0.093-0.872-0.083-1.265,0.111 c-0.719,0.354-1.063,1.273-0.859,2.048c0.313,1.19,1.33,1.817,2.28,2.338C-6.598-66.88-5.16-66.765-3.852-66.771z" fill="#9E1515"></path><path d="M-6.582-69.604c0.286,0.089,0.573,0.174,0.87,0.241c0.4,0.09,4.742,0.926,4.775,0.783c0.051-0.226,0.061-0.462,0.029-0.692 c-1.674-0.133-3.313-0.533-4.943-0.933c-1.034-0.253-2.068-0.506-3.102-0.76c-0.311-0.076-0.622-0.152-0.928-0.243 c-0.376-0.112-0.737-0.365-1.129-0.416c-0.45-0.059-0.404,0.266-0.545,0.635c0.458,0.067,0.935,0.288,1.391,0.405 c0.795,0.205,1.59,0.411,2.385,0.616C-7.371-69.861-6.979-69.728-6.582-69.604z"></path><path d="M-7.597-65.839c0.047-0.038,0.091-0.083,0.127-0.126c0.69-0.828,1.281-1.737,1.76-2.703 c0.509-1.026,0.779-2.086,1.072-3.188c0.101-0.38,0.202-0.76,0.277-1.146c0.089-0.462,0.495-1.979-0.15-2.103 c-0.148-0.028-0.295-0.056-0.443-0.084c-0.051,1.552-0.283,3.177-0.85,4.627c-0.583,1.491-1.424,2.861-2.145,4.287 c-0.083,0.164-0.149,0.399,0.002,0.504C-7.839-65.697-7.708-65.75-7.597-65.839z"></path></g><!---0031-00690001500025--><g><g><path style="" d="M-26.986-45.73c0.049,0.086,0.14,0.138,0.228,0.183c1.161,0.605,2.529,0.806,3.815,0.559 c0.495-0.095,1.01-0.276,1.314-0.678c0.269-0.356,0.329-0.823,0.379-1.266c0.137-1.203,0.274-2.407,0.411-3.61 c0.029-0.254-2.613-0.746-2.88-0.764c-1.039-0.07-2.077,0.285-3.092,0.477c-0.074,0.014-0.151,0.03-0.207,0.08 c-0.076,0.069-0.089,0.181-0.097,0.283C-27.21-49.258-27.637-46.857-26.986-45.73z" fill="#262626"></path><path style="" d="M-23.719-51.306c-1.039-0.07-2.077,0.285-3.092,0.477c-0.074,0.014-0.151,0.03-0.207,0.08 c-0.076,0.069-0.089,0.181-0.097,0.283c-0.036,0.458-0.12,1.087-0.174,1.753c0.053,0.062,0.106,0.123,0.162,0.172 c0.247,0.214,0.562,0.332,0.874,0.426c1.178,0.355,2.872,0.516,4.303,0.192c0.296-0.067,0.576-0.16,0.843-0.272 c0.089-0.782,0.178-1.564,0.267-2.347C-20.81-50.796-23.452-51.288-23.719-51.306z" fill="#171717"></path><path style="" d="M-23.082-44.974c0.046-0.008,0.093-0.006,0.138-0.014c0.237-0.045,0.477-0.113,0.698-0.212 c0.159-1.735,0.285-3.474,0.358-5.215l-1.197,1.082C-23.083-47.88-23.083-46.427-23.082-44.974z" fill="#171717"></path><path style="" d="M-27.017-50.749c-0.076,0.069-0.089,0.181-0.097,0.283c-0.096,1.208-0.523,3.609,0.128,4.736 c0.049,0.086,0.14,0.138,0.228,0.183c0.518,0.27,1.079,0.445,1.653,0.551c0.08-1.611,0.127-3.224,0.103-4.837l0.943-1.302 c-0.029-0.057-0.068-0.107-0.102-0.161c-0.89,0.033-1.778,0.302-2.649,0.466C-26.884-50.815-26.962-50.8-27.017-50.749z" fill="#171717"></path><path style="" d="M-21.782-49.174c0.704-0.16,1.345-0.437,1.829-0.867c1.316-1.169,1.846-2.993,2.019-4.745 c0.173-1.752,0.054-3.531,0.362-5.264c0.461-2.591,0.844-5.947-2.352-7.07c-1.276-0.449-2.792-0.123-3.772,0.809 c-0.544,0.518-0.916,1.186-1.279,1.843c-1.168,2.113-2.306,4.248-3.533,6.327c-0.289,0.49-0.585,1.001-0.63,1.568 c-0.034,0.422,0.074,0.842,0.189,1.249c0.286,1.013,0.403,2.076,0.752,3.073c0.25,0.713,0.667,1.964,1.237,2.459 c0.247,0.214,0.562,0.332,0.874,0.426C-24.907-49.01-23.213-48.849-21.782-49.174z" fill="#FFFFFF"></path><g><path style="" d="M-19.078-57.119c0.109,0.003,0.667-0.026,1.267-0.071c0.031-0.959,0.072-1.916,0.24-2.86 c0.346-1.944,0.648-4.318-0.573-5.857c-0.278,1.191-0.603,2.361-1.253,3.387c-0.222,0.35-0.482,0.684-0.608,1.078 c-0.109,0.338-0.112,0.7-0.115,1.055c-0.007,0.967-0.014,1.934-0.021,2.901c-0.001,0.096-0.003,0.193-0.004,0.29 C-19.789-57.171-19.435-57.128-19.078-57.119z" fill="#2B2B2B"></path><path style="" d="M-27.884-59.014c0.472,0.199,0.958,0.361,1.442,0.53c0.142-0.255,0.29-0.508,0.437-0.76 c1.43-2.445,2.563-5.06,3.402-7.766c-0.401,0.169-0.776,0.399-1.092,0.699c-0.544,0.518-0.916,1.186-1.279,1.843 c-0.998,1.804-1.983,3.619-3.011,5.407C-27.951-59.045-27.919-59.028-27.884-59.014z" fill="#2B2B2B"></path><path style="" d="M-28.099-53.369c-0.159-0.079-0.308-0.177-0.464-0.263c0.1,0.467,0.208,0.932,0.366,1.382 c0.25,0.713,0.667,1.964,1.237,2.458c0.247,0.214,0.562,0.332,0.874,0.426c0.138,0.041,0.302,0.07,0.452,0.105 c-0.373-1.141-0.679-2.306-0.97-3.473C-27.113-52.92-27.615-53.127-28.099-53.369z" fill="#2B2B2B"></path><path style="" d="M-20.295-52.088c-0.114,0.021-0.23,0.029-0.345,0.046c-0.009,0.035-0.013,0.072-0.022,0.107 c-0.262,0.959-0.658,1.87-1.106,2.758c0.699-0.16,1.334-0.436,1.815-0.863c0.774-0.687,1.271-1.603,1.588-2.595 C-18.995-52.407-19.635-52.208-20.295-52.088z" fill="#2B2B2B"></path></g><g><path style="" d="M-20.145-57.196c-2.146-0.149-4.266-0.58-6.297-1.288c-0.265,0.475-0.503,0.963-0.63,1.489 c-0.282,1.174,0.004,2.4,0.292,3.572c0.056,0.23,0.118,0.459,0.176,0.689c1.908,0.699,3.964,0.985,5.964,0.691 C-20.201-53.715-20.159-55.463-20.145-57.196z" fill="#2B2B2B"></path></g><path style="" d="M-24.563-53.051c-0.121-0.47-0.248-0.951-0.524-1.351 c-0.34-0.493-0.87-0.815-1.384-1.123c-0.68-0.407-1.709-1.125-2.642-1.174c-0.006,0.043-0.02,0.083-0.024,0.127 c-0.034,0.422,0.074,0.842,0.189,1.249c0.286,1.013,0.403,2.076,0.752,3.073c0.25,0.713,0.667,1.964,1.237,2.458 c0.247,0.214,0.562,0.332,0.874,0.426c0.697,0.21,1.575,0.336,2.471,0.35C-23.918-50.364-24.22-51.712-24.563-53.051z" fill="#1C1C1C" fill-opacity="0.36"></path></g><path style="" d="M-17.785-57.777c-0.67,0.603-1.34,1.206-2.01,1.809 c-0.491,0.442-1.005,0.919-1.185,1.555c-0.154,0.54-0.043,1.116,0.068,1.667c0.197,0.976,0.402,1.955,0.694,2.905 c0.09-0.064,0.183-0.127,0.265-0.199c1.316-1.169,1.846-2.993,2.019-4.745C-17.836-55.779-17.826-56.78-17.785-57.777z" fill="#1C1C1C" fill-opacity="0.36"></path></g><!---0027-00860001700026--><g><path style="" d="M-21.326-77.979c-0.703,2.232-0.964,4.639-1.726,6.838c-1.161,3.349-3.076,7.39,0.737,9.811 c2.646,1.68,5.645,0.16,6.479-2.71c0.691-2.379,1.465-4.733,2.321-7.058c0.693-1.884,1.764-3.79,2.186-5.746 c0.252-1.166,0.502-2.391,0.167-3.535c-0.596-2.035-3.459-3.691-5.554-3.207C-19.232-83.005-20.628-80.195-21.326-77.979z" fill="#FFFFFF"></path><path style="" d="M-21.131-75.635c-0.047-0.475-0.149-1.129-0.473-1.314 c-0.501,1.932-0.801,3.942-1.448,5.808c-0.459,1.326-1.032,2.759-1.326,4.158c1.012-0.649,1.99-1.35,2.919-2.113 c0.269-0.221,0.543-0.457,0.687-0.774c0.172-0.378,0.134-0.814,0.093-1.227C-20.83-72.61-20.981-74.122-21.131-75.635z" fill="#1C1C1C" fill-opacity="0.36"></path><path style="" d="M-16.715-83.587c-1.056,0.244-1.904,0.89-2.596,1.709c0.127-0.045,0.252-0.086,0.371-0.116 c1.228-0.314,2.291-0.242,3.429,0.338c1.478,0.753,2.729,1.972,3.45,3.472c0.225,0.469,0.432,0.986,0.711,1.425 c0.006-0.029,0.016-0.057,0.022-0.085c0.252-1.166,0.502-2.391,0.167-3.535C-11.758-82.415-14.62-84.071-16.715-83.587z" fill="#2B2B2B"></path><path style="" d="M-22.333-67.863c-0.004,0.016-0.008,0.031-0.013,0.047c-0.452,1.586-1.02,3.138-1.679,4.65 c0.593,0.443,1.247,0.806,1.942,1.059c0.635,0.231,1.36,0.457,2.095,0.629c0.131-0.377,0.376-0.703,0.59-1.041 c0.7-1.104,1.024-2.374,1.317-3.658C-19.553-66.626-20.993-67.159-22.333-67.863z" fill="#2B2B2B"></path><path style="" d="M-19.987-61.479c-0.005,0.013-0.014,0.024-0.018,0.038c-0.083,0.258-0.1,0.53-0.106,0.803 c0.752,0.018,1.475-0.185,2.115-0.557C-18.628-61.219-19.309-61.321-19.987-61.479z" fill="#2B2B2B"></path><path style="" d="M-15.9-69.248c-0.309-0.364-0.634-0.715-0.968-1.058c-0.256,0.671-0.506,1.344-0.705,2.034 c-0.197,0.686-0.348,1.392-0.508,2.094c0.888,0.27,1.785,0.514,2.675,0.749c0.227-0.744,0.449-1.489,0.692-2.227 C-15.066-68.215-15.472-68.744-15.9-69.248z" fill="#2B2B2B"></path><path style="" d="M-22.333-67.863c0.31-1.092,0.571-2.196,0.867-3.292c0.169-0.628,0.296-1.251,0.417-1.871 c-0.461-0.134-0.934-0.216-1.409-0.247c-0.17,0.723-0.354,1.439-0.595,2.132c-0.263,0.759-0.562,1.553-0.826,2.355 C-23.384-68.443-22.865-68.143-22.333-67.863z" fill="#2B2B2B"></path><path style="" d="M-11.161-80.379c-0.152-0.52-0.456-1.014-0.854-1.455c-0.325,0.104-0.578,0.379-0.737,0.786 c-0.433,1.113-0.84,2.241-1.271,3.357c-0.213,0.553-0.427,1.106-0.64,1.659c0.851,0.854,1.522,1.878,1.945,3.008 c0.549-1.256,1.11-2.526,1.39-3.819C-11.076-78.01-10.826-79.235-11.161-80.379z" fill="#2B2B2B"></path><path style="" d="M-20.538-78.662c0.411,0.013,0.819,0.064,1.222,0.139c0.656-1.344,1.427-2.633,2.297-3.85 c0.39-0.546,0.481-1.013-0.231-1.024c-1.946,0.744-3.152,2.849-3.848,4.752C-20.937-78.661-20.758-78.669-20.538-78.662z" fill="#2B2B2B"></path><path style="" d="M-20.076-76.82c-0.503,1.27-0.725,2.526-0.973,3.794c0.578,0.168,1.138,0.409,1.66,0.705 c0.939,0.534,1.764,1.24,2.521,2.015c0.06-0.157,0.118-0.316,0.178-0.473c0.676-1.751,1.352-3.503,2.028-5.254 c-1.262-1.266-2.9-2.161-4.653-2.49C-19.588-77.964-19.847-77.398-20.076-76.82z" fill="#2B2B2B"></path><path d="M-14.886-82.3c-0.938-0.47-2.232-0.744-3.373-0.565c-0.373,0.267-0.71,0.586-1.016,0.942 c0.254-0.029,0.497-0.042,0.663-0.06c0.739-0.081,1.46,0.044,2.138,0.309c1.372,0.537,2.567,1.651,3.369,2.81 c0.432,0.624,1.274,1.77,1.584,2.764c0.073-0.248,0.138-0.496,0.192-0.746c0.044-0.206,0.085-0.414,0.127-0.623 C-11.748-79.499-12.939-81.325-14.886-82.3z"></path><path style="" d="M-20.047-66.627c1.663,0.092,3.329,0.101,4.994,0.06 c0.483-1.52,0.988-3.033,1.539-4.53c0.054-0.145,0.113-0.291,0.17-0.437c-0.209,0.121-0.417,0.365-0.593,0.505 C-15.905-69.471-17.946-68.002-20.047-66.627z" fill="#1C1C1C" fill-opacity="0.36"></path></g></svg>