<svg xmlns:xlink="http://www.w3.org/1999/xlink" xmlns="http://www.w3.org/2000/svg" viewBox="-25.788000106811523 -90.50008392333984 39.45600509643555 44.98286819458008" width="164" height="108"><!---0004-00880002100026--><g><path style="" d="M2.485-64.919c-0.177-5.434-3.172-10.452-2.818-15.914c0.124-1.919,1.617-3.91,3.738-3.981c1.471-0.049,2.504,0.879,3.387,1.94c0.978,1.174,1.725,2.835,2.314,4.236c0.763,1.816,1.449,3.663,2.16,5.5c0.174,0.449,2.402,4.805,2.401,4.805C10.693-65.674,6.457-64.534,2.485-64.919z" fill="#0F0F0F"></path><path style="" d="M11.266-73.139c-0.675-1.741-1.33-3.489-2.046-5.214c-0.842,1.882-0.634,4.21-0.435,6.276c0.196,2.036,0.735,4.018,1.324,5.98c1.297-0.56,2.508-1.299,3.558-2.237C13.668-68.334,11.44-72.69,11.266-73.139z" fill="#191919"></path><path d="M4.912-64.889c0.373-2.001,0.869-3.978,1.491-5.916c0.827-2.577,2.419-5.732,2.153-8.472c-0.306,1.439-2.015,3.581-2.931,4.733c-1.866-2.955-2.323-6.829-1.198-10.138c-0.317-0.096-0.656-0.145-1.022-0.132c-2.121,0.071-3.614,2.062-3.738,3.981c-0.353,5.463,2.641,10.48,2.818,15.914C3.287-64.841,4.1-64.843,4.912-64.889z"></path><path style="" d="M13.668-68.334c0,0-0.215-0.421-0.516-1.013c-1.084,0.77-2.176,1.531-3.345,2.163c-1.273,0.688-2.648,0.947-4.084,1.129c-1.092,0.139-2.195,0.346-3.294,0.254c0.025,0.293,0.047,0.587,0.056,0.882C6.457-64.534,10.693-65.674,13.668-68.334z" fill="#282828"></path><path style="" d="M9.908-69.144c-1.995,1.157-4.249,1.775-7.701,1.667c0.044,0.253,0.084,0.507,0.118,0.761c0.086,0.003,0.175,0.008,0.258,0.008c3.421,0,5.77-0.667,7.701-1.786c0.817-0.473,1.757-1.255,2.319-1.922c-0.11-0.217-0.224-0.442-0.341-0.673C11.729-70.354,10.734-69.622,9.908-69.144z" fill="#2E2E2E"></path><path style="" d="M9.355-68.847c0.06,0.25,0.126,0.498,0.192,0.747c0.253-0.124,0.499-0.256,0.738-0.395c0.817-0.473,1.757-1.255,2.32-1.922c-0.11-0.217-0.224-0.442-0.341-0.673c-0.534,0.736-1.529,1.467-2.355,1.946C9.727-69.039,9.541-68.943,9.355-68.847z" fill="#474747"></path></g><!---0016-00940002200022--><g><path style="" d="M-0.885-77.387c0.04-0.151,0.081-0.301,0.124-0.451c0.426-1.499,0.978-2.961,1.646-4.369c0.334-0.704,0.698-1.393,1.089-2.067c0.196-0.337,0.398-0.669,0.608-0.998c0.126-0.198,0.53-0.608,0.27-0.844c-0.086-0.078-0.205-0.105-0.317-0.131C1.147-86.57,0.03-87.278-1.18-87.995c-1.722-1.019-3.6-1.772-5.548-2.225c-0.758-0.176-1.533-0.308-2.31-0.275c-0.777,0.033-1.912,0.376-2.545,0.828c-0.371,0.265-0.729,0.688-0.52,0.899c0.196,1.48,1.149,2.713,2.2,3.773s2.236,2.009,3.076,3.243c1.211,1.78,1.637,4.058,3.101,5.636c0.357,0.384,0.827,0.738,1.35,0.696c0.439-0.035,0.815-0.351,1.044-0.728C-1.105-76.525-0.998-76.961-0.885-77.387z" fill="#0F0F0F"></path><path d="M1.809-83.959c-0.615-0.31-1.207-0.671-1.823-1.035c-1.722-1.018-3.6-1.772-5.548-2.225c-0.758-0.176-1.533-0.308-2.31-0.275s-1.912,0.376-2.545,0.828c-0.206,0.147-0.396,0.34-0.5,0.521c0.31,0.405,0.654,0.789,1.013,1.15c1.051,1.06,2.236,2.009,3.076,3.243c1.211,1.78,1.637,4.058,3.101,5.636c0.357,0.384,0.827,0.738,1.35,0.696c0.439-0.035,0.815-0.351,1.044-0.728s0.335-0.812,0.448-1.238c0.04-0.151,0.081-0.301,0.124-0.451c0.426-1.499,0.978-2.961,1.646-4.369C1.169-82.803,1.485-83.384,1.809-83.959z"></path><path style="" d="M-4.17-81.086c-0.174-0.412-0.352-0.823-0.534-1.231c-0.142-0.32-0.233-0.698-0.389-1.001c-0.319-0.62-0.881-0.674-1.491-0.849c-1.137-0.329-2.579-1.225-3.46-2.003c-0.617-0.544-1.384-1.204-1.773-1.936c-0.112-0.21-0.397-1.111-0.1-1.284c-0.242,0.141-0.438,0.329-0.558,0.582c-0.121,0.257-0.018,0.626-0.054,0.903c-0.02,0.153-0.055,0.303-0.097,0.451c1.482,1.721,2.686,3.679,4.314,5.274c0.524,0.514,1.442,1.014,1.824,1.708c0.211-0.394,0.448-0.94,0.954-0.867c0.272,0.039,0.465,0.277,0.624,0.502c1.073,1.52,1.848,3.236,2.683,4.895C-2.812-77.679-3.457-79.397-4.17-81.086z" fill="#282828"></path></g><!---0023-00920003500049--><g><path style="" d="M-1.744-77.648c-0.208,0.595-0.412,1.194-0.646,1.765c-0.633-1.691-1.49-3.297-2.542-4.765c-0.906-1.264-1.967-2.433-3.242-3.323c-1.275-0.89-2.916-2.222-4.341-1.6c-1.328,0.579-2.664,1.164-3.858,1.985c-1.244,0.856-2.367,1.969-2.799,3.436c-0.479,1.627-0.435,3.369-0.151,5.026c0.439,2.558,1.893,5.565,2.447,8.082c0.549,2.493,0.175,4.298-0.25,6.792c-0.544,3.189-1.731,7.266-1.792,10.5c-0.005,0.249,1.972,1.014,2.233,1.127c0.824,0.358,1.669,0.669,2.527,0.936c1.697,0.529,3.476,0.973,5.212,1.36c1.878,0.419,3.807,0.618,5.731,0.589c1.167-0.018,2.326-0.022,3.484-0.088C0.293-56.358-0.909-67.23-1.744-77.648z" fill="#282828"></path><path style="" d="M8.15-50.932c-0.147-0.833-0.275-1.67-0.384-2.508c-0.219-1.678-0.363-3.365-0.432-5.055C7.136-63.357,6.722-66.3,6.722-71.222c0-2.726,0.335-5.564-0.154-8.299C6.132-81.964,4.688-85.181,2-85.833c-0.302,0.03,0.298,0.238,0.057,0.422c-1.404,1.069-2.198,2.756-2.715,4.444c-0.336,1.097-0.699,2.215-1.085,3.32c0.835,10.418,2.037,21.29,2.015,31.822c0.718-0.041,1.436-0.099,2.155-0.214c2.441-0.391,4.219-1.022,6.199-2.502C8.741-48.628,8.194-50.683,8.15-50.932z" fill="#191919"></path><path style="" d="M8.15-50.932c-0.147-0.833-0.275-1.67-0.384-2.508c-0.219-1.678-0.363-3.365-0.432-5.055C7.136-63.357,6.722-66.3,6.722-71.222c0-2.726,0.335-5.564-0.154-8.299C6.132-81.964,4.688-85.181,2-85.833c-0.302,0.03,0.298,0.238,0.057,0.422c-1.404,1.069-2.198,2.756-2.715,4.444c-0.336,1.097-0.699,2.215-1.085,3.32c0.835,10.418,2.037,21.29,2.015,31.822c0.718-0.041,1.436-0.099,2.155-0.214c2.441-0.391,4.219-1.022,6.199-2.502C8.741-48.628,8.194-50.683,8.15-50.932z" fill="#191919"></path><path style="" d="M7.334-58.496C7.136-63.357,6.722-66.3,6.722-71.222c0-2.726,0.335-5.564-0.154-8.299C6.132-81.964,4.688-85.181,2-85.833c-0.302,0.03,0.298,0.238,0.057,0.422" fill="#191919"></path><path style="" d="M0.271-45.826c0.004-1.742-0.036-3.495-0.092-5.253c-0.199-0.841-0.361-1.632-0.401-2.31c-0.562,1.246-2.159,2.819-3.056,3.667c-0.896,0.848-4.058,1.686-5.417,1.472c2.04-1.423,5.084-4.943,5.903-7.292c-1.166,1.07-2.481,2.034-3.794,2.912c-1.306,0.873-3.669,2.023-3.327-0.706c0.238-1.895,0.607-3.819,0.604-5.728c-0.004-2.262-0.116-4.525-0.035-6.787c0.07-1.961,0.113-4.151,1.445-5.719c1.55-1.823,4.032-2.764,5.322-4.765c-0.24-0.596-0.504-1.181-0.799-1.752c-0.099-0.134-0.202-0.265-0.324-0.382c-0.596-0.572-1.264-1.033-1.936-1.507c-1.25-0.814-2.587-1.479-3.88-2.221c-0.539-0.309-1.299-0.619-1.629-1.175c-0.232-0.391-0.21-0.873-0.452-1.267c-0.358-0.585-0.865-0.761-1.424-0.709c-1.159,0.51-2.311,1.045-3.353,1.762c-1.244,0.856-2.367,1.969-2.799,3.436c-0.479,1.627-0.435,3.369-0.151,5.026c0.439,2.558,1.893,5.565,2.447,8.082c0.549,2.493,0.175,4.298-0.25,6.792c-0.406,2.381-1.17,5.257-1.557,7.907c-0.128,0.898-0.22,1.771-0.235,2.593c-0.005,0.249,1.972,1.014,2.233,1.127c0.824,0.358,1.669,0.669,2.527,0.936c1.697,0.529,3.476,0.973,5.212,1.36c1.878,0.419,3.807,0.618,5.731,0.589C-2.046-45.755-0.887-45.76,0.271-45.826z" fill="#191919"></path><path style="" d="M0.271-45.826c0.004-1.742-0.036-3.495-0.092-5.253c-0.199-0.841-0.361-1.632-0.401-2.31c-0.562,1.246-2.159,2.819-3.056,3.667c-0.896,0.848-4.058,1.686-5.417,1.472c2.04-1.423,5.084-4.943,5.903-7.292c-1.166,1.07-2.481,2.034-3.794,2.912c-1.306,0.873-3.669,2.023-3.327-0.706c0.238-1.895,0.607-3.819,0.604-5.728c-0.004-2.262-0.116-4.525-0.035-6.787c0.07-1.961,0.113-4.151,1.445-5.719c1.55-1.823,4.032-2.764,5.322-4.765c-0.24-0.596-0.504-1.181-0.799-1.752c-0.099-0.134-0.202-0.265-0.324-0.382c-0.596-0.572-1.264-1.033-1.936-1.507c-1.25-0.814-2.587-1.479-3.88-2.221c-0.539-0.309-1.299-0.619-1.629-1.175c-0.232-0.391-0.21-0.873-0.452-1.267c-0.358-0.585-0.865-0.761-1.424-0.709c-1.159,0.51-2.311,1.045-3.353,1.762c-1.244,0.856-2.367,1.969-2.799,3.436c-0.479,1.627-0.435,3.369-0.151,5.026c0.439,2.558,1.893,5.565,2.447,8.082c0.549,2.493,0.175,4.298-0.25,6.792c-0.406,2.381-1.17,5.257-1.557,7.907c-0.128,0.898-0.22,1.771-0.235,2.593c-0.005,0.249,1.972,1.014,2.233,1.127c0.824,0.358,1.669,0.669,2.527,0.936c1.697,0.529,3.476,0.973,5.212,1.36c1.878,0.419,3.807,0.618,5.731,0.589C-2.046-45.755-0.887-45.76,0.271-45.826z" fill="#191919"></path><path style="" d="M0.271-45.826c0.004-1.742-0.036-3.495-0.092-5.253c-0.199-0.841-0.361-1.632-0.401-2.31c-0.562,1.246-2.159,2.819-3.056,3.667c-0.896,0.848-4.058,1.686-5.417,1.472c2.04-1.423,5.084-4.943,5.903-7.292c-1.166,1.07-2.481,2.034-3.794,2.912c-1.306,0.873-3.669,2.023-3.327-0.706c0.238-1.895,0.607-3.819,0.604-5.728c-0.004-2.262-0.116-4.525-0.035-6.787c0.07-1.961,0.113-4.151,1.445-5.719c1.55-1.823,4.032-2.764,5.322-4.765c-0.24-0.596-0.504-1.181-0.799-1.752c-0.099-0.134-0.202-0.265-0.324-0.382c-0.596-0.572-1.264-1.033-1.936-1.507c-1.25-0.814-2.587-1.479-3.88-2.221c-0.539-0.309-1.299-0.619-1.629-1.175c-0.232-0.391-0.21-0.873-0.452-1.267c-0.358-0.585-0.865-0.761-1.424-0.709c-1.159,0.51-2.311,1.045-3.353,1.762c-1.244,0.856-2.367,1.969-2.799,3.436c-0.479,1.627-0.435,3.369-0.151,5.026c0.439,2.558,1.893,5.565,2.447,8.082c0.549,2.493,0.175,4.298-0.25,6.792c-0.406,2.381-1.17,5.257-1.557,7.907c-0.128,0.898-0.22,1.771-0.235,2.593c-0.005,0.249,1.972,1.014,2.233,1.127c0.824,0.358,1.669,0.669,2.527,0.936c1.697,0.529,3.476,0.973,5.212,1.36c1.878,0.419,3.807,0.618,5.731,0.589C-2.046-45.755-0.887-45.76,0.271-45.826z" fill="#191919"></path><path style="" d="M8.15-50.932c-0.147-0.833-0.275-1.67-0.384-2.508c-0.017-0.128-0.026-0.257-0.041-0.385c-0.166,0.983-0.636,1.925-1.322,2.643c0.22-1.685,0.622-3.66,1.054-5.382c-0.048-0.643-0.095-1.287-0.122-1.931C7.136-63.357,6.722-66.3,6.722-71.222c0-1.86,0.286-3.707,0.35-5.565c0.066-1.91-0.003-4.272-0.896-6.002c-0.758-1.467-2.154-2.288-3.642-2.872c-0.176,0.066-0.346,0.15-0.477,0.25c-1.404,1.069-2.198,2.756-2.715,4.444c-0.336,1.097-0.699,2.215-1.085,3.32c0.043,0.535,0.09,1.075,0.134,1.612c0.319-0.938,0.732-1.828,1.281-2.711c0.723-1.162,2.039-2.87,3.454-3.17c-0.092,2.652-0.489,5.25-1.242,7.794c1.11-0.74,2.153-1.632,2.997-2.665c-0.862,3.001-1.498,6.147-1.85,9.249c0.682-1.585,1.769-3.098,2.966-4.341c0.253,2.114,0.198,4.654-0.051,6.768c-0.679,5.75-1.694,9.123-4.736,13.653c-0.439-1.07-0.728-2.168-1.005-3.291c0.003,0.611-0.034,1.234-0.089,1.859c0.084,2.028,0.135,4.048,0.145,6.058c2.091-2.677,4.038-5.534,5.429-8.594c-0.382,2.935-0.765,5.967-1.147,8.926c0.716-0.204,1.388-0.457,2.048-0.782c0.03-0.015,0.06-0.032,0.09-0.047c0.273-0.137,0.544-0.29,0.816-0.455c0.07-0.043,0.141-0.085,0.212-0.129c0.304-0.192,0.608-0.397,0.918-0.629C8.741-48.628,8.194-50.683,8.15-50.932z" fill="#0F0F0F"></path><path style="" d="M-9.207-73.372c2.03-0.682,3.767-2.173,4.743-4.079c1.027,0.773,1.814,1.998,2.383,3.151c0.041-0.209,0.097-0.406,0.146-0.609c-0.035-0.596-0.083-1.191-0.158-1.784c-0.101,0.268-0.189,0.547-0.296,0.809c-0.633-1.691-1.49-3.297-2.542-4.765c-0.906-1.264-1.967-2.433-3.242-3.323c-1.275-0.89-2.916-2.222-4.341-1.6c-0.419,0.183-0.838,0.37-1.254,0.561C-11.216-81.669-9.485-77.567-9.207-73.372z" fill="#0F0F0F"></path><path style="" d="M-10.316-65.522C-8.84-64.367-6.805-63.964-5-64.47c-0.459,0.698-1.195,1.181-1.98,1.464c-0.786,0.284-1.625,0.384-2.458,0.447c-0.444,0.033-0.898,0.056-1.327-0.065c-0.428-0.121-0.833-0.41-0.98-0.83C-11.54-63.991-10.521-64.986-10.316-65.522z" fill="#191919"></path><path style="" d="M-18.917-49.75c-0.005,0.249,1.972,1.014,2.233,1.127c0.824,0.358,1.669,0.669,2.527,0.936c0.102,0.032,0.209,0.057,0.311,0.088c0.223-0.804,0.458-1.614,0.72-2.424c0.883-2.725,2.448-5.222,2.531-8.149c-0.922,1.784-2.249,3.617-3.882,4.813c0.475-2.154,0.682-4.433,1.041-6.641c0.417-2.562,0.668-5.148,0.87-7.735c0.185-2.374,0.741-5.106,0.345-7.47c-0.34-2.028-2.194-3.353-3.425-4.85c-0.688-0.837-1.271-1.757-1.747-2.729c-0.194,0.173-0.378,0.356-0.584,0.581c-0.173,0.192-0.334,0.392-0.482,0.602c-0.011,0.016-0.02,0.032-0.031,0.048c-0.124,0.18-0.234,0.369-0.335,0.564c-0.027,0.053-0.055,0.106-0.08,0.16c-0.103,0.218-0.196,0.442-0.266,0.678c-0.479,1.627-0.435,3.369-0.151,5.026c0.439,2.558,0.518,4.357,1.072,6.874c0.549,2.493,0.708,4.583,0.667,8C-17.623-57.015-18.856-52.984-18.917-49.75z" fill="#0F0F0F"></path><path style="" d="M-4.062-70.919c0.047,0.004,0.164,0.658,0.181,0.736c0.34,1.605,0.465,3.153,0.38,4.793c-0.019,0.36-0.06,0.742-0.259,1.052c-0.206,0.321-0.426,0.411-0.784,0.528c-0.838,0.275-1.721,0.462-2.606,0.445c-1.078-0.02-2.174-0.194-3.183-0.58c-0.158-0.06-0.678-3.313-0.833-3.347c1.146,0.252,2.437,2.899,3.561,2.563c0.864-0.258,1.772-0.615,2.269-1.368c0.361-0.547,0.45-1.224,0.53-1.875c0.095-0.774,0.19-1.547,0.285-2.321c0.017-0.138,0.035-0.28,0.102-0.402S-4.201-70.929-4.062-70.919z" fill="#0F0F0F"></path><path style="" d="M-4.153-65.102c0.297-2.104,0.296-4.235,0.027-6.343c-1.243,0.156-2.487,0.312-3.738,0.377c-0.47,0.024-0.944,0.032-1.411-0.033c-0.464-0.065-0.817-0.246-1.239-0.422c-0.811-0.337-0.821,0.869-0.851,1.342c-0.092,1.47-0.079,2.946,0.035,4.415c0.036,0.456-0.025,1.047,0.369,1.368c0.31,0.252,0.913,0.25,1.299,0.292c1.614,0.177,3.281,0.009,4.833-0.462C-4.592-64.64-4.187-64.858-4.153-65.102z" fill="#282828"></path><path style="" d="M-7.042-64.75c-0.167-0.396-0.156-0.99-0.081-1.312c0.103-0.442,0.227-0.88,0.371-1.311c0.292-0.873,0.736-1.878,1.21-2.668c-0.627,0.311-1.162,1.021-1.596,1.569c-0.581,0.735-1.132,1.493-1.671,2.259c-0.269,0.383-0.535,0.769-0.801,1.155c-0.105,0.152-0.202,0.255-0.335,0.375c-0.064,0.057-0.334,0.264-0.326,0.351c-0.24-2.57-0.305-4.679-0.089-7.125c-0.052-0.022-0.1-0.042-0.154-0.064c-0.811-0.337-0.822,0.869-0.851,1.342c-0.092,1.47-0.079,2.946,0.035,4.415c0.036,0.456-0.025,1.047,0.369,1.368c0.31,0.252,0.913,0.25,1.299,0.292c1.614,0.177,3.281,0.009,4.833-0.463c0.236-0.072,0.641-0.29,0.676-0.534c0.187-1.323,0.242-2.657,0.201-3.989C-4.645-67.435-5.72-65.891-7.042-64.75z" fill="#191919"></path><path style="" d="M-7.063-69.764c-0.93,0.129-1.692,1.002-1.701,1.95c-0.003,0.263,0.065,0.494,0.171,0.696c0.07,0.133,0.196,0.257,0.336,0.365l0.322-0.358c-0.17-0.002-0.311-0.095-0.357-0.254c-0.002-0.006-0.009-0.007-0.011-0.013c-0.06-0.161,0.194-0.323,0.47-0.641c0.186-0.214,0.426,0.017,0.481,0.251c0.055,0.234-0.113,0.511-0.376,0.619c-0.072,0.029-0.141,0.039-0.207,0.038l-0.322,0.358c0.128,0.099,0.268,0.186,0.388,0.252l-0.183,0.915l0.49,0.005l-0.003-0.858l0.27-0.021l-0.067,0.88c0.18-0.01,0.313-0.008,0.489-0.034l-0.135-0.868c0.012-0.003,0.297-0.02,0.309-0.023l0.016,0.877l0.503-0.144l-0.251-0.846c0.238-0.056,0.421-0.282,0.558-0.457l-0.181-0.298c-0.108,0.084-0.235,0.141-0.376,0.122c-0.261-0.035-0.425-0.266-0.365-0.516c0.06-0.25,0.333-0.549,0.529-0.372c0.248,0.225,0.47,0.346,0.417,0.498c-0.036,0.102-0.1,0.184-0.18,0.253c-0.007,0.006-0.017,0.009-0.024,0.015l0.181,0.298c0.013-0.017,0.029-0.036,0.041-0.052c0.26-0.331,0.433-0.728,0.437-1.155C-5.386-69.229-6.133-69.893-7.063-69.764z" fill="#737373"></path><path style="" d="M-7.563-65.581l-0.003-0.858l0.27-0.021l-0.067,0.88c0.071-0.004,0.132-0.006,0.193-0.009c0.003-0.179,0.018-0.349,0.047-0.474c0.032-0.138,0.079-0.271,0.115-0.408l-0.002-0.012c0,0,0.005,0,0.005,0c0.079-0.299,0.154-0.598,0.252-0.891c0.006-0.017,0.013-0.035,0.019-0.052c-0.067-0.094-0.094-0.214-0.064-0.34c0.042-0.177,0.192-0.37,0.344-0.41c0.171-0.423,0.363-0.852,0.571-1.254c-0.078-0.069-0.164-0.128-0.256-0.178c-0.375,0.343-0.712,0.77-1.001,1.135c-0.121,0.154-0.23,0.317-0.349,0.472c0.061,0.064,0.114,0.145,0.135,0.234c0.055,0.234-0.113,0.511-0.376,0.619c-0.143,0.058-0.278,0.048-0.384-0.007c-0.078,0.108-0.16,0.213-0.238,0.321c0.151,0.134,0.33,0.25,0.48,0.333l-0.183,0.915L-7.563-65.581z" fill="#5C5C5C"></path><path style="" d="M8.097-51.417C6.26-49.86,3.555-49.08-0.131-48.981l-0.045,0.841c3.931-0.078,6.44-0.652,8.44-2.346C8.358-50.823,8.287-51.13,8.097-51.417z" fill="#474747"></path><path style="" d="M-7.22-49.483c-3.676-0.609-7.518-1.811-11.346-3.559c-0.048,0.29-0.096,0.58-0.136,0.865c3.616,1.641,7.188,2.787,10.659,3.422C-7.777-48.974-7.502-49.218-7.22-49.483z" fill="#474747"></path><path style="" d="M-12.844-50.838c-1.896-0.595-3.811-1.331-5.722-2.204c-0.048,0.289-0.096,0.577-0.136,0.861c0,0.001,0,0.003,0,0.004c1.875,0.851,3.737,1.562,5.581,2.145C-13.035-50.302-12.937-50.569-12.844-50.838z" fill="#2E2E2E"></path><path style="" d="M-2.94-49.025c-0.113,0.279-0.233,0.555-0.362,0.828c0.744,0.043,1.47,0.072,2.16,0.072c0.338,0,0.647-0.01,0.966-0.016l0.045-0.841C-1.011-48.957-1.949-48.974-2.94-49.025z" fill="#474747"></path><path style="" d="M-4.76-49.153c-0.312-0.029-0.629-0.073-0.944-0.112c-0.502-0.061-1.007-0.134-1.516-0.218c-0.281,0.265-0.556,0.509-0.823,0.728c0.366,0.067,0.73,0.125,1.094,0.181c0.708,0.108,1.412,0.203,2.111,0.267c0.527,0.049,1.034,0.081,1.537,0.11c0.129-0.274,0.249-0.55,0.363-0.829C-3.53-49.058-4.128-49.094-4.76-49.153z" fill="#757575"></path><path style="" d="M-4.281-49.12c-0.57,0.253-1.27,0.472-1.969,0.634c0.471,0.065,0.944,0.135,1.41,0.179c0.527,0.049,1.034,0.081,1.537,0.11c0.129-0.274,0.249-0.55,0.363-0.829C-3.375-49.049-3.827-49.084-4.281-49.12z" fill="#474747"></path><path style="" d="M1.3-48.199c0.229-0.308,0.455-0.619,0.677-0.932c-0.792,0.092-1.621,0.156-2.527,0.167c-0.041,0.171-0.076,0.347-0.12,0.515c-0.029,0.11-0.046,0.211-0.069,0.317C-0.013-48.137,0.663-48.16,1.3-48.199z" fill="#2E2E2E"></path><path style="" d="M8.078-51.403c-0.849,0.715-1.895,1.254-3.12,1.651c-0.044,0.341-0.087,0.68-0.131,1.021c1.333-0.366,2.446-0.919,3.429-1.749C8.315-50.824,8.318-51.152,8.078-51.403z" fill="#2E2E2E"></path><path style="" d="M0.167-69.854c-0.263,0.47-0.37,1.74-0.463,2.267c-0.115,0.652-0.178,1.314-0.188,1.976l-0.052,0.396c1.541-2.097,2.658-4.931,3.307-7.451C1.877-71.554,1.006-70.595,0.167-69.854z" fill="#282828"></path><path style="" d="M2.345-54.831c-0.6-4.118,0.54-8.462,3.084-11.755C5.119-62.61,3.911-58.499,2.345-54.831z" fill="#282828"></path><path style="" d="M0.367-45.753c0.172-2.779,0.516-4.102,0.494-6.886c-0.011-1.409-0.317-4.28-0.378-5.688c-0.056-1.298-0.29-2.231-0.316-3.534C0.14-63.178,0.524-65.6,0.472-66.917c-0.096-2.439-0.664-4.118-0.696-6.559c-0.041-3.091,0.279-6.684,1.677-9.485c-0.316,0.054-0.614,0.265-0.886,0.436c-1.103,2.251-1.916,4.558-2.374,7.023c-0.396,2.131-0.097,4.249,0.197,6.372c0.249,1.791,0.266,3.465,0.063,5.254c-0.205,1.813-0.187,3.651,0.054,5.459c0.585,4.375-0.542,8.381-0.394,12.793C-1.131-45.637-0.373-45.567,0.367-45.753z" fill="#282828"></path><path style="" d="M0.367-45.753c0.172-2.779,0.516-4.102,0.494-6.886c-0.011-1.409-0.317-4.28-0.378-5.688c-0.056-1.298-0.29-2.231-0.316-3.534C0.14-63.178,0.524-65.6,0.472-66.917c-0.096-2.439-0.664-4.118-0.696-6.559c-0.041-3.091,0.279-6.684,1.677-9.485c-0.316,0.054-0.614,0.265-0.886,0.436c-1.103,2.251-1.916,4.558-2.374,7.023c-0.396,2.131-0.097,4.249,0.197,6.372c0.249,1.791,0.266,3.465,0.063,5.254c-0.205,1.813-0.187,3.651,0.054,5.459c0.585,4.375-0.501,8.402-0.352,12.814C-1.09-45.616-0.373-45.567,0.367-45.753z" fill="#383838"></path><path style="" d="M-1.827-75.36c0.333-1.196,0.819-2.294,1.499-3.387c0.187-0.3,0.414-0.636,0.671-0.974c0.257-1.141,0.613-2.242,1.111-3.24c-0.316,0.054-0.614,0.265-0.886,0.436c-1.103,2.251-1.916,4.558-2.374,7.023C-1.815-75.455-1.819-75.408-1.827-75.36z" fill="#282828"></path><path style="" d="M-12.266-88.424c0.162-0.087,0.333,0.05,0.446,0.287c0.378,0.797,1.129,1.395,1.777,1.968c0.881,0.777,2.323,1.674,3.46,2.003c0.61,0.175,1.172,0.229,1.491,0.849c0.156,0.303,0.246,0.681,0.389,1.001c0.182,0.409,0.36,0.819,0.534,1.231c0.712,1.689,1.358,3.406,1.942,5.144c-0.836-1.659-1.61-3.375-2.683-4.895c-0.158-0.224-0.352-0.462-0.624-0.502c-0.576-0.083-0.803,0.637-1.041,1.021c-0.303,0.491-0.414,1.063-0.587,1.609c-0.304,0.961-0.654,1.909-1.089,2.82c-0.84-1.601-1.615-3.425-2.284-5.105c-0.669-1.68-1.546-3.341-2.945-4.486c0.023,0.019,0.638-1.343,0.686-1.469c0.151-0.396,0.241-0.655,0.33-1.23C-12.403-88.308-12.336-88.387-12.266-88.424z" fill="#282828"></path><path style="" d="M-8.028-81.778c-0.019-0.494-0.014-0.528,0.014-0.833c-0.734-0.658-1.748-1.781-2.375-2.542c-0.774-0.939-1.495-1.845-2.135-2.884c0,0.045,0.002,0.091-0.004,0.133c-0.042,0.329-0.148,0.646-0.265,0.955c-0.048,0.126-0.663,1.488-0.686,1.469c1.399,1.146,2.275,2.806,2.945,4.486c0.437,1.095,0.921,2.248,1.436,3.364C-7.835-78.271-7.984-80.609-8.028-81.778z" fill="#191919"></path><path style="" d="M-9.497-77.628c0.208,0.599,0.395,1.21,0.66,1.784c0.134,0.29,0.19,0.54,0.518,0.427c0.514-0.177,0.751-0.835,0.954-1.274c0.315-0.681,0.528-1.421,0.765-2.132c0.171-0.45,0.342-0.901,0.513-1.351c0.092-0.242,0.223-0.722,0.431-0.878c0.344,0.031,0.703,0.891,0.927,1.229c0.329,0.495,0.634,1.045,0.927,1.562c0.585,1.034,1.226,2.145,1.635,3.26c0.086-0.19,0.433-0.749,0.361-0.944c-0.347-0.946-0.898-1.686-1.306-2.598c-0.399-0.891-0.947-1.704-1.411-2.561c-0.341-0.629-1.352-0.712-1.886-0.311c-0.293,0.22-0.376,0.545-0.47,0.888c-0.142,0.518-0.387,1.028-0.555,1.542c-0.119,0.364-0.212,0.721-0.393,1.055c-0.104,0.191-0.178,0.407-0.263,0.607c-0.036,0.084-0.24,0.425-0.21,0.505c-0.512-1.373-1.059-2.734-1.641-4.079c-0.394-0.911-0.806-1.819-1.335-2.659s-1.234-1.646-2.042-2.223c-0.158,0.113-0.441,0.332-0.599,0.445c0.971,0.684,1.773,1.625,2.304,2.687c0.385,0.77,0.698,1.579,1.044,2.367C-10.188-79.413-9.78-78.531-9.497-77.628z" fill="#474747"></path><path style="" d="M-1.925-77c-0.043-0.89,0.101-1.715,0.155-2.605c0.141-2.343,0.896-5,2.672-6.281c0.907-0.655,1.86-0.39,2.881-0.403c0.394-0.005,0.814-0.067,1.208-0.166c0.307-0.078,0.844-0.429,1.142-0.2c0.467,0.358-0.231,0.847-0.479,1.083c-0.393,0.374-0.817,0.715-1.266,1.02c-0.897,0.611-1.892,1.077-2.937,1.37c-0.295,0.083-0.604,0.157-0.845,0.346c-0.285,0.224-0.435,0.574-0.572,0.91c-0.376,0.918-0.75,1.837-1.121,2.757c-0.398,0.986-0.508,1.885-0.688,2.933C-1.865-76.58-1.908-76.645-1.925-77z" fill="#282828"></path><path style="" d="M6.19-86.59c-0.02-0.022-0.03-0.044-0.057-0.065c-0.298-0.229-0.835,0.122-1.142,0.2c-0.394,0.099-0.811,0.13-1.206,0.134c-1.021,0.013-1.976-0.22-2.883,0.435c-1.776,1.281-2.649,4.265-2.79,6.608c-0.051,0.839-0.244,2.583-0.222,3.417c0.068,0.166,0.331-0.957,0.406-0.793c0.038-0.231,0.079-0.458,0.12-0.679c-0.015-1.081,0.147-2.875,0.447-3.889c0.307-1.038,0.694-2.059,1.167-2.5C2.152-83.989,4.649-85.313,6.19-86.59z" fill="#191919"></path><path style="" d="M-4.729-79.823c0.329,0.495,0.634,1.045,0.927,1.562c0.563,0.994,1.172,2.059,1.582,3.132c0.13-0.247,0.336-0.628,0.279-0.784c-0.263-0.716-0.672-1.361-1.028-2.033C-3.321-78.611-3.572-79.157-4-79.781c-0.229-0.333-0.52-0.766-0.791-1.063c-0.245-0.268-0.5-0.261-0.835-0.198c0.228,0.066,0.379,0.331,0.494,0.52C-4.991-80.293-4.878-80.047-4.729-79.823z" fill="#2E2E2E"></path><path style="" d="M-9.214-79.089c-0.171-0.42-0.331-0.845-0.508-1.263c-0.083-0.029-0.168-0.046-0.254-0.026c-0.206,0.049-0.306,0.192-0.339,0.364c0.139,0.315,0.279,0.63,0.412,0.949c0.141,0.084,0.304,0.128,0.464,0.096C-9.355-78.984-9.281-79.032-9.214-79.089z" fill="#757575"></path><path style="" d="M-9.361-78.459c-0.194,0.082-0.154,0.36-0.092,0.56c0.054,0.171,0.11,0.342,0.169,0.512c0.14,0.4,0.296,0.794,0.468,1.181c0.06,0.136,0.19,0.447,0.371,0.45c0.021,0,0.043-0.002,0.064-0.007c0.15-0.034,0.308-0.184,0.399-0.284c0.258-0.284,0.395-0.654,0.553-0.997c0.103-0.222,0.194-0.45,0.278-0.68c0.079-0.216,0.177-0.443,0.166-0.677c-0.004-0.083-0.033-0.169-0.097-0.224c-0.076-0.065-0.187-0.074-0.285-0.051c-0.132,0.031-0.203,0.107-0.239,0.224c-0.007,0.022-0.019,0.042-0.026,0.064c-0.045,0.159-0.118,0.317-0.196,0.46c-0.104,0.191-0.178,0.407-0.263,0.607c-0.036,0.084-0.24,0.425-0.21,0.505c-0.119-0.319-0.246-0.634-0.375-0.949c-0.073-0.178-0.142-0.359-0.22-0.535c-0.048-0.109-0.112-0.173-0.235-0.192C-9.205-78.505-9.312-78.48-9.361-78.459z" fill="#757575"></path><path style="" d="M-6.409-81.414c-0.293,0.22-0.376,0.545-0.47,0.888c-0.097,0.355-0.238,0.706-0.374,1.056c0.06,0.042,0.135,0.073,0.246,0.078c0.21,0.009,0.404-0.122,0.536-0.286c0.042-0.052,0.074-0.109,0.11-0.164c0.063-0.166,0.126-0.332,0.189-0.498c0.084-0.221,0.127-0.462,0.25-0.669c0.054-0.091,0.13-0.19,0.24-0.212c0.152-0.031,0.32,0.007,0.462-0.05c0.103-0.041,0.143-0.035,0.137-0.146c-0.003-0.06-0.025-0.117-0.055-0.169C-5.561-81.725-6.077-81.664-6.409-81.414z" fill="#757575"></path><path style="" d="M-4.229-71.896c-1.031,0.177-2.092,0.21-3.136,0.232c-0.592,0.012-1.185,0.013-1.777,0c-0.281-0.006-0.561-0.02-0.842-0.029c-0.333-0.011-0.602-0.176-0.905-0.316c-0.027-0.013-0.057-0.013-0.086-0.022c-0.009,0.015-0.019,0.029-0.027,0.044c-0.006,0.012-0.012,0.025-0.018,0.037c-0.006,0.015-0.011,0.029-0.016,0.044c-0.035,0.102-0.054,0.207-0.072,0.313c-0.015,0.138-0.017,0.277-0.017,0.415c0.302,0.161,0.653,0.286,0.991,0.327c0.493,0.06,1.012,0.035,1.508,0.035c1.702,0,3.484-0.061,4.54-0.242C-3.982-71.37-4.016-71.652-4.229-71.896z" fill="#474747"></path><path style="" d="M-10.888-72.01c-0.027-0.013-0.057-0.013-0.086-0.022c-0.009,0.015-0.019,0.029-0.027,0.044c-0.006,0.012-0.012,0.025-0.018,0.037c-0.006,0.015-0.011,0.029-0.016,0.044c-0.035,0.102-0.054,0.207-0.072,0.313c-0.015,0.138-0.017,0.277-0.017,0.415c0.23,0.122,0.488,0.211,0.747,0.27l0.047-0.856C-10.519-71.827-10.698-71.921-10.888-72.01z" fill="#2E2E2E"></path><path style="" d="M5.969-86.847c-0.178,1.451-3.24,3.427-5.331,3.703c-0.427,0.057-0.704,0.57-1.163,1.7c-0.047,0.116-0.085,0.21-0.11,0.262c-1.275,2.694-1.788,5.669-1.568,9.098c0.046,0.715,0.12,1.433,0.194,2.151c0.147,1.425,0.299,2.899,0.212,4.321c-0.034,0.549-0.089,1.097-0.145,1.645c-0.044,0.438-0.088,0.876-0.122,1.315c-0.017,0.224-0.038,0.444-0.058,0.663c-0.062,0.663-0.127,1.348-0.082,2.071c0.054,0.861,0.145,1.728,0.235,2.596c0.12,1.148,0.245,2.335,0.276,3.486c0.086,3.129-0.185,5.925-0.762,8.151c0.28-0.029,0.56-0.029,0.84-0.015c0.613-2.3,0.861-4.9,0.771-8.159C-0.874-55.043-1-56.247-1.121-57.41c-0.09-0.856-0.179-1.711-0.232-2.561c-0.042-0.657,0.017-1.28,0.079-1.938c0.021-0.224,0.042-0.449,0.06-0.678c0.033-0.432,0.077-0.863,0.12-1.294C-1.038-64.441-0.981-65-0.947-65.56c0.091-1.492-0.064-3.001-0.215-4.46c-0.073-0.708-0.146-1.415-0.191-2.119c-0.211-3.28,0.276-6.119,1.488-8.68c0.029-0.061,0.073-0.17,0.128-0.305c0.102-0.251,0.399-1.131,0.571-1.335c2.313-0.337,5.021-1.729,5.875-4.167C6.443-86.813,6.306-86.896,5.969-86.847z" fill="#474747"></path><path style="" d="M-0.19-75.479c-0.5,0.322-0.983,0.614-1.086,0.676c-0.226,0.137-0.454,0.268-0.671,0.404c-0.146,1.759,0.094,3.512,0.338,5.269c0.037,0.27,0.059,0.533,0.086,0.798c0.639-0.426,1.202-0.963,1.667-1.575c-0.173-1.128-0.35-2.235-0.368-3.569C-0.232-74.125-0.22-74.798-0.19-75.479z" fill="#282828"></path><path style="" d="M-1.354-72.139c-0.058-0.904-0.058-1.772-0.009-2.612c-0.301,0.18-0.6,0.354-0.873,0.544c-0.02,0.69-0.013,1.394,0.034,2.123c0.046,0.715,0.12,1.433,0.194,2.151c0.061,0.593,0.12,1.195,0.165,1.797c0.282-0.166,0.553-0.351,0.808-0.556c-0.039-0.446-0.083-0.89-0.128-1.328C-1.235-70.728-1.309-71.435-1.354-72.139z" fill="#3D3D3D"></path><path style="" d="M-1.354-72.139c-0.058-0.904-0.058-1.772-0.009-2.612c-0.301,0.18-0.6,0.354-0.873,0.544c-0.02,0.69-0.013,1.394,0.034,2.123c0.046,0.715,0.12,1.433,0.194,2.151c0.061,0.593,0.12,1.195,0.165,1.797c0.282-0.166,0.553-0.351,0.808-0.556c-0.039-0.446-0.083-0.89-0.128-1.328C-1.235-70.728-1.309-71.435-1.354-72.139z" fill="#3D3D3D"></path><path style="" d="M-0.825-59.57c0.335,1.479,0.916,2.886,1.53,4.275c-0.09-1.132-0.19-2.286-0.223-3.032c-0.056-1.298-0.29-2.231-0.316-3.534c-0.026-1.29,0.339-3.634,0.306-4.967c-0.436,0.623-0.815,1.302-1.077,1.974C-1.255-63.188-1.22-61.315-0.825-59.57z" fill="#282828"></path><path style="" d="M0.368-45.772c0.138-2.208,0.381-3.507,0.463-5.351c-0.352,0.172-0.676,0.592-0.866,0.82c-0.604,0.721-1.2,1.449-1.791,2.181c-0.049,0.881-0.225,1.693-0.195,2.59c0.729,0.052,1.639-0.036,2.375-0.219C0.359-45.758,0.364-45.765,0.368-45.772z" fill="#282828"></path><path style="" d="M-1.661-45.519c0.31-1.121,0.533-2.313,0.669-3.618c-0.339,0.412-0.681,0.822-1.016,1.238c-0.126,0.848-0.29,1.638-0.486,2.367C-2.216-45.522-1.939-45.519-1.661-45.519z" fill="#3D3D3D"></path><ellipse style="" cx="-0.847" cy="-71.667" rx="0.447" ry="0.504" fill="#191919"></ellipse><ellipse style="" cx="-0.405" cy="-67.139" rx="0.447" ry="0.504" fill="#282828"></ellipse><ellipse style="" cx="-0.502" cy="-62.965" rx="0.447" ry="0.504" fill="#191919"></ellipse><ellipse style="" cx="-0.433" cy="-59.09" rx="0.447" ry="0.504" fill="#191919"></ellipse><ellipse style="" cx="-0.197" cy="-55.25" rx="0.447" ry="0.504" fill="#282828"></ellipse><ellipse style="" cx="-0.113" cy="-51.5" rx="0.447" ry="0.504" fill="#282828"></ellipse><ellipse style="" cx="-0.336" cy="-47.514" rx="0.447" ry="0.504" fill="#282828"></ellipse><ellipse style="" cx="-0.722" cy="-71.875" rx="0.447" ry="0.504" fill="#737373"></ellipse><ellipse style="" cx="-0.28" cy="-67.347" rx="0.447" ry="0.504" fill="#737373"></ellipse><ellipse style="" cx="-0.377" cy="-63.174" rx="0.447" ry="0.504" fill="#737373"></ellipse><ellipse style="" cx="-0.308" cy="-59.299" rx="0.447" ry="0.504" fill="#737373"></ellipse><ellipse style="" cx="-0.072" cy="-55.458" rx="0.447" ry="0.504" fill="#737373"></ellipse><ellipse style="" cx="0.012" cy="-51.708" rx="0.447" ry="0.504" fill="#737373"></ellipse><ellipse style="" cx="-0.211" cy="-47.722" rx="0.447" ry="0.504" fill="#737373"></ellipse><path style="" d="M-1.813-69.961c0.147,1.425,0.299,2.899,0.212,4.321c-0.034,0.549-0.089,1.097-0.145,1.645c-0.044,0.438-0.088,0.876-0.122,1.315c-0.013,0.164-0.059,0.368,0.018,0.526c0.086,0.176,0.271,0.194,0.424,0.091c0.19-0.128,0.196-0.318,0.212-0.526c0.033-0.432,0.077-0.863,0.12-1.294C-1.038-64.441-0.981-65-0.947-65.56c0.091-1.492-0.064-3.001-0.215-4.46c-0.018-0.171-0.033-0.342-0.047-0.513c-0.011-0.132,0.003-0.291-0.077-0.405c-0.131-0.186-0.369-0.103-0.501,0.041c-0.113,0.123-0.087,0.242-0.074,0.396C-1.847-70.322-1.832-70.141-1.813-69.961z" fill="#757575"></path><path style="" d="M0.245-81.13c0.062-0.167,0.124-0.334,0.193-0.498c0.057-0.135,0.244-0.399,0.019-0.486c-0.135-0.052-0.364,0.071-0.464,0.166c-0.101,0.097-0.178,0.227-0.233,0.355c-0.64,1.474-1.209,2.947-1.507,4.536c-0.28,1.494-0.36,3.021-0.296,4.538c0.01,0.239-0.01,0.626,0.274,0.718c0.511,0.166,0.41-0.406,0.395-0.693c-0.01-0.211-0.018-0.422-0.023-0.633c-0.032-1.496,0.089-2.998,0.419-4.459c0.155-0.69,0.357-1.369,0.604-2.031c0.123-0.329,0.257-0.653,0.402-0.973C0.108-80.765,0.177-80.947,0.245-81.13z" fill="#757575"></path><path style="" d="M3.614-83.383c0.086-0.158-0.031-0.391-0.167-0.472c-0.157-0.094-0.366,0.04-0.506,0.109c-0.177,0.087-0.356,0.169-0.538,0.245c-0.177,0.074-0.356,0.142-0.537,0.204c-0.088,0.03-0.176,0.058-0.265,0.085c-0.162,0.048-0.291,0.128-0.369,0.29c-0.05,0.104-0.102,0.301,0.044,0.352c0.139,0.049,0.386-0.061,0.522-0.097c0.371-0.097,0.737-0.217,1.093-0.36c0.138-0.055,0.274-0.114,0.409-0.176C3.389-83.244,3.557-83.288,3.614-83.383z" fill="#757575"></path><path style="" d="M6.599-86.551c-0.012-0.033-0.033-0.063-0.065-0.088c-0.127-0.098-0.336-0.072-0.439,0.047c-0.125,0.143-0.157,0.341-0.25,0.502c-0.166,0.287-0.388,0.538-0.622,0.771c-0.207,0.205-0.429,0.395-0.66,0.572c-0.14,0.108-0.356,0.252-0.358,0.45c-0.003,0.305,0.366,0.356,0.563,0.21c0.301-0.224,0.582-0.479,0.837-0.753c0.357-0.384,0.663-0.816,0.892-1.288C6.552-86.241,6.646-86.419,6.599-86.551z" fill="#757575"></path><path style="" d="M-1.122-57.41c-0.039-0.259-0.294-0.451-0.527-0.219c-0.229,0.227-0.126,0.535-0.097,0.82c0.034,0.329,0.067,0.658,0.096,0.987c0.059,0.656,0.107,1.314,0.125,1.973c0.009,0.327,0.013,0.654,0.014,0.982c0,0.223,0.013,0.586,0.326,0.586c0.276,0,0.358-0.316,0.358-0.532c0-0.348-0.005-0.697-0.015-1.045c-0.022-0.793-0.084-1.585-0.16-2.375C-1.039-56.621-1.074-57.009-1.122-57.41z" fill="#757575"></path><path style="" d="M-1.658-45.519c0.022-0.08,0.044-0.16,0.065-0.241c0.245-0.933,0.421-1.884,0.541-2.842c0.065-0.519,0.114-1.041,0.149-1.563c0.019-0.274,0.034-0.549,0.045-0.824c0.008-0.183,0.053-0.47-0.11-0.602c-0.082-0.066-0.274-0.101-0.375-0.057c-0.041,0.018-0.07,0.045-0.092,0.078c-0.058,0.088-0.058,0.216-0.062,0.315c-0.041,1.064-0.128,2.127-0.278,3.182c-0.068,0.48-0.15,0.957-0.248,1.432c-0.017,0.082-0.195,0.79-0.273,1.118C-2.083-45.518-1.87-45.519-1.658-45.519z" fill="#757575"></path><path style="" d="M-1.786-58.347c0.05-0.091,0.155-0.142,0.259-0.153c0.113-0.012,0.244,0.029,0.288,0.135c0.045,0.11-0.026,0.236-0.122,0.307C-1.551-57.919-1.934-58.079-1.786-58.347z" fill="#757575"></path><path style="" d="M-7.448-71.303c-0.046-0.088-0.125-0.14-0.203-0.194c-0.492,0.007-0.985,0.011-1.477,0c-0.131-0.003-0.261-0.009-0.392-0.014c-0.1,0.124-0.147,0.292-0.14,0.462c0.003,0.086,0.021,0.16,0.049,0.227c0.33,0.009,0.662,0.007,0.986,0.007c0.396,0,0.797-0.004,1.192-0.011C-7.364-70.963-7.353-71.122-7.448-71.303z" fill="#757575"></path><path style="" d="M-5.463-71.357c-0.032-0.084-0.086-0.156-0.152-0.216c-0.351,0.025-0.701,0.04-1.052,0.051c-0.104,0.128-0.162,0.294-0.139,0.457c0.012,0.085,0.045,0.159,0.09,0.221c0.423-0.014,0.83-0.034,1.209-0.059C-5.432-71.044-5.407-71.209-5.463-71.357z" fill="#757575"></path><path style="" d="M-6.753-62.998c-1.532,0.569-3.282,0.53-4.787-0.107c0.713,0.612,1.699,1.377,2.638,1.359S-7.227-62.187-6.753-62.998z" fill="#282828"></path><g><path style="" d="M-17.54-75.54l-0.74,0.14c-0.12-0.67-0.22-1.32-0.28-1.95l0.75-0.07C-17.75-76.82-17.66-76.18-17.54-75.54z" fill="#282828"></path><path style="" d="M-17.9-79.13c0,0.26,0.01,0.51,0.02,0.77l-0.75,0.03c-0.01-0.26-0.02-0.53-0.02-0.8c0-0.39,0.02-0.78,0.04-1.18l0.75,0.06C-17.89-79.88-17.9-79.5-17.9-79.13z" fill="#282828"></path><path style="" d="M-16.59-54.35c-0.1,0.64-0.179,0.877-0.299,1.517l-0.74-0.13c0.12-0.63,0.199-0.867,0.299-1.507L-16.59-54.35z" fill="#282828"></path><path style="" d="M-16.18-57.24c-0.08,0.65-0.17,1.29-0.26,1.93l-0.74-0.11c0.09-0.63,0.17-1.27,0.25-1.91L-16.18-57.24z" fill="#282828"></path><path style="" d="M-15.78-63.06c0,0.65-0.01,1.3-0.05,1.95l-0.75-0.04c0.04-0.63,0.05-1.27,0.05-1.91H-15.78z" fill="#282828"></path><path style="" d="M-16.64-60.19l0.75,0.05l-0.04,0.53c-0.04,0.47-0.09,0.94-0.14,1.41l-0.75-0.08c0.05-0.46,0.1-0.93,0.14-1.39L-16.64-60.19z" fill="#282828"></path><path style="" d="M-15.79-64.04l-0.75,0.02c-0.01-0.64-0.04-1.27-0.09-1.91l0.75-0.05C-15.83-65.33-15.8-64.68-15.79-64.04z" fill="#282828"></path><path style="" d="M-15.96-66.96l-0.75,0.07c-0.06-0.63-0.13-1.27-0.22-1.9l0.75-0.1C-16.09-68.25-16.02-67.6-15.96-66.96z" fill="#282828"></path><path style="" d="M-16.33-69.85l-0.74,0.11c-0.1-0.63-0.22-1.26-0.35-1.88l0.74-0.15C-16.55-71.14-16.43-70.5-16.33-69.85z" fill="#282828"></path><path style="" d="M-16.89-72.72l-0.73,0.17c-0.08-0.3-0.15-0.6-0.23-0.9c-0.08-0.33-0.16-0.65-0.23-0.99l0.73-0.16c0.07,0.32,0.15,0.64,0.23,0.96C-17.04-73.34-16.97-73.03-16.89-72.72z" fill="#282828"></path></g></g><!---0029-00870002000026--><g><path style="" d="M-14.016-65.068c-0.329-0.25-0.726-0.391-1.117-0.525c-0.437-0.15-0.879-0.283-1.318-0.424c-0.368,1.038-0.725,1.999-1.053,2.801c0.551-0.042,1.1-0.101,1.65-0.152c0.632-0.059,1.28-0.025,1.907-0.103c0.318-0.039,0.784-0.219,0.757-0.614c-0.004-0.059-0.019-0.121-0.048-0.189C-13.382-64.61-13.739-64.857-14.016-65.068z" fill="#0F0F0F"></path><path style="" d="M-13.178-63.916c-0.057-2.063-0.198-4.186-0.016-6.247c0.132-1.506,0.294-3.013,0.583-4.492c0.174-0.891,0.334-1.786,0.449-2.686c0.111-0.872,0.251-1.778,0.069-2.647c-0.276-1.32-1.225-3.056-2.726-3.199c-1.692-0.162-3.41,0.839-4.181,2.34c-0.418,0.813-0.945,1.552-1.369,2.374c-0.477,0.925-0.887,1.882-1.343,2.817c-1.339,2.743-2.663,5.494-4.076,8.2c1.178-0.349,3.156,0.561,4.511,1.346C-18.639-64.583-15.194-64.806-13.178-63.916z" fill="#282828"></path><path style="" d="M-12.612-74.655c0.174-0.891,0.334-1.786,0.449-2.686c0.111-0.872,0.251-1.778,0.069-2.647c-0.276-1.32-1.225-3.056-2.726-3.199c-1.692-0.162-3.41,0.839-4.181,2.34c-0.418,0.813-0.945,1.552-1.369,2.374c-0.477,0.925-0.887,1.882-1.343,2.817c-1.187,2.431-2.37,4.863-3.605,7.269c1.445-0.078,3.475,0.923,4.93,1.915c-0.051-1.327,0.085-2.753,0.264-4.068c0.556,1.846,1.547,3.524,2.862,4.934c-0.845-2.279-1.151-4.756-0.888-7.173c0.425,1.32,1.001,2.483,1.562,3.751c0.426,0.963,0.893,1.915,1.515,2.765c0.512,0.7,1.143,1.322,1.876,1.779c-0.063-1.885-0.162-3.807,0.003-5.68C-13.062-71.669-12.901-73.177-12.612-74.655z" fill="#191919"></path><path style="" d="M-17.336-81.912c1.391,0.936,2.783,1.872,4.174,2.808c-0.567-1.326-1.186-2.617-1.953-3.838C-16.03-83.059-16.778-82.646-17.336-81.912z" fill="#282828"></path><path style="" d="M-12.751-76.724c-0.488-0.778-1.135-1.445-1.818-2.053c-1.213-1.081-2.622-1.937-4.101-2.608c-0.124,0.17-0.235,0.35-0.331,0.537c-0.418,0.813-0.945,1.552-1.369,2.374c-0.477,0.925-0.887,1.882-1.343,2.817c-1.187,2.431-2.37,4.863-3.605,7.269c0.63-0.034,1.373,0.144,2.13,0.431c0.906-1.257,1.464-2.687,2.093-4.125c0.844-1.929,1.573-3.921,2.671-5.727c0.385,2.435,1.136,5.041,2.591,7.031c-0.253-1.961,0.025-4.182,0.13-6.156c0.008,0.009,0.016,0.019,0.024,0.028c1.336,1.574,2.184,3.495,2.311,5.555c0.043,0.708,0.083,1.453,0.112,2.296c0.014-0.371,0.029-0.741,0.062-1.109c0.133-1.506,0.294-3.013,0.583-4.492c0.085-0.436,0.167-0.872,0.241-1.31C-12.471-76.217-12.591-76.468-12.751-76.724z" fill="#0F0F0F"></path><path style="" d="M-13.257-66.38c-0.184-0.06-0.378-0.113-0.586-0.151c-0.401-0.073-0.804-0.1-1.194-0.126c-0.176-0.012-0.352-0.024-0.527-0.04c-1.18-0.108-2.331-0.432-3.409-0.923c-1.308-0.596-2.484-1.483-3.856-1.934c-0.28-0.092-0.567-0.165-0.857-0.22c-0.09-0.017-0.845-0.173-0.879-0.105c-0.127,0.253-0.255,0.506-0.383,0.758c1.143-0.004,2.245,0.366,3.263,0.861c1.011,0.492,1.922,1.183,2.971,1.588c0.987,0.381,2.027,0.624,3.081,0.721c0.181,0.017,0.363,0.029,0.544,0.041c0.386,0.026,0.75,0.051,1.11,0.117c0.279,0.051,0.526,0.126,0.744,0.221C-13.243-65.841-13.249-66.111-13.257-66.38z" fill="#474747"></path><path style="" d="M-20.361-67.521c0.534,0.315,1.07,0.625,1.648,0.848c0.193,0.075,0.396,0.119,0.593,0.183c-0.2-0.269-0.399-0.538-0.579-0.82c-0.084-0.036-0.17-0.066-0.253-0.104c-0.472-0.215-0.926-0.469-1.379-0.726C-20.344-67.932-20.353-67.726-20.361-67.521z" fill="#757575"></path><path style="" d="M-15.088-65.91c0.055,0.004,0.106,0.009,0.16,0.012c-0.042-0.052-0.085-0.103-0.125-0.156c-0.1-0.136-0.189-0.279-0.282-0.42c-0.07-0.005-0.139-0.009-0.209-0.016c-0.74-0.068-1.466-0.229-2.172-0.455c0.056,0.216,0.127,0.428,0.196,0.641c0.62,0.164,1.248,0.294,1.887,0.353C-15.451-65.935-15.27-65.922-15.088-65.91z" fill="#757575"></path><path style="" d="M-22.346-69.358c-0.161-0.066-0.317-0.143-0.483-0.198c-0.28-0.092-0.567-0.165-0.857-0.22c-0.09-0.017-0.845-0.173-0.879-0.105c-0.127,0.253-0.255,0.506-0.383,0.758c0.766-0.002,1.511,0.172,2.228,0.43C-22.589-68.91-22.464-69.132-22.346-69.358z" fill="#2E2E2E"></path></g></svg>