<svg xmlns:xlink="http://www.w3.org/1999/xlink" xmlns="http://www.w3.org/2000/svg" viewBox="-33.14045715332031 -96.19011688232422 58.92649459838867 65.47708892822266" width="406" height="325"><!--00003-00710002600035--><g><g><path style="" d="M6.032-59.919c-0.147-1.334-0.069-2.667,0.442-3.947c0.714-1.788,2.312-3.278,4.217-3.553c0.908-0.131,1.831,0.008,2.736,0.153c0.594,0.095,1.199,0.195,1.731,0.476c0.579,0.306,1.029,0.803,1.466,1.289c3.873,4.311,7.303,9.418,8.827,14.901c0.164,0.592,0.33,1.192,0.334,1.806c0.011,1.556-2.235,3.567-3.19,4.795c-0.518,0.666-1.05,1.345-1.755,1.808c-0.452,0.296-0.961,0.494-1.472,0.67c-2.768,0.951-6.113,1.572-8.992,0.74c-1.288-0.373-2.623-2.106-3.336-3.199c-1.192-1.826,0.11-3.95,0.381-6.009c0.168-1.279,0.074-2.699-0.024-3.982C7.246-55.976,6.256-57.888,6.032-59.919z" fill="#FF3470"></path></g><path style="" d="M6.032-59.919c-0.147-1.334-0.069-2.667,0.442-3.947c0.714-1.788,2.312-3.278,4.217-3.553c0.908-0.131,1.831,0.008,2.736,0.153c0.594,0.095,1.199,0.195,1.731,0.476c0.579,0.306,1.029,0.803,1.466,1.289c3.873,4.311,7.303,9.418,8.827,14.901c0.164,0.592,0.33,1.192,0.334,1.806c0.011,1.556-2.235,3.567-3.19,4.795c-0.518,0.666-1.05,1.345-1.755,1.808c-0.452,0.296-0.961,0.494-1.472,0.67c-2.768,0.951-6.113,1.572-8.992,0.74c-1.288-0.373-2.623-2.106-3.336-3.199c-1.192-1.826,0.11-3.95,0.381-6.009c0.168-1.279,0.074-2.699-0.024-3.982C7.246-55.976,6.256-57.888,6.032-59.919z" fill="#BA856A"></path><path style="" d="M24.702-46.473C24.702-46.473,24.702-46.473,24.702-46.473c0.326-2.999-2.99-4.068-6.948-1.661c-3.958,2.407-6.258-0.481-8.867,2.433c0.647-2.335,2.405-4.264,4.507-5.469s4.529-1.745,6.944-1.949c-1.86-0.775-3.921-1.152-5.909-0.821c-2.534,0.422-4.806,1.992-6.313,4.072c-0.682,0.942-1.219,2.016-1.461,3.147c-0.017,0.091-0.029,0.182-0.042,0.272c-0.027,0.158-0.035,0.318-0.049,0.477c-0.039,0.689,0.063,1.358,0.476,1.991c0.713,1.092,2.048,2.826,3.336,3.199c0.021,0.006,0.042,0.008,0.063,0.014c2.828,0.685,6.519,0.048,8.724-0.689l2.695-1.644c0.258-0.288,0.5-0.594,0.737-0.899c0.121-0.156,0.264-0.325,0.419-0.503C23.519-45.082,24.16-45.767,24.702-46.473z" fill="#A16B51"></path><path style="" d="M12.065-44.237c-0.325,0.983,0.116,2.671,0.385,3.806c0.146,0.614,0.627,1.142,1.287,1.371c1.089,0.376,2.378,0.544,3.431,0.544c1.04,0,2.095-0.336,3.035-0.702c0.951-0.37,1.945-0.853,2.279-1.801c0.064-0.181,0.084-0.372,0.094-0.562c0.03-0.58,0.039-1.207-0.093-1.773c-0.189-0.808-0.265-1.197-0.424-2.009C19.35-46.922,13.121-45.963,12.065-44.237z" fill="#A16B51"></path><g><path style="" d="M12.732-44.872c0.032,1.128,0.158,3.944,0.645,5.636c0.114,0.066,0.23,0.131,0.36,0.176c0.235,0.081,0.482,0.148,0.731,0.21c-0.75-1.561-0.834-6.125-0.839-6.482C13.288-45.193,12.985-45.039,12.732-44.872z" fill="#945F46"></path><path style="" d="M14.531-45.64c0.076,1.105,0.365,4.734,0.993,6.999c0.328,0.048,0.65,0.078,0.965,0.098c-0.701-2.256-1.01-6.499-1.064-7.316C15.116-45.795,14.817-45.722,14.531-45.64z" fill="#945F46"></path><path style="" d="M16.608-46.049c0.272,1.144,0.953,5.442,1.01,7.499c0.303-0.026,0.604-0.071,0.903-0.139c-0.082-1.87-0.642-5.909-1.009-7.435C17.208-46.108,16.907-46.084,16.608-46.049z" fill="#945F46"></path><path style="" d="M19.408-46.095c-0.315-0.03-0.638-0.044-0.965-0.049c0.356,0.821,1.273,5.052,1.07,7.176c0.235-0.079,0.466-0.164,0.69-0.251c0.079-0.031,0.158-0.064,0.238-0.096C20.496-41.292,19.9-44.648,19.408-46.095z" fill="#945F46"></path><path style="" d="M20.342-45.959c0.306,0.424,1.166,3.897,1.148,6.109c0.366-0.241,0.675-0.537,0.873-0.914c-0.121-1.716-0.555-3.761-0.938-4.892C21.093-45.783,20.729-45.883,20.342-45.959z" fill="#945F46"></path></g><path style="" d="M11.936-43.654c5.033,0.397,6.97-3.829,10.164-1.457c0.128,0.798,0.238,0.726,0.359,1.383c0.603-1.149,0.672-3.152-0.684-4.197c-2.768-1.941-4.356,2.638-10.301,2.145c-1.469,0.246-0.588,3.173,0.438,4.004C11.802-42.501,11.758-42.998,11.936-43.654z" fill="#915A40"></path><path style="" d="M16.673-65.446c-0.016-0.018-0.032-0.037-0.048-0.056c-0.437-0.487-0.887-0.984-1.466-1.289c-0.532-0.281-1.137-0.382-1.731-0.476c-0.906-0.144-1.829-0.284-2.736-0.153c-1.905,0.275-3.503,1.765-4.217,3.554c-0.511,1.281-0.589,2.613-0.442,3.947c0.182,1.651,0.863,3.223,1.196,4.83c0.909-2.817,2.074-5.551,3.478-8.157C11.849-65.365,14.219-65.684,16.673-65.446z" fill="#A16B51"></path><path style="" d="M25.311-47.372c0.284-0.492,0.478-0.976,0.475-1.423c-0.004-0.614-0.17-1.214-0.334-1.806c-1.334-4.804-4.132-9.317-7.409-13.261C14.598-63.486,8.3-60.851,7.96-52.604c0,1.066,0.135,2.23,0.38,2.956c0.164,0.485,0.376,0.774,0.631,0.709c0.811-3.284,0.884-7.421,3.687-9.315c4.714-3.334,9.773-0.057,11.255,3.813c-1.022-1.555-6.498-3.571-10.322,0.044C15.668-55.156,25.751-55.27,25.311-47.372z" fill="#E8E8E8"></path><path style="" d="M8.241-50.024c0.017,0.068,0.034,0.136,0.053,0.2c0.024,0.084,0.048,0.171,0.075,0.245c0.011,0.031,0.023,0.057,0.035,0.086c0.038,0.095,0.078,0.179,0.121,0.252c0.017,0.029,0.034,0.057,0.052,0.083c0.042,0.06,0.086,0.105,0.132,0.141c0.019,0.015,0.037,0.034,0.056,0.045c0.065,0.036,0.134,0.052,0.206,0.034c0.192-0.778,0.343-1.604,0.498-2.436C9.024-50.957,8.607-50.51,8.241-50.024z" fill="#CFCFCF"></path></g><!---0003-00890002300033--><g><path style="" d="M7.345-82.034c-0.514-1.079-0.988-2.499-2.282-2.745c-0.813-0.154-1.708,0.124-2.337,0.655c-0.965,0.813-1.439,2.074-1.751,3.306c-0.368,1.452-0.834,3.419-0.59,4.906c0.296,1.805,1.046,3.653,1.601,5.394c0.939,2.944,1.978,5.864,3.299,8.662c0.607,1.286,0.999,2.297,2.342,2.921c1.105,0.513,2.373,0.658,3.575,0.503c2.197-0.284,4.59-1.578,5.573-3.647c0.998-2.1-0.757-5.243-1.707-7.157c-1.418-2.859-3.24-5.485-4.966-8.16c-0.911-1.412-1.804-2.837-2.598-4.319C7.45-81.818,7.397-81.924,7.345-82.034z" fill="#A16B51"></path><path style="" d="M0.461-79.687c0.083-1.097,0.034-2.168,0.421-3.22c0.274-0.748,0.755-1.444,1.445-1.828c0.447-0.248,0.958-0.356,1.46-0.413c0.229-0.026,0.945-0.105,1.146,0.028c0.195,0.13,0.378,0.279,0.558,0.432c-0.241-0.206-1.445,0.458-1.665,0.579c-0.557,0.306-1.07,0.692-1.522,1.139C1.402-82.074,0.74-80.93,0.461-79.687z" fill="#A16B51"></path><path style="" d="M13.312-65.139c-1.285,0.502-2.28,1.558-3.049,2.703c-0.785,1.169-1.353,2.471-1.734,3.827c0.866,0.239,1.787,0.291,2.673,0.176c2.197-0.284,4.59-1.578,5.573-3.647c0.468-0.986,0.32-2.201-0.056-3.412C15.56-65.553,14.385-65.558,13.312-65.139z" fill="#BA856A"></path><path style="" d="M10.112-77.381c-0.004-0.006-0.007-0.011-0.011-0.016c-0.911-1.412-1.804-2.837-2.598-4.319c-0.054-0.101-0.107-0.207-0.159-0.317c-0.514-1.079-0.987-2.499-2.282-2.745c-0.813-0.154-1.708,0.124-2.337,0.655c-0.965,0.813-1.439,2.074-1.751,3.306c-0.368,1.452-0.834,3.419-0.59,4.906c0.296,1.805,1.046,3.653,1.601,5.394c0.095,0.297,0.196,0.593,0.293,0.89C4.354-72.778,6.829-75.83,10.112-77.381z" fill="#BA856A"></path><path style="" d="M6.267-64.937c1.796-2.002,4.251-3.444,6.93-3.83c0.542-0.078,1.122-0.131,1.552-0.47c0.079-0.062,0.136-0.149,0.194-0.233c-0.235-0.464-0.485-0.92-0.738-1.373c-3.347-0.559-6.936,0.55-9.366,2.922c-0.257-2.26,1.564-4.264,3.572-5.334c1.099-0.585,2.282-0.996,3.449-1.438c-0.585-0.903-1.175-1.802-1.758-2.705C9.88-77.74,9.667-78.088,9.45-78.433c-0.55,0.12-1.096,0.271-1.633,0.435c-1.927,0.587-3.921,1.326-5.23,2.857c-0.602,0.704-1.019,1.541-1.343,2.412c0.251,0.748,0.512,1.49,0.742,2.212c0.839,2.63,1.77,5.236,2.898,7.758C5.224-63.509,5.645-64.243,6.267-64.937z" fill="#CFCFCF"></path><path style="" d="M16.775-62.08c0.234-0.492,0.314-1.042,0.289-1.62c-2.414,0.498-5.616,1.992-7.514,5.276c0.551,0.06,1.108,0.061,1.653-0.009C13.398-58.717,15.792-60.011,16.775-62.08z" fill="#E8E8E8"></path></g><!---0029-01000004400067--><g><path style="" d="M8.943-68.955c-0.133-2.964-0.535-5.938-0.884-8.866c-0.354-2.972-0.384-5.675-3.063-7.537c-0.818-0.568-3.119-1.285-4.05-0.753c2.89,1.423,0.463,6.137,0.196,6.397c-1.465,1.426-4.753-3.984-6.782-4.236c-1.846-0.229-3.737-0.858-4.979-2.242c-1.676,0.545-3.321,1.105-4.775,2.137c-3.461,2.456-3.575,6.555-4.028,10.411c-0.85,7.241-1.113,14.524-1.436,21.846c-0.127,2.868-0.257,9.065-0.951,11.851c-0.04,0.158-0.078,0.336,0.005,0.477c0.069,0.115,0.202,0.172,0.327,0.222c3.152,1.258,6.323,2.521,9.64,3.238c1.363,0.294,2.759,0.496,4.149,0.388c2.129-0.165,4.171-1.05,6.307-1.058c1.351-0.005,2.683,0.342,4.034,0.375c1.757,0.043,3.698-0.27,5.307-1.005c0.378-0.173,3.31-1.775,3.312-1.761c-0.047-0.548-0.094-1.124-0.141-1.714c-0.061-0.762-0.446-1.607-0.623-2.358c-0.194-0.821-0.365-1.647-0.517-2.477c-0.303-1.659-0.525-3.333-0.686-5.012c-0.325-3.386-0.4-6.791-0.391-10.19c0.005-1.852,0.036-3.703,0.068-5.555C8.997-67.235,8.982-68.095,8.943-68.955z" fill="#CFA38D"></path><path style="" d="M-5.793-51.139c0.016-0.475,0.032-0.951,0.047-1.426c0.039-1.252,0.074-2.504,0.104-3.756c0.015-0.626,0.029-1.252,0.042-1.878c0.006-0.313,0.013-0.626,0.019-0.939c0.003-0.163,0.006-0.326,0.009-0.488c0.002-0.114-0.033-0.308,0.007-0.413c-0.398,1.046-0.87,2.063-1.41,3.043c-1.357,2.458-3.386,4.554-5.568,6.3c1.947-3.879,1.909-8.206,1.865-12.428c-0.038-3.591-0.138-7.709-2.687-10.559c-1.018-1.138-2.883-2.727-4.479-2.948c-0.609-0.084-0.975,0.082-1.196,0.392c-0.099,0.684-0.177,1.375-0.254,2.066c-0.041,0.368-0.081,0.737-0.125,1.102c-0.85,7.117-1.113,14.276-1.436,21.471c-0.014,0.31-0.028,0.594-0.043,0.876c-0.119,3.119-0.289,8.251-0.9,10.741c-0.016,0.103-0.031,0.207-0.047,0.301c-0.001,0.074,0.006,0.148,0.045,0.212c0.069,0.115,0.202,0.172,0.327,0.222c3.152,1.258,6.323,2.521,9.64,3.238c1.297,0.28,2.624,0.468,3.948,0.393c0.263-0.166,0.465-0.411,0.559-0.784c0.227-0.904,0.368-1.831,0.498-2.753c0.296-2.107,0.494-4.228,0.689-6.346c0.024-0.267,0.049-0.534,0.073-0.801c0.02-0.22,0.094-0.418,0.117-0.632c0.066-0.618,0.052-1.256,0.076-1.877C-5.848-49.586-5.82-50.363-5.793-51.139z" fill="#BA856A"></path><path style="" d="M-18.984-48.866c1.057,1.367,2.915,1.964,4.632,1.769c0.625-0.071,1.27-0.227,1.846-0.485c0.101-0.046,0.2-0.096,0.286-0.167c0.141-0.117,0.242-0.274,0.38-0.394c0.436-0.381,0.89-0.726,1.298-1.14c0.818-0.83,1.518-1.769,2.155-2.743c0.326-0.499,0.636-1.008,0.939-1.521c-0.051,0.086-0.03,0.305-0.042,0.408c-0.018,0.16-0.038,0.321-0.06,0.481c-0.042,0.308-0.091,0.614-0.148,0.92c-0.112,0.611-0.253,1.216-0.421,1.814c-0.336,1.196-0.781,2.361-1.329,3.476c-0.148,0.3-0.274,0.535-0.535,0.743c-0.263,0.209-0.47,0.474-0.717,0.703c-0.701,0.649-1.552,1.127-2.491,1.325c-1.358,0.287-2.838-0.071-3.915-0.947c-1.077-0.876-1.728-2.252-1.723-3.64" fill="#A16B51"></path><path style="" d="M-1.38-36.68c0.303-0.001,0.605,0.02,0.907,0.046c-0.097-3.037-0.31-10.355-0.671-13.06c-1.026,3.869-2.878,10.559-3.85,13.591C-3.798-36.383-2.605-36.676-1.38-36.68z" fill="#BA856A"></path><path style="" d="M10.737-42.36c-0.086-0.267-0.17-0.531-0.229-0.783c-0.194-0.821-0.365-1.647-0.517-2.477c-0.217-1.19-0.381-2.389-0.522-3.59c-0.735-1.329-1.302-2.721-1.689-4.272c-0.555-2.226-0.851-4.509-1.729-6.66c0.052,0.128-0.167,0.527-0.177,0.687c-0.014,0.235,0.043,0.435,0.063,0.666c0.057,0.639,0.067,1.283,0.124,1.923c0.11,1.236,0.269,2.468,0.396,3.702c0.216,2.09,0.417,4.176,1.363,6.132c0.783,1.62,1.589,3.243,2.559,4.786C10.497-42.288,10.619-42.322,10.737-42.36z" fill="#BA856A"></path><path style="" d="M-4.593-59.314c0.513,2.659,1.829,7.475,0.206,9.873c-1.631,2.409-6.513,5.099-7.512,6.65s-1.521,3.093-2.502,6.116c0.846,0.251,1.7,0.478,2.564,0.664c1.069,0.231,2.16,0.399,3.251,0.411c0.323-1.874,1.037-3.694,2.138-5.392c1.653-2.548,4.174-4.881,4.703-7.687c0.177-0.94,0.123-1.908-0.012-2.871C-2.121-54.172-3.08-56.797-4.593-59.314z" fill="#FFFFFF"></path><path style="" d="M-10.661-35.793c0.212,0.034,0.424,0.065,0.637,0.09c0.106,0.013,0.213,0.023,0.319,0.034c0.213,0.021,0.427,0.037,0.641,0.047c0.093,0.005,0.186,0.01,0.279,0.013c0.067,0.002,0.135-0.003,0.202-0.002c0.302-1.741,0.955-3.433,1.929-5.026c0.196-1.618,0.361-3.241,0.51-4.864c0.024-0.267,0.049-0.534,0.073-0.801c0.02-0.22,0.094-0.418,0.117-0.632c0.03-0.282,0.041-0.569,0.049-0.856c-2.118,1.909-5.219,3.796-5.994,4.997c-0.999,1.55-1.521,3.093-2.502,6.116c0,0,0,0,0,0c0.099,0.029,0.199,0.055,0.299,0.083c0.749,0.216,1.502,0.416,2.265,0.581c0.297,0.064,0.595,0.122,0.895,0.174C-10.848-35.82-10.754-35.807-10.661-35.793z" fill="#E8E8E8"></path><path style="" d="M2.653-36.306c1.277,0.031,2.648-0.132,3.921-0.502c1.319-6.051,2.392-16.897,0.905-19.442c-1.341-2.927-5.122-5.854-5.2-8.181c0.07-1.531,0.305-3.054,0.698-4.535c0.701-2.641,1.911-5.179,2.089-7.906c0.169-2.58-0.642-5.213-2.234-7.251c-0.155-0.198-0.382-0.385-0.61-0.456c0.123,0.436,0.143,0.912,0.103,1.39c1.877,5.704,0.013,12.982-1.742,17.887c-0.999-2.088-1.896-7.15-1.875-9.465c0.01-1.193,0.027-2.479-0.229-3.644c-0.253-0.626-0.744-1.06-1.165-1.589c-1.186-1.489-2.419-2.98-3.932-4.117c-1.353-0.281-2.66-0.813-3.654-1.736c-0.289-0.068-0.579-0.123-0.873-0.165c-1.226,0.407-2.42,0.862-3.531,1.518c0.581-0.039,1.226-0.052,1.968-0.028c5.182,0.251,10.346,10.378,10.977,14.771c0.246,1.718,0.276,3.502,0.955,5.099c0.774,1.82,2.302,3.19,3.504,4.761c3.763,6.407-1.431,17.303-3.859,23.229C0.136-36.634,1.386-36.336,2.653-36.306z" fill="#FFFFFF"></path><path style="" d="M8.183-52.128c-0.148-0.44-0.286-0.888-0.403-1.355c-0.311-1.247-0.549-2.51-0.845-3.76c-0.293-0.471-0.63-0.94-0.988-1.405c0.047,0.593,0.062,1.188,0.115,1.781c0.111,1.235,0.269,2.468,0.396,3.702c0.216,2.09,0.417,4.176,1.363,6.132c0.056,0.117,0.114,0.233,0.171,0.35C8.151-48.644,8.227-50.525,8.183-52.128z" fill="#E8E8E8"></path><path style="" d="M-0.474-36.634c-0.013-0.421-0.029-0.931-0.047-1.493c-0.214,0.51-0.421,1.004-0.608,1.46C-0.91-36.661-0.692-36.653-0.474-36.634z" fill="#E8E8E8"></path><path style="" d="M-19.475-72.536c-0.59,5.109-0.893,10.24-1.133,15.39c2.393,0.032,5.014-0.106,6.651-1.82c1.453-1.521,1.658-3.822,1.652-5.925c-0.007-2.33-0.332-4.97-2.203-6.359c-0.739-0.549-1.641-0.83-2.536-1.045C-17.835-72.485-18.677-72.62-19.475-72.536z" fill="#A16B51"></path><path style="" d="M8.968-67.327c-0.004-0.543-0.001-1.085-0.025-1.629c-0.06-1.345-0.18-2.693-0.321-4.037c-0.042,1-0.167,1.999-0.498,3.006c-0.788,2.395-2.294,4.46-3.851,6.409c0.266-0.333,1.169-0.64,1.575-0.907c0.587-0.387,1.147-0.816,1.669-1.287C8.044-66.246,8.531-66.767,8.968-67.327z" fill="#FFFFFF"></path><path style="" d="M-10.025-77.135c-1.857-2.544-4.239-4.461-7.532-4.563c-0.611,1.033-0.983,2.18-1.234,3.382c3.129,0.57,5.96,2.398,7.835,4.972c1.286,1.766,4.288,8.557,8.447,8.877C-7.765-68.933-7.034-72.592-10.025-77.135z" fill="#FFFFFF"></path><path style="" d="M-17.551-81.697c-0.013,0.022-0.027,0.044-0.04,0.066c-0.126,0.218-0.243,0.441-0.349,0.669c-0.014,0.03-0.029,0.059-0.043,0.089c-0.117,0.258-0.224,0.521-0.319,0.789c-0.002,0.006-0.005,0.012-0.007,0.019c-0.2,0.565-0.356,1.15-0.481,1.749c0.656,0.12,1.295,0.306,1.919,0.532c0.003-0.018,0.004-0.037,0.007-0.055c0.082-0.583,0.174-1.168,0.349-1.731c0.085-0.274,0.191-0.543,0.325-0.797c0.068-0.128,0.14-0.261,0.228-0.376c0.153-0.2,0.282-0.416,0.42-0.629C-16.175-81.553-16.838-81.674-17.551-81.697z" fill="#E8E8E8"></path><path style="" d="M-6.752-61.835c-1.379,1.152-3.394,1.254-5.123,0.765c-1.729-0.49-3.261-1.486-4.823-2.375c-1.115-0.635-2.273-1.218-3.466-1.693c-0.114,1.648-0.218,3.299-0.306,4.951c0.462,0.066,0.923,0.146,1.377,0.257c1.743,0.424,3.423,1.155,5.21,1.302C-11.172-58.408-8.386-59.661-6.752-61.835z" fill="#FFFFFF"></path><path style="" d="M-19.093-59.931c1.743,0.424,3.423,1.155,5.21,1.302c1.072,0.088,2.153-0.063,3.172-0.402c0.023-0.602,0.037-1.205,0.04-1.808c-0.409-0.045-0.814-0.12-1.204-0.231c-1.729-0.49-3.261-1.486-4.823-2.375c-1.108-0.631-2.258-1.21-3.444-1.683c-0.062,0.886-0.135,1.771-0.188,2.659c-0.004,0.066-0.008,0.132-0.012,0.198c-0.041,0.695-0.072,1.393-0.109,2.089C-19.995-60.119-19.541-60.04-19.093-59.931z" fill="#E8E8E8"></path><path style="" d="M-16.698-63.446c-1.108-0.631-2.258-1.21-3.444-1.683c-0.038,0.543-0.076,1.086-0.115,1.629c-0.044,0.676-0.088,1.352-0.126,2.029c-0.022,0.429-0.044,0.858-0.067,1.286c0.455,0.066,0.909,0.144,1.357,0.253c1.614,0.392,3.178,1.03,4.819,1.241c0.106-0.092,0.219-0.172,0.317-0.276c0.642-0.672,1.031-1.501,1.275-2.393C-14.087-61.894-15.386-62.699-16.698-63.446z" fill="#CFCFCF"></path><g><path style="" d="M-2.085-95.641c-3.832-1.295-13.984-0.069-18.876,1.297c-0.862,0.87-1.3,1.878-1.81,2.992c0.094,0.085,0.191,0.167,0.289,0.247c1.142,0.931,2.461,1.652,3.755,2.344c1.908,1.02,3.892,1.88,5.816,2.865c0.007,0.004,0.014,0.006,0.021,0.01c1.089-0.449,1.98-0.716,1.98-0.716l0.912-6.023c4.003-4.042,8.345-0.219,8.345-0.219l0.919,6.127c0,0,5.008-0.098,6.342,3.301c0.217-0.468,0.362-0.964,0.4-1.484C7.624-88.826,6.551-93.462-2.085-95.641z" fill="#A16B51"></path><path style="" d="M-2.122-94.711c0.466-0.116,0.63-0.616,0.038-0.93c-3.832-1.295-13.984-0.069-18.876,1.297c-0.422,0.426-0.74,0.885-1.017,1.373C-17.085-94.338-5.954-96.005-2.122-94.711z" fill="#CFA38D"></path><path style="" d="M-4.078-83.067c-0.331,0.001-0.667-0.039-0.972,0.116c-0.034,0.018-0.07,0.039-0.088,0.073c-0.039,0.074,0.021,0.16,0.079,0.22c0.336,0.345,0.745,0.605,1.13,0.891c0.191,0.142,0.378,0.291,0.545,0.461c0.081,0.082,0.158,0.168,0.221,0.263c0.072,0.108,0.195,0.201,0.289,0.292c0.123,0.12,0.247,0.238,0.373,0.355c0.251,0.234,0.508,0.461,0.77,0.683c0.234,0.198,0.477,0.394,0.762,0.507c0.523,0.208,1.118,0.113,1.653-0.062c0.592-0.193,1.159-0.482,1.627-0.893c0.311-0.273,0.576-0.6,0.766-0.967c0.057-0.11,0.106-0.224,0.15-0.341c0.032-0.084,0.069-0.159,0.131-0.224c0.112-0.116,0.207-0.24,0.312-0.364c0.419-0.496,0.925-0.91,1.351-1.401c0.78-0.899,1.257-2.016,1.684-3.127c0.188-0.488,0.37-0.986,0.414-1.507c0.086-0.996-0.334-1.958-0.745-2.869c-0.287-0.637-0.583-1.287-1.068-1.79c-0.77-0.799-1.9-1.116-2.973-1.4c-1.258-0.333-2.515-0.666-3.773-0.998c-0.144-0.038-0.303-0.075-0.436-0.009c-0.245,0.122-0.225,0.473-0.167,0.74c0.081,0.375,0.162,0.749,0.242,1.124c0.126,0.586,0.252,1.171,0.379,1.757c0.032,0.146,0.063,0.293,0.095,0.439c0.031,0.144,0.05,0.298,0.095,0.438c0.054,0.166,0.069,0.343,0.094,0.517c0.054,0.366,0.107,0.731,0.158,1.097c0.104,0.732,0.203,1.464,0.298,2.197c0.005,0.039,0.011,0.081,0.038,0.111c0.02,0.022,0.048,0.034,0.075,0.045c0.081,0.034,0.165,0.079,0.251,0.102c0.024,0.006,0.049,0.006,0.073,0.01c0.079,0.013,0.154,0.058,0.226,0.09c0.636,0.288,1.263,0.68,1.627,1.295c0.126,0.214,0.216,0.447,0.29,0.683c0.038,0.12,0.072,0.241,0.105,0.362c0.031,0.113,0.018,0.248,0.017,0.363c-0.001,0.316-0.046,0.632-0.128,0.936c-0.244,0.899-0.792,1.69-1.437,2.362c-0.114,0.119-0.275,0.245-0.427,0.18c-0.089-0.038-0.139-0.13-0.185-0.215c-0.397-0.727-0.971-1.355-1.651-1.827c-0.433-0.301-0.91-0.539-1.413-0.7C-3.495-83.14-3.791-83.068-4.078-83.067z" fill="#BA856A"></path><path style="" d="M5.125-85.84c-0.014-0.069-0.034-0.145-0.091-0.186c-0.038-0.027-0.086-0.035-0.133-0.041C3.422-86.209,2.194-85.478,1.7-84.98c0.072,0.153,0.147,0.305,0.198,0.466c0.038,0.12,0.072,0.241,0.105,0.362c0.031,0.113,0.018,0.248,0.017,0.363c-0.001,0.316-0.046,0.632-0.128,0.936c-0.137,0.506-0.378,0.974-0.671,1.41c0.339-0.065,0.703-0.01,0.99,0.183c0.066-0.062,0.178-0.036,0.245,0.024c0.067,0.061,0.103,0.147,0.15,0.224c0.053,0.087,0.132,0.177,0.222,0.261c0.088-0.123,0.178-0.246,0.247-0.38c0.057-0.11,0.106-0.224,0.15-0.341c0.032-0.084,0.069-0.159,0.131-0.224c0.112-0.116,0.207-0.24,0.312-0.364c0.238-0.281,0.501-0.539,0.764-0.796c0.004-0.026,0.003-0.054,0.011-0.079c0.031-0.099,0.094-0.184,0.152-0.27C5.112-83.966,5.307-84.938,5.125-85.84z" fill="#CFCFCF"></path><path style="" d="M-16.521-84.065c0.299-0.208,0.624-0.379,0.96-0.514c0.349-0.14,0.722-0.243,1.1-0.245c0.196-0.001,0.37,0.042,0.559,0.084c0.237,0.053,0.489,0.05,0.733,0.096c1.293,0.245,2.457,0.777,3.652,1.303c0.152,0.067,0.307,0.094,0.464,0.143c0.199,0.062,0.356,0.194,0.52,0.317c0.85,0.634,1.717,1.245,2.601,1.831c1.767,1.173,3.6,2.248,5.486,3.218c0.17,0.087,0.34,0.174,0.511,0.259c0.311,0.156,0.647,0.313,0.992,0.268c0.463-0.061,0.794-0.46,1.095-0.816c0.654-0.773,1.391-1.477,2.193-2.095c0.17-0.131,0.36-0.217,0.527-0.342c0.167-0.125,0.321-0.275,0.474-0.415c0.32-0.294,0.627-0.603,0.92-0.924c0.684-0.749,1.296-1.563,1.838-2.421c0.254-0.402,0.565-0.834,0.732-1.282c0.055-0.147,0.058-0.304,0.095-0.456c0.058-0.236,0.136-0.46,0.164-0.703c0.053-0.459-0.001-0.931-0.16-1.365c-0.263-0.72-0.653-1.405-1.101-2.024c-1.199-1.655-2.84-2.922-4.67-3.813c-0.866-0.422-1.769-0.763-2.69-1.044c-0.463-0.141-0.93-0.267-1.4-0.381c-0.098-0.024-1.158-0.236-1.157-0.255c-0.013,0.31-0.025,0.62-0.038,0.931c1.357,0.406,5.316,1.727,5.77,2.236c0.099,0,0.4,0.471,0.466,0.556c0.139,0.177,0.271,0.359,0.397,0.546c0.226,0.336,0.429,0.689,0.598,1.057c0.607,1.325,0.68,2.81,0.037,4.136c-0.073,0.151-0.149,0.31-0.247,0.446c-0.109,0.153-0.258,0.249-0.357,0.414c-0.294,0.488-0.564,0.99-0.846,1.485c-0.564,0.99-1.128,1.979-1.692,2.969c-0.26,0.456-0.549,0.94-1.026,1.16c-0.99-1.6-2.065-3.146-3.219-4.632c-0.241-0.31-0.487-0.618-0.761-0.899c-0.273-0.28-0.595-0.472-0.888-0.723c-0.359-0.307-0.812-0.498-1.229-0.723c-0.856-0.463-1.715-0.923-2.577-1.375c-0.711-0.374-1.425-0.744-2.146-1.099c-0.382-0.188-0.77-0.399-1.177-0.531c-1.409-0.457-2.927-0.593-4.388-0.795c-1.584-0.22-3.226-0.411-4.737-0.964c-0.363-0.133-0.843-0.188-1.031-0.572c-0.119-0.242-0.13-0.544-0.037-0.796c0.166-0.445,0.55-0.764,0.886-1.099c0.139-0.138,0.276-0.361,0.149-0.509c-0.093-0.109-0.263-0.091-0.402-0.058c-1.782,0.422-3.255,1.657-4.535,2.966c-0.33,0.338-0.686,0.75-0.754,1.235c-0.054,0.378,0.249,0.62,0.393,0.944c0.379,0.855,0.958,1.597,1.543,2.319c0.157,0.194,0.316,0.387,0.472,0.584c0.171,0.214,0.517,0.411,0.413,0.73c-0.046,0.14-0.147,0.254-0.241,0.368c-0.582,0.713-0.918,1.62-0.96,2.538c-0.021,0.469,0.01,0.941,0.246,1.355c0.161,0.284,0.393,0.461,0.64,0.668c1.22,1.023,2.748,1.703,4.303,2.024c0.197-0.587,0.856-2.659,1.007-3.102c0.138-0.407,0.237-0.793,0.477-1.156C-17.297-83.426-16.933-83.78-16.521-84.065z" fill="#CFA38D"></path><path style="" d="M-16.85-82.593c1.496-1.025,2.499-1.423,4.306-1.273c2.895,0.241,5.282,1.769,7.762,3.141c1.851,1.024,3.865,2.061,6.019,2.176c0.95-0.269,1.838-0.725,2.654-1.278c0.152-0.128,0.295-0.267,0.453-0.389c0.127-0.098,0.263-0.174,0.395-0.257c0.144-0.117,0.294-0.226,0.433-0.349c0.039-0.036,0.08-0.068,0.118-0.103c0.192-0.174,0.37-0.363,0.552-0.547c0.14-0.142,0.288-0.277,0.423-0.425c0.327-0.358,0.635-0.733,0.929-1.118c0.113-0.148,0.214-0.304,0.322-0.455c0.17-0.237,0.34-0.474,0.498-0.72c0.11-0.184,0.213-0.385,0.367-0.564c0.175-0.274,0.345-0.555,0.454-0.846c0.055-0.147,0.058-0.304,0.095-0.456c0.058-0.237,0.136-0.46,0.164-0.703c0.053-0.459-0.001-0.931-0.16-1.365c-0.246-0.673-0.609-1.311-1.021-1.898c0.156,0.961,0.119,1.954-0.135,2.893c-0.229,0.846-0.619,1.65-1.159,2.342c-0.263,0.337-0.559,0.621-0.868,0.923c-0.684,0.667-1.359,1.343-2.032,2.02c-0.595,0.598-1.188,1.199-1.784,1.797c-0.194,0.195-0.388,0.391-0.586,0.582c-0.038,0.037-0.155,0.193-0.215,0.196c-0.326,0.015-0.718-0.118-1.028-0.208c-0.398-0.116-0.785-0.27-1.159-0.449c-0.769-0.368-1.485-0.838-2.182-1.328c-1.662-1.168-3.255-2.425-5.039-3.409c-1.389-0.766-2.906-1.444-4.515-1.547c-1.088-0.069-2.193,0.106-3.2,0.527c-1.499,0.627-2.73,1.742-4.046,2.695c-1.148,0.832-2.457,1.57-3.849,1.688c0.15,0.198,0.328,0.359,0.526,0.524c0.213,0.178,0.445,0.332,0.675,0.49c0.197,0.13,0.398,0.255,0.601,0.38c0.17,0.098,0.343,0.193,0.519,0.281c0.112,0.055,0.222,0.115,0.337,0.167c0.283,0.127,0.571,0.239,0.864,0.34c0.106,0.037,0.213,0.071,0.321,0.105c0.326,0.101,0.984,0.259,1.316,0.328C-18.537-79.255-18.068-80.969-16.85-82.593z" fill="#BA856A"></path><path style="" d="M-21.938-87.804c-1.367-0.292-2.577-1.022-3.719-1.849c0.066,0.101,0.134,0.204,0.183,0.315c0.379,0.855,0.958,1.597,1.543,2.319c0.157,0.194,0.316,0.387,0.472,0.583c0.171,0.214,0.517,0.411,0.413,0.73c-0.025,0.076-0.067,0.144-0.115,0.209c0.868,0.284,1.905,0.22,2.809-0.028c1.416-0.389,2.766-1.113,4.234-1.155C-17.73-87.863-19.98-87.386-21.938-87.804z" fill="#BA856A"></path><path style="" d="M-1.507-78.414c-0.018-0.536-0.039-1.073-0.075-1.613c-0.09-1.37-0.184-2.759-0.63-4.057c-0.051-0.148-0.12-0.288-0.179-0.432c-0.195-0.247-0.39-0.496-0.611-0.721c-0.273-0.28-0.595-0.472-0.888-0.723c-0.359-0.307-0.812-0.498-1.229-0.723c-0.856-0.463-1.715-0.923-2.577-1.375c-0.711-0.374-1.425-0.744-2.146-1.099c-0.382-0.188-0.77-0.399-1.177-0.531c-1.409-0.457-2.927-0.593-4.388-0.795c-0.36-0.05-0.723-0.099-1.086-0.15c-0.177-0.014-0.34-0.059-0.54-0.066c1.746,0.565,3.653,1.621,5.105,2.744c0.412,0.318,0.813,0.662,1.111,1.089c0.396,0.568,0.588,1.248,0.819,1.901c0.207,0.586,0.436,1.347,0.713,1.902c0.069,0.018,0.16-0.156,0.229-0.134c0.199,0.062,0.356,0.194,0.52,0.317c0.85,0.634,1.717,1.245,2.601,1.831C-4.502-80.099-3.018-79.232-1.507-78.414z" fill="#FFFFFF"></path><path style="" d="M5.347-84.912c-0.025-0.386-0.087-0.798-0.283-1.121c-0.052,0.102-0.423,0.548-0.522,0.712c-0.294,0.487-0.564,0.99-0.846,1.485c-0.489,0.858-0.978,1.716-1.467,2.574c0.435,0.464,0.706,1.36,0.853,2.165c0.398-0.397,0.815-0.775,1.26-1.118c0.139-0.107,0.289-0.188,0.431-0.281c0.059-0.276,0.134-0.549,0.209-0.821C5.302-82.484,5.426-83.705,5.347-84.912z" fill="#FFFFFF"></path><path style="" d="M5.218-82.426c0.054-0.34,0.094-0.682,0.118-1.026c0,0,0,0,0,0c-0.542,0.534-1.082,1.069-1.618,1.608c-0.374,0.376-0.748,0.753-1.122,1.13c0.026,0.051,0.036,0.108,0.058,0.16c0.165,0.378,0.291,0.807,0.38,1.236c0.283-0.155,0.565-0.313,0.832-0.493c0.158-0.136,0.312-0.277,0.477-0.404c0.127-0.098,0.263-0.174,0.395-0.257c0.013-0.01,0.025-0.02,0.038-0.031c0.059-0.273,0.133-0.544,0.207-0.814c0.094-0.342,0.167-0.689,0.225-1.039C5.212-82.379,5.214-82.403,5.218-82.426z" fill="#E8E8E8"></path><path style="" d="M-1.542-79.17c-0.013-0.286-0.021-0.57-0.04-0.858c-0.004-0.066-0.01-0.132-0.014-0.198c-0.565-0.313-1.113-0.657-1.64-1.028c-1.662-1.168-3.255-2.425-5.039-3.409c-0.62-0.342-1.268-0.657-1.936-0.92c0.072,0.206,0.142,0.412,0.215,0.617c0.207,0.586,0.443,1.354,0.721,1.91c0.069,0.018,1.124,0.525,1.435,0.664c1.031,0.517,2.038,1.104,3.059,1.668C-3.752-80.155-2.669-79.586-1.542-79.17z" fill="#E8E8E8"></path></g></g><!---0037-00710002800043--><g><g><path style="" d="M-27.59-38.665c0.07,1.965,0.009,3.68,0.184,5.114c0.095,0.776,0.567,1.477,1.268,1.822c1.157,0.57,2.554,0.899,3.711,0.998c1.142,0.098,2.338-0.22,3.409-0.585c1.084-0.37,2.227-0.876,2.696-2.021c0.09-0.219,0.132-0.454,0.163-0.689c0.094-0.717,0.172-1.494,0.086-2.21c-0.122-1.021-0.153-2.004-0.242-3.027" fill="#BA856A"></path><path style="" d="M-16.315-39.262l-11.275,0.596c0.031,0.878,0.037,1.697,0.048,2.473c0.344,0.269,0.725,0.485,1.123,0.667c-0.143,1.198-0.142,2.406-0.009,3.603c0.095,0.067,0.184,0.141,0.289,0.193c0.194,0.095,0.401,0.174,0.606,0.256c-0.184-1.244-0.198-2.506-0.066-3.755c0.081,0.025,0.157,0.065,0.239,0.087c0.254,0.067,0.516,0.096,0.774,0.139l0.001,3.856c0.218,0.063,0.432,0.119,0.649,0.168l0.188,0l-0.001-3.899c0.392,0.037,0.785,0.065,1.178,0.076c0.189,0.006,0.379,0,0.569,0.001c0.165,1.214,0.247,2.821,0.216,4.07c0.28-0.011,0.56-0.039,0.84-0.085c0.025-1.246-0.056-2.789-0.213-4.002c0.32-0.015,0.64-0.034,0.958-0.076c0.187-0.025,0.364-0.074,0.547-0.11c0.241,1.238,0.223,2.715-0.069,3.909c0.239-0.07,0.476-0.144,0.705-0.222c0.043-0.015,0.086-0.031,0.129-0.046c0.302-1.263,0.316-2.57,0.054-3.839c0.498-0.154,0.959-0.37,1.392-0.634c0.192,1.157,0.176,2.821-0.056,3.835c0.005-0.003,0.011-0.006,0.016-0.01l0.216-0.154c0.23-0.171,0.435-0.369,0.609-0.601c0.245-1.191,0.234-2.436-0.042-3.62c0.195-0.174,0.395-0.34,0.565-0.549C-16.203-37.708-16.247-38.474-16.315-39.262z" fill="#A16B51"></path></g><path style="" d="M-14.5-58.769c-0.32-2.497-0.928-4.814-2.868-6.828c-1.292-1.34-3.265-1.941-5.109-1.688s-3.536,1.313-4.688,2.775c-0.794,1.008-1.34,2.185-1.861,3.358c-2.301,5.183-3.859,10.907-4.093,16.597c-0.026,0.642-0.052,1.293,0.09,1.92c0.36,1.588,3.128,3.103,4.395,4.127c0.687,0.555,1.391,1.12,2.22,1.424c0.531,0.194,1.097,0.275,1.66,0.332c2.01,0.204,4.048,0.127,6.037-0.229c0.389-0.069,0.783-0.152,1.13-0.34c0.451-0.244,2.272-0.74,2.59-1.142c1.225-1.553,2.236-3.263,2.926-5.119c0.684-1.841-0.144-3.854-0.769-5.716c-0.659-1.962-1.1-3.997-1.312-6.056C-14.273-56.521-14.358-57.663-14.5-58.769z" fill="#CFA38D"></path><path style="" d="M-17.31-37.442c0.414-0.163,1.084-0.381,1.608-0.606c0.012-0.005,0.024-0.011,0.036-0.016c0.088-0.038,0.172-0.077,0.249-0.115c-1.198,0.601-3.093-1.095-4.011-1.715c-1.606-1.084-3.043-2.268-4.249-3.799c-1.183-1.502-2.112-3.205-2.73-5.014c-0.592-1.733-0.404-3.562-0.871-5.251c0.633,2.288,1.324,4.681,2.982,6.38c1.069,1.096,2.468,1.818,3.914,2.322c2.36,0.821,4.869,1.097,7.354,1.357c0.334,0.035,0.677,0.064,1.022,0.081c0.147-0.487,0.198-0.984,0.177-1.487c-2.262-0.442-4.414-1.006-6.569-2.317c-2.842-1.729-5.25-4.191-6.823-7.13c-0.496-0.926-0.918-1.91-1.055-2.951c-0.389-2.951,1.383-6.608,2.529-9.27c-0.316,0.11-0.622,0.247-0.92,0.401c-0.041,0.021-0.082,0.044-0.123,0.066c-0.289,0.156-0.571,0.328-0.837,0.521l0,0c-0.261,0.189-0.506,0.4-0.742,0.62c-0.052,0.048-0.102,0.098-0.152,0.148c-0.227,0.224-0.445,0.458-0.642,0.708c-0.794,1.008-1.34,2.186-1.861,3.358c-2.301,5.183-3.859,10.907-4.093,16.597c-0.026,0.642-0.052,1.293,0.09,1.92c0.36,1.588,3.128,3.103,4.395,4.127c0.687,0.555,1.391,1.12,2.22,1.424c0.531,0.194,1.097,0.275,1.66,0.332c2.01,0.204,4.048,0.127,6.037-0.229c0.389-0.069,0.783-0.152,1.13-0.34c0.053-0.029,0.128-0.061,0.213-0.096C-17.354-37.425-17.331-37.434-17.31-37.442z" fill="#BA856A"></path><path style="" d="M-13.45-51.418c-0.324-1.294-0.566-2.609-0.702-3.936c-0.011-0.111-0.021-0.219-0.032-0.33c-0.009,0.037-0.016,0.085-0.026,0.11c-0.387,1.006-1.201,1.797-2.204,2.193c-1.428,0.564-3.016,0.474-4.548,0.569c-2.331,0.145-4.655,0.755-6.66,1.953c-2.005,1.197-3.677,3.003-4.535,5.175c0.946-1.095,2.037-2.098,3.342-2.722c1.755-0.839,3.767-0.937,5.712-0.897c1.945,0.04,3.912,0.199,5.821-0.178C-15.861-49.763-14.449-50.399-13.45-51.418z" fill="#FFFFFF"></path><path style="" d="M-26.879-51.236c-0.248,0.126-0.505,0.234-0.744,0.377c-2.005,1.197-3.677,3.003-4.535,5.175c0.946-1.095,2.037-2.098,3.342-2.722c0.728-0.348,1.5-0.563,2.293-0.699C-26.717-49.809-26.809-50.523-26.879-51.236z" fill="#E8E8E8"></path><path style="" d="M-25.522-49.236c0.803-0.073,1.616-0.084,2.419-0.068c0.81,0.016,1.624,0.048,2.436,0.059c-1.126-0.929-2.146-1.985-3.028-3.147c-0.971,0.227-1.914,0.545-2.814,0.968C-26.239-50.661-25.917-49.924-25.522-49.236z" fill="#E8E8E8"></path><path style="" d="M-29.81-41.467c-0.393-0.237-0.776-0.492-1.135-0.779c-0.973-0.778-1.42-1.841-2.144-2.748c-0.008,0.146-0.025,0.293-0.031,0.439c-0.026,0.642-0.052,1.293,0.09,1.92c0.36,1.588,3.128,3.103,4.395,4.127c0.283,0.229,0.571,0.455,0.867,0.668c2.257,0.228,4.584-0.246,6.564-1.358C-24.211-39.113-27.236-39.911-29.81-41.467z" fill="#E8E8E8"></path><path style="" d="M-24.892-55.207c0.637-0.063,1.279-0.083,1.919-0.06c-1.669-1.141-3.825-1.539-5.791-1.07c-0.892,0.213-1.733,0.61-2.482,1.138c-0.57,1.878-1.018,3.794-1.342,5.725c0.611-0.895,1.23-1.783,1.943-2.597c1.07-1.223,2.379-2.291,3.927-2.784C-26.127-55.044-25.51-55.146-24.892-55.207z" fill="#FFFFFF"></path><path style="" d="M-25.414-55.135c-0.211-0.421-0.398-0.854-0.55-1.298c-0.93-0.145-1.885-0.122-2.8,0.096c-0.892,0.213-1.733,0.61-2.482,1.138c0,0,0,0.001,0,0.001c-0.273,0.899-0.514,1.808-0.731,2.723c-0.023,0.098-0.044,0.196-0.067,0.294c-0.207,0.898-0.392,1.801-0.544,2.708c0,0,0,0,0,0c0.611-0.895,1.23-1.783,1.943-2.597c1.07-1.223,2.379-2.291,3.927-2.784C-26.294-54.991-25.856-55.072-25.414-55.135z" fill="#E8E8E8"></path></g><!---0032-00870002400034--><g><path style="" d="M-11.881-69.77c-0.79,2.973-1.73,5.857-2.373,8.867c-0.379,1.772-0.913,3.761-2.508,4.621c-1.277,0.689-2.844,0.419-4.247,0.048c-0.979-0.259-1.946-0.558-2.9-0.897c-1.457-0.518-2.982-1.214-3.754-2.554c-1.178-2.044-0.139-4.603,0.904-6.719c2.549-5.173,4.987-10.083,8.456-14.701c0.647-0.861,1.385-1.752,2.42-2.054c2.348-0.685,3.911,1.56,4.488,3.441c0.423,1.379,0.963,3.247,0.799,4.689C-10.796-73.282-11.43-71.47-11.881-69.77z" fill="#CFA38D"></path><path style="" d="M-27.042-58.89c0.222,0.222,0.466,0.423,0.729,0.605c0.099-1.234,0.362-2.455,0.718-3.639c0.739-2.459,1.683-4.933,2.642-7.295c1.042-2.566,2.824-5.052,4.326-7.368c0.864,0.132,1.897,0.957,2.593,1.45c0.855,0.606,1.66,1.309,2.295,2.147c0.9,1.187,1.294,2.949,1.487,4.558c0.125-0.445,0.251-0.889,0.37-1.338c0.14-0.526,0.296-1.064,0.452-1.606c-0.021-1.076-0.639-1.883-1.373-2.717c-1.301-1.479-3.045-2.346-4.852-3.127c-0.059-0.025,0.59-1.544,0.63-1.638c0.422-0.984,0.868-2,1.497-2.869c0.397-0.549,0.91-1.011,1.491-1.36c-0.129-0.051-0.262-0.091-0.398-0.123c-0.017-0.004-0.034-0.008-0.051-0.011c-0.118-0.025-0.241-0.041-0.365-0.05c-0.031-0.002-0.062-0.006-0.093-0.007c-0.115-0.004-0.234,0.002-0.354,0.012c-0.035,0.003-0.07,0.003-0.112,0.008c-0.155,0.02-0.312,0.051-0.475,0.098c-0.517,0.151-0.96,0.449-1.355,0.817c-0.395,0.368-0.741,0.806-1.065,1.237c-0.867,1.155-1.67,2.327-2.426,3.518c-0.51,0.802-0.992,1.616-1.465,2.434c-0.006,0.011-0.012,0.022-0.019,0.033c-0.056,0.098-0.113,0.196-0.169,0.294c-0.024,0.042-0.049,0.084-0.073,0.127c-0.03,0.053-0.061,0.106-0.091,0.159c-0.927,1.638-1.801,3.307-2.671,5.034c-0.009,0.017-0.018,0.035-0.035,0.069c-0.021,0.043-0.043,0.085-0.064,0.128c-0.077,0.153-0.154,0.307-0.231,0.461c-0.404,0.809-0.807,1.622-1.213,2.445c-0.116,0.235-0.23,0.476-0.343,0.72c-0.037,0.081-0.072,0.162-0.108,0.243c-0.067,0.15-0.131,0.301-0.194,0.453c-0.058,0.141-0.115,0.281-0.168,0.423c-0.006,0.014-0.01,0.029-0.016,0.044c-0.007,0.02-0.014,0.04-0.022,0.06c-0.376,1.04-0.603,2.115-0.506,3.261c0.013,0.16,0.04,0.318,0.062,0.477c0.034,0.143,0.078,0.284,0.125,0.425c0.075,0.207,0.151,0.414,0.265,0.612c0.157,0.273,0.351,0.514,0.565,0.736C-27.079-58.931-27.062-58.91-27.042-58.89z" fill="#BA856A"></path><path style="" d="M-17.448-70.356c-0.121-1.691-0.01-3.399-0.237-5.079c-0.617,3.417-0.716,6.927-0.292,10.373c0.161,1.31,0.41,2.67,1.036,3.847c0.183,0.344,2.143,2.632,2.077,2.825c0.269-0.787,0.879-2.331,0.681-3.149c-0.165-0.679-1.206-1.722-1.55-2.431c-0.949-1.956-1.534-4.089-1.704-6.257C-17.442-70.27-17.445-70.313-17.448-70.356z" fill="#BA856A"></path><path style="" d="M-21.051-69.046c0.991,0.133,1.91,0.587,2.759,1.115c0.494,0.307,0.973,0.642,1.403,1.034c1.49,1.358,2.275,3.282,2.813,5.248c0.25-1.084,0.527-2.157,0.824-3.222c-0.161-1.592-0.684-3.147-1.565-4.484c-0.888-1.349-2.15-2.499-3.683-3.007c-0.716-0.237-1.472-0.33-2.224-0.388c-0.6-0.046-1.201-0.071-1.803-0.074c-0.344-0.002-0.672,0.018-0.992,0.049c-1.115,2.076-2.17,4.198-3.239,6.369c-0.314,0.637-0.62,1.316-0.872,2.007c2.193-0.945,4.803-0.636,6.931,0.462c2.18,1.125,3.902,2.984,5.288,5.008c0.162-1.434-0.347-2.888-1.183-4.064c-0.835-1.177-1.977-2.103-3.175-2.906c-0.445-0.298-0.902-0.582-1.387-0.81c-1.291-0.604-2.776-0.784-4.174-0.505C-24.373-68.532-22.666-69.262-21.051-69.046z" fill="#FFFFFF"></path><path style="" d="M-17.887-64.43c0.165,1.109,0.42,2.226,0.945,3.215c0.118,0.222,0.969,1.246,1.545,2.002c0.07-1.34-0.419-2.681-1.199-3.78C-16.97-63.521-17.412-63.992-17.887-64.43z" fill="#E8E8E8"></path><path style="" d="M-17.448-70.356c-0.037-0.521-0.051-1.043-0.061-1.565c-0.19-0.104-0.385-0.198-0.585-0.281c-0.122,1.441-0.164,2.888-0.106,4.333c0.461,0.291,0.907,0.605,1.31,0.972c0.027,0.025,0.05,0.052,0.076,0.077c-0.318-1.113-0.534-2.254-0.625-3.408C-17.442-70.27-17.445-70.313-17.448-70.356z" fill="#E8E8E8"></path><path style="" d="M-18.648-76.556c0.007-0.011,0.014-0.022,0.021-0.032c0.12,0.018,0.243,0.052,0.369,0.095c0.187-0.294,0.362-0.595,0.508-0.911c-1.005-0.226-2-0.429-2.928-0.26c-0.016,0.026-0.034,0.051-0.051,0.077c-0.093,0.146-0.176,0.297-0.267,0.443C-20.161-77.138-19.253-76.858-18.648-76.556z" fill="#A16B51"></path><path style="" d="M-11.002-78.348c-1.758-1.983-3.95-3.358-6.829-3.358c-0.164,0.197-0.321,0.399-0.473,0.6c-0.655,0.873-1.264,1.759-1.854,2.652c0.376,0.006,0.753,0.027,1.134,0.089c3.221,0.519,6.145,2.384,8.067,5.022c0.011,0.015,0.024,0.036,0.035,0.052c0.138-0.583,0.259-1.164,0.324-1.74C-10.482-76.034-10.711-77.241-11.002-78.348z" fill="#FFFFFF"></path><path style="" d="M-19.022-78.365c0.554,0.089,1.095,0.232,1.628,0.398c0.165-0.409,0.35-0.843,0.371-0.891c0.376-0.877,0.779-1.775,1.307-2.577c-0.661-0.173-1.363-0.271-2.113-0.271c-0.164,0.197-0.321,0.399-0.473,0.6c-0.352,0.468-0.686,0.942-1.018,1.416c-0.282,0.408-0.559,0.817-0.83,1.228c-0.002,0.003-0.004,0.005-0.005,0.008C-19.781-78.448-19.404-78.427-19.022-78.365z" fill="#E8E8E8"></path><path style="" d="M-25.331-67.214c0.547-0.752,1.341-1.303,2.219-1.606c0.053-0.133,0.106-0.268,0.159-0.4c0.488-1.203,1.142-2.387,1.85-3.545c-0.475-0.029-0.95-0.056-1.425-0.058c-0.341-0.002-0.665,0.018-0.982,0.048c-0.063,0.118-0.129,0.234-0.192,0.352c-0.443,0.831-0.878,1.669-1.307,2.515c-0.061,0.119-0.122,0.235-0.183,0.355c-0.518,1.026-1.031,2.062-1.548,3.11c-0.006,0.013-0.012,0.025-0.019,0.037c-0.001,0.002-0.002,0.005-0.003,0.007c-0.308,0.626-0.607,1.292-0.857,1.97c-0.003,0.009-0.006,0.019-0.009,0.029c0.958-0.412,1.995-0.573,3.037-0.546c0.284-0.795,0.576-1.586,0.881-2.369C-24.253-67.339-24.798-67.321-25.331-67.214z" fill="#E8E8E8"></path></g></svg>