<svg xmlns:xlink="http://www.w3.org/1999/xlink" xmlns="http://www.w3.org/2000/svg" viewBox="-31.139997482299805 -91.18119812011719 51.53377914428711 50.7089958190918" width="164" height="108"><!--00002-00750002300031--><g><path style="" d="M18.79-53c0.46,1.01,0.6,2.22,0.51,3.36c0,0.07-0.01,0.13-0.02,0.2c-0.02,0.22-0.05,0.43-0.09,0.64c-0.15,0.13-0.3,0.25-0.47,0.36c-0.02,0.02-0.05,0.04-0.08,0.06c-0.1,0.06-0.2,0.12-0.31,0.18c-0.05,0.03-0.1,0.06-0.15,0.08c-0.13,0.08-0.27,0.14-0.41,0.2c-0.12,0.06-0.25,0.11-0.38,0.15c-0.12,0.05-0.24,0.09-0.36,0.13c-0.04,0.01-0.08,0.03-0.12,0.04c-0.14,0.05-0.28,0.09-0.42,0.12c-0.01,0-0.03,0.01-0.04,0.01c-0.6,0.15-1.2,0.25-1.78,0.32c-0.12,0.02-0.24,0.03-0.35,0.04c-1.55,0.14-3.19,0.15-4.56-0.58c-0.3-0.15-0.07-1.71-0.04-1.99c0.1-0.84-0.08-0.95-0.73-1.48c-0.92-0.76-2.32-1.93-2.36-3.24c-0.03-0.65,0.64-1.61,1.29-2.53c-1.45-0.74-2.72-1.33-3.09-2.93c-0.03-0.13-0.05-0.26-0.07-0.41c-0.1-0.81-0.03-1.64-0.03-2.46c-0.01-1.1-0.16-2.2-0.42-3.27c0,0,0-0.01,0-0.02c-0.35-2.2,0.33-2.33,1.02-3.62c0.71-1.35,2.46-1.73,3.97-1.96c0.59-0.09,1.28-0.06,1.93,0.03c0.17,0.02,0.33,0.05,0.49,0.08c0.02,0,0.03,0,0.05,0.01c0.44,0.08,0.84,0.2,1.13,0.32c0.22,0.1,0.38,0.2,0.46,0.3c0.02,0.01,0.03,0.03,0.04,0.04c0.12,0.18,0.23,0.36,0.34,0.53c0.13,0.21,0.26,0.42,0.38,0.63c0.11,0.2,0.22,0.41,0.35,0.63c0.12,0.24,0.25,0.5,0.4,0.78c0.01,0.02,0.01,0.03,0.02,0.05c0.05,0.08,0.09,0.17,0.13,0.25c0.04,0.08,0.09,0.16,0.13,0.25c0.04,0.08,0.08,0.15,0.12,0.23c0.01,0.02,0.03,0.04,0.03,0.06c0.08,0.14,0.15,0.28,0.23,0.42c0.12,0.22,0.25,0.45,0.37,0.67c0.19,0.33,0.38,0.66,0.57,0.99c0.03,0.05,0.05,0.09,0.09,0.14c0.05,0.1,0.11,0.2,0.18,0.3c0.19,0.31,0.39,0.63,0.6,0.94c0.02,0.02,0.03,0.04,0.05,0.07c0.02,0.02,0.04,0.05,0.06,0.08c0.02,0.03,0.04,0.05,0.06,0.08c0.17,0.24,0.34,0.48,0.51,0.72v0.01c0.01,0,0.01,0.01,0.01,0.01c0.05,0.07,0.1,0.14,0.15,0.21c0.12,0.16,0.2,0.34,0.25,0.53c0,0,0,0.01,0,0.02c0.056,0.175,0.078,0.363,0.087,0.554c0.002,0.038,0,0.077,0.001,0.115c0,0.077,0.007,0.153,0.002,0.231c0,0.1-0.01,0.19-0.02,0.29c-0.02,0.23-0.06,0.45-0.1,0.67c-0.02,0.16-0.05,0.31-0.08,0.46c-0.02,0.1,0.23,0.35,0.53,0.62c0.35,0.32,0.78,0.66,0.94,0.84c0.03,0.02,0.05,0.04,0.06,0.06C21.1-56.6,19.96-54.55,18.79-53z" fill="none"></path><path style="" d="M18.79-53c0.46,1.01,0.6,2.22,0.51,3.36c0,0.07-0.01,0.13-0.02,0.2c-0.02,0.22-0.05,0.43-0.09,0.64c-0.15,0.13-0.3,0.25-0.47,0.36c-0.02,0.02-0.05,0.04-0.08,0.06c-0.1,0.06-0.2,0.12-0.31,0.18c-0.05,0.03-0.1,0.06-0.15,0.08c-0.13,0.08-0.27,0.14-0.41,0.2c-0.12,0.06-0.25,0.11-0.38,0.15c-0.12,0.05-0.24,0.09-0.36,0.13c-0.04,0.01-0.08,0.03-0.12,0.04c-0.14,0.05-0.28,0.09-0.42,0.12c-0.01,0-0.03,0.01-0.04,0.01c-0.6,0.15-1.2,0.25-1.78,0.32c-0.12,0.02-0.24,0.03-0.35,0.04c-1.55,0.14-3.19,0.15-4.56-0.58c-0.3-0.15-0.07-1.71-0.04-1.99c0.1-0.84-0.08-0.95-0.73-1.48c-0.92-0.76-2.32-1.93-2.36-3.24c-0.03-0.65,0.64-1.61,1.29-2.53c-1.45-0.74-2.72-1.33-3.09-2.93c-0.03-0.13-0.05-0.26-0.07-0.41c-0.1-0.81-0.03-1.64-0.03-2.46c-0.01-1.1-0.16-2.2-0.42-3.27c0,0,0-0.01,0-0.02c-0.35-2.2,0.33-2.33,1.02-3.62c0.71-1.35,2.46-1.73,3.97-1.96c0.59-0.09,1.28-0.06,1.93,0.03c0.17,0.02,0.33,0.05,0.49,0.08c0.02,0,0.03,0,0.05,0.01c0.44,0.08,0.84,0.2,1.13,0.32c0.22,0.1,0.38,0.2,0.46,0.3c0.02,0.01,0.03,0.03,0.04,0.04c0.12,0.18,0.23,0.36,0.34,0.53c0.13,0.21,0.26,0.42,0.38,0.63c0.11,0.2,0.22,0.41,0.35,0.63c0.12,0.24,0.25,0.5,0.4,0.78c0.01,0.02,0.01,0.03,0.02,0.05c0.05,0.08,0.09,0.17,0.13,0.25c0.04,0.08,0.09,0.16,0.13,0.25c0.04,0.08,0.08,0.15,0.12,0.23c0.01,0.02,0.03,0.04,0.03,0.06c0.03,0.04,0.05,0.07,0.07,0.11c0.05,0.1,0.1,0.21,0.16,0.31c0.12,0.22,0.25,0.45,0.37,0.67c0.19,0.33,0.38,0.66,0.57,0.99c0.03,0.05,0.05,0.09,0.09,0.14c0.05,0.1,0.11,0.2,0.18,0.3c0.19,0.31,0.39,0.63,0.6,0.94c0.02,0.02,0.03,0.04,0.05,0.07c0.02,0.02,0.04,0.05,0.06,0.08c0.02,0.03,0.04,0.05,0.06,0.08c0.17,0.24,0.34,0.48,0.51,0.72v0.01c0.01,0,0.01,0.01,0.01,0.01c0.05,0.07,0.1,0.14,0.15,0.21c0.12,0.16,0.2,0.34,0.25,0.53c0,0,0,0.01,0,0.02c0.11,0.37,0.11,0.78,0.07,1.19c-0.02,0.23-0.06,0.45-0.1,0.67c-0.02,0.16-0.05,0.31-0.08,0.46c-0.02,0.1,0.23,0.35,0.53,0.62c0.35,0.32,0.78,0.66,0.94,0.84c0.03,0.02,0.05,0.04,0.06,0.06C21.1-56.6,19.96-54.55,18.79-53z" fill="#C4AD9B"></path><path style="" d="M19.94-58.21c-0.82,1.19-1.82,2.25-2.99,3.09c-0.8,0.57-1.69,1.06-2.67,1.16c-1.05,0.11-2.1-0.24-2.99-0.8c-0.89-0.56-1.72-1.38-2.44-2.15c1.32-0.26,2.64-0.65,3.76-1.39c1.13-0.73,2.46-2.23,2.73-3.55c-1.37,0.86-3.82,1.2-4.79,1.2c0.45-3.91,0.9-7.1,1.12-10.15c0.02-0.23,0.04-0.46,0.05-0.69c0.02,0,0.03,0,0.05,0.01c0.44,0.08,0.84,0.2,1.13,0.32c0.22,0.1,0.38,0.2,0.46,0.3c0.02,0.01,0.03,0.03,0.04,0.04c0.12,0.18,0.23,0.36,0.34,0.53c0.13,0.21,0.26,0.42,0.38,0.63c0.11,0.2,0.22,0.41,0.35,0.63c0.12,0.24,0.25,0.5,0.4,0.78c0.01,0.02,0.01,0.03,0.02,0.05c0.01,0.01,0.01,0.01,0.02,0.02c0.03,0.08,0.07,0.15,0.11,0.23c0.04,0.08,0.09,0.16,0.13,0.25c0.04,0.08,0.08,0.15,0.12,0.23c0.01,0.02,0.03,0.04,0.03,0.06c0.03,0.04,0.05,0.07,0.07,0.11c0.05,0.1,0.1,0.21,0.16,0.31c0.12,0.22,0.25,0.45,0.37,0.67c0.19,0.33,0.38,0.66,0.57,0.99c0.03,0.05,0.05,0.09,0.09,0.14c0.29,0.47,0.59,0.94,0.89,1.39c0.02,0.03,0.04,0.05,0.06,0.08c0.17,0.24,0.34,0.48,0.51,0.72v0.01c-0.16,0.41-0.33,0.82-0.52,1.22c-0.07,0.17-0.15,0.33-0.24,0.49c-0.95,1.88-2.26,3.57-3.88,4.86c2.77-0.24,3.99-1.29,5.47-2.86c0.35,0.32,0.78,0.66,0.94,0.84c0.03,0.02,0.05,0.04,0.06,0.06C19.89-58.32,19.9-58.26,19.94-58.21z" fill="#DECCBE"></path><path style="" d="M18.89-52.712c-0.527,0.342-1.117,0.6-1.711,0.813c-0.921,0.331-1.865,0.599-2.822,0.803c0.154,0.388,0.08,0.71,0.125,1.126c0.101,0.937,0.155,1.879,0.188,2.821c1.582-0.181,3.353-0.615,4.517-1.649C19.43-50.057,19.349-51.5,18.89-52.712z" fill="#DECCBE"></path><path style="" d="M17.03-47.64c-0.19,0.07-0.38,0.13-0.58,0.17c0.06-1.66,0.01-3.3-0.36-4.93c0.12-0.03,0.34-0.23,0.46-0.26C17.01-51.02,17.09-49.34,17.03-47.64z" fill="#C4AD9B"></path><path style="" d="M18.64-48.38c-0.15,0.09-0.3,0.19-0.46,0.26c0.08-1.68,0.01-3.43-0.49-4.99c0.16-0.12,0.29-0.13,0.49-0.18C18.65-51.75,18.77-50.03,18.64-48.38z" fill="#C4AD9B"></path><path style="" d="M13.36-70.86c-0.04,0.18-0.11,0.34-0.23,0.45c-0.09,0.08-0.23,0.16-0.44,0.16c-0.1,0-0.22-0.02-0.36-0.07c-0.24-0.09-0.47-0.27-0.66-0.48c-0.18-0.19-0.33-0.4-0.42-0.59l-0.05-0.09l0.03-0.09c0.17,0.02,0.33,0.05,0.49,0.08c0.02,0,0.03,0,0.05,0.01c0.19,0.29,0.48,0.6,0.74,0.69c0.09,0.04,0.22,0.06,0.28,0.01c0.07-0.06,0.1-0.21,0.11-0.38C13.12-71.06,13.28-70.96,13.36-70.86z" fill="#191919"></path><g><path style="" d="M15.15-67.7c-0.08,0.12-0.17,0.23-0.27,0.33c-0.05,0.06-0.14,0.16-0.28,0.2c-0.04,0.01-0.09,0.02-0.13,0.02c-0.18,0-0.35-0.1-0.5-0.29c-0.56-0.73-0.5-1.91-0.23-2.85c0.13,0.21,0.26,0.42,0.38,0.63c-0.13,0.72-0.1,1.47,0.25,1.92c0.05,0.06,0.09,0.09,0.1,0.09c0,0,0.02-0.02,0.05-0.06c0.14-0.15,0.26-0.31,0.37-0.49c0.05,0.08,0.09,0.17,0.13,0.25C15.06-67.87,15.11-67.79,15.15-67.7z" fill="#191919"></path></g><g><path style="" d="M16.74-64.89c-0.41,0.41-0.8,0.84-1.17,1.28c-0.05,0.06-0.12,0.09-0.19,0.09c-0.06,0-0.12-0.01-0.16-0.05c-0.11-0.09-0.12-0.25-0.03-0.36c0.4-0.48,0.83-0.95,1.28-1.4C16.55-65.18,16.64-65.04,16.74-64.89z" fill="#191919"></path></g><g><path style="" d="M18.43-62.24c0,0,0,0.01,0,0.02c-0.03,0.12-0.07,0.24-0.13,0.35c-0.13,0.28-0.35,0.48-0.61,0.57c-0.08,0.02-0.17,0.04-0.26,0.04c-0.34,0-0.68-0.18-0.91-0.49c-0.24-0.33-0.33-0.71-0.41-1.05c-0.03-0.14,0.06-0.27,0.19-0.3c0.14-0.03,0.27,0.05,0.3,0.19c0.07,0.3,0.14,0.62,0.32,0.86c0.14,0.19,0.4,0.35,0.62,0.27c0.12-0.04,0.24-0.15,0.31-0.31c0.08-0.17,0.12-0.36,0.14-0.55c0.02-0.11,0.03-0.23,0.04-0.34c0.05,0.07,0.1,0.14,0.15,0.21C18.3-62.61,18.38-62.43,18.43-62.24z" fill="#191919"></path></g></g><!---0003-00880002100028--><g><path style="" d="M14.36-67.75c-0.03,0.19-0.08,0.37-0.15,0.53c-0.29,0.74-0.9,1.25-1.53,1.95c-0.49,0.54-1.08,0.99-1.73,1.31C9.6-63.25,8-63.08,6.58-63.73c-1.33-0.6-1.87-1.31-2.32-2.52c-0.01-0.03-0.02-0.06-0.03-0.09c-0.36-1.43-0.89-2.83-1.45-4.2c-0.07-0.17-0.14-0.35-0.2-0.53c-0.3-0.77-0.55-1.59-0.77-2.42c-0.34-1.25-0.6-2.52-0.83-3.74c-0.3-1.65-0.69-4.55,0.94-5.6c1.63-1.03,3.7-1.06,5.17,0.31c0.24,0.22,0.47,0.46,0.69,0.69c0.23,0.24,0.44,0.49,0.64,0.74c0.18,0.22,0.35,0.44,0.52,0.67C8.97-80.38,9-80.34,9.03-80.3c0.37,0.51,0.71,1.04,1.02,1.58c0.63,1.1,1.18,2.24,1.69,3.41v0.01c0.03,0.07,0.06,0.14,0.09,0.21c0.13,0.31,0.26,0.61,0.4,0.93c0,0.01,0,0.01,0,0.02c0.05,0.13,0.11,0.25,0.16,0.37c0,0.01,0.01,0.02,0.02,0.03c0.17,0.41,0.33,0.83,0.51,1.24c0.02,0.06,0.04,0.12,0.07,0.18H13c0.01,0.03,0.02,0.07,0.04,0.1c0.11,0.28,0.22,0.55,0.35,0.82v0.01c0.12,0.29,0.25,0.59,0.38,0.87c0,0.02,0.01,0.04,0.02,0.06c0.05,0.11,0.09,0.21,0.15,0.31c0,0.02,0.01,0.04,0.02,0.05c0.05,0.11,0.1,0.22,0.16,0.33c0,0.01,0,0.01,0,0.01c0.01,0.01,0.01,0.01,0.01,0.02v0.01C14.4-68.9,14.45-68.27,14.36-67.75z" fill="none"></path><path style="" d="M14.36-67.75c-0.03,0.19-0.08,0.37-0.15,0.53c-0.29,0.74-0.9,1.25-1.53,1.95c-0.49,0.54-1.08,0.99-1.73,1.31C9.6-63.25,8-63.08,6.58-63.73c-1.33-0.6-1.87-1.31-2.32-2.52c-0.01-0.03-0.02-0.06-0.03-0.09c-0.36-1.43-0.89-2.83-1.45-4.2c-0.07-0.17-0.14-0.35-0.2-0.53c-0.28-0.79-0.5-1.62-0.77-2.42c-0.15-0.45-0.31-0.88-0.52-1.3c-0.73-1.5-1.1-3.19-1.22-4.85c-0.08-1.02-0.04-2.09,0.34-3.04c0.39-0.96,1.18-1.79,2.18-2.03c0.89-0.2,1.84,0.09,2.6,0.59C6.1-83.52,7-82.7,7.78-81.83c0.23,0.24,0.44,0.49,0.64,0.74c0.18,0.22,0.35,0.44,0.52,0.67C8.97-80.38,9-80.34,9.03-80.3c0.37,0.51,0.71,1.04,1.02,1.58c0.65,1.09,1.2,2.25,1.69,3.41v0.01c0.03,0.07,0.06,0.14,0.09,0.21c0.13,0.31,0.26,0.61,0.4,0.93c0,0.01,0,0.01,0,0.02c0.05,0.13,0.11,0.25,0.16,0.37c0,0.01,0.01,0.02,0.02,0.03c0.17,0.41,0.33,0.83,0.51,1.24c0.03,0.06,0.05,0.12,0.08,0.18c0.01,0.03,0.02,0.07,0.04,0.1c0.11,0.28,0.22,0.55,0.35,0.82v0.01c0.12,0.29,0.25,0.59,0.38,0.87c0,0.02,0.01,0.04,0.02,0.06c0.05,0.11,0.09,0.21,0.15,0.31c0,0.02,0.01,0.04,0.02,0.05c0.05,0.11,0.1,0.22,0.16,0.33c0,0.01,0,0.01,0,0.01c0.01,0.01,0.01,0.01,0.01,0.02v0.01C14.4-68.9,14.45-68.27,14.36-67.75z" fill="#C4AD9B"></path><path style="" d="M14.36-67.75c-0.03,0.19-0.08,0.37-0.15,0.53c-0.29,0.74-0.9,1.25-1.53,1.95c-0.49,0.54-1.08,0.99-1.73,1.31c0.29-2.48,0.56-4.69,0.72-6.84c0.11-1.44,0.17-2.85,0.16-4.29c0.13,0.31,0.26,0.61,0.4,0.93c0,0.01,0,0.01,0,0.02c0.05,0.13,0.11,0.25,0.16,0.37c0,0.01,0.01,0.02,0.02,0.03c0.17,0.41,0.33,0.83,0.51,1.24c0.02,0.06,0.04,0.12,0.07,0.18c0.01,0.03,0.03,0.07,0.05,0.1c0.11,0.28,0.22,0.55,0.35,0.82v0.01c0.12,0.29,0.25,0.59,0.38,0.87c0.05,0.13,0.11,0.25,0.17,0.37c0,0.02,0.01,0.04,0.02,0.05c0.05,0.11,0.1,0.22,0.16,0.33c0,0.01,0,0.01,0,0.01c0.01,0.01,0.01,0.01,0.01,0.02v0.01C14.4-68.9,14.45-68.27,14.36-67.75z" fill="#DECCBE"></path><path style="" d="M13.04-72.22c-0.015-0.035-0.028-0.07-0.044-0.105c-0.1,0.065-0.203,0.123-0.31,0.17c0.004,0.011,0.01,0.024,0.014,0.035c0.05,0.17,0.1,0.33,0.14,0.48c0.09,0.35,0.07,0.75-0.05,0.86c-0.06,0.05-0.19,0.03-0.28-0.01c-0.28-0.1-0.59-0.44-0.77-0.74c0.18-0.57,0.31-1.16,0.39-1.75c0.271,0.378,0.437,0.765,0.556,1.125c0.107-0.047,0.21-0.105,0.31-0.17c-0.204-0.467-0.4-0.94-0.586-1.415c-0.03-0.03-0.05-0.07-0.08-0.1c-0.03-0.04-0.07-0.07-0.12-0.09c0.01-0.08,0.01-0.15,0.02-0.23c-0.17-0.39-0.33-0.77-0.49-1.15c0.05,1.26-0.13,2.53-0.51,3.73l-0.03,0.1l0.05,0.09c0.2,0.4,0.63,0.9,1.08,1.07c0.14,0.05,0.26,0.07,0.36,0.07c0.21,0,0.35-0.08,0.44-0.16c0.25-0.23,0.29-0.64,0.26-0.99C13.26-71.67,13.15-71.94,13.04-72.22z" fill="#191919"></path><g><path style="" d="M14.36-67.75c-0.03,0.19-0.08,0.37-0.15,0.53c-0.09-0.05-0.17-0.12-0.24-0.22c-0.59-0.77-0.49-2.05-0.18-3.02c0.05,0.11,0.09,0.21,0.15,0.31c0,0.02,0.01,0.04,0.02,0.05c0.05,0.11,0.1,0.22,0.16,0.33c0,0.01,0,0.01,0,0.01c0.01,0.01,0.01,0.01,0.01,0.02v0.01C13.99-69,14.01-68.22,14.36-67.75z" fill="#191919"></path></g></g><!---0026-00950004000057--><g><g><path style="" d="M5.286-47.962c-4.264,1.778-9.095,1.609-13.495,0.199c-0.709-4.744-0.276-9.582-0.616-14.366c-0.146-2.049-0.433-4.086-0.576-6.135c-0.302-4.346-0.037-8.847-1.143-13.061c1.393,0.572,2.734,0.878,4.093,1.578c0.384,0.197,0.768,0.395,1.171,0.55c0.444,0.171,0.907,0.287,1.368,0.404c1.407,0.355,2.477,0.717,3.896,0.212c2.01-0.715,2.832-2.55,4.17-4.069C6.175-71.274,5.755-59.507,5.286-47.962z" fill="#D9D9D9"></path><path style="" d="M-0.807-76.268c0.705-0.038,1.36-0.265,2.008-0.556c0.004-0.72-0.081-1.511-0.242-2.259c-0.296,0.195-0.611,0.371-0.976,0.5c-1.418,0.505-2.489,0.143-3.896-0.212c-0.004-0.001-0.007-0.002-0.011-0.003c0.182,0.733,0.454,1.595,0.6,2.275C-2.536-76.307-1.627-76.224-0.807-76.268z" fill="#FFFFFF"></path><path style="" d="M-3.089-75.837c1.087,7.376,0.531,14.294,0.09,21.356c2.093-2.732,3.65-6.033,4.45-9.38c0.595-5.326-0.11-9.506-0.249-12.238C0.101-75.446-1.712-75.499-3.089-75.837z" fill="#FFFFFF"></path><path style="" d="M-1.886-48.157c-0.367,0.47-0.721,0.95-1.08,1.426c1.613,0.121,3.23,0.054,4.81-0.23c0.082-0.471,0.146-0.945,0.189-1.436C0.778-48.157-0.611-48.079-1.886-48.157z" fill="#FFFFFF"></path><path style="" d="M-1.685-48.589c1.302-0.024,2.55-0.04,3.815-0.349c0.089-0.81,0.178-1.47,0.236-2.098c-0.341-1.249-0.804-2.555-1.324-3.446C0.273-52.443-0.708-50.538-1.685-48.589z" fill="#FFFFFF"></path><path style="" d="M4.798-48.978c-0.889,0.281-1.82,0.406-2.749,0.482c0.037-0.18,0.126-0.392,0.179-0.568c0.858-0.11,1.715-0.226,2.571-0.348C4.788-49.282,4.808-49.109,4.798-48.978z" fill="#B3B3B3"></path><path style="" d="M3.721-77.641c-0.766,0.512-1.27,0.99-2.386,1.479c-0.026-0.26-0.063-0.485-0.065-0.747c0.029,0.035,0.084,0.016,0.123-0.005c0.758-0.404,1.489-0.858,2.188-1.358C3.652-78.028,3.799-77.882,3.721-77.641z" fill="#B3B3B3"></path><path style="" d="M-6.253-77.852c0.834,0.706,1.939,1.04,3.008,1.355c0.025,0.174-0.061,0.413-0.036,0.587c-0.673,0-2.237-0.553-2.835-1.419C-6.207-77.46-6.218-77.698-6.253-77.852z" fill="#B3B3B3"></path><g><path d="M-4.257-56.507c-0.745-2.169-1.529-4.347-2.07-6.578c-0.408-1.681-0.615-3.526,0.539-4.991c0.974-1.236,2.487-2.197,3.994-2.588c3.479-0.901,5.233,1.361,5.913,2.975c1.052,2.497,1.188,6.196-0.616,8.439c-0.355,0.441-0.863,0.792-1.054,1.325c-0.139,0.39-0.187,1.323-0.589,1.852c-0.351,0.463-1.126,0.838-1.736,0.385c-0.044,0.412,0.141,0.945,0.139,1.424c-0.002,0.479-0.161,0.98-0.528,1.289c-0.435,0.367-1.09,0.391-1.613,0.166c-0.523-0.225-0.929-0.66-1.245-1.133C-3.642-54.722-3.952-55.62-4.257-56.507z"></path><path style="" d="M-1.794-70.664c-0.256,0.066-0.509,0.171-0.762,0.268c0.283,5.394-0.112,10.613-0.444,15.915c2.093-2.732,3.65-6.033,4.45-9.38c0.578-2.312,0.732-4.419,0.669-6.316C1.17-70.792-0.108-71.101-1.794-70.664z" fill="#292929"></path><path style="" d="M4.149-61.568c0.145-1.149,0.278-2.309,0.192-3.464c-0.086-1.155-0.406-2.318-1.091-3.252c-1.675-2.284-5.247-2.215-7.361-0.615c-0.972,0.736-1.812,1.763-1.954,2.974c-0.391,3.326,1.148,6.384,2.427,9.479c0.284,0.687,0.568,1.374,0.896,2.04c0.149,0.301,0.311,0.605,0.56,0.83c0.444,0.402,1.243,0.44,1.588-0.049c0.169-0.24,0.201-0.549,0.209-0.843c0.017-0.624-0.265-1.123-0.316-1.732c-0.052-0.63,0.079-1.269,0.298-1.857c0.31-0.013,0.847,0.007,0.847,0.007c0.015,0.526-0.147,1.031-0.13,1.189c0.023,0.219,0.065,0.524,0.249,0.674c0.259,0.21,0.692,0.202,0.902-0.073c0.144-0.188,0.177-0.441,0.149-0.676c-0.025-0.207-0.296-0.905-0.138-1.459C2.773-58.993,3.97-60.149,4.149-61.568z" fill="#E9B367"></path><path style="" d="M1.66-69.579c-1.274-0.6-2.829-0.596-4.193-0.13c0.211,5.006-0.129,9.874-0.44,14.803c0.036,0.079,0.072,0.159,0.109,0.237c2.022-2.695,3.532-5.919,4.314-9.192C1.684-65.952,1.714-67.86,1.66-69.579z" fill="#FFD892"></path><path style="" d="M0.253-64.672c0.484-0.396,0.936-0.842,1.296-1.356c0.198-0.284,0.81-1.55,0.594-1.55c-0.286,0.128-0.559,0.684-0.762,0.937c-0.276,0.344-0.563,0.68-0.86,1.007c-0.219,0.241-0.712,0.579-0.826,0.88C-0.462-64.34,0.079-64.53,0.253-64.672z" fill="#070707"></path><path style="" d="M1.381-66.641c-0.276,0.344-0.563,0.68-0.86,1.007c-0.219,0.241-0.712,0.579-0.826,0.88c-0.156,0.414,0.384,0.224,0.558,0.082c0.484-0.396,0.936-0.842,1.296-1.356c0.022-0.031,0.05-0.077,0.079-0.128c0.015-0.304,0.031-0.608,0.038-0.902C1.562-66.902,1.464-66.745,1.381-66.641z" fill="#282828"></path><g><path style="" d="M-1.278-58.625c-0.094,0-0.177-0.024-0.234-0.043c-0.352-0.117-0.655-0.372-0.832-0.699c-0.053-0.097-0.017-0.219,0.081-0.271c0.098-0.052,0.219-0.017,0.271,0.081c0.129,0.239,0.35,0.425,0.606,0.51c0.051,0.017,0.079,0.026,0.117,0.022c0.036-0.002,0.079-0.021,0.128-0.057c0.192-0.137,0.298-0.374,0.411-0.625c0.075-0.167,0.152-0.338,0.26-0.496c0.109-0.159,0.23-0.251,0.37-0.28c0.23-0.048,0.399,0.081,0.537,0.185c0.062,0.047,0.122,0.091,0.175,0.112c0.144,0.058,0.332-0.048,0.427-0.185c0.123-0.176,0.164-0.413,0.203-0.643c0.019-0.108,0.12-0.181,0.231-0.164c0.109,0.019,0.182,0.122,0.164,0.231c-0.044,0.261-0.095,0.556-0.27,0.805c-0.186,0.266-0.554,0.463-0.901,0.328c-0.104-0.041-0.191-0.107-0.269-0.165c-0.099-0.074-0.171-0.125-0.215-0.113c-0.019,0.004-0.059,0.024-0.121,0.115c-0.088,0.127-0.154,0.276-0.225,0.433c-0.129,0.288-0.264,0.586-0.542,0.786c-0.112,0.08-0.225,0.124-0.336,0.131C-1.254-58.625-1.266-58.625-1.278-58.625z" fill="#070707"></path></g><path style="" d="M-0.1-60.482c-0.139,0.029-0.26,0.121-0.37,0.28c-0.108,0.157-0.185,0.329-0.26,0.496c-0.113,0.251-0.219,0.488-0.411,0.625c-0.05,0.036-0.093,0.055-0.128,0.057c-0.038,0.004-0.066-0.005-0.117-0.022c-0.256-0.085-0.478-0.271-0.606-0.51c-0.052-0.097-0.173-0.133-0.271-0.081c-0.097,0.052-0.133,0.174-0.081,0.271c0.177,0.327,0.48,0.582,0.832,0.699c0.057,0.02,0.141,0.043,0.234,0.043c0.012,0,0.023,0,0.035-0.001c0.111-0.007,0.224-0.051,0.336-0.131c0.279-0.2,0.413-0.498,0.542-0.786c0.071-0.157,0.137-0.306,0.225-0.433c0.062-0.091,0.103-0.111,0.121-0.115c0.04-0.011,0.106,0.034,0.192,0.097c0.031-0.074,0.066-0.146,0.097-0.22c0.022-0.053,0.04-0.107,0.061-0.16C0.215-60.453,0.075-60.519-0.1-60.482z" fill="#282828"></path><g><path style="" d="M1.4-65.134c-0.184,0.368-0.268,0.782-0.252,1.192c0.01,0.263,0.042,0.545,0.142,0.791c0.169,0.413,0.609,0.399,0.805,0.028c0.127-0.241,0.158-0.494,0.2-0.758c0.054-0.333,0.032-0.673-0.006-1.006c-0.018-0.155-0.046-0.315-0.137-0.442C1.91-65.67,1.543-65.419,1.4-65.134z" fill="#070707"></path><path style="" d="M1.586-65.362C1.511-65.297,1.444-65.22,1.4-65.134c-0.184,0.367-0.268,0.782-0.252,1.192c0.009,0.244,0.043,0.502,0.127,0.735c0.059-0.218,0.122-0.436,0.175-0.654C1.507-64.372,1.552-64.872,1.586-65.362z" fill="#282828"></path><circle style="" cx="1.818" cy="-64.68" r="0.315" fill="#D9D9D9"></circle></g></g></g><g><path style="" d="M-0.164-85.655c1.711,1.778,1.998,2.967,2.44,4.977s0.431,4.088,0.427,6.146C2.686-67.39,2.768-60.247,2.946-53.107c0.045,1.816,0.097,3.632,0.209,5.445c0.101,1.633,0.094,3.478,0.739,5.007c0.198,0.468,0.507,0.95,0.999,1.077c0.268,0.069,0.551,0.02,0.821-0.042c1.885-0.432,4.379-2.249,4.839-3.597c0.188-1.517,0.005-2.391-0.079-3.72c0,0,0.566-0.893,0.816-1.368c0.299-0.57,0.212-1.066,0.127-1.704c-0.194-1.473-0.846-2.835-1.286-4.241c-0.427-1.361-0.448-2.807-0.851-4.159c-0.41-1.38-0.493-2.859-0.586-4.305c-0.203-3.181-0.204-5.352,0.038-9.374c0.077-1.278,0.599-2.715,0.537-3.994c-0.062-1.279-0.417-2.586-1.253-3.556c1.007-1.325,0.651-3.284-0.258-4.679c-0.761-1.168-1.861-2.112-3.131-2.687c-1.078-0.489-2.345-0.706-3.445-0.267S-0.47-86.799-0.164-85.655z" fill="#191919"></path><path style="" d="M1.241-89.144c-0.062-0.02-0.126-0.03-0.189-0.047c-1.007,0.546-1.509,2.44-1.217,3.535c1.711,1.778,1.998,2.967,2.44,4.977c0.03,0.137,0.043,0.277,0.069,0.415c0.063-0.253,0.146-0.501,0.268-0.735c0.359-0.692,0.976-1.206,1.531-1.754c0.555-0.548,1.082-1.198,1.168-1.973C5.541-86.796,2.936-88.598,1.241-89.144z" fill="#070707"></path><path style="" d="M10.906-54.029c-0.252-0.743-0.541-1.476-0.775-2.221c-0.427-1.361-0.448-2.807-0.851-4.159c-0.41-1.38-0.493-2.859-0.586-4.305c-0.015-0.24-0.027-0.466-0.04-0.696c-0.883-3.146-2.332-6.232-2.027-9.451c0.815,0.574,1.386,1.329,1.996,2.118c0.011,0.014,0.022,0.028,0.033,0.042c0.022-0.439,0.048-0.899,0.077-1.388c0.025-0.42,0.102-0.86,0.187-1.303c-0.551-1.445-1.15-2.871-1.683-4.245c-0.611,0.684-1.912,1.122-2.813,0.541c1.549-0.435,2.752-1.995,2.93-3.593c0.061-0.549,0.01-1.107-0.097-1.649c-0.135-0.682-0.49-1.442-0.793-2.067c0.002,2.882-2.041,4.593-2.919,5.316c0.504,0.938,0.646,2.022,0.763,3.08c0.346,3.123,0.552,6.262,0.616,9.404c-0.384,0.082-0.835-0.042-1.078-0.352c-0.457-0.584-0.443-1.487,0.033-2.056c-0.331-0.203-0.671-0.728-0.675-1.116c-0.004-0.389,0.204-0.773,0.532-0.983c0.111-2.292-0.071-4.633-0.544-6.879c-0.252,0.311-0.463,0.647-0.649,0.995c0.164,1.477,0.163,2.975,0.159,4.464C2.686-67.39,2.768-60.247,2.946-53.107c0.045,1.816,0.097,3.632,0.209,5.445c0.029,0.464,0.05,0.946,0.079,1.432c0.119,0.011,0.239,0.028,0.359,0.02c1.62-0.106,2.488-1.304,3.135-2.579c0.727-1.431,1.549-3.202,1.786-4.804c-0.076-0.086-0.359-0.486-0.359-0.486s0.109-1.493,0.286-2.146C9.045-55.37,9.935-54.535,10.906-54.029z" fill="#292929"></path><path style="" d="M11.453-51.739c-0.274-0.039-0.545-0.094-0.806-0.188c-0.452-0.162-1.043-0.478-1.356-0.843c0.013,1.123,0.032,2.23-0.084,3.351c-0.062,0.593-0.156,1.202-0.472,1.707c0.702-0.401,1.328-0.903,1.891-1.465c0.185-0.298,0.497-0.806,0.666-1.129C11.546-50.79,11.518-51.227,11.453-51.739z" fill="#292929"></path><path style="" d="M3.394-44.553c0.098,0.66,0.249,1.303,0.5,1.898c0.198,0.468,0.507,0.95,0.999,1.077c0.268,0.069,0.551,0.02,0.821-0.042c1.885-0.432,4.379-2.249,4.839-3.597c0.138-1.112,0.076-1.88,0-2.733c-0.73,0.491-1.47,0.967-2.236,1.399C6.77-45.678,5.118-44.969,3.394-44.553z" fill="#292929"></path><g><path style="" d="M4.942-68.637c-0.134,0-0.245-0.106-0.25-0.241l-0.261-7.1c-0.041-1.1-0.083-2.235-0.253-3.33c-0.073-0.473-0.175-0.97-0.418-1.402c-0.068-0.12-0.025-0.272,0.095-0.34c0.118-0.068,0.271-0.025,0.34,0.095c0.283,0.503,0.4,1.076,0.477,1.571C4.847-78.261,4.889-77.111,4.93-76l0.262,7.103c0.005,0.138-0.103,0.254-0.241,0.259C4.948-68.637,4.945-68.637,4.942-68.637z" fill="#FFF6EF"></path></g><circle style="" cx="4.222" cy="-72.632" r="0.759" fill="#FFF6EF"></circle><circle style="" cx="4.866" cy="-70.24" r="0.759" fill="#FFF6EF"></circle><circle style="" cx="4.394" cy="-66.478" r="0.932" fill="#191919"></circle><circle style="" cx="4.566" cy="-67.066" r="0.759" fill="#FFF6EF"></circle><circle style="" cx="4.566" cy="-60.636" r="0.932" fill="#191919"></circle><circle style="" cx="4.738" cy="-61.223" r="0.759" fill="#FFF6EF"></circle><ellipse style="" cx="4.78" cy="-55.712" rx="0.845" ry="0.932" fill="#191919"></ellipse><ellipse style="" cx="4.936" cy="-56.299" rx="0.689" ry="0.759" fill="#FFF6EF"></ellipse><ellipse transform="matrix(0.9849 -0.1731 0.1731 0.9849 8.7371 0.138)" style="" cx="5.16" cy="-50.025" rx="0.776" ry="0.932" fill="#191919"></ellipse><ellipse transform="matrix(0.9849 -0.1731 0.1731 0.9849 8.8421 0.1357)" style="" cx="5.199" cy="-50.628" rx="0.633" ry="0.759" fill="#FFF6EF"></ellipse><path style="" d="M8.326-57.059c0,0,1.474,1.638,2.416,2.55c0,0,0.679,1.077,0.599,2.037c0,0-1.743-0.524-3.015-2.309V-57.059z" fill="#FFF6EF"></path><path style="" d="M10.554-45.217c0.138-1.112,0.076-1.88,0-2.733c-0.73,0.491-1.47,0.967-2.236,1.399c-0.193,0.109-0.393,0.207-0.589,0.311c-0.245,1.323-0.443,2.67-0.403,3.997C8.8-43.006,10.218-44.234,10.554-45.217z" fill="#FFF6EF"></path><circle style="" cx="5.098" cy="-45.618" r="0.739" fill="#FFF6EF"></circle><circle style="" cx="5.201" cy="-43.239" r="0.635" fill="#FFF6EF"></circle></g><g><path style="" d="M-9.772-89.371c-0.042,0.95-0.212,1.895-0.506,2.8c1.653,2.599,3.689,5.094,5.097,7.833c2.094,4.074,2.684,8.741,2.99,13.312c0.541,8.11,0.288,16.272-0.754,24.333c-0.029,0.226-2.26,0.519-2.527,0.559c-0.858,0.127-1.744,0.03-2.62-0.04c-1.986-0.159-3.962-0.435-5.916-0.826c-1.623-0.325-5.389-0.865-5.874-2.83c-0.125-0.505,0.115-1.437,0.308-1.92c-0.993-0.676-1.507-2.029-1.569-3.229c-0.061-1.199,0.264-2.384,0.638-3.525c0.739-2.253,1.799-4.361,2.417-6.654c0.653-2.42,0.995-4.952,0.699-7.454c-0.202-1.703-0.694-3.354-1.285-4.959c-0.266-0.723-0.603-1.345-0.943-2.013c-0.11-0.217-0.558-2.27-0.577-2.274c-0.497-0.113-1.023-0.241-1.377-0.607c-0.298-0.308-0.428-0.74-0.508-1.161c-0.244-1.277-0.101-2.454,0.269-3.69c0.147-0.492,0.317-1.002,0.684-1.362c-0.693-0.614-0.795-1.713-0.486-2.585c0.309-0.872,0.972-1.571,1.671-2.178c1.428-1.239,3.087-2.213,4.865-2.857c0.997-0.361,2.074-0.62,3.112-0.405S-9.726-90.43-9.772-89.371z" fill="#DECCBE"></path><g><path style="" d="M-3.706-75.007c-0.387-1.282-0.86-2.534-1.475-3.73c-1.408-2.739-3.444-5.234-5.097-7.833c0.293-0.905,0.464-1.85,0.505-2.8c0.047-1.059-1.152-1.518-2.19-1.733c-1.038-0.215-2.116,0.044-3.112,0.405c-1.778,0.644-3.437,1.618-4.865,2.857c-0.699,0.607-1.362,1.305-1.671,2.178c-0.309,0.872-0.207,1.972,0.486,2.585c-0.367,0.36-0.537,0.87-0.684,1.362c-0.37,1.235-0.513,2.413-0.269,3.69c0.081,0.421,0.21,0.853,0.508,1.161c0.349,0.36,0.864,0.49,1.354,0.602c0.082-0.129,0.161-0.26,0.251-0.381c0.817-1.101,2.065-1.797,3.327-2.334c1.927-0.82,4.182-0.99,6.233-0.569c1.676,0.345,3.05,0.941,4.361,2.041C-5.157-76.762-4.454-75.86-3.706-75.007z" fill="#191919"></path><path style="" d="M-10.278-86.571c0.293-0.905,0.464-1.85,0.505-2.8c0.044-0.993-1.007-1.456-1.995-1.687c-0.169,0.174-0.334,0.352-0.488,0.542c-0.653,0.799-1.245,1.776-1.1,2.797c0.111,0.778,0.641,1.442,1.268,1.917c0.627,0.474,1.354,0.793,2.049,1.162c0.937,0.497,1.749,1.196,2.444,1.998C-8.499-83.955-9.438-85.25-10.278-86.571z" fill="#070707"></path><path style="" d="M-5.181-78.737c-0.454-0.883-0.976-1.738-1.527-2.582c-0.93-0.954-2.116-1.818-3.721-2.565c-1.532-0.714-5.265-2.582-3.534-4.889c-1.571,0.922-3.187,1.338-4.181,3.025c-0.175,0.298-0.028,0.56,0.213,0.769c0.268,0.232,0.618,0.343,0.955,0.453c3.029,0.985,5.949,2.456,8.64,4.159c-3.376-1.635-6.43-2.023-9.786-2.094c-0.258-0.005-0.528-0.004-0.755,0.118c-0.503,0.27-0.652,1.394-0.081,1.423c4.134,0.21,7.593,0.216,10.788,2.079c0.747,0.335,1.445,0.765,2.125,1.335c0.886,0.744,1.59,1.646,2.338,2.499C-4.092-76.289-4.566-77.541-5.181-78.737z" fill="#292929"></path><g><path style="" d="M-14.864-80.352c-1.199-0.168-2.422,0.003-3.6,0.284c-1.205,0.287-2.713,0.545-3.577-0.607c-0.006-0.008-0.008-0.018-0.014-0.026c-0.168,0.879-0.199,1.75-0.022,2.673c0.081,0.421,0.21,0.853,0.508,1.161c0.227,0.235,0.528,0.368,0.843,0.465c0,0,0.294,0.115,0.534,0.142c0.037,0.004,0.11-0.255,0.147-0.264c0.027-0.041,0.052-0.084,0.081-0.123c0.817-1.101,2.065-1.797,3.327-2.334c1.126-0.479,2.363-0.73,3.607-0.777C-13.598-80.06-14.226-80.262-14.864-80.352z" fill="#070707"></path><path style="" d="M-21.611-85.664c-0.309,0.872-0.207,1.972,0.486,2.585c-0.099,0.097-0.182,0.206-0.255,0.322c0.809,0.105,1.645,0.005,2.46-0.108c0.757-0.106,1.755-0.406,2.513-0.511c-1.399-0.174-2.659-0.908-3.851-1.661c-0.284-0.179-0.578-0.372-0.743-0.664c-0.145-0.258-0.163-0.555-0.129-0.853C-21.324-86.276-21.497-85.985-21.611-85.664z" fill="#070707"></path></g></g><path style="" d="M-3.289-73.472c-1.121-1.358-2.448-2.501-3.965-3.454c0.041,0.35,0.082,0.7,0.123,1.049c0.161,1.381,0.323,2.766,0.357,4.158c0.015,0.594,0.131,1.431-0.063,1.999c-0.257,0.753-0.643,0.037-0.599-0.428c-0.817,0.16-1.236-1.136-0.482-1.48c0.03-0.014,0.064-0.026,0.084-0.053c0.024-0.032,0.021-0.075,0.018-0.115c-0.124-1.539-0.233-3.065-0.631-4.565c-0.083-0.313-0.253-0.681-0.576-0.698c-0.221-0.012-0.408,0.155-0.558,0.317c-1.458,1.574-2.078,3.899-2.769,5.882c-0.372,1.069-0.682,2.159-0.925,3.265c-0.133,0.607-0.108,2.515-0.485,2.935c0.803-0.895,1.588-1.807,2.354-2.734c0.921-1.115,1.768-2.297,2.279-3.662c0.208,1.282-1.025,5.123-1.495,6.338c-0.31,0.803-2.934,9.94-3.089,10.525c-0.041,0.156-0.643,1.641-0.62,1.659c0.104,0.082,0.316,0.196,0.42,0.278c1.465-1.24,3-2.403,4.424-3.689c0.179,0.575,0.323,1.271,0.411,1.866c-1.089,1.763-2.947,2.788-4.811,3.692c-0.189,1.21,0.119,2.478,0.778,3.51s1.869,1.764,2.99,2.257c-0.244-1.008-0.379-2.042-0.401-3.078c-0.029-1.351,0.223-2.715,0.963-3.845c0.604,2.725,2.04,5.247,3.967,7.267c0.038-0.372,0.231-0.725,0.523-0.959c0.14-0.112,0.309-0.199,0.488-0.201c0.205-0.002,0.4,0.109,0.534,0.264s0.318,0.266,0.373,0.464c0.389-0.107,0.788-0.256,1.171-0.439c0.648-6.738,0.757-13.527,0.306-20.281C-2.371-68.122-2.66-70.85-3.289-73.472z" fill="#FFF6EF"></path><circle style="" cx="-4.703" cy="-71.306" r="0.944" fill="#DECCBE"></circle><g><circle style="" cx="-4.598" cy="-71.934" r="0.935" fill="#131313"></circle><circle style="" cx="-4.474" cy="-72.087" r="0.391" fill="#292929"></circle></g><circle style="" cx="-3.845" cy="-65.892" r="0.849" fill="#DECCBE"></circle><g><circle style="" cx="-3.751" cy="-66.457" r="0.841" fill="#131313"></circle><circle style="" cx="-3.64" cy="-66.594" r="0.352" fill="#292929"></circle></g><circle style="" cx="-3.706" cy="-60.388" r="0.849" fill="#DECCBE"></circle><g><circle style="" cx="-3.611" cy="-60.953" r="0.841" fill="#131313"></circle><circle style="" cx="-3.5" cy="-61.091" r="0.352" fill="#292929"></circle></g><circle style="" cx="-4.035" cy="-54.893" r="0.849" fill="#DECCBE"></circle><g><circle style="" cx="-3.94" cy="-55.459" r="0.841" fill="#131313"></circle><circle style="" cx="-3.829" cy="-55.596" r="0.352" fill="#292929"></circle></g><circle style="" cx="-4.224" cy="-49.222" r="0.849" fill="#DECCBE"></circle><g><circle style="" cx="-4.13" cy="-49.787" r="0.841" fill="#131313"></circle><circle style="" cx="-4.019" cy="-49.924" r="0.352" fill="#292929"></circle></g><ellipse style="" cx="-4.452" cy="-44.444" rx="0.887" ry="1.018" fill="#DECCBE"></ellipse><g><circle style="" cx="-4.173" cy="-44.778" r="0.841" fill="#131313"></circle><circle style="" cx="-4.062" cy="-44.915" r="0.352" fill="#292929"></circle></g><g><path style="" d="M-6.905-69.455c-0.134,0.002-0.247-0.097-0.253-0.224l-0.359-6.71c-0.056-1.04-0.113-2.112-0.299-3.145c-0.08-0.446-0.188-0.915-0.437-1.32c-0.07-0.113-0.029-0.257,0.091-0.323c0.117-0.066,0.271-0.028,0.342,0.085c0.29,0.471,0.415,1.012,0.498,1.478c0.191,1.06,0.249,2.146,0.305,3.197l0.359,6.712c0.007,0.131-0.1,0.242-0.237,0.249C-6.899-69.455-6.902-69.455-6.905-69.455z" fill="#292929"></path></g><circle style="" cx="-6.897" cy="-70.994" r="0.759" fill="#292929"></circle><g><path style="" d="M-9.337-63.849c-0.419,0-0.813-0.203-1.02-0.528c-0.255-0.405-0.174-0.962,0.181-1.242c0.108-0.086,0.265-0.068,0.351,0.042c0.085,0.108,0.067,0.266-0.042,0.351c-0.155,0.122-0.187,0.394-0.068,0.582c0.121,0.19,0.378,0.309,0.643,0.294c0.249-0.015,0.516-0.137,0.752-0.345c0.294-0.26,0.495-0.603,0.564-0.964c0.055-0.282-0.006-0.627-0.227-0.744c-0.134-0.071-0.311-0.059-0.513-0.044c-0.176,0.012-0.375,0.026-0.571-0.02c-0.626-0.144-0.956-0.795-0.958-1.364c-0.002-0.627,0.271-1.338,0.696-1.813c0.214-0.239,0.481-0.498,0.836-0.609c0.375-0.117,0.869-0.03,1.102,0.355c0.141,0.233,0.224,0.645-0.182,1.277c-0.075,0.117-0.23,0.15-0.345,0.076c-0.116-0.075-0.15-0.229-0.076-0.345c0.147-0.23,0.297-0.546,0.175-0.75c-0.095-0.158-0.34-0.195-0.523-0.136c-0.24,0.075-0.445,0.278-0.614,0.466c-0.342,0.381-0.57,0.975-0.568,1.478c0.001,0.368,0.215,0.797,0.57,0.879c0.124,0.029,0.271,0.019,0.425,0.008c0.243-0.018,0.52-0.036,0.78,0.101c0.459,0.242,0.574,0.817,0.485,1.281c-0.09,0.469-0.348,0.911-0.725,1.244c-0.227,0.199-0.593,0.442-1.053,0.469C-9.287-63.85-9.312-63.849-9.337-63.849z" fill="#292929"></path></g><g><path style="" d="M-6.337-68.963c-0.382,0.091-0.633,0.25-0.769,0.485c-0.117,0.204-0.125,0.432-0.13,0.599c-0.047,1.517,0.062,3.047,0.324,4.546c0.021,0.122,0.126,0.207,0.246,0.207c0.015,0,0.029-0.001,0.043-0.004c0.136-0.023,0.227-0.153,0.203-0.289c-0.123-0.701-0.211-1.408-0.265-2.118c0.506-0.086,0.909-0.164,1.298-0.642c0.286-0.35,0.479-0.813,0.543-1.303c0.069-0.533-0.109-1.171-0.62-1.422c-0.185,0.067-0.338,0.185-0.432,0.385c0.064,0.001,0.122,0.009,0.173,0.026c0.314,0.11,0.433,0.57,0.383,0.946c-0.052,0.399-0.207,0.772-0.435,1.052c-0.261,0.321-0.51,0.381-0.942,0.456c-0.032-0.608-0.039-1.217-0.02-1.824c0.005-0.148,0.013-0.277,0.063-0.366c0.063-0.109,0.21-0.191,0.451-0.248c0.123-0.029,0.225-0.044,0.312-0.044c0.005,0,0.008,0.002,0.013,0.002c0.095-0.2,0.248-0.318,0.432-0.385c-0.034-0.017-0.057-0.047-0.094-0.06C-5.837-69.062-6.121-69.015-6.337-68.963z" fill="#292929"></path></g><g><g><path style="" d="M-10.895-62.812c-0.036-0.038-0.062-0.09-0.074-0.15v0c-0.02-0.091,0.002-0.182,0.045-0.256c-0.004-0.055-0.005-0.107-0.003-0.158c-0.127,0.093-0.175,0.274-0.14,0.436c0.017,0.078,0.051,0.146,0.099,0.198c0.034,0.036,0.086,0.038,0.132,0.054c-0.008-0.036-0.015-0.072-0.023-0.107C-10.869-62.805-10.885-62.803-10.895-62.812z" fill="#292929"></path><path style="" d="M-10.816-63.434c-0.043,0.01-0.078,0.032-0.11,0.056c-0.002,0.051-0.001,0.103,0.003,0.158c0.03-0.052,0.067-0.102,0.129-0.116c0.011-0.002,0.022-0.004,0.034-0.004c0.036,0,0.072,0.012,0.109,0.037c0.079,0.052,0.141,0.171,0.15,0.29c0.004,0.054,0,0.153-0.07,0.215c-0.077,0.07-0.202,0.061-0.287,0.001c0.008,0.035,0.015,0.071,0.023,0.107c0.039,0.014,0.07,0.046,0.111,0.046c0.08,0,0.159-0.026,0.219-0.08c0.076-0.067,0.113-0.173,0.104-0.297c-0.011-0.15-0.09-0.297-0.195-0.366C-10.668-63.434-10.744-63.449-10.816-63.434z" fill="#292929"></path></g><g><path style="" d="M-10.036-62.467c-0.002,0-0.005,0-0.007,0c-0.027-0.004-0.046-0.029-0.042-0.057c0.031-0.208,0.002-0.423-0.026-0.631l-0.012-0.087c-0.003-0.027,0.016-0.052,0.043-0.056c0.023,0.002,0.052,0.016,0.056,0.043l0.011,0.086c0.029,0.215,0.06,0.438,0.026,0.66C-9.99-62.484-10.011-62.467-10.036-62.467z" fill="#292929"></path></g><g><path style="" d="M-9.185-62.482c-0.025,0-0.047-0.019-0.05-0.044c-0.017-0.155-0.022-0.333-0.015-0.529c0.001-0.027,0.023-0.048,0.05-0.048c0,0,0.001,0,0.002,0c0.027,0.001,0.049,0.024,0.048,0.052c-0.007,0.191-0.002,0.365,0.015,0.515c0.003,0.027-0.017,0.052-0.044,0.055C-9.182-62.482-9.183-62.482-9.185-62.482z" fill="#292929"></path></g><g><path style="" d="M-10.021-62.744c-0.025,0-0.047-0.019-0.05-0.045c-0.01-0.102,0.02-0.196,0.086-0.272c0.084-0.096,0.224-0.156,0.374-0.161c0.001,0,0.001,0,0.002,0c0.027,0,0.049,0.021,0.05,0.048c0.001,0.028-0.021,0.051-0.048,0.052c-0.124,0.004-0.236,0.052-0.303,0.127c-0.048,0.056-0.069,0.122-0.062,0.196c0.002,0.027-0.018,0.052-0.045,0.055C-10.018-62.744-10.02-62.744-10.021-62.744z" fill="#292929"></path></g><g><path style="" d="M-8.31-62.925c-0.002,0.091-0.075,0.182-0.146,0.224c-0.059,0.034-0.12,0.039-0.169,0.013c-0.057-0.029-0.095-0.094-0.101-0.173c-0.001-0.011,0.011-0.018,0.012-0.028c-0.036,0.019-0.07,0.039-0.104,0.058c0.015,0.102,0.066,0.19,0.147,0.232c0.081,0.042,0.178,0.036,0.266-0.016c0.053-0.031,0.098-0.075,0.132-0.125c0.021,0.171,0.027,0.437-0.093,0.628c-0.047,0.075-0.117,0.125-0.188,0.132c-0.006,0.001-0.012,0.001-0.019,0.001c-0.068,0-0.132-0.042-0.149-0.1c-0.008-0.026-0.033-0.043-0.062-0.034c-0.026,0.008-0.042,0.035-0.034,0.062c0.029,0.1,0.134,0.171,0.246,0.171c0.01,0,0.02,0,0.03-0.001c0.1-0.012,0.197-0.078,0.261-0.179c0.17-0.271,0.119-0.656,0.089-0.81c-0.02-0.103-0.062-0.175-0.112-0.231c-0.031,0.016-0.063,0.033-0.095,0.049C-8.364-63.021-8.33-62.986-8.31-62.925z" fill="#292929"></path><path style="" d="M-8.713-63.126c-0.077,0.066-0.12,0.171-0.112,0.273c0.001,0.008,0.006,0.014,0.007,0.022c0.034-0.02,0.068-0.039,0.104-0.058c0.004-0.06,0.021-0.122,0.066-0.162c0.039-0.034,0.089-0.051,0.138-0.051c0.031,0,0.062,0.007,0.088,0.022c0.009,0.005,0.013,0.022,0.021,0.029c0.032-0.016,0.064-0.032,0.095-0.049c-0.021-0.024-0.04-0.052-0.067-0.067C-8.477-63.227-8.619-63.208-8.713-63.126z" fill="#292929"></path></g><g><circle style="" cx="-9.19" cy="-63.521" r="0.097" fill="#292929"></circle></g><g><path style="" d="M-7.63-62.662c-0.022,0-0.043-0.015-0.049-0.038c-0.037-0.152-0.065-0.328-0.083-0.522c-0.002-0.027,0.018-0.052,0.045-0.055c0.002,0,0.003,0,0.005,0c0.025,0,0.047,0.019,0.05,0.045c0.018,0.19,0.045,0.361,0.082,0.509c0.006,0.027-0.01,0.054-0.037,0.061C-7.622-62.662-7.626-62.662-7.63-62.662z" fill="#292929"></path></g><g><circle style="" cx="-7.764" cy="-63.691" r="0.097" fill="#292929"></circle></g></g><ellipse style="" cx="-4.712" cy="-41.982" rx="1.002" ry="0.864" fill="#DECCBE"></ellipse><g><circle style="" cx="-4.508" cy="-42.177" r="0.841" fill="#131313"></circle><circle style="" cx="-4.397" cy="-42.315" r="0.352" fill="#292929"></circle></g><path style="" d="M-15.057-52.663l0.361,1.702c0.708-0.042,4.619-1.431,5.715-3.804c0,0,0.011-1.055-0.651-1.77C-9.631-56.535-11.065-53.897-15.057-52.663z" fill="#292929"></path><path style="" d="M-15.057-52.663l0.361,1.702c0.187-0.011,0.599-0.118,1.121-0.31c0.022-0.708,0.127-1.409,0.281-2.1C-13.817-53.11-14.399-52.866-15.057-52.663z" fill="#191919"></path><path style="" d="M-21.116-50.312c-0.03,0.31-0.043,0.62-0.027,0.933c0.061,1.199,0.576,2.552,1.569,3.229c-0.163,0.409-0.346,1.126-0.328,1.647c3.23,2.073,7.507,2.088,11.239,1.107c-3.135-0.972-6.318-1.967-9.056-3.778C-19.002-48.024-20.176-49.091-21.116-50.312z" fill="#C4AD9B"></path><g><path style="" d="M-2.587-44.164c-0.692,0.523-1.662,0.637-2.554,0.674c-4.932,0.204-9.898-0.698-14.465-2.568c-0.186,0.5-0.394,1.349-0.276,1.827c0.485,1.965,4.251,2.505,5.874,2.83c1.953,0.391,3.93,0.667,5.916,0.826c0.876,0.07,1.762,0.167,2.62,0.04c0.267-0.039,2.498-0.332,2.527-0.559C-2.813-42.115-2.694-43.138-2.587-44.164z" fill="#FFF6EF"></path><path style="" d="M-7.743-40.545c0.098-0.98,0.2-1.959,0.309-2.937c-4.168-0.115-8.312-0.994-12.172-2.575c-0.186,0.5-0.394,1.349-0.276,1.827c0.485,1.965,4.251,2.505,5.874,2.83c1.953,0.391,3.93,0.667,5.916,0.826C-7.976-40.565-7.859-40.555-7.743-40.545z" fill="#292929"></path><path style="" d="M-13.78-41.362c0.061-0.949,0.161-1.894,0.293-2.835c-2.09-0.435-4.143-1.051-6.118-1.86c-0.186,0.5-0.394,1.349-0.276,1.827c0.485,1.965,4.251,2.505,5.874,2.83C-13.932-41.385-13.856-41.377-13.78-41.362z" fill="#191919"></path></g></g></g><!---0035-00700002300031--><g><path style="" d="M-14.78-58.39c-0.13,0.6-0.2,1.21-0.19,1.82v0.1c-0.01,0.04-0.01,0.08-0.01,0.12c0,0.01-0.01,0.03-0.01,0.04c-0.09,0.53-0.5,0.92-0.95,1.31c-0.3,0.27-0.63,0.52-0.89,0.81c-0.09,0.09-0.18,0.19-0.21,0.32c-0.03,0.13,0.01,0.28,0.05,0.41c0.11,0.35,0.24,0.69,0.38,1.03c0.15,0.37,0.29,0.75,0.4,1.13c0.03,0.11,0.06,0.22,0.08,0.32c0.07,0.28,0.12,0.57,0.14,0.87c0.07,1.1-1.18,1.88-2.1,2.5c-0.1,0.07-0.19,0.14-0.27,0.2c-0.13,0.1-0.23,0.2-0.32,0.3c-0.28,0.32-0.35,0.66-0.44,1.3c-0.14,0.9-0.28,1.79-0.44,2.68c0,0-0.33,0.34-1.05,0.66c-0.12,0.06-0.26,0.11-0.4,0.16c-0.12,0.05-0.25,0.09-0.39,0.13c-0.07,0.02-0.15,0.05-0.23,0.06c-0.087,0.027-0.184,0.042-0.28,0.06l0,0c0,0,0,0-0.001,0c-0.048,0.009-0.09,0.023-0.139,0.03c-0.1,0.03-0.2,0.05-0.32,0.06c-0.16,0.02-0.32,0.04-0.49,0.05c-0.11,0.01-0.23,0.02-0.34,0.02c-0.12,0.01-0.24,0.01-0.37,0.01c-0.17,0-0.35-0.01-0.52-0.02h-0.06c-0.04,0-0.09-0.01-0.14-0.01c-0.08-0.01-0.17-0.01-0.25-0.02c-0.02,0-0.05-0.01-0.07-0.01c-0.15-0.02-0.29-0.04-0.44-0.06c-0.39-0.06-0.77-0.14-1.13-0.24c-0.44-0.11-0.85-0.26-1.22-0.43c-0.18-0.08-0.35-0.17-0.51-0.26c-0.69-0.4-1.15-0.89-1.2-1.43c-0.08-0.77-0.02-1.49,0.11-2.21c0.08-0.4,0.16-0.81,0.27-1.23c-0.12-0.14-0.24-0.28-0.35-0.42c-0.99-1.2-1.89-2.7-2.06-3.83c0.07-0.86,1-1.32,1.4-1.98c0.08-0.13,0.14-0.27,0.16-0.42c0.01-0.06,0.02-0.12,0.02-0.18c0-0.04,0-0.09-0.01-0.14c-0.08-0.7-0.19-1.42-0.46-2.07c-0.09-0.22-0.17-0.51-0.2-0.8c-0.02-0.19-0.03-0.37-0.02-0.55c0.01-0.4,0.12-0.77,0.35-0.99c0.93-0.92,1.16-1.65,1.7-2.84c0.48-1.06,0.9-2.15,1.3-3.25c0.82-0.67,1.76-1.16,2.85-1.4c0.24-0.06,0.48-0.1,0.74-0.13c0.04-0.01,0.08-0.01,0.12-0.01c0.5-0.06,1.04-0.06,1.62,0.01l0.02,0.01c0.11,0,0.23,0.02,0.35,0.04c0.443,0.068,0.59,0.1,0.89,0.17c0.02,0,0.05,0.01,0.07,0.01c0.3,0.08,0.6,0.17,0.92,0.27C-14.31-64.65-14.45-61.28-14.78-58.39z" fill="#191919"></path><path style="" d="M-14.78-58.39c-0.13,0.6-0.2,1.21-0.19,1.82v0.1c0,0.06-0.01,0.11-0.02,0.16c-0.09,0.53-0.5,0.92-0.95,1.31c-1.91-0.82-3.58-2-4.93-3.55c-0.01,0-0.01-0.01-0.01-0.01c-0.11-0.13-0.22-0.26-0.32-0.39v-0.01c-0.06-0.06-0.11-0.12-0.15-0.18c-0.15-0.19-0.29-0.38-0.43-0.58c0-0.01-0.01-0.01-0.01-0.02c-0.1-0.13-0.19-0.26-0.27-0.39c0.01,0.09,0.03,0.19,0.05,0.28v0.01c0.02,0.16,0.06,0.32,0.1,0.47c0.03,0.15,0.07,0.31,0.12,0.46v0.01c0.6,2.04,1.93,3.85,3.49,5.31c0.45,0.43,0.94,0.84,1.51,1.1c0.06,0.02,0.12,0.04,0.18,0.06c0.15,0.37,0.29,0.75,0.4,1.13c0.03,0.11,0.06,0.22,0.08,0.32c0.07,0.28,0.12,0.57,0.14,0.87c0.07,1.1-1.18,1.88-2.1,2.5c-0.1,0.07-0.19,0.14-0.27,0.2c-0.13,0.1-0.23,0.2-0.32,0.3h-0.01c-2.05,0.11-4.18-0.05-6.04-0.93c-0.89-0.42-1.7-0.99-2.46-1.61c-1.11-0.9-2.13-1.92-2.71-3.22c3.04,1.85,7.05,3.33,10.61,3.45c-3.05-1.72-5.82-6.3-6.51-8.07c-0.01-1.29,0.19-2.61,0.54-3.91c0.05-0.22,0.11-0.43,0.18-0.65c0.01-0.06,0.03-0.13,0.05-0.19c0.14-0.43,0.28-0.86,0.45-1.29c-0.01-0.01,0-0.02,0-0.02c0.11-0.31,0.23-0.61,0.36-0.92c0,0-0.01-0.01,0-0.01c0.16-0.4,0.33-0.8,0.5-1.19c0.15-0.32,0.29-0.65,0.44-0.97c0-0.01,0.01-0.01,0.01-0.02c0.03-0.06,0.05-0.11,0.08-0.16c0.5-0.06,1.04-0.06,1.62,0.01l0.02,0.01c0.11,0,0.23,0.02,0.35,0.04h0.01c0.03,0.15,0.07,0.29,0.12,0.43c0,0.01,0.01,0.03,0.01,0.04c0.13,0.39,0.27,0.78,0.43,1.16c0.04-0.14,0.08-0.27,0.11-0.41v-0.01l0.01-0.01c0.09-0.31,0.17-0.62,0.25-0.94c0,0,0-0.01,0-0.02c0.01-0.02,0.02-0.04,0.02-0.06c0.3,0.08,0.6,0.17,0.92,0.27C-14.31-64.65-14.45-61.28-14.78-58.39z" fill="#292929"></path><path style="" d="M-30.25-58.203c-0.025,0.476,0.068,0.991,0.217,1.349c0.273,0.654,0.388,1.37,0.468,2.074c0.032,0.281-0.044,0.52-0.176,0.738c1.322,1.448,3.177,2.304,5.176,2.247C-27.175-53.116-29.206-55.476-30.25-58.203z" fill="#070707"></path><path style="" d="M-29.084-48.233c0.117,0.143,0.235,0.285,0.353,0.419c-0.107,0.422-0.193,0.831-0.265,1.239c0.354,0.179,0.822,0.353,1.436,0.527c-0.255,0.951-0.35,2.08-0.349,3.109c0.159,0.093,0.33,0.18,0.512,0.263c-0.052-1.103,0.128-2.171,0.38-3.258c0.469,0.072,0.951,0.216,1.421,0.288c0.229-0.159,0.417-0.338,0.605-0.544c-0.504-0.208-1.008-0.416-1.512-0.624C-27.415-47.191-28.34-47.594-29.084-48.233z" fill="#070707"></path><path style="" d="M-25.362-45.448c-0.183,0.273-0.6,1.974-0.821,3.202c0.82,0.224,1.729,0.355,2.617,0.355c1.339,0,2.301-0.282,2.951-0.576c0.243-0.954,0.388-1.827,0.508-2.849C-22.75-44.909-25.332-45.492-25.362-45.448z" fill="#292929"></path><path style="" d="M-24.09-41.906c0.173-1.318,0.355-2.642,0.591-3.947c-0.152,0.009-0.308,0.04-0.46,0.049c-0.261,1.277-0.444,2.568-0.582,3.863C-24.391-41.926-24.241-41.914-24.09-41.906z" fill="#191919"></path><path style="" d="M-21.91-42.058c0.199-1.262,0.356-2.531,0.435-3.807c-0.161,0.033-0.303,0.226-0.464,0.259c-0.131,1.207-0.275,2.421-0.445,3.628C-22.22-42.001-22.06-42.027-21.91-42.058z" fill="#191919"></path><g><path style="" d="M-20.883-58.562c-0.041,0-0.083-0.007-0.124-0.021c-1.82-0.635-3.739-2.057-5.134-3.803c-0.129-0.162-0.103-0.397,0.059-0.527c0.161-0.128,0.397-0.104,0.527,0.059c1.311,1.64,3.103,2.972,4.795,3.562c0.196,0.068,0.299,0.282,0.23,0.478C-20.583-58.659-20.729-58.562-20.883-58.562z" fill="#DECCBE"></path></g><g><path style="" d="M-20.881-58.563c0.154-0.001,0.298-0.097,0.352-0.251c0.068-0.195-0.035-0.409-0.23-0.478c-0.342-0.119-0.688-0.276-1.033-0.453C-21.507-59.331-21.205-58.934-20.881-58.563z" fill="#FFF6EF"></path><path style="" d="M-21.786-58.904c-0.092-0.311-0.166-0.627-0.222-0.948c-1.07-0.581-2.123-1.411-3.017-2.386c-0.086,0.28-0.151,0.561-0.225,0.842C-24.208-60.34-22.997-59.464-21.786-58.904z" fill="#FFF6EF"></path></g><g><path style="" d="M-23.833-60.494c-0.199,0-0.365-0.157-0.374-0.358c-0.04-0.864-0.093-1.706-0.312-2.492c-0.064-0.232-0.161-0.527-0.34-0.742c-0.064-0.077-0.11-0.101-0.122-0.104c0,0-0.027,0.005-0.085,0.043c-0.174,0.117-0.312,0.32-0.389,0.574c-0.085,0.276-0.094,0.58-0.092,0.84c0.002,0.207-0.165,0.376-0.372,0.378c-0.225,0.012-0.376-0.165-0.378-0.372c-0.003-0.318,0.01-0.693,0.125-1.067c0.127-0.418,0.372-0.765,0.688-0.977c0.175-0.118,0.361-0.17,0.525-0.17c0.171,0.005,0.427,0.073,0.677,0.374c0.27,0.325,0.401,0.716,0.486,1.021c0.24,0.862,0.297,1.75,0.338,2.659c0.01,0.207-0.15,0.382-0.357,0.392C-23.821-60.494-23.827-60.494-23.833-60.494z" fill="#DECCBE"></path></g><path style="" d="M-24.519-63.344c0.219,0.787,0.272,1.628,0.312,2.492c0.009,0.201,0.175,0.358,0.374,0.358c0.006,0,0.012,0,0.018,0c0.207-0.009,0.367-0.185,0.357-0.392c-0.042-0.909-0.099-1.797-0.338-2.659c-0.076-0.275-0.205-0.616-0.425-0.92c-0.125,0.311-0.245,0.621-0.36,0.934C-24.561-63.468-24.535-63.402-24.519-63.344z" fill="#FFF6EF"></path><g><path style="" d="M-20.831-58.549c-0.013,0-0.026,0-0.04-0.002c-0.206-0.021-0.355-0.206-0.334-0.412c0.053-0.508,0.098-1.096-0.041-1.632c-0.073-0.279-0.205-0.516-0.438-0.791c-0.22-0.258-0.486-0.53-0.786-0.594c-0.22-0.048-0.476,0.023-0.663,0.184c-0.188,0.16-0.312,0.407-0.344,0.677c-0.024,0.206-0.212,0.347-0.416,0.329c-0.206-0.024-0.353-0.21-0.329-0.416c0.054-0.456,0.273-0.879,0.602-1.16c0.366-0.313,0.855-0.444,1.307-0.348c0.519,0.11,0.898,0.487,1.2,0.84c0.308,0.361,0.491,0.697,0.593,1.088c0.171,0.658,0.122,1.325,0.062,1.899C-20.479-58.692-20.642-58.549-20.831-58.549z" fill="#FFF6EF"></path></g><g><path style="" d="M-20.03-66.21c-0.03-0.05-0.07-0.11-0.12-0.15c-0.03-0.06-0.07-0.11-0.11-0.16c-0.01-0.03-0.03-0.05-0.05-0.07c-0.286-0.082-0.6-0.13-0.88-0.17c0,0,0,0-0.01,0c-0.12-0.02-0.24-0.04-0.35-0.04c0.03,0.03,0.07,0.07,0.09,0.09c0.07,0.07,0.14,0.13,0.21,0.2c0.07,0.06,0.14,0.16,0.19,0.22c0.15,0.17,0.28,0.31,0.41,0.5c0.05,0.08,0.1,0.15,0.13,0.23h0.01c0.04,0.07,0.08,0.14,0.09,0.2c0.04,0.06,0.07,0.12,0.07,0.18c0.05,0.12,0.07,0.22,0.07,0.33c0.01,0.26-0.16,0.59-0.37,0.61c-1.55,0.13-2.31-1.49-2.5-1.99c-0.03-0.08-0.05-0.15-0.07-0.22c-0.02-0.06-0.04-0.13-0.06-0.19c-0.01-0.06-0.02-0.12-0.03-0.17c-0.26,0.03-0.5,0.07-0.74,0.13c0.03,0.22,0.1,0.46,0.2,0.72c0.04,0.1,0.08,0.2,0.13,0.29c0,0.01,0.01,0.01,0.01,0.02c0.08,0.17,0.16,0.32,0.25,0.47c0.09,0.15,0.18,0.3,0.29,0.43c0.09,0.13,0.2,0.25,0.3,0.36c0.12,0.12,0.25,0.23,0.38,0.33c0.12,0.1,0.25,0.18,0.38,0.25c0.11,0.06,0.23,0.12,0.35,0.16c0.02,0.01,0.04,0.01,0.06,0.02c0.14,0.05,0.28,0.09,0.42,0.11c0.15,0.03,0.3,0.04,0.45,0.04c0.08,0,0.16-0.01,0.24-0.01c0.66-0.06,1.08-0.76,1.06-1.38C-19.54-65.43-19.82-65.9-20.03-66.21z" fill="#DECCBE"></path></g><g><path style="" d="M-21.06-66.29c-0.06-0.07-0.12-0.15-0.19-0.22s-0.14-0.13-0.21-0.2c-0.02-0.02-0.06-0.06-0.09-0.09c0.11,0,0.294,0.024,0.36,0.04c0.03,0.15,0.07,0.29,0.12,0.43C-21.07-66.32-21.06-66.3-21.06-66.29z" fill="#FFF6EF"></path><path style="" d="M-20.827-63.483c0.078,0,0.157-0.003,0.237-0.01c0.659-0.055,1.082-0.757,1.063-1.377c-0.017-0.556-0.294-1.03-0.501-1.339c-0.072-0.106-0.163-0.195-0.241-0.296c-0.081,0.318-0.162,0.636-0.25,0.955c0.143,0.257,0.236,0.492,0.242,0.702c0.008,0.26-0.159,0.589-0.377,0.608c-1.548,0.133-2.302-1.492-2.498-1.992c-0.062-0.159-0.089-0.292-0.117-0.426c-0.153,0.327-0.303,0.656-0.45,0.987C-23.086-64.286-22.035-63.483-20.827-63.483z" fill="#FFF6EF"></path></g></g><!---0031-00860002300032--><g><g><path style="" d="M-11.3-80.12c0.03,0.14,0.06,0.29,0.09,0.44c-0.6-0.08-1.21-0.11-1.82-0.08c-0.15,0-0.31,0.01-0.46,0.03c-0.16,0.01-0.32,0.02-0.47,0.05c-0.11,0.01-0.22,0.02-0.33,0.04c-0.13,0.02-0.25,0.04-0.38,0.07c-0.68,0.13-1.34,0.32-1.97,0.59c-1.26,0.54-2.51,1.23-3.32,2.33c-0.03,0.04-0.06,0.09-0.09,0.13c-0.01,0-0.03,0.04-0.05,0.09c-0.04,0.06-0.08,0.11-0.12,0.17c-0.01-0.01-0.01-0.01-0.02-0.01c-0.15-0.03-0.29-0.07-0.44-0.11c-0.03-0.01-0.05-0.02-0.05-0.02c-0.2-0.06-0.39-0.14-0.57-0.25c-0.05-0.03-0.09-0.06-0.13-0.1c-0.05-0.03-0.1-0.07-0.14-0.12c-0.17-0.17-0.29-0.4-0.37-0.63c0.11-0.33,0.24-0.66,0.44-0.95c0.34-0.48,0.71-0.95,1.11-1.38c0.38-0.42,0.8-0.81,1.24-1.16c0.35-0.28,0.73-0.54,1.12-0.77c0.44-0.26,0.9-0.47,1.36-0.64h0.01c0.78-0.28,1.59-0.43,2.45-0.5c0.59-0.05,0.93-0.12,1.44,0.25c0.34,0.25,0.63,0.58,0.85,0.95c0.11,0.17,0.2,0.34,0.28,0.52C-11.49-80.84-11.38-80.48-11.3-80.12z" fill="#191919"></path><path style="" d="M-11.64-81.18c0.15,0.34,0.26,0.7,0.34,1.06c-2.32-0.61-4.83-0.66-7.66-0.8c-0.08,0-0.14-0.03-0.19-0.07c0.35-0.28,0.73-0.54,1.12-0.77c0.44-0.26,0.9-0.47,1.36-0.64h0.01c1.61,0.08,3.16,0.28,4.74,0.7C-11.81-81.53-11.72-81.36-11.64-81.18z" fill="#292929"></path><g><path style="" d="M-13.03-79.76c-0.15,0-0.31,0.01-0.46,0.03c-0.16,0.01-0.31,0.03-0.47,0.05c-0.11,0.01-0.22,0.02-0.33,0.04c-0.13,0.02-0.25,0.04-0.38,0.07c-0.68,0.13-1.34,0.32-1.97,0.59c-1.26,0.54-2.51,1.23-3.32,2.33c-0.03,0.04-0.06,0.09-0.09,0.13c-0.01,0-0.03,0.04-0.05,0.09c-0.03,0.07-0.07,0.17-0.09,0.17h-0.03c-0.01-0.01-0.01-0.01-0.02-0.01c-0.17-0.02-0.35-0.08-0.44-0.11c-0.03-0.01-0.05-0.02-0.05-0.02c-0.2-0.06-0.39-0.14-0.57-0.25c-0.05-0.03-0.09-0.06-0.13-0.1c-0.05-0.03-0.1-0.07-0.14-0.12c-0.17-0.17-0.29-0.4-0.37-0.63c0.11-0.33,0.24-0.66,0.44-0.95c0.34-0.48,0.71-0.95,1.11-1.38c0.64,0.04,1.32-0.09,1.93-0.24c1.17-0.28,2.4-0.45,3.6-0.28C-14.23-80.26-13.6-80.06-13.03-79.76z" fill="#070707"></path></g></g><g><path style="" d="M-11.49-71.84c-0.07,0.42-0.16,0.84-0.24,1.26c-0.54,2.68-1.18,5.34-1.9,7.97c0,0.01,0,0.02-0.01,0.02c-0.23,0.59-0.5,1.39-0.84,2.69c-0.53,2.05-3.27,2.49-5.57,2.21c-0.5-0.05-0.97-0.14-1.4-0.26c-0.35-0.08-0.67-0.19-0.95-0.31c-1.17-0.5-2.28-1.24-3.08-2.22c-0.34-0.4-0.63-0.84-0.84-1.32c-0.47-1.05-0.897-2.484-0.62-3.38c0.56-1.55,1.07-3.12,1.64-4.66c0.75-2.03,2.45-5.7,3.85-7.37c0,0,1.52-1.16,3.45-1.97c1.01-0.42,2.66-0.72,3.75-0.84c0.76-0.08,2.58-0.2,3.03,0.22c0,0,0.23,1.01,0.26,1.41C-10.79-76.2-11.08-74.01-11.49-71.84z" fill="#191919"></path><path style="" d="M-11.49-71.84c-0.07,0.42-0.16,0.84-0.24,1.26c-0.54,2.68-1.18,5.34-1.9,7.97c0,0.01,0,0.02-0.01,0.02c-0.23,0.59-0.5,1.39-0.84,2.69c-0.53,2.05-3.27,2.49-5.57,2.21c-0.29-0.27-0.56-0.56-0.82-0.86c-0.01,0-0.01-0.01-0.01-0.01c-0.11-0.13-0.22-0.26-0.32-0.39v-0.01c-0.06-0.06-0.11-0.12-0.15-0.18c-0.15-0.19-0.29-0.38-0.43-0.58c0-0.01-0.01-0.01-0.01-0.02c-0.1-0.13-0.19-0.26-0.27-0.39c0.01,0.09,0.03,0.19,0.05,0.28v0.01c0.02,0.16,0.06,0.32,0.1,0.47c0.03,0.15,0.07,0.31,0.12,0.46v0.01c0.09,0.32,0.21,0.64,0.34,0.95c-0.35-0.08-0.67-0.19-0.95-0.31c-1.17-0.5-2.28-1.24-3.08-2.22c0.06-0.31,0.14-0.61,0.22-0.92c0.05-0.22,0.11-0.43,0.18-0.65c0.01-0.06,0.03-0.13,0.05-0.19c0.14-0.43,0.28-0.86,0.45-1.29c-0.01-0.01,0-0.02,0-0.02c0.11-0.31,0.23-0.61,0.36-0.92c0,0-0.01-0.01,0-0.01c0.16-0.4,0.33-0.8,0.5-1.19c0.15-0.32,0.29-0.65,0.44-0.97c0-0.01,0.01-0.01,0.01-0.02c0.13-0.29,0.27-0.57,0.41-0.85v-0.01c0.04-0.08,0.08-0.16,0.11-0.23c0.08-0.15,0.15-0.31,0.22-0.46h0.01c0.19-0.39,0.38-0.78,0.57-1.16c0.1-0.19,0.19-0.37,0.28-0.55c0,0.16,0.01,0.32,0.02,0.48c0.02,0.6,0.11,1.2,0.24,1.79c-0.01,0.01,0,0.02,0,0.02c0.1,0.44,0.2,0.87,0.34,1.3c0,0.01,0.01,0.03,0.01,0.04c0.13,0.39,0.27,0.78,0.43,1.16c0.04-0.14,0.08-0.27,0.11-0.41v-0.01l0.01-0.01c0.09-0.31,0.17-0.62,0.25-0.94c0,0,0-0.01,0-0.02c0.14-0.51,0.26-1.02,0.37-1.53v-0.01c0.08-0.31,0.14-0.62,0.2-0.93V-69c0.25-1.17,0.44-2.34,0.61-3.53v-0.01c0.05-0.32,0.09-0.64,0.13-0.96c0.03-0.23,0.05-0.47,0.08-0.7c1.61-1.6,3.14-3.1,5.54-3.96C-12.44-76.15-11.82-74.02-11.49-71.84z" fill="#292929"></path><g><path style="" d="M-20.883-58.562c-0.041,0-0.083-0.007-0.124-0.021c-1.82-0.635-3.739-2.057-5.134-3.803c-0.129-0.162-0.103-0.397,0.059-0.527c0.161-0.128,0.397-0.104,0.527,0.059c1.311,1.64,3.103,2.972,4.795,3.562c0.196,0.068,0.299,0.282,0.23,0.478C-20.583-58.659-20.729-58.562-20.883-58.562z" fill="#DECCBE"></path></g><g><path style="" d="M-20.881-58.563c0.154-0.001,0.298-0.097,0.352-0.251c0.068-0.195-0.035-0.409-0.23-0.478c-0.342-0.119-0.688-0.276-1.033-0.453C-21.507-59.331-21.205-58.934-20.881-58.563z" fill="#FFF6EF"></path><path style="" d="M-21.786-58.904c-0.092-0.311-0.166-0.627-0.222-0.948c-1.07-0.581-2.123-1.411-3.017-2.386c-0.086,0.28-0.151,0.561-0.225,0.842C-24.208-60.34-22.997-59.464-21.786-58.904z" fill="#FFF6EF"></path></g><g><path style="" d="M-23.833-60.494c-0.199,0-0.365-0.157-0.374-0.358c-0.04-0.864-0.093-1.706-0.312-2.492c-0.064-0.232-0.161-0.527-0.34-0.742c-0.064-0.077-0.11-0.101-0.122-0.104c0,0-0.027,0.005-0.085,0.043c-0.174,0.117-0.312,0.32-0.389,0.574c-0.085,0.276-0.094,0.58-0.092,0.84c0.002,0.207-0.165,0.376-0.372,0.378c-0.225,0.012-0.376-0.165-0.378-0.372c-0.003-0.318,0.01-0.693,0.125-1.067c0.127-0.418,0.372-0.765,0.688-0.977c0.175-0.118,0.361-0.17,0.525-0.17c0.171,0.005,0.427,0.073,0.677,0.374c0.27,0.325,0.401,0.716,0.486,1.021c0.24,0.862,0.297,1.75,0.338,2.659c0.01,0.207-0.15,0.382-0.357,0.392C-23.821-60.494-23.827-60.494-23.833-60.494z" fill="#DECCBE"></path></g><path style="" d="M-24.519-63.344c0.219,0.787,0.272,1.628,0.312,2.492c0.009,0.201,0.175,0.358,0.374,0.358c0.006,0,0.012,0,0.018,0c0.207-0.009,0.367-0.185,0.357-0.392c-0.042-0.909-0.099-1.797-0.338-2.659c-0.076-0.275-0.205-0.616-0.425-0.92c-0.125,0.311-0.245,0.621-0.36,0.934C-24.561-63.468-24.535-63.402-24.519-63.344z" fill="#FFF6EF"></path><g><path style="" d="M-20.831-58.549c-0.013,0-0.026,0-0.04-0.002c-0.206-0.021-0.355-0.206-0.334-0.412c0.053-0.508,0.098-1.096-0.041-1.632c-0.073-0.279-0.205-0.516-0.438-0.791c-0.22-0.258-0.486-0.53-0.786-0.594c-0.22-0.048-0.476,0.023-0.663,0.184c-0.188,0.16-0.312,0.407-0.344,0.677c-0.024,0.206-0.212,0.347-0.416,0.329c-0.206-0.024-0.353-0.21-0.329-0.416c0.054-0.456,0.273-0.879,0.602-1.16c0.366-0.313,0.855-0.444,1.307-0.348c0.519,0.11,0.898,0.487,1.2,0.84c0.308,0.361,0.491,0.697,0.593,1.088c0.171,0.658,0.122,1.325,0.062,1.899C-20.479-58.692-20.642-58.549-20.831-58.549z" fill="#FFF6EF"></path></g><path style="" d="M-20.59-63.49c0.66-0.06,1.08-0.76,1.06-1.38c-0.01-0.56-0.29-1.03-0.5-1.34c-0.03-0.05-0.07-0.11-0.12-0.15c-0.03-0.06-0.07-0.11-0.11-0.16c-0.33-0.43-0.71-0.8-1.15-1.13c-0.02-0.01-0.05-0.03-0.07-0.05c-0.17-0.12-0.4-0.26-0.66-0.37c-0.06-0.03-0.13-0.06-0.2-0.08c-0.06-0.02-0.12-0.04-0.18-0.05v-0.01h-0.01c-0.26-0.07-0.54-0.09-0.79-0.01c-0.22,0.07-0.52,0.26-0.68,0.72c-0.14,0.42-0.09,0.93,0.15,1.54c0.04,0.1,0.08,0.2,0.13,0.29c0,0.01,0.01,0.01,0.01,0.02c0.08,0.17,0.16,0.32,0.25,0.47c0.09,0.15,0.18,0.3,0.29,0.43c0.09,0.13,0.2,0.25,0.3,0.36c0.12,0.12,0.25,0.23,0.38,0.33c0.12,0.1,0.25,0.18,0.38,0.25c0.11,0.06,0.23,0.12,0.35,0.16c0.02,0.01,0.04,0.01,0.06,0.02c0.14,0.05,0.28,0.09,0.42,0.11c0.114,0.023,0.228,0.026,0.343,0.031c-0.162-0.223-0.271-0.472-0.264-0.78c-1.182-0.233-1.783-1.524-1.949-1.96c-0.03-0.08-0.05-0.15-0.07-0.22c-0.02-0.06-0.04-0.13-0.06-0.19c-0.06-0.25-0.06-0.45,0-0.62c0.06-0.2,0.16-0.24,0.2-0.25c0.03-0.01,0.08-0.02,0.12-0.02c0.03,0,0.06,0,0.1,0.01v0.01c0.04,0,0.11,0.01,0.17,0.03c0.01,0.01,0.02,0.01,0.03,0.01c0.07,0.02,0.15,0.05,0.23,0.09c0.17,0.08,0.34,0.18,0.52,0.3c0.08,0.06,0.16,0.11,0.23,0.18c0.07,0.05,0.15,0.11,0.22,0.19c0.14,0.11,0.27,0.24,0.39,0.38c0.15,0.17,0.29,0.35,0.42,0.54c0.05,0.08,0.1,0.15,0.13,0.23h0.01c0.04,0.07,0.08,0.14,0.09,0.2c0.04,0.06,0.07,0.12,0.07,0.18c0.05,0.12,0.07,0.22,0.07,0.33c0.01,0.26-0.16,0.59-0.37,0.61c-0.196,0.016-0.379,0.004-0.551-0.03c-0.008,0.308,0.101,0.557,0.264,0.78c0.036,0.001,0.072,0.01,0.107,0.01C-20.75-63.48-20.67-63.49-20.59-63.49z" fill="#DECCBE"></path><g><path style="" d="M-22.863-67.512c0.251,0.032,0.597,0.182,0.949,0.43c0.321,0.226,0.6,0.499,0.858,0.792c-0.142-0.441-0.256-0.889-0.351-1.341c-0.026-0.019-0.048-0.044-0.075-0.063c-0.247-0.174-0.632-0.405-1.04-0.515C-22.637-67.98-22.75-67.746-22.863-67.512z" fill="#FFF6EF"></path><path style="" d="M-20.827-63.483c0.078,0,0.157-0.003,0.237-0.01c0.659-0.055,1.082-0.757,1.063-1.377c-0.017-0.556-0.294-1.03-0.501-1.339c-0.072-0.106-0.163-0.195-0.241-0.296c-0.081,0.318-0.162,0.636-0.25,0.955c0.143,0.257,0.236,0.492,0.242,0.702c0.008,0.26-0.159,0.589-0.377,0.608c-1.548,0.133-2.302-1.492-2.498-1.992c-0.062-0.159-0.089-0.292-0.117-0.426c-0.153,0.327-0.303,0.656-0.45,0.987C-23.086-64.286-22.035-63.483-20.827-63.483z" fill="#FFF6EF"></path></g><g><path style="" d="M-23.232-69.187c-0.196,0-0.361-0.153-0.374-0.351c-0.013-0.207,0.144-0.385,0.35-0.398c0.702-0.044,1.394-0.181,2.058-0.406c0.193-0.068,0.409,0.038,0.475,0.235c0.066,0.196-0.039,0.409-0.235,0.475c-0.727,0.246-1.484,0.396-2.25,0.444C-23.216-69.187-23.224-69.187-23.232-69.187z" fill="#DECCBE"></path></g><g><path style="" d="M-18.529-70.025c-0.042,0-0.085-0.001-0.127-0.004c-0.207-0.014-0.363-0.192-0.349-0.399s0.199-0.361,0.399-0.349c0.391,0.018,0.811-0.156,1.059-0.464s0.337-0.753,0.227-1.133c-0.094-0.326-0.529-0.617-0.898-0.585c-0.203,0.014-0.426,0.109-0.683,0.292l-0.128,0.095c-0.13,0.097-0.261,0.193-0.404,0.27c-0.284,0.151-0.572,0.201-0.833,0.144c-0.671-0.148-0.987-1.098-0.943-1.917c0.042-0.775,0.408-1.294,0.955-1.355c0.386-0.044,0.688,0.194,0.868,0.336c0.163,0.128,0.19,0.364,0.062,0.527c-0.128,0.163-0.363,0.19-0.527,0.062c-0.078-0.062-0.24-0.182-0.321-0.18c-0.175,0.02-0.272,0.351-0.289,0.65c-0.033,0.618,0.211,1.112,0.356,1.144c0.083,0.019,0.196-0.007,0.317-0.072c0.109-0.059,0.208-0.135,0.308-0.209l0.142-0.104c0.374-0.267,0.723-0.407,1.067-0.43c0.719-0.048,1.48,0.466,1.67,1.125c0.178,0.617,0.039,1.312-0.364,1.812C-17.34-70.304-17.93-70.025-18.529-70.025z" fill="#DECCBE"></path></g><path style="" d="M-18.271-73.708c-0.227,0.015-0.46,0.102-0.697,0.222c-0.039,0.32-0.081,0.638-0.125,0.955c0.02-0.015,0.042-0.026,0.062-0.041l0.128-0.095c0.257-0.183,0.48-0.279,0.683-0.292c0.369-0.032,0.804,0.259,0.898,0.585c0.11,0.38,0.021,0.825-0.227,1.133s-0.668,0.482-1.059,0.464c-0.2-0.012-0.385,0.143-0.399,0.349s0.143,0.385,0.349,0.399c0.042,0.003,0.085,0.004,0.127,0.004c0.599,0,1.189-0.279,1.565-0.746c0.403-0.5,0.542-1.195,0.364-1.812C-16.791-73.242-17.552-73.756-18.271-73.708z" fill="#FFF6EF"></path><g><path style="" d="M-18.583-66.78c-0.101,0-0.201-0.04-0.274-0.12c-1.083-1.164-2.604-2.944-3.707-4.817c-0.105-0.179-0.045-0.408,0.133-0.514c0.179-0.106,0.409-0.046,0.514,0.133c1.069,1.814,2.553,3.55,3.609,4.687c0.141,0.152,0.133,0.389-0.019,0.53C-18.399-66.813-18.491-66.78-18.583-66.78z" fill="#DECCBE"></path></g><path style="" d="M-19.694-69c-0.064,0.312-0.131,0.625-0.2,0.937c0.368,0.43,0.722,0.826,1.037,1.164c0.074,0.08,0.174,0.12,0.274,0.12c0.091,0,0.183-0.033,0.255-0.101c0.152-0.141,0.16-0.378,0.019-0.53C-18.72-67.853-19.202-68.406-19.694-69z" fill="#FFF6EF"></path></g></g></svg>