<svg xmlns:xlink="http://www.w3.org/1999/xlink" xmlns="http://www.w3.org/2000/svg" viewBox="-31.32424545288086 -89.6399917602539 52.10837173461914 52.034366607666016" width="164" height="108"><!--00001-00740002400032--><g><path style="" d="M20.02-52.82c-0.11,0.21-0.24,0.42-0.38,0.62c0.01,0.13,0.02,0.26,0.02,0.39c0.05,1.05,0.04,2.04,0.12,3.11c-0.22,0.31-0.48,0.61-0.76,0.88c-0.9,0.86-2.06,1.51-3.22,1.88c-0.32,0.1-0.65,0.19-0.98,0.24c-1.24,0.26-2.53,0.26-3.78,0.09c-0.14-0.02-0.28-0.04-0.39-0.14c-0.08-0.07-0.12-0.18-0.16-0.29c-0.26-0.68-0.44-1.38-0.67-2.07c-0.05-0.16-0.11-0.32-0.17-0.48c-0.07-0.02-0.13-0.05-0.2-0.08c-0.95-0.34-1.86-0.81-2.7-1.37c-0.52-0.34-1.04-0.75-1.3-1.31c-0.18-0.39-0.23-0.82-0.28-1.24c-0.33-2.67-0.75-5.34-1.26-7.99c-0.4-2.09-1.02-4.35-0.02-6.39c0.5-1.03,1.41-1.82,2.39-2.41c1.41-0.86,3.1-1.34,4.72-1.15c0.31,0.04,0.62,0.1,0.93,0.19c1.02,0.3,1.99,0.91,2.81,1.57c0.84,0.69,1.44,1.91,2.02,2.83c1.26,1.99,2.7,4.14,3.46,6.44c0.23,0.66,0.39,1.34,0.48,2.03C20.9-55.84,20.77-54.23,20.02-52.82z" fill="#0B0B0B"></path><path style="" d="M20.22-59.5c-0.35,1.62-0.96,3.19-1.78,4.63c-0.17,0.29-0.35,0.59-0.61,0.79c-0.56,0.44-1.31,0.26-1.9-0.01c-0.67-0.31-1.759-0.492-2.844-1.954c-0.085-0.115-0.192-0.218-0.216-0.359c-0.006-0.037-0.009-0.076,0.007-0.109c0.033-0.072,0.128-0.086,0.207-0.091c0.421-0.025,0.838-0.062,1.256-0.097c0.04-0.01,0.08-0.01,0.11-0.04c0.08-0.06,0.04-0.19-0.01-0.28l-0.18-0.33c-0.68-1.26-1.31-2.56-1.78-3.91c-0.48-1.4-0.85-2.84-1.1-4.3S11-68.5,11-69.98v-0.55c0.31,0.04,0.62,0.1,0.93,0.19c1.02,0.3,1.99,0.91,2.81,1.57c0.84,0.69,1.44,1.91,2.02,2.83C18.02-63.95,19.46-61.8,20.22-59.5z" fill="#252525"></path><path style="" d="M19.64-52.2c0.01,0.13,0.02,0.26,0.02,0.39c-1.69,1.54-3.54,2.81-5.79,3.39c-0.75,0.19-1.54,0.33-2.31,0.34c-0.12,0-1.03-0.02-1.74-0.03c-0.05-0.16-0.11-0.32-0.17-0.48c-0.07-0.02-0.13-0.05-0.2-0.08c0.66-0.02,1.33,0,1.99-0.01c1.7-0.04,3.38-0.54,4.89-1.31c0.76-0.39,1.47-0.83,2.12-1.4c0.33-0.29,0.66-0.6,0.98-0.91c0.06-0.06,0.35-0.3,0.59-0.52C19.91-52.61,19.78-52.4,19.64-52.2z" fill="#020202"></path><path style="" d="M19.02-47.82c-0.9,0.86-2.06,1.51-3.22,1.88c-0.32,0.1-0.65,0.19-0.98,0.24c-0.37-0.9-0.73-1.79-1.1-2.69c0.99-0.13,2-0.59,2.9-1.01c0.91-0.42,1.68-0.78,2.24-1.61C18.91-49.94,18.97-48.88,19.02-47.82z" fill="#252525"></path></g><!---0004-00880002200028--><g><path style="" d="M14.77-67.23c-0.35,1.33-1.43,2.38-2.62,3.07c-0.19,0.11-0.38,0.21-0.57,0.3c-1.79,0.89-3.86,1.18-5.82,0.8c-1.14-0.21-2.29-0.69-2.99-1.61c-0.75-0.98-0.87-2.28-1.03-3.5c-0.27-1.97-0.73-3.92-1.36-5.81c-0.66-1.96-1.06-3.86-0.86-5.96c0.13-1.29,0.47-2.23,1.54-3.05c1.2-0.9,2.62-1.55,4.13-1.48c0.44,0.02,0.88,0.04,1.31,0.14c1.1,0.25,1.88,1.04,2.55,1.9c0.85,1.09,1.32,2.41,1.79,3.71c0.72,1.93,1.47,3.85,2.41,5.69c0.13,0.27,0.27,0.53,0.41,0.8c0.33,0.64,0.66,1.29,0.89,1.98C14.88-69.28,15.04-68.22,14.77-67.23z" fill="#0B0B0B"></path><path style="" d="M14.77-67.23c-0.35,1.33-1.43,2.38-2.62,3.07c-0.19,0.11-0.38,0.21-0.57,0.3c-0.42-1.84-0.52-3.76-0.61-5.66c-0.04-0.88-0.09-1.76,0.04-2.64c0.04-0.28,0.15-0.61,0.43-0.69c0.1-0.03,0.21-0.01,0.32,0.01c0.67,0.12,1.29,0.34,1.9,0.61c0.33,0.64,0.66,1.29,0.89,1.98C14.88-69.28,15.04-68.22,14.77-67.23z" fill="#252525"></path></g><!---0028-00930004300052--><g><g><path style="" d="M8.18-80.22c0.09,1.11-0.32,2.19-0.68,3.23v0.01c-0.01,0.03-0.02,0.04-0.03,0.07c-0.05,0.16-0.11,0.3-0.15,0.46v0.01c-1,2.99-1.56,6.14-1.36,9.29c0.42,6.43,0.47,12.89,0.43,19.33c-1.21,0.64-2.49,1.15-3.8,1.51C1.56-46,0.51-45.78-0.55-45.65c-1.97,0.25-3.97,0.22-5.92-0.09c-1.05-0.16-2.08-0.41-3.09-0.74c-1.54-0.5-3.03-1.2-4.28-2.22c-1.77-1.45-2.96-3.49-3.74-5.63c-0.66-1.85-1.04-3.78-1.38-5.71c-0.05-0.31-0.11-0.63-0.16-0.94c-0.6-3.5-1.19-6.99-1.79-10.48c-0.24-1.42-0.48-2.85-0.32-4.27v-0.04c0.12-1.02,0.44-2.01,0.83-2.96c0.19-0.47,0.41-0.98,0.66-1.49c0.11-0.24,0.23-0.47,0.36-0.7c0.14-0.26,0.3-0.52,0.46-0.76c0.14-0.21,0.29-0.41,0.46-0.6c0.22-0.29,0.47-0.56,0.75-0.78c0.31-0.25,0.63-0.49,0.97-0.7c0.48-0.31,0.98-0.59,1.5-0.83c0.63-0.29,1.65-0.9,2.35-0.87c1.56,0.06,3.32,2.28,4.44,3.19c1.92,1.55,4.19,2.65,6.6,3.18c0.16,0.04,0.33,0.08,0.5,0.11c0.4,0.07,0.82,0.13,1.23,0.05c0.46-0.09,0.87-0.36,1.24-0.66c0.13-0.11,0.27-0.22,0.39-0.34c0.64-0.56,1.19-1.22,1.63-1.95c0.74-1.21,0.75-2.67,0.83-4.08c1.38,0.19,2.27,1.5,2.98,2.69C7.52-82.32,8.09-81.32,8.18-80.22z" fill="#C9AA93"></path><path style="" d="M8.18-80.22c0.09,1.11-0.32,2.19-0.68,3.23c-0.01,0.03-0.02,0.05-0.03,0.08c-0.05,0.16-0.11,0.31-0.15,0.47c-0.46,1.36-0.82,2.76-1.06,4.17c-0.05,0.26-0.09,0.53-0.12,0.79c-0.05,0.33-0.09,0.67-0.12,1c-0.03,0.26-0.05,0.51-0.06,0.77c-0.05,0.85-0.05,1.71,0,2.56c0.32,4.89,0.42,9.78,0.43,14.68c0.01,0.26,0.01,0.52,0.01,0.79v1.52c0,0.78,0,1.56-0.01,2.34c-1.21,0.64-2.49,1.15-3.8,1.51c-0.02-0.93-0.01-1.88,0.01-2.82c0.01-0.26,0.01-0.52,0.01-0.77c0.01-0.25,0.02-0.49,0.02-0.73c0.01-0.26,0.02-0.51,0.02-0.77c0.03-1.59,0.03-3.18-0.09-4.72c-0.33,1.63-0.65,3.26-0.98,4.9c0,0.01,0,0.02-0.01,0.03c-0.05,0.26-0.1,0.52-0.16,0.78c-0.05,0.25-0.11,0.5-0.17,0.74c-0.07,0.27-0.14,0.53-0.23,0.79C1-48.81,0.97-48.74,0.95-48.67c-0.37,1.06-0.91,2.06-1.5,3.02c-1.97,0.25-3.97,0.22-5.92-0.09c0.18-0.21,0.35-0.39,0.39-0.42c0.06-0.05,0.13-0.1,0.21-0.13c0.1-0.04,0.2-0.05,0.3-0.05c0.36-0.03,0.71-0.05,1.06-0.08c0.14-0.01,0.28-0.02,0.42-0.05c0.97-0.22,1.75-1.27,2.28-2.21c0.16-0.26,0.28-0.51,0.39-0.73c0-0.01,0.01-0.02,0.02-0.03c0.11-0.23,0.21-0.47,0.31-0.71c0.12-0.25,0.24-0.52,0.34-0.78c1.24-3.02,1.97-6.25,2.67-9.46c0.35-1.63,0.64-2.99,0.63-4.66c0-0.98,0.02-1.97,0.07-2.96c0.02-0.4,0.05-0.8,0.1-1.2c0.02-0.26,0.06-0.52,0.1-0.77c0.03-0.17,0.07-0.33,0.11-0.5c0.03-0.14,0.07-0.27,0.11-0.4c0.08-0.27,0.18-0.54,0.27-0.81c0.13-0.35,0.26-0.69,0.39-1.04c0.32-0.89,0.57-1.78,0.81-2.68c0.07-0.27,0.14-0.54,0.21-0.81c0.01-0.03,0.01-0.05,0.02-0.08c0.08-0.33,0.16-0.66,0.19-0.99c0.02-0.21,0.02-0.42-0.02-0.63c-0.09,0.25-0.19,0.5-0.3,0.75c-0.13,0.37-0.28,0.73-0.45,1.09c-0.13,0.32-0.27,0.63-0.43,0.94c-0.03,0.08-0.07,0.17-0.11,0.25c-0.09,0.18-0.2,0.06-0.29-0.12c-0.08-0.16-0.15-0.36-0.18-0.43c-0.04-0.09-0.07-0.17-0.09-0.26c-0.09-0.24-0.15-0.48-0.23-0.71c-0.02-0.06-0.04-0.12-0.06-0.18c-0.09-0.23-0.18-0.47-0.25-0.71c-0.13-0.34-0.26-0.69-0.4-1.02c-0.2-0.53-0.41-1.07-0.61-1.61c0.64-0.56,1.19-1.22,1.63-1.95c0.74-1.21,0.75-2.67,0.83-4.08c1.38,0.19,2.27,1.5,2.98,2.69C7.52-82.32,8.09-81.32,8.18-80.22z" fill="#AC8A76"></path><path style="" d="M0.35-65.71c-0.1,0.32-0.21,0.64-0.33,0.95c-0.1,0.26-0.2,0.51-0.31,0.76c-0.12,0.3-0.26,0.6-0.4,0.89c-0.12,0.26-0.25,0.52-0.39,0.77c-0.66,1.28-1.43,2.51-2.23,3.71c-0.11,0.16-0.21,0.32-0.33,0.48c-0.17,0.25-0.35,0.49-0.56,0.71c-0.09,0.11-0.19,0.21-0.29,0.3c-0.21,0.19-0.44,0.36-0.69,0.5c-0.47,0.28-0.99,0.46-1.53,0.53c-0.77,0.11-1.57,0.02-2.28-0.3c-0.11-0.05-0.22-0.1-0.29-0.19c-0.01-0.01-0.02-0.01-0.02-0.02c-0.09-0.11-0.1-0.27-0.12-0.41c-0.01-0.13-0.02-0.25-0.04-0.38c-0.03-0.33-0.06-0.66-0.1-0.99c-0.02-0.27-0.05-0.53-0.08-0.8c-0.09-0.9-0.18-1.8-0.27-2.71c0,0.04,1.94,0.91,2.19,1.09c0.55,0.4,1.46,1.08,2.18,0.94c0.22-0.04,0.41-0.18,0.59-0.32c0.82-0.64,1.59-1.34,2.31-2.09c0.24-0.25,0.48-0.5,0.7-0.76c0.26-0.3,0.51-0.6,0.75-0.91c0.2-0.25,0.4-0.51,0.58-0.77c0.31-0.43,0.6-0.87,0.88-1.32C0.4-66.02,0.39-65.84,0.35-65.71z" fill="#AC8A76"></path><path style="" d="M-11.06-71.6c0.01,1.61-0.23,3.4-0.63,4.97c-0.27,1.03-0.68,2.03-1.03,3.04c-0.22,0.63-0.44,1.26-0.65,1.89c-0.23,0.66-0.26,1.41-0.93,1.79c-0.42,0.24-0.92,0.29-1.41,0.33c-0.95,0.07-1.94,0.08-2.83-0.27c-0.14-0.06-0.28-0.12-0.42-0.19c-0.05-0.31-0.11-0.63-0.16-0.94c-0.6-3.5-1.19-6.99-1.79-10.48c-0.24-1.42-0.48-2.85-0.32-4.27v-0.04c0.12-1.02,0.44-2.01,0.83-2.96c0.19-0.47,0.41-0.98,0.67-1.49c0.1-0.23,0.22-0.46,0.35-0.69c0.14-0.27,0.3-0.53,0.46-0.77c0.14-0.21,0.29-0.41,0.46-0.6c0.22-0.29,0.47-0.56,0.75-0.78c0.31-0.25,0.63-0.49,0.97-0.7c0.28,0.16,0.53,0.36,0.77,0.57c0.44,0.4,0.84,0.84,1.19,1.31c0.43,0.56,0.8,1.17,1.14,1.8c0.16,0.29,0.31,0.59,0.45,0.9c0.17,0.35,0.34,0.71,0.49,1.07c0.06,0.15,0.13,0.29,0.19,0.44c0.06,0.14,0.11,0.27,0.17,0.41c0.3,0.72,0.57,1.44,0.78,2.19C-11.24-73.94-11.07-72.77-11.06-71.6z" fill="#AC8A76"></path></g><path style="" d="M-1.85-79.09c-0.09,0.19-0.17,0.38-0.27,0.57c-0.25,0.5-0.5,0.99-0.76,1.48c-0.13,0.24-0.26,0.47-0.4,0.7c-0.13,0.25-0.28,0.5-0.42,0.75c-0.04,0.07-0.09,0.15-0.13,0.22c-0.03,0.05-0.06,0.11-0.12,0.15c-0.12,0.08-0.28,0.03-0.41-0.02c-0.6-0.24-1.18-0.5-1.73-0.78c-0.01,0-0.01,0-0.01,0c-0.71-0.37-1.38-0.78-2.02-1.25c-0.57-0.42-1.11-0.88-1.63-1.41c-0.15-0.14-0.29-0.29-0.43-0.45c-0.55-0.61-1.06-1.27-1.51-1.96c-0.26-0.4-0.72-1.73-1.22-1.78c-0.11-0.01-0.22,0.02-0.33,0.06c-0.57,0.21-1.08,0.53-1.54,0.93c-0.39,0.35-0.74,0.75-1.05,1.18c-0.04,0.06-0.09,0.13-0.13,0.19c-0.1,0.15-0.19,0.3-0.28,0.45c-0.18,0.3-0.35,0.62-0.49,0.94c-0.12,0.23-0.22,0.45-0.31,0.69c-0.18,0.39-0.33,0.79-0.49,1.18c-0.16,0.4-0.32,0.8-0.4,1.22c-0.23,1.15-0.57,2.32-0.57,3.49c-1.04-0.94-1.96-2.01-2.73-3.19v-0.04c0.12-1.02,0.44-2.01,0.83-2.96c0.19-0.47,0.41-0.98,0.67-1.49c0.1-0.23,0.22-0.46,0.35-0.69c0.14-0.27,0.3-0.53,0.46-0.77c0.14-0.21,0.29-0.41,0.46-0.6c0.22-0.29,0.47-0.56,0.75-0.78c0.31-0.25,0.63-0.49,0.97-0.7c0.48-0.31,0.98-0.59,1.5-0.83c0.63-0.29,1.65-0.9,2.35-0.87c1.56,0.06,3.32,2.28,4.44,3.19C-6.53-80.72-4.26-79.62-1.85-79.09z" fill="#AC8A76"></path><g><path style="" d="M0.057-80.335c-0.144,0.075-0.293,0.141-0.447,0.193c-0.057,0.019-0.116,0.036-0.176,0.037c-0.081,0.001-0.159-0.026-0.235-0.054c-0.716-0.257-1.362-0.47-1.985-0.928c-0.061-0.047-0.139-0.098-0.208-0.065c-0.04,0.019-0.063,0.062-0.083,0.103c-0.332,0.673-0.622,1.368-0.867,2.077c1.125,0.574,2.297,1.096,3.546,1.284c0.1,0.015,0.201,0.028,0.301,0.015c0.118-0.015,0.229-0.064,0.337-0.115c1.025-0.485,1.968-1.145,2.773-1.944C3.04-79.76,3.07-79.79,3.081-79.829c0.01-0.034,0.005-0.071-0.001-0.107c-0.119-0.721-0.294-1.576-0.67-2.21c-0.602,0.457-1.069,1.013-1.707,1.423C0.492-80.587,0.28-80.451,0.057-80.335z" fill="#AC8A76"></path><path style="" d="M-1.879-80.007c-0.165,0.449-0.263,0.817-0.308,1.293c-0.119-0.013-0.236-0.045-0.344-0.096c0.062-0.463,0.169-0.92,0.319-1.363C-2.127-80.103-1.986-80.028-1.879-80.007z" fill="#C9AA93"></path><path style="" d="M-0.429-79.594c-0.005,0.432-0.036,0.85-0.055,1.282c-0.4-0.032-0.775-0.139-1.164-0.239c0.006-0.438,0.031-0.939,0.113-1.37c0.364,0.064,0.737,0.237,1.081,0.28C-0.463-79.633-0.421-79.602-0.429-79.594z" fill="#C9AA93"></path><path style="" d="M1.896-79.531c0.009,0.035-0.019,0.067-0.046,0.091c-0.228,0.213-0.445,0.367-0.687,0.563c-0.064-0.497-0.062-0.873-0.234-1.344c0.267-0.145,0.46-0.402,0.707-0.579C1.828-80.397,1.784-79.964,1.896-79.531z" fill="#C9AA93"></path><path style="" d="M0.61-78.655c0.012-0.01,0.03,0.007,0.028,0.023c-0.003,0.015-0.017,0.025-0.03,0.034c-0.189,0.123-0.373,0.2-0.587,0.271c0.054-0.447,0.063-0.899,0.025-1.347c0.201-0.107,0.371-0.194,0.572-0.301C0.669-79.55,0.635-79.083,0.61-78.655z" fill="#C9AA93"></path></g><g><path style="" d="M-2.229-48.671c-3.365,0-6.729-0.654-9.833-1.969l0.293-0.69c6.427,2.723,14.012,2.524,20.29-0.532l0.328,0.674C5.41-49.514,1.59-48.671-2.229-48.671z" fill="#F2EAE6"></path></g><g><path style="" d="M-2.121-50.127c-2.484,0-4.897-0.414-7.075-1.223c-0.264-0.098-0.525-0.202-0.786-0.306c-0.494-0.197-1.005-0.4-1.515-0.552l0.214-0.719c0.542,0.161,1.069,0.371,1.579,0.574c0.256,0.102,0.512,0.204,0.77,0.299c2.672,0.992,5.719,1.366,8.808,1.084c2.827-0.258,5.73-1.054,8.631-2.365l0.309,0.684c-2.977,1.345-5.961,2.163-8.871,2.429C-0.75-50.159-1.438-50.127-2.121-50.127z" fill="#F2EAE6"></path></g><g><path style="" d="M-1.716-55.652c-3.532,0-7.054-0.814-10.256-1.555l0.169-0.73c4.191,0.969,8.941,2.069,13.453,1.247c2.226-0.405,4.374-1.271,6.451-2.108l0.28,0.695c-2.112,0.852-4.295,1.732-6.597,2.151C0.625-55.742-0.546-55.652-1.716-55.652z" fill="#F2EAE6"></path></g><g><path style="" d="M-1.841-57.327c-0.582,0-1.174-0.022-1.778-0.066c-2.352-0.171-4.816-0.653-7.988-1.562l0.207-0.721c3.12,0.894,5.537,1.368,7.835,1.535c2.883,0.21,5.511-0.098,7.81-0.917c1.097-0.39,2.159-0.912,3.153-1.413l0.338,0.67c-1.015,0.512-2.101,1.045-3.239,1.45C2.583-57.67,0.458-57.327-1.841-57.327z" fill="#F2EAE6"></path></g><g><path style="" d="M-2.708-62.287c-3.066,0-6.131-0.433-9.054-1.301l0.214-0.719c5.822,1.728,12.224,1.691,18.027-0.103L6.7-63.693C3.67-62.756,0.48-62.287-2.708-62.287z" fill="#F2EAE6"></path></g><g><path style="" d="M-2.167-63.944c-3.29,0-6.582-0.495-9.698-1.483l0.227-0.715c5.768,1.828,12.151,1.928,17.974,0.283l0.204,0.722C3.724-64.341,0.779-63.944-2.167-63.944z" fill="#F2EAE6"></path></g><g><path style="" d="M-1.192-69c-3.161,0-6.324-0.37-9.394-0.73l-6.048-0.708l0.087-0.745l6.048,0.708c3.435,0.403,6.988,0.82,10.495,0.707c2.385-0.076,4.771-0.397,7.094-0.954l0.175,0.729c-2.372,0.568-4.809,0.896-7.244,0.974C-0.384-69.006-0.788-69-1.192-69z" fill="#F2EAE6"></path></g><g><path style="" d="M-0.823-70.514c-0.779,0-1.556-0.035-2.315-0.07c-3.354-0.151-6.464-0.536-9.756-0.942c-1.536-0.19-3.085-0.381-4.671-0.548l0.079-0.746c1.59,0.168,3.143,0.36,4.684,0.55c3.277,0.405,6.373,0.787,9.698,0.938c1.135,0.051,2.311,0.105,3.454,0.036c1.534-0.091,3.073-0.402,4.562-0.703l2.207-0.445l0.148,0.735l-2.207,0.445c-1.514,0.306-3.08,0.622-4.665,0.716C-0.01-70.523-0.417-70.514-0.823-70.514z" fill="#F2EAE6"></path></g><g><path style="" d="M7.63-76.55c-0.1,0.03-0.21,0.07-0.31,0.1v0.01c-0.61,0.19-1.22,0.43-1.82,0.66c-1.26,0.48-2.57,0.99-3.94,1.19c-0.53,0.08-1.07,0.11-1.6,0.11c-1.21,0-2.44-0.17-3.68-0.36c-1.75-0.27-3.6-0.59-5.36-1.22c-0.42-0.15-0.83-0.31-1.24-0.47c-0.69-0.28-1.4-0.57-2.12-0.76c-0.5-0.13-1.03-0.22-1.54-0.31c-0.51-0.08-1.04-0.17-1.56-0.3c-1.56-0.4-3.02-1.22-4.2-2.32c0.11-0.24,0.23-0.47,0.36-0.7c1.12,1.1,2.52,1.9,4.03,2.29c0.48,0.12,1,0.21,1.5,0.3c0.52,0.08,1.06,0.18,1.6,0.32c0.76,0.2,1.5,0.49,2.21,0.78c0.4,0.16,0.8,0.32,1.21,0.47c1.7,0.6,3.51,0.91,5.22,1.18c1.74,0.27,3.43,0.49,5.06,0.25c1.29-0.19,2.5-0.66,3.78-1.15c0.71-0.28,1.44-0.56,2.18-0.79l0.09,0.28v0.01L7.63-76.55z" fill="#F2EAE6"></path></g><g><path style="" d="M7.06-78.17c-1.89,0.81-4.03,1.73-6.32,1.96c-0.44,0.05-0.89,0.07-1.33,0.07c-1.25,0-2.47-0.16-3.56-0.32c-1.49-0.22-3.08-0.49-4.61-1.02c-0.62-0.22-1.24-0.48-1.83-0.74c-0.72-0.3-1.46-0.62-2.2-0.85c-0.45-0.14-0.9-0.25-1.35-0.36c-0.61-0.15-1.25-0.3-1.86-0.53c-1.06-0.39-2.06-0.98-2.92-1.72c0.14-0.21,0.29-0.41,0.46-0.6c0.8,0.71,1.72,1.26,2.72,1.62c0.57,0.21,1.19,0.36,1.78,0.5c0.46,0.12,0.93,0.23,1.39,0.38c0.78,0.24,1.54,0.56,2.27,0.87c0.58,0.25,1.19,0.51,1.79,0.72c1.46,0.51,3.01,0.78,4.47,0.99c1.42,0.21,3.08,0.41,4.71,0.25c2.17-0.23,4.25-1.12,6.1-1.9L7.06-78.17z" fill="#F2EAE6"></path></g><g><path style="" d="M-1.4-49.44c0.88-0.02,1.77-0.1,2.64-0.23c-0.07,0.27-0.14,0.53-0.23,0.79c-0.94,0.13-1.88,0.19-2.82,0.2c0.16-0.26,0.28-0.51,0.39-0.73C-1.42-49.42-1.41-49.43-1.4-49.44z" fill="#D8D7D7"></path><path style="" d="M8.85-51.19c-0.8,0.39-1.62,0.73-2.45,1.03c-1.24,0.45-2.51,0.79-3.8,1.03c0.01-0.26,0.01-0.52,0.01-0.77c1.29-0.24,2.56-0.6,3.79-1.07c0.72-0.25,1.43-0.55,2.12-0.89L8.85-51.19z" fill="#D8D7D7"></path></g><g><path style="" d="M-0.13-50.97c0.57-0.05,1.13-0.13,1.7-0.22c-0.05,0.26-0.1,0.52-0.16,0.78c-0.49,0.08-0.98,0.14-1.47,0.19c-0.34,0.03-0.69,0.05-1.03,0.07c0.12-0.25,0.24-0.52,0.34-0.78C-0.55-50.94-0.34-50.95-0.13-50.97z" fill="#D8D7D7"></path><path style="" d="M8.81-52.65c-0.8,0.36-1.61,0.69-2.41,0.97c-1.26,0.45-2.52,0.8-3.77,1.05c0.01-0.26,0.02-0.51,0.02-0.77c1.24-0.25,2.49-0.61,3.74-1.07c0.7-0.25,1.41-0.54,2.11-0.86L8.81-52.65z" fill="#D8D7D7"></path></g><g><path style="" d="M-5.18-56.64c-0.47,0.28-0.99,0.46-1.53,0.53c-0.87-0.14-1.73-0.31-2.57-0.49c-0.92-0.2-1.82-0.41-2.69-0.61l0.17-0.73c0.76,0.18,1.55,0.36,2.34,0.53C-8.06-57.11-6.63-56.83-5.18-56.64z" fill="#D8D7D7"></path></g><g><path style="" d="M-3.64-58.15c-0.17,0.25-0.35,0.49-0.56,0.71c-1.64-0.15-3.36-0.46-5.36-0.96c-0.65-0.17-1.33-0.35-2.05-0.56l0.21-0.72c0.61,0.18,1.2,0.34,1.76,0.48C-7.37-58.62-5.46-58.29-3.64-58.15z" fill="#D8D7D7"></path></g><g><path style="" d="M-0.69-63.11c-0.12,0.26-0.25,0.52-0.39,0.77c-0.52,0.04-1.04,0.05-1.56,0.05c0.24-0.25,0.48-0.5,0.7-0.76C-1.52-63.06-1.11-63.08-0.69-63.11z" fill="#D8D7D7"></path></g><g><path style="" d="M0.02-64.76c-0.1,0.26-0.2,0.51-0.31,0.76c-0.3,0.02-0.6,0.04-0.9,0.04c0.2-0.25,0.4-0.51,0.58-0.77C-0.4-64.74-0.19-64.75,0.02-64.76z" fill="#D8D7D7"></path></g><g><path style="" d="M7.26-69.99c-0.43,0.1-0.86,0.2-1.3,0.28c-1.07,0.22-2.15,0.39-3.24,0.5c0.02-0.26,0.06-0.52,0.1-0.77c1.07-0.11,2.14-0.28,3.2-0.5c0.36-0.08,0.71-0.16,1.07-0.24L7.26-69.99z" fill="#D8D7D7"></path></g><g><path style="" d="M7.27-71.71l-1.13,0.23l-1.08,0.22c-0.66,0.13-1.34,0.27-2.02,0.38c0.08-0.27,0.18-0.54,0.27-0.81c0.54-0.1,1.07-0.2,1.6-0.31l1.35-0.27l0.86-0.17L7.27-71.71z" fill="#D8D7D7"></path></g><g><path style="" d="M-12.34-77.26c-0.03-0.01-0.07-0.02-0.1-0.03c-0.5-0.13-1.03-0.22-1.54-0.31c-0.51-0.08-1.04-0.17-1.56-0.3c-0.51-0.14-1.02-0.31-1.5-0.53c-0.99-0.44-1.9-1.04-2.69-1.79c0.1-0.23,0.22-0.46,0.35-0.69c0.77,0.75,1.67,1.36,2.65,1.79c0.45,0.21,0.91,0.37,1.38,0.49c0.48,0.12,1,0.21,1.5,0.3c0.38,0.06,0.76,0.13,1.15,0.22c0.06,0.15,0.13,0.29,0.19,0.44C-12.45-77.53-12.4-77.4-12.34-77.26z" fill="#D8D7D7"></path><path style="" d="M-6.09-76.02c0.8,0.17,1.61,0.3,2.39,0.43c-0.04,0.07-0.09,0.15-0.13,0.22c-0.03,0.05-0.06,0.11-0.12,0.15c-0.12,0.08-0.28,0.03-0.41-0.02C-4.96-75.48-5.54-75.74-6.09-76.02z" fill="#D8D7D7"></path><path style="" d="M3.06-75.7c0.37-0.11,0.73-0.24,1.1-0.38c-0.13,0.32-0.27,0.63-0.43,0.94c-0.13,0.05-0.27,0.09-0.4,0.13c-0.08-0.16-0.15-0.36-0.18-0.43C3.11-75.53,3.08-75.61,3.06-75.7z" fill="#D8D7D7"></path><path style="" d="M7.63-76.55c-0.1,0.03-0.21,0.07-0.31,0.11c-0.61,0.19-1.22,0.43-1.82,0.66c-0.33,0.12-0.66,0.25-0.99,0.37c0.07-0.27,0.14-0.54,0.21-0.81c0.01-0.03,0.01-0.05,0.02-0.08c0.16-0.06,0.33-0.12,0.49-0.18c0.71-0.28,1.44-0.56,2.18-0.79l0.09,0.28L7.63-76.55z" fill="#D8D7D7"></path></g><g><path style="" d="M-13.19-79.18c-0.32-0.1-0.63-0.17-0.95-0.25c-0.61-0.15-1.25-0.3-1.86-0.53c-0.08-0.03-0.16-0.06-0.24-0.1c-0.98-0.38-1.89-0.93-2.68-1.62c0.14-0.21,0.29-0.41,0.46-0.6c0.77,0.68,1.67,1.23,2.63,1.58c0.03,0.02,0.06,0.03,0.09,0.04c0.57,0.21,1.19,0.36,1.78,0.5c0.11,0.03,0.21,0.05,0.32,0.08C-13.48-79.79-13.33-79.49-13.19-79.18z" fill="#D8D7D7"></path><path style="" d="M-4.04-77.2c0.37,0.06,0.76,0.11,1.16,0.16c-0.13,0.24-0.26,0.47-0.4,0.7c-0.3-0.04-0.59-0.08-0.87-0.12c-1.28-0.19-2.64-0.42-3.97-0.81c-0.57-0.42-1.11-0.88-1.63-1.41c0.41,0.18,0.83,0.34,1.24,0.49C-7.05-77.68-5.5-77.41-4.04-77.2z" fill="#D8D7D7"></path><path style="" d="M4.93-77.29c0.02-0.21,0.02-0.42-0.02-0.63c-0.09,0.25-0.19,0.5-0.3,0.75c-0.59,0.22-1.21,0.42-1.84,0.58c-0.09-0.23-0.18-0.47-0.25-0.71c1.5-0.38,2.93-0.99,4.25-1.55l0.29,0.68C6.38-77.88,5.67-77.57,4.93-77.29z" fill="#D8D7D7"></path></g><g><path style="" d="M11.04-57.25c0.02,2.58-0.04,5.18-0.52,7.72c-0.31,1.64-0.92,3.4-2.37,4.22c-0.72,0.41-1.57,0.53-2.4,0.65c-0.14,0.02-0.29,0.03-0.44,0.01c-0.2-0.01-0.38-0.08-0.48-0.25c-0.08-0.12-0.08-0.27-0.09-0.41c-0.08-1.84-0.15-3.68-0.24-5.51c-0.07-1.62,0.12-3.17,0.03-4.77c-0.2-3.69-0.42-7.38-0.4-11.08c0.01-2.59,0.08-5.26,1.18-7.6c0.65-1.38,1.62-2.56,2.59-3.74c0.06-0.07,0.13-0.15,0.22-0.18c0.23-0.08,0.44,0.17,0.55,0.38c1.03,2.02,1.21,4.53,1.47,6.76c0.02,0.14,0.03,0.27,0.05,0.4c0.36,2.83,0.59,5.68,0.72,8.53C10.98-60.5,11.02-58.88,11.04-57.25z" fill="#323232"></path><path style="" d="M10.14-71.05c-0.13-0.21-0.27-0.41-0.43-0.59c-0.29-0.34-0.74-0.65-1.14-0.46c-0.21,0.1-0.34,0.31-0.45,0.52c-2.37,4.34-3.03,9.4-3.09,14.34c-0.05,4.2,0.3,8.39,0.28,12.59c-0.2-0.01-0.38-0.08-0.48-0.25c-0.08-0.12-0.08-0.27-0.09-0.41c-0.08-1.84-0.15-3.68-0.24-5.51c-0.07-1.62,0.12-3.17,0.03-4.77c-0.2-3.69-0.42-7.38-0.4-11.08c0.01-2.59,0.08-5.26,1.18-7.6c0.65-1.38,1.62-2.56,2.59-3.74c0.06-0.07,0.13-0.15,0.22-0.18c0.23-0.08,0.44,0.17,0.55,0.38C9.7-75.79,9.88-73.28,10.14-71.05z" fill="#181818"></path><path style="" d="M11.16-76c-0.4,0.73-0.83,0.98-1.54,1.35c-1.09,0.57-2.06,2.09-2.71,3.1c-0.79,1.24-1.4,2.61-1.73,4.04C5-66.69,4.89-65.85,4.79-65.02c-0.24,2.21-0.38,4.42-0.4,6.64l-0.03-0.21c-0.4-3.48-0.43-6.99-0.21-10.48c0.03-0.49,0.07-0.97,0.13-1.45c0.31-2.85,1.02-5.51,1.92-8.27c0.31-0.98,0.64-2.17,0.38-3.15c-0.24-0.93-0.97-1.65-1.72-2.24c-0.18-1.09-0.49-2.12-1.06-3.07c0.73,0.52,1.48,0.99,2.23,1.48c0.96,0.62,1.91,1.24,2.8,1.99C10.82-82.11,12.57-78.55,11.16-76z" fill="#323232"></path><path style="" d="M6.56-76.66c-0.94,1.97-1.7,4.03-2.28,6.14c0.31-2.85,1.02-5.51,1.92-8.27c0.31-0.98,0.64-2.17,0.38-3.15c-0.24-0.93-0.97-1.65-1.72-2.24c-0.18-1.09-0.49-2.12-1.06-3.07c0.73,0.52,1.48,0.99,2.23,1.48c0.32,0.32,0.64,0.66,0.91,1.03C8.84-82.13,7.81-79.26,6.56-76.66z" fill="#181818"></path></g><g><path style="" d="M-6.5-45.54c-0.01,0.29-0.09,0.97-0.23,1.22c-0.13,0.26-0.41,0.46-0.69,0.4c-0.49,0.08-1,0.02-1.5-0.12c-0.16-0.04-0.32-0.09-0.48-0.15c-0.6-0.21-1.18-0.5-1.7-0.76c-3.193-1.597-9.505-1.544-11.196-5.316c-0.265-0.592-0.346-1.247-0.422-1.891c-0.51-4.307-1.178-8.673-1.396-13.006c-0.152-3.02-0.611-6.932,0.464-9.827c0.39-1.05,1.11-1.94,1.48-3c0.15-0.43,0.27-0.92,0.66-1.16c0.41-0.24,0.84,0,1.11,0.33c0.25,0.31,0.28,0.54,0.53,0.79c0.06,0.08,0.15,0.15,0.26,0.23c0.93,0.66,1.91,1.25,2.91,1.79c1,0.54,2.04,1.03,2.98,1.67c2.59,1.75,4.35,4.54,5.36,7.5c1.01,2.96,1.49,6.67,1.69,9.79C-6.39-52.9-6.39-49.69-6.5-45.54z" fill="#181818"></path><path style="" d="M-8.48-50.33c-0.07,1.98-0.42,3.88-0.85,5.81c-0.02,0.11-0.04,0.22-0.07,0.33c-0.6-0.21-1.18-0.5-1.7-0.76c-0.44-0.22-0.87-0.42-1.31-0.6c-0.7-1.89-1.17-3.87-1.49-5.86c-0.14-0.82-0.24-1.65-0.23-2.48c0-0.72,0.09-1.43,0.19-2.15c0.31-2.42,0.63-4.87,1.42-7.19c0.19-0.563,0.445-1.357,0.919-1.748c0.088-0.073,0.191-0.137,0.305-0.143c0.249-0.014,0.423,0.237,0.531,0.462c0.744,1.548,1.027,3.489,1.387,5.168c0.403,1.88,0.701,3.783,0.839,5.701C-8.46-52.64-8.43-51.48-8.48-50.33z" fill="#323232"></path><path style="" d="M-6.5-45.54c-0.01,0.29-0.09,0.97-0.23,1.22c-0.13,0.26-0.41,0.46-0.69,0.4c-0.49,0.08-1,0.02-1.5-0.12c0.11-0.94,0.45-1.95,0.55-2.49c0.43-2.3,0.56-4.65,0.5-6.98C-7.9-54.85-8-56.18-8.14-57.5c-0.53-4.95-1.75-9.97-4.67-14c-1.54-2.13-3.53-3.93-5.8-5.25c-0.37-0.21-0.75-0.42-1.02-0.76c-0.12-0.15-0.21-0.34-0.24-0.52c0.06,0.08,0.15,0.15,0.26,0.23c0.93,0.66,1.91,1.25,2.91,1.79c1,0.54,2.04,1.03,2.98,1.67c2.59,1.75,4.35,4.54,5.36,7.5c1.01,2.96,1.49,6.67,1.69,9.79C-6.39-52.9-6.39-49.69-6.5-45.54z" fill="#323232"></path></g><g><path style="" d="M-0.64-80.06c-0.05,0.05-0.13,0.03-0.19,0C-0.89-80.08-0.94-80.1-1-80.13c-0.48-0.19-0.92-0.44-1.35-0.73c-0.19,0.76-0.43,1.5-0.73,2.23c-0.14,0.34-0.54,1.69-0.97,1.7c-0.04,0-0.07-0.01-0.11-0.02c-0.1-0.02-0.19-0.06-0.28-0.11c-1.81-0.94-3.5-1.99-5.01-3.27c-0.83-0.7-1.62-1.47-2.34-2.33c-0.45-0.54-0.94-1.03-1.4-1.56c-0.29-0.34-0.6-0.7-0.72-1.14c-0.13-0.46,0.16-0.67,0.46-1c0.65-0.71,1.16-1.55,1.5-2.44c0.12-0.31,0.24-0.58,0.44-0.84c0.01,0,0.03,0.01,0.04,0.01c0.25,0.06,0.44,0.01,0.67,0.19c0.14,0.11,0.22,0.26,0.31,0.41c0.61,0.94,1.27,1.57,2.25,2.11c0.96,0.53,1.96,1.01,2.99,1.41c0.72,0.29,1.45,0.55,2.19,0.77c0.43,0.13,0.81,0.28,1.18,0.53c0.08,0.05,0.15,0.1,0.2,0.16c0.06,0.08,0.09,0.17,0.12,0.26c0.36,1.18,0.73,2.33,0.94,3.55C-0.61-80.18-0.6-80.1-0.64-80.06z" fill="#F2F2F2"></path><path style="" d="M-7.23-85.09c-0.13,0.65-0.27,1.29-0.4,1.93c-0.04,0.22-0.08,0.43-0.17,0.63c-0.08,0.19-0.2,0.37-0.32,0.54c-0.09,0.12-0.71,0.88-1.33,1.66c-0.83-0.7-1.62-1.47-2.34-2.33c-0.45-0.54-0.94-1.03-1.4-1.56c-0.29-0.34-0.6-0.7-0.72-1.14c-0.13-0.46,0.16-0.67,0.46-1c0.65-0.71,1.16-1.55,1.5-2.44c0.12-0.31,0.24-0.58,0.44-0.84c0.01,0,0.03,0.01,0.04,0.01c0.04,0.17,0.06,0.34,0.11,0.51c0.13,0.45,0.42,0.84,0.72,1.2c0.89,1.1,1.95,2.13,3.28,2.59c0.04,0.02,0.09,0.03,0.11,0.07C-7.21-85.22-7.22-85.15-7.23-85.09z" fill="#D8D8D8"></path><path style="" d="M-1-80.13c-0.48-0.19-0.92-0.44-1.35-0.73c0.04-0.2,0.09-0.41,0.12-0.59c0.09-0.49,0.18-0.98,0.24-1.47c0-0.02,0.01-0.04,0.05-0.07c0.03,0,0.07,0.05,0.09,0.09c0.24,0.63,0.46,1.28,0.63,1.94C-1.15-80.68-1.07-80.41-1-80.13z" fill="#B2B2B2"></path></g><g><path style="" d="M4.91-83.69c0.03,0.6-0.02,1.19-0.12,1.79c-0.06,0.41-0.15,0.82-0.24,1.23c-0.2,0.94-0.43,1.9-0.9,2.74c-0.08,0.16-0.19,0.32-0.34,0.43c-0.13-0.48-0.28-0.96-0.44-1.43c-0.31-0.91-0.62-1.81-1.05-2.67c0,0.01-0.01,0.03-0.03,0.05c-0.16,0.19-0.92,0.71-1.02,0.77c-0.19,0.13-0.38,0.25-0.58,0.37c0,0,0,0-0.01,0.01c-0.09,0.03-0.58,0.24-0.59,0.28c0.31-1.19,0.45-2.42,0.49-3.64c0.01-0.17,0.02-0.35,0.14-0.45c0.05-0.04,0.12-0.07,0.18-0.09c0.31-0.13,0.61-0.28,0.87-0.49c0.1-0.07,0.48-0.34,0.55-0.51c0.04-0.07,0.02-0.13-0.08-0.15c-0.61-0.14-1.22-0.23-1.85-0.22c-0.02,0-0.06,0-0.08-0.02c-0.01-0.01-0.01-0.03-0.02-0.04c-0.06-0.23-0.1-0.46-0.14-0.69c-0.1-0.69-0.11-1.4-0.25-2.07c0-0.05-0.01-0.09-0.02-0.13c0.02,0.11,1.27,0.14,2.14,0.15c0.41,0.01,0.74,0.01,0.8,0.01c0.1,0,0.21,0.01,0.31,0.05c0.11,0.05,0.2,0.13,0.28,0.22c0,0.01,0,0.01,0.01,0.02c0.31,0.32,0.69,0.65,0.93,1.02c0.24,0.39,0.41,0.81,0.57,1.23C4.69-85.19,4.87-84.48,4.91-83.69z" fill="#F2F2F2"></path><path style="" d="M1.79-81.55c-0.16,0.19-0.92,0.71-1.02,0.77c-0.19,0.13-0.38,0.25-0.58,0.37c0,0,0,0-0.01,0.01c0.07-0.28,0.15-0.56,0.22-0.85c0.17-0.76,0.28-1.53,0.33-2.31c0.15,0.05,0.23,0.19,0.3,0.33C1.32-82.69,1.58-82.13,1.79-81.55z" fill="#B2B2B2"></path><path style="" d="M4.91-83.69c0.03,0.6-0.02,1.19-0.12,1.79c-0.32-1.16-0.83-2.26-1.51-3.26c-0.13-0.2-0.27-0.4-0.34-0.62C2.91-85.92,2.9-86.06,2.9-86.2c-0.01-0.36-0.02-0.72-0.02-1.09c0-0.26-0.07-0.64,0.03-0.9c0,0.01,0,0.01,0.01,0.02c0.31,0.32,0.69,0.65,0.93,1.02c0.24,0.39,0.41,0.81,0.57,1.23C4.69-85.19,4.87-84.48,4.91-83.69z" fill="#D8D8D8"></path><path style="" d="M1.85-85.32c-0.01,0.01-0.02,0.02-0.03,0.02c0.04-0.07,0.02-0.13-0.08-0.15c-0.61-0.14-1.22-0.23-1.85-0.22c-0.02,0-0.06,0-0.08-0.02c-0.01-0.01-0.01-0.03-0.02-0.04c-0.06-0.23-0.1-0.46-0.14-0.69c-0.1-0.69-0.11-1.4-0.25-2.07c0-0.041-0.008-0.084-0.019-0.124c0.108,0.067,0.245,0.044,0.367,0.086c-0.021-0.007-0.047,0.011-0.047,0.033c0.085,0.15,0.275,0.197,0.443,0.233c0.436,0.091,0.87,0.192,1.301,0.304c0.097,0.025,0.195,0.051,0.278,0.108c0.175,0.12,0.188,0.428,0.198,0.621c0.02,0.4,0.04,0.81,0.07,1.22C2-85.8,2.01-85.49,1.85-85.32z" fill="#B2B2B2"></path></g></g><!---0035-00700002400036--><g><path style="" d="M-14.35-56.94c-0.38,2.5-0.27,5.09-1.61,7.24c0.01,0.89,0.02,1.78,0.03,2.67v0.09c0.01,0.45,0.01,0.91-0.13,1.33c-0.12,0.37-0.35,0.69-0.58,0.99c-0.79,1.01-1.78,1.89-2.85,2.58c-0.13,0.75-0.26,1.5-0.4,2.25c-0.02,0.11-0.03,0.22-0.09,0.31c-0.05,0.1-0.14,0.18-0.23,0.25c-1.1,0.9-2.72,1.46-4.13,1.59c-1.5,0.15-3.07-0.19-4.33-1.04c-0.16-0.11-0.32-0.23-0.42-0.4c-0.08-0.15-0.11-0.33-0.12-0.51c-0.1-0.91-0.1-1.65-0.11-2.56c-0.63-0.39-1.17-0.93-1.57-1.55c-0.2-0.32-0.37-0.66-0.42-1.03c-0.05-0.39,0.04-0.78,0.14-1.16c0.2-0.8,0.52-1.45,0.81-2.23c-0.18-0.79-0.68-1.49-0.84-2.29c-0.13-0.59-0.05-1.21,0.04-1.81c0.4-2.74,1.06-5.44,1.98-8.06c0.55-1.58,1.09-3.25,2.16-4.57c0.58-0.73,1.2-1.17,1.89-1.44c0.68-0.26,1.42-0.36,2.25-0.4c0.12-0.01,0.25-0.02,0.38-0.02c1.37-0.04,2.77,0.03,4.07,0.44c1.31,0.42,2.54,1.19,3.31,2.33c0.4,0.59,0.66,1.26,0.85,1.95C-13.77-60.22-14.08-58.7-14.35-56.94z" fill="#323232"></path><path style="" d="M-15.93-47.03v0.09c0.01,0.45,0.01,0.91-0.13,1.33c-0.12,0.37-0.35,0.69-0.58,0.99c-0.74,0.94-1.65,1.77-2.64,2.43c-0.07,0.06-0.14,0.1-0.21,0.15c-0.03,0.17-0.06,0.35-0.09,0.52c-0.1,0.58-0.2,1.15-0.31,1.73c-0.02,0.11-0.03,0.22-0.09,0.31c-0.05,0.1-0.14,0.18-0.23,0.25c-0.24,0.2-0.51,0.38-0.8,0.54c-0.01,0.01-0.02,0.01-0.03,0.02c-1,0.57-2.21,0.93-3.3,1.03c-0.56,0.06-1.14,0.04-1.7-0.05c-0.02,0-0.03-0.01-0.05-0.01c-0.92-0.13-1.81-0.46-2.58-0.98c-0.16-0.11-0.32-0.23-0.42-0.4c-0.08-0.15-0.11-0.33-0.12-0.51c-0.08-0.74-0.1-1.37-0.1-2.07c-0.01-0.16-0.01-0.32-0.01-0.49c-0.09-0.05-0.18-0.11-0.26-0.18c-0.52-0.36-0.97-0.84-1.31-1.37c-0.2-0.32-0.37-0.66-0.42-1.03c-0.05-0.39,0.04-0.78,0.14-1.16c0.2-0.8,0.52-1.45,0.81-2.23c-0.18-0.79-0.68-1.49-0.84-2.29c-0.13-0.59-0.05-1.21,0.04-1.81c0.4-2.74,1.06-5.44,1.98-8.06c0.55-1.58,1.09-3.25,2.16-4.57c0.58-0.73,1.2-1.17,1.89-1.44c0.68-0.26,1.42-0.36,2.25-0.4c-0.13,0.33-0.29,0.65-0.44,0.98c-0.38,0.83-0.69,1.72-1.02,2.58c-0.65,1.73-1.27,3.47-1.84,5.22c-0.32,0.99-0.71,2-0.95,3.01c-0.01,0.05-0.02,0.1-0.03,0.15c-0.08,0.37,0,0.77,0.15,1.12c0.16,0.35,3.32,3.99,3.79,4.78c0.03,0.06,0.06,0.11,0.05,0.17s-0.06,0.11-0.1,0.15c-0.37,0.33-0.74,0.65-1.12,0.96c-0.1,0.08-0.21,0.17-0.33,0.18s-0.24-0.05-0.35-0.1c-0.51-0.25-1.31-0.85-1.89-0.65c-0.27,0.09-0.81,0.12-0.78,0.5c0.02,0.41,0.38,0.93,0.57,1.29c0.33,0.64,0.66,1.28,0.99,1.92c0.1,0.18,0.2,0.37,0.37,0.49c0.2,0.15,0.45,0.18,0.7,0.2c0.98,0.09,1.97,0.18,2.95,0.26c0.52,0.05,1.06,0.1,1.55-0.05c1.03-0.31,2.04-1.14,2.88-1.79C-17.07-45.83-16.46-46.39-15.93-47.03z" fill="#181818"></path><path style="" d="M-19.28-42.19c-0.07,0.06-0.14,0.1-0.21,0.15c-0.03,0.17-0.06,0.35-0.09,0.52c-0.06,0.02-0.11,0.05-0.17,0.07c-1.75,0.74-3.68,1.2-5.55,0.88c-0.5-0.08-0.98-0.22-1.47-0.36c-0.8-0.22-1.59-0.45-2.39-0.68c-0.05-0.01-0.1-0.03-0.15-0.05c-0.01-0.16-0.01-0.32-0.01-0.49c-0.09-0.05-0.18-0.11-0.26-0.18c1.26,0.45,2.54,0.86,3.87,1.09c1.4,0.23,2.86,0.26,4.24-0.12C-20.73-41.55-20-41.85-19.28-42.19z" fill="#020202"></path><path style="" d="M-21.481-56.658c-0.053-0.333-0.102-0.666-0.148-0.998c-0.056-0.411-0.111-0.838,0.012-1.234c0.062,0.03,0.087,0.104,0.106,0.17c0.447,1.582,0.892,3.07,1.787,4.468c0.414,0.648,0.889,1.257,1.417,1.816c0.512,0.542,1.145,0.945,1.665,1.465c0.17,0.123,0.357,0.264,0.389,0.472c0.025,0.166-0.059,0.327-0.14,0.474c-0.213,0.384-0.425,0.769-0.638,1.153c-0.063,0.114-0.132,0.235-0.248,0.296c-0.172,0.091-0.384,0.021-0.558-0.067c-1.274-0.646-1.992-2.24-2.487-3.505C-20.89-53.599-21.235-55.125-21.481-56.658z" fill="#181818"></path><path style="" d="M-20.64-40.96c-0.1,0.05-0.16,1.15-0.2,1.31c-0.06,0.32-0.11,0.66-0.2,0.98c-1,0.57-2.21,0.93-3.3,1.03c-0.58,0.06-1.17,0.04-1.75-0.06c0-0.03-0.01-0.07-0.01-0.1c-0.09-0.94-0.17-1.88-0.26-2.82C-24.46-40.17-22.36-40.05-20.64-40.96z" fill="#323232"></path></g><!---0030-00870002200031--><g><g><g><path style="" d="M-11.54-78.62v0.19c0,0.21,0,0.42-0.01,0.63c-0.01,0.26-0.02,0.52-0.04,0.78c-0.04,0.85-0.15,1.69-0.3,2.53c-0.19,1.08-0.21,1.99-0.83,2.97c-0.07,0.11-0.14,0.21-0.24,0.28c-0.07,0.05-0.16,0.09-0.24,0.11c-1.6,0.55-2.78,0.09-4.13-0.82c-0.65-0.44-1.27-0.92-1.86-1.45c-0.54-0.48-1.04-1-1.51-1.55c-0.24-0.28-0.47-0.57-0.57-0.92c-0.16-0.6,0.1-1.23,0.36-1.8c0.31-0.68,0.63-1.36,0.96-2.03c0.08-0.17,0.16-0.33,0.24-0.5c0.11-0.23,0.23-0.47,0.35-0.7c0.14-0.26,0.29-0.52,0.45-0.77c0.09-0.15,0.19-0.29,0.29-0.42c0,0,0-0.01,0.01-0.01c0.05-0.06,0.1-0.12,0.15-0.18c0.14-0.18,0.28-0.36,0.44-0.52c0.31-0.32,0.67-0.6,1.09-0.75c0.34-0.13,0.72-0.17,1.09-0.15c0.86,0.03,1.69,0.33,2.39,0.84c0.76,0.54,1.36,1.32,1.64,2.21c0.13,0.4,0.2,0.81,0.23,1.22C-11.55-79.16-11.54-78.89-11.54-78.62z" fill="#C9AA93"></path><path style="" d="M-13.45-82.86c-0.38,0.04-0.63,0.08-0.93,0.38c-0.1,0.1-0.19,0.2-0.29,0.3c-0.43,0.46-0.82,0.95-1.18,1.47c-0.15,0.21-0.29,0.42-0.41,0.64c-0.19,0.3-0.36,0.61-0.51,0.93c-0.08,0.12-0.14,0.25-0.2,0.38c-0.05,0.1-0.09,0.2-0.13,0.3c-0.62,1.39-1.07,2.87-1.7,4.27c-0.12,0.27-0.24,0.53-0.39,0.79c-0.54-0.48-1.04-1-1.51-1.55c-0.24-0.28-0.47-0.57-0.57-0.92c-0.16-0.6,0.1-1.23,0.36-1.8c0.31-0.68,0.63-1.36,0.96-2.03c0.08-0.17,0.16-0.33,0.24-0.5c0.11-0.23,0.22-0.46,0.35-0.69c0.14-0.27,0.29-0.53,0.45-0.78c0.09-0.15,0.19-0.29,0.29-0.42c0,0,0-0.01,0.01-0.01c0.05-0.06,0.1-0.12,0.15-0.18c0.14-0.18,0.28-0.36,0.44-0.52c0.31-0.32,0.67-0.6,1.09-0.75c0.34-0.13,0.72-0.17,1.09-0.15C-14.98-83.67-14.15-83.37-13.45-82.86z" fill="#AC8A76"></path><g><path style="" d="M-11.55-77.8c-0.01,0.26-0.02,0.52-0.04,0.78c-0.28-0.1-0.56-0.19-0.85-0.27c-0.5-0.13-1.03-0.22-1.54-0.31c-0.51-0.08-1.04-0.17-1.56-0.3c-1.55-0.4-3-1.21-4.17-2.3c-0.01,0-0.02-0.01-0.03-0.02c0.11-0.24,0.23-0.47,0.36-0.7c0.01,0.01,0.01,0.01,0.02,0.02c1.12,1.09,2.51,1.88,4.01,2.27c0.48,0.12,1,0.21,1.5,0.3c0.52,0.08,1.06,0.18,1.6,0.32C-12.02-77.95-11.78-77.88-11.55-77.8z" fill="#F2EAE6"></path></g><g><path style="" d="M-11.54-78.62c-0.42-0.16-0.83-0.32-1.25-0.45c-0.45-0.14-0.9-0.25-1.35-0.36c-0.61-0.15-1.25-0.3-1.86-0.53c-1.06-0.39-2.05-0.98-2.91-1.71l-0.01-0.01c0.09-0.14,0.19-0.28,0.3-0.41c0,0,0-0.01,0.01-0.01c0.05-0.06,0.1-0.12,0.15-0.18c0.8,0.71,1.72,1.26,2.72,1.62c0.57,0.21,1.19,0.36,1.78,0.5c0.46,0.12,0.93,0.23,1.39,0.38c0.34,0.1,0.67,0.22,0.99,0.35C-11.55-79.16-11.54-78.89-11.54-78.62z" fill="#F2EAE6"></path></g><path style="" d="M-16.77-79.14c-0.08,0.12-0.14,0.25-0.2,0.38c-0.05,0.1-0.09,0.2-0.13,0.3c-0.96-0.43-1.84-1.02-2.61-1.74c-0.01-0.01-0.01-0.01-0.02-0.02c0.1-0.23,0.22-0.46,0.35-0.69c0.01,0.01,0.01,0.01,0.02,0.02C-18.61-80.16-17.73-79.56-16.77-79.14z" fill="#D8D7D7"></path><path style="" d="M-15.85-80.71c-0.15,0.21-0.29,0.42-0.41,0.64c-0.97-0.38-1.87-0.92-2.65-1.6l-0.01-0.01c0.09-0.14,0.19-0.28,0.3-0.41c0,0,0-0.01,0.01-0.01c0.05-0.06,0.1-0.12,0.15-0.18C-17.7-81.6-16.8-81.06-15.85-80.71z" fill="#D8D7D7"></path></g><g><path style="" d="M-12.24-69.39c-0.28,1.5-0.56,2.99-0.83,4.49c-0.11,0.58-0.19,1.23-0.32,1.87c-0.13,0.68-0.32,1.35-0.65,1.91c-1.16,1.96-4.44,2.13-6.44,1.8c-1.7-0.28-3.29-1.16-4.34-2.5c-0.11-0.11-0.2-0.23-0.28-0.35c-1.06-1.53-1.4-3.56-0.81-5.32c0.21-0.65,0.55-1.25,0.88-1.85c0.04-0.08,0.09-0.16,0.13-0.24c1.04-1.88,2.08-3.76,3.14-5.64c0.09-0.17,0.18-0.38,0.27-0.59c0.28-0.61,0.59-1.23,1.25-1.1c0.64,0.12,1.17,0.54,1.75,0.78c0.46,0.19,0.91,0.39,1.37,0.58c0.12,0.05,0.23,0.1,0.35,0.15c0.01,0,0.01,0,0.01,0c0.39,0.17,0.79,0.33,1.18,0.5c0.68,0.29,1.37,0.58,1.97,1c0.61,0.42,1.14,0.98,1.39,1.68C-11.89-71.32-12.06-70.33-12.24-69.39z" fill="#323232"></path><path style="" d="M-17.12-75.55c-0.66,0.81-1.3,1.62-1.41,1.77c-1.69,2.25-3.15,4.67-4.36,7.21c-0.6,1.25-1.13,2.54-1.6,3.85c-0.11,0.29-0.22,0.59-0.33,0.9c-0.11-0.11-0.2-0.23-0.28-0.35c-1.06-1.53-1.4-3.56-0.81-5.32c0.21-0.65,0.55-1.25,0.88-1.85c1.08-1.96,2.17-3.92,3.27-5.88c0.37-0.67,0.63-1.87,1.52-1.69c0.64,0.12,1.17,0.54,1.75,0.78C-18.03-75.94-17.58-75.74-17.12-75.55z" fill="#181818"></path><path style="" d="M-12.24-69.39c-0.28,1.5-0.56,2.99-0.83,4.49c-0.11,0.58-0.19,1.23-0.32,1.87c-0.01-0.07-0.02-0.15-0.02-0.23c-0.03-0.65-0.17-1.29-0.4-1.9c-0.44-1.21-1.18-2.31-2-3.3c-0.51-0.62-1.08-1.23-1.81-1.55c-0.51-0.22-1.07-0.28-1.62-0.31c-1.91-0.1-3.82,0.2-5.66,0.74c1.04-1.88,2.08-3.76,3.14-5.64c0.09-0.17,0.18-0.38,0.27-0.59c0.88-0.01,1.76,0.06,2.63,0.15c0.7,0.07,1.4,0.14,2.09,0.26c0.01,0,0.01,0,0.01,0c0.39,0.17,0.79,0.33,1.18,0.5c0.68,0.29,1.37,0.58,1.97,1c0.61,0.42,1.14,0.98,1.39,1.68C-11.89-71.32-12.06-70.33-12.24-69.39z" fill="#020202"></path></g><g><path style="" d="M-10.71-67.9c-0.04,0.14-0.07,0.27-0.12,0.4c-0.08,0.24-0.19,0.49-0.39,0.64c-0.1,0.08-0.23,0.12-0.34,0.08c-0.07-0.02-0.12-0.08-0.17-0.13c-1.39-1.43-2.87-2.62-4.76-3.35c-1.74-0.68-3.66-0.7-5.52-0.72c-0.78,0-1.55-0.01-2.33-0.01c-0.13,0-0.26,0-0.39-0.04c-0.14-0.04-0.26-0.13-0.38-0.22c-0.29-0.22-0.57-0.47-0.83-0.74c-0.09-0.09-0.18-0.19-0.21-0.32c-0.03-0.13,0.01-0.27,0.05-0.4c0.43-1.37,0.86-2.74,1.28-4.11c0.06-0.18,0.11-0.36,0.23-0.51c0.27-0.36,0.84-0.38,1.18-0.69c0.05-0.51,0.15-1.01,0.29-1.51c0.03-0.09,0.06-0.18,0.13-0.24c0.06-0.06,0.14-0.08,0.22-0.1c0.25-0.07,0.51-0.13,0.76-0.2c0.02,0,0.03-0.01,0.05-0.01c0.42-0.1,0.83-0.21,1.24-0.31c0.12-0.03,0.23-0.06,0.34-0.09c0.1-0.02,0.19-0.05,0.29-0.03c0.21,0.04,0.33,0.25,0.42,0.45c-0.31,0.4-0.48,0.94-0.66,1.41c0.07,0.12,0.16,0.24,0.24,0.35l0.03,0.03c0.13,0.17,0.27,0.32,0.43,0.46c0.16,0.16,0.34,0.3,0.52,0.43c0,0,0.01,0,0.01,0.01c0.16,0.11,0.32,0.22,0.49,0.32c0.13,0.08,0.27,0.16,0.42,0.24c0.12,0.06,0.24,0.13,0.37,0.19c0.33,0.17,0.66,0.33,0.99,0.5c0.84,0.42,1.66,0.89,2.48,1.36c0.78,0.44,1.41,0.97,1.97,1.58c0.47,0.53,0.87,1.19,1.3,1.76c0.08,0.1,0.15,0.2,0.21,0.31c0.08,0.18,0.12,0.38,0.14,0.58C-10.62-69.67-10.53-68.76-10.71-67.9z" fill="#181818"></path><path style="" d="M-10.71-67.9c-0.89-1.71-1.87-3.36-2.93-4.96c-0.17-0.25-0.34-0.51-0.55-0.73c-0.3-0.31-0.67-0.56-1.04-0.8c-1.51-0.99-3.04-1.96-4.57-2.93c-0.29-0.18-0.6-0.38-0.95-0.4c1.06,1.07,2.21,2.06,3.42,2.96c0.98,0.73,2.06,1.41,2.77,2.42c0.02,0.03,0.04,0.07,0.02,0.1c-0.03,0.04-0.09,0.02-0.13-0.01c-0.15-0.11-0.31-0.23-0.46-0.34c-0.57-0.41-1.27-0.72-1.89-1.06c-0.65-0.36-1.3-0.71-1.94-1.09c-1.25-0.75-2.47-1.6-3.44-2.7c-0.03-0.03-0.07-0.08-0.07-0.13c0.01-0.05,0.05-0.1,0.09-0.14c0.26-0.25,0.52-0.51,0.78-0.76c0.05-0.05,0.11-0.11,0.13-0.17c0.02-0.08-0.01-0.17-0.04-0.24c-0.13-0.29-0.53-0.79-0.5-1.19c0.02,0,0.03-0.01,0.05-0.01c0.42-0.1,0.83-0.21,1.24-0.31c-0.03,0.05-0.07,0.09-0.1,0.14c-0.11,0.17-0.22,0.38-0.17,0.58c0.02,0.09,0.06,0.18,0.11,0.26c0.24,0.39,0.5,0.77,0.79,1.11l0.03,0.03c0.13,0.16,0.28,0.31,0.43,0.46c0.16,0.15,0.33,0.3,0.52,0.43c0,0,0.01,0,0.01,0.01c0.16,0.11,0.32,0.22,0.49,0.32c0.13,0.08,0.27,0.16,0.42,0.24c0.12,0.06,0.24,0.13,0.37,0.19c0.33,0.17,0.66,0.33,0.99,0.5c0.84,0.42,1.66,0.89,2.48,1.36c0.78,0.44,1.41,0.97,1.97,1.58c0.47,0.53,0.87,1.19,1.3,1.76c0.08,0.1,0.15,0.2,0.21,0.31c0.08,0.18,0.12,0.38,0.14,0.58C-10.62-69.67-10.53-68.76-10.71-67.9z" fill="#323232"></path><path style="" d="M-19.905-72.069c1.046,0.187,2.097,0.375,3.097,0.734c1.356,0.487,2.582,1.274,3.755,2.111c0.057-0.036,0.014-0.124-0.032-0.173c-0.989-1.067-1.984-2.14-3.136-3.029c-0.284-0.22-0.579-0.429-0.903-0.583c-0.371-0.177-0.773-0.28-1.172-0.381c-0.759-0.193-1.521-0.385-2.3-0.461c-0.779-0.075-1.582-0.029-2.315,0.247c-0.193,0.072-0.384,0.163-0.529,0.311c-0.144,0.147-0.234,0.36-0.19,0.562c0.007,0.031,0.017,0.063,0.039,0.086c0.035,0.037,0.09,0.045,0.141,0.051C-22.258-72.456-21.089-72.28-19.905-72.069z" fill="#323232"></path></g></g></g></svg>