<svg xmlns:xlink="http://www.w3.org/1999/xlink" xmlns="http://www.w3.org/2000/svg" viewBox="-34.43224334716797 -91.77657318115234 58.244693756103516 61.51007080078125" width="164" height="108"><!--00001-00750002600042-->
  
  
  

  
  <g><path style="" d="M8.11-40.453c-0.012,0.65-0.012,1.347,0.352,1.886c0.221,0.328,0.556,0.561,0.891,0.771c2.435,1.521,5.554,2.188,8.223,1.13c0.48-0.19,0.948-0.44,1.305-0.814c0,0,0.957-3.926,0.689-5.406c-0.041-0.225-11.393-2.066-11.393-2.066S8.128-41.391,8.11-40.453z" fill="#161616"></path><path d="M12.144-40.467c3.561,1.496,6.973-0.054,7.341-0.179c0-0.001,0-0.002,0-0.002c0.028-0.202,0.051-0.403,0.072-0.599c0.002-0.019,0.004-0.039,0.006-0.057c0.02-0.198,0.035-0.39,0.044-0.573c0.001-0.016,0.001-0.031,0.001-0.047c0.007-0.155,0.008-0.301,0.005-0.439c-0.001-0.039-0.002-0.077-0.004-0.114c-0.007-0.148-0.018-0.289-0.04-0.408c-0.041-0.225-11.393-2.066-11.393-2.066s-0.049,3.56-0.067,4.498c-0.012,0.65-0.012,1.347,0.352,1.886c0.221,0.328,0.556,0.561,0.891,0.771c0.815,0.509,1.71,0.911,2.636,1.196C12.032-37.96,12.041-39.383,12.144-40.467z"></path><path style="" d="M4.267-67.15c-0.621,2.076-0.32,4.297-0.026,6.442c0.321,2.336,0.628,4.692,0.47,7.044c-0.071,1.058-0.233,2.145,0.07,3.163s1.25,1.951,2.318,1.825c-0.179,0.931-0.358,1.862-0.537,2.792c0.581,1.422,4.184,3.245,6.437,4.013c1.37,0.466,3.35,0.55,4.781,0.322c2.347-0.374,4.071-2.331,5.427-4.257c0.263-0.373,0.527-0.768,0.588-1.218c0.207-1.531-1.872-2.407-2.306-3.89c-0.458-1.566,1.059-3.258,0.467-4.78c-0.223-0.574-0.71-0.999-1.133-1.452c-1.001-1.071-1.565-2.931-2.247-4.222c-0.92-1.744-1.436-2.573-2.803-4.137c-0.701-1.328-1.503-3.217-2.546-4.305C10.143-73.033,5.483-71.21,4.267-67.15z" fill="#161616"></path><path d="M23.798-47.024c0.207-1.531-1.872-2.407-2.306-3.89c-0.457-1.559,1.044-3.245,0.471-4.762c-2.148,1.431-3.987,3.329-5.305,5.55c-0.475,0.8-0.879,1.698-0.575,2.062c0.469,0.432,4.339-0.316,4.48,0.073s-1.755,2.856-2.992,3.975c-0.317,0.287-0.664,0.566-1.08,0.664c-0.536,0.126-1.093-0.07-1.597-0.292c-1.498-0.661-2.879-1.587-4.059-2.723c-0.186-0.179-0.376-0.378-0.432-0.63c-0.08-0.359,0.128-0.711,0.315-1.027c0.945-1.601,2.131-3.446,2.131-3.446s-1.67-1.108-2.439-1.689c-0.769-0.582-1.309-1.506-1.282-2.556c0.046-1.784,0.19-3.566,0.467-5.329c0.304-1.939,0.78-3.879,1.738-5.592c0.579-1.036,1.355-1.983,2.286-2.713c-0.129-0.154-0.249-0.315-0.389-0.461c-3.087-3.223-7.748-1.4-8.963,2.66c-0.621,2.076-0.32,4.297-0.026,6.442c0.321,2.336,0.628,4.692,0.47,7.044c-0.071,1.058-0.426,2.321-0.122,3.258s2.061,2.589,2.061,2.589s-0.443,1.438-0.411,2.261c0.581,1.422,4.508,2.917,6.762,3.684c1.37,0.466,3.35,0.55,4.781,0.322c2.347-0.374,4.071-2.331,5.427-4.257C23.472-46.179,23.737-46.573,23.798-47.024z"></path><path d="M15.607-65.474c-0.428,3.055-2.566,5.255-2.566,5.255s2.322,0.611,3.177-0.917C17.073-62.663,15.607-65.474,15.607-65.474z"></path></g><!---0004-00880002300030--><g><path style="" d="M0.201-74.054c-0.098,0.294-0.029,0.614,0.041,0.915c0.332,1.413,0.691,2.82,1.077,4.219c0.419,1.519,0.882,3.055,1.75,4.371c1.455,2.206,4.049,3.613,6.691,3.631c1.532,0.01,3.903-0.644,4.866-1.835c0.708-0.876,1.164-1.947,1-3.027c-0.164-1.08-0.646-2.282-1.73-3.714c-2.212-3.036-3.495-5.784-4.709-9.238c-0.273-0.776-3.598-5.65-6.197-5.108S-2.239-82.084,0.201-74.054z" fill="#161616"></path><path d="M4.001-63.418c0.111,0.114,0.216,0.234,0.333,0.341c0.177,0.161,0.368,0.308,0.559,0.453c0.065,0.049,0.124,0.105,0.19,0.152c0.237,0.169,0.484,0.323,0.737,0.466c0.026,0.015,0.049,0.032,0.075,0.047c1.127,0.623,2.397,0.988,3.685,1.027c0.006-0.037,0.008-0.075,0.013-0.112c0.304-1.939,0.78-3.879,1.738-5.592c0.63-1.127,1.496-2.143,2.539-2.894c-0.261-0.36-0.508-0.726-0.742-1.098c-1.785-2.634-2.881-5.543-3.944-8.568c-0.273-0.776-2.248-6.791-7.614-4.946c-4.274,1.47-1.401,10.701-1.33,11.002c0.332,1.413,0.691,2.82,1.077,4.219c0.21,0.76,0.43,1.523,0.707,2.262c0.277,0.738,0.609,1.451,1.043,2.109c0.179,0.272,0.377,0.531,0.589,0.778C3.765-63.647,3.886-63.536,4.001-63.418z"></path></g><!---0024-00950003700022--><g><path d="M-20.565-88.556c0.092-0.17,0.234-0.348,0.437-0.534c1.369-1.257,3.324-1.709,5.067-2.089c2.441-0.532,4.957-0.701,7.449-0.538c2.2,0.144,4.361,0.204,6.54,0.665c2.151,0.454,4.288,1.094,6.36,1.794c0.983,0.332,1.908,0.836,2.751,1.438c0.396,0.283,0.833,0.588,1.16,0.952c0.109,0.122,0.709,0.714,0.637,0.872c-1.74,3.79-4.458,7.102-7.934,9.405c-6.167-3.589-12.464-7.179-19.276-9.305C-18.518-86.253-21.334-87.129-20.565-88.556z"></path><path style="" d="M9.199-86.868c-0.327-0.364-0.764-0.669-1.16-0.952c-0.843-0.603-1.768-1.106-2.751-1.438c-2.072-0.7-4.209-1.34-6.36-1.794c-2.179-0.46-4.34-0.521-6.54-0.665c-2.491-0.163-5.008,0.006-7.449,0.538c-1.743,0.38-3.699,0.832-5.067,2.089c-0.203,0.186-0.345,0.364-0.437,0.534c-0.197,0.366-0.156,0.696,0.03,0.99c0.119-0.084,0.227-0.184,0.349-0.264c2.842-1.851,6.337-2.419,9.672-2.514c5.046-0.143,10.119,0.172,14.779,2.288c1.097,0.498,2.155,1.088,3.141,1.781c0.649,0.456,1.255,0.981,1.785,1.57c0.227-0.424,0.444-0.854,0.645-1.292C9.908-86.154,9.308-86.746,9.199-86.868z" fill="#161616"></path></g><!---0027-00930004100058--><g><g><path style="" d="M-18.292-45.318c-0.273,1.959-0.47,4.651-0.209,6.612c5.369,1.317,11.059,0.397,16.35-1.206c4.676-1.417,7.918-2.183,12.06-1.171c0.592-1.868,0.571-3.715-0.057-5.572c-5.32-0.982-9.524-0.784-14.813,0.359c-2.26,0.488-4.479,1.167-6.76,1.545C-14.003-44.373-16.097-44.593-18.292-45.318z" fill="#161616"></path><path style="" d="M9.625-59.451c-0.693-5.222-1.072-8.781-1.457-14.762c-0.147-2.281,0.215-4.903-1.419-6.502c-1.233,0.954-2.465,1.909-3.698,2.863c-0.322,0.249-0.658,0.505-1.056,0.592c-0.646,0.14-1.289-0.194-1.87-0.51c-2.44-1.327-4.977-2.542-7.691-3.132c-3.124-0.68-7.51-1.541-10.201,0.818c-1.732,1.518-2.168,4.272-2.25,6.461c-0.094,2.512,0.407,4.994,0.606,7.488c0.368,4.621,1.443,9.65,0.433,14.259c-0.329,1.502-0.766,2.996-0.811,4.533c-0.046,1.537,0.358,3.168,1.47,4.23c5.101,0.985,10.217-0.308,15.285-1.452c4.697-1.06,8.313-2.1,13.128-1.244C11.341-49.007,9.625-59.451,9.625-59.451z" fill="#232323"></path><path style="" d="M-9.038-53.867c-0.005-3.025,0.925-7.968,0.871-9.023c-0.361-2.893-1.326-5.597-2.078-8.414c-0.613-2.294-1.091-5.306-2.994-6.92c-1.238-1.05-3.817-0.99-5.462-0.72c-0.957,1.544-1.25,3.603-1.315,5.322c-0.094,2.512,0.407,4.994,0.606,7.488c0.368,4.621,1.443,9.65,0.433,14.259c-0.329,1.502-0.766,2.996-0.811,4.533c-0.046,1.537,0.358,3.168,1.47,4.23c3.761,0.726,7.53,0.212,11.283-0.566c1.659-0.822,4.379-4.947,5.638-7.117c1.942-3.349,5.545-10.616,5.665-16.355C1.829-62.197-6.026-55.646-9.038-53.867z" fill="#161616"></path><path style="" d="M7.282-80.064c-1.26,0.865-2.521,1.729-3.781,2.594c-0.427,0.293-0.871,0.593-1.38,0.691c-0.539,0.103-1.092-0.032-1.62-0.178c-1.333-0.367-3.19-1.878-4.476-2.387c-2.152-0.851-3.698-0.829-5.95-1.36c-1.336-0.315-2.715-0.424-4.086-0.355c-0.506,0.215-2.195,0.507-2.838,0.837c-0.681,0.35-1.669,1.05-2.065,1.909c4.39-0.486,9.238-0.191,13.741,1.21c0.131,1.295-0.063,3.348,0.331,4.224c0.134,0.298,0.809,0.56,1.307,0.218s-0.059-2.58-0.004-3.905c1.443,0.625,5.41,3.202,5.664,3.21c0.261,0.009,0.504-0.123,0.731-0.254c0.892-0.516,1.491-1.242,2.331-1.839c0.227,0.737,0.04,1.809,0.74,1.941c0.548,0.103,0.764-0.314,0.76-0.591c-0.01-0.726-0.089-1.411-0.245-2.23c0.394-0.171,1.095-0.599,1.661-1.138C7.999-78.414,7.777-79.312,7.282-80.064z" fill="#161616"></path><path style="" d="M10.894-84.787c-0.63-1.211-1.668-2.303-2.843-3.011c-0.025-0.015-0.055-0.03-0.082-0.017c-0.028,0.014-0.033,0.051-0.035,0.082c-0.048,1.042-0.094,1.991-0.628,2.922c-1.462,2.546-3.317,4.857-5.449,6.874c-0.122-0.083-0.242-0.171-0.356-0.263c-0.915-0.729-1.625-1.678-2.364-2.586c-1.57-1.927-3.374-3.751-5.642-4.768c-1.529-0.686-3.201-0.974-4.853-1.256c-1.529-0.261-3.093-0.27-4.634-0.423c-1.02-0.101-3.19-0.168-3.186-1.572c0.001-0.395,0.145-0.774,0.303-1.136c-1.178,0.191-1.902,0.775-2.72,1.576c-0.187,0.183-0.378,0.389-0.416,0.648c-0.038,0.259,0.086,0.511,0.205,0.744c0.435,0.844,0.942,1.987,0.87,2.349c-0.072,0.362-1.618,1.359-2.381,2.253c0.571,1.115,1.289,2.154,2.131,3.081c0.202,0.222,0.421,0.445,0.702,0.55c0.527,0.197,1.102-0.068,1.614-0.302c5.781-2.64,13.034-1.677,17.926,2.379c0.583,0.484,1.177,0.953,1.834,1.33c0.945,0.542,1.317,0.738,2.817-0.775c1.345-1.053,3.31-2.733,4.655-3.854c1.227-1.024,2.548-2.217,2.693-3.808C11.086-84.117,11.055-84.478,10.894-84.787z" fill="#232323"></path><path d="M-15.564-50.749c0.151-0.08,0.297-0.17,0.437-0.267c1.152-0.801,1.915-2.068,2.358-3.399c0.565-1.697,0.708-3.53,0.872-5.298c0.786,0.904,1.476,1.242,2.097,1.686c-0.343-2.98-1.076-5.2-1.961-8.072c-0.12-0.388-0.24-0.782-0.255-1.188c-0.018-0.488,0.118-0.966,0.224-1.442c0.59-2.654,0.264-6.982-1.894-8.923c-1.2-1.079-2.879-1.431-4.485-1.583c-0.106-0.01-0.213-0.015-0.319-0.023c-1.127,1.569-1.456,3.798-1.526,5.637c-0.094,2.512,0.407,4.994,0.606,7.488c0.215,2.695,0.643,5.37,0.797,8.07c0.092,1.617-0.07,3.276-0.187,4.902c-0.058,0.803-0.116,1.588,0.489,2.219c0.401,0.417,1.01,0.596,1.587,0.551C-16.318-50.424-15.926-50.557-15.564-50.749z"></path><path style="" d="M-0.279-76.945c-2.406-1.906-5.104-3.457-8.078-4.218s-6.192-0.787-9.058,0.313c-0.347,0.133-0.717,0.285-1.078,0.195c-0.22-0.055-1.433-1.223-1.892-1.701c1.502-0.9,3.52-1.165,3.563-1.503s-2.729-1.985-3.589-2.383c-0.672-0.311-1.216-0.847-1.597-1.481c0,0.002-0.001,0.004-0.002,0.006c-0.038,0.259,0.086,0.511,0.205,0.744c0.435,0.844,0.942,1.987,0.87,2.349c-0.072,0.362-1.618,1.359-2.381,2.253c0.571,1.115,1.289,2.154,2.131,3.081c0.202,0.222,0.421,0.445,0.702,0.55c0.527,0.197,1.102-0.068,1.614-0.302c5.781-2.64,13.034-1.677,17.926,2.379c0.583,0.484,1.529,1.304,2.187,1.681c0.286,0.164,0.614,0.268,0.872,0.2c0.401-0.105,0.684-0.478,0.711-0.5C1.656-75.007,1.042-75.898-0.279-76.945z" fill="#161616"></path><path style="" d="M-3.756-73.136c-0.177,0-0.335-0.126-0.368-0.307c-0.37-1.997-0.323-3.983-0.279-5.905l0.021-0.974c0.003-0.207,0.156-0.331,0.381-0.369c0.207,0.003,0.372,0.174,0.369,0.381l-0.021,0.979c-0.044,1.883-0.089,3.83,0.266,5.75c0.038,0.204-0.097,0.399-0.3,0.437C-3.711-73.138-3.734-73.136-3.756-73.136z" fill="#232323"></path><path style="" d="M-3.393-73.172c-0.177,0-0.334-0.126-0.368-0.307c-0.394-2.119-0.442-4.002-0.399-7.175c0.003-0.206,0.17-0.37,0.375-0.37c0.001,0,0.003,0,0.005,0c0.208,0.003,0.373,0.173,0.37,0.38c-0.042,3.123,0.004,4.971,0.387,7.028c0.038,0.204-0.097,0.399-0.3,0.437C-3.347-73.174-3.37-73.172-3.393-73.172z" fill="#232323"></path><path style="" d="M6.399-73.962c-0.003,0-0.007,0-0.011,0c-0.207-0.006-0.37-0.179-0.364-0.386c0.008-0.255-0.223-2.357-0.69-5.464c-0.031-0.205,0.11-0.396,0.315-0.426c0.199-0.03,0.396,0.11,0.426,0.315c0.432,2.87,0.71,5.211,0.699,5.598C6.768-74.123,6.601-73.962,6.399-73.962z" fill="#161616"></path><path style="" d="M6.712-74.095c-0.207,0-0.375-0.168-0.375-0.375c0-0.299-0.316-2.719-0.838-5.586c-0.037-0.204,0.098-0.399,0.302-0.436C6-80.525,6.199-80.394,6.237-80.19c0.527,2.899,0.85,5.351,0.85,5.72C7.087-74.263,6.919-74.095,6.712-74.095z" fill="#232323"></path><path style="" d="M1.829-77.904c0.671,0.808,1.595,1.473,2.212,1.37c-1.439-1.131-1.595-1.944-1.595-1.944L1.829-77.904z" fill="#161616"></path><path style="" d="M8.887-41.862c0.229-1.077,0.201-2.217-0.066-3.285c-2.768-0.866-5.949-0.055-8.714,0.5c-0.824,0.165-9.058,1.906-9.199,2.372c-0.234,0.769-0.328,2.411-0.215,3.446C-3.572-39.572,3.035-42.618,8.887-41.862z" fill="#232323"></path><path d="M-18.505-43.391c-0.054,0.631-0.092,1.281-0.108,1.926c3.526,0.368,7.212-0.356,10.376-1.947C-11.636-42.928-15.102-42.931-18.505-43.391z"></path></g><g><g><path style="" d="M-2.96-69.698c-2.271,2.84-2.572,7.066-0.725,10.19c0.406,0.687,0.921,1.374,0.929,2.17c0.006,0.546-0.231,1.06-0.412,1.576c-0.181,0.515-0.307,1.096-0.085,1.595c0.222,0.499,0.925,0.809,1.355,0.466c0.418-0.333,0.316-0.974,0.181-1.486s-0.222-1.16,0.208-1.477c0.406-0.3,1.031-0.051,1.296,0.375c0.265,0.426,0.271,0.956,0.269,1.455c-0.005,1.225-0.011,2.451-0.016,3.676c-0.002,0.387-0.002,0.785,0.143,1.145c0.145,0.36,0.47,0.677,0.862,0.696c0.455,0.022,0.846-0.367,0.978-0.797c0.131-0.43,0.063-0.893-0.006-1.337c-0.116-0.746-0.232-1.492-0.347-2.238c-0.057-0.366-0.112-0.751,0.022-1.097s0.526-0.625,0.88-0.501c0.484,0.17,0.484,0.848,0.326,1.331c-0.158,0.482-0.363,1.064-0.029,1.449c0.378,0.437,1.177,0.175,1.431-0.342s0.123-1.131-0.05-1.679c-0.173-0.548-0.387-1.116-0.284-1.68c0.103-0.565,0.677-1.093,1.23-0.913c0.051,0.016-0.084,1.271-0.058,1.379c0.076,0.317,0.351,0.613,0.681,0.601c0.344-0.013,0.596-0.348,0.652-0.683c0.054-0.334-0.035-0.673-0.085-1.008c-0.204-1.35,0.223-2.707,0.621-4.014c0.794-2.609,0.752-5.167-0.514-7.635c-0.602-1.174-1.451-2.255-2.589-2.943C1.464-72.896-1.309-71.762-2.96-69.698z" fill="#61D23F"></path></g><path style="" d="M-3.082-58.483c0.186,0.363,0.322,0.74,0.327,1.145c0.006,0.546-0.231,1.06-0.412,1.576c-0.181,0.515-0.307,1.096-0.085,1.595c0.222,0.499,0.925,0.809,1.355,0.466c0.418-0.333,0.316-0.974,0.181-1.486c-0.135-0.512-0.222-1.16,0.208-1.477c0.406-0.3,1.031-0.051,1.296,0.375c0.265,0.426,0.271,0.956,0.269,1.455c-0.002,0.45-0.004,0.9-0.006,1.35c1.895-3.753,4.121-9.174,4.216-13.667C2.908-64.389-0.134-61.134-3.082-58.483z" fill="#3FAA2D"></path><g><path d="M1.004-63.83c0,0.016,0,0.032,0,0.048c0.001,0.18-0.032,0.403-0.204,0.463c-0.117,0.041-0.251-0.022-0.328-0.118s-0.11-0.219-0.14-0.337c-0.196-0.764-0.363-1.535-0.501-2.311c-0.06-0.34-0.1-0.68-0.208-1.005c-0.11-0.33-0.146-0.724-0.137-1.07c0.004-0.141,0.05-0.286,0.154-0.382c0.393-0.362,0.596,0.242,0.682,0.505c0.149,0.458,0.274,0.922,0.374,1.393C0.893-65.719,0.998-64.775,1.004-63.83z"></path><path d="M2.999-61.308c0.017,0.134,0.035,0.272,0.103,0.39c0.068,0.118,0.199,0.21,0.335,0.192c0.123-0.016,0.219-0.12,0.263-0.234c0.044-0.114,0.045-0.24,0.045-0.362c0-1.016,0.028-2.032,0.013-3.048c-0.01-0.677,0.106-2.174-0.612-2.58c-0.604-0.342-0.388,1.702-0.36,2.021C2.891-63.714,2.85-62.501,2.999-61.308z"></path><path d="M5.898-64.574c-0.28,2.08-0.275,4.434-2.411,5.598c-0.885,0.482-2.029,0.561-2.898,0.05c-0.661-0.389-1.102-1.07-1.347-1.79c-0.267-0.786-0.399-1.711-0.437-2.536c-0.01-0.211-0.011-0.424-0.068-0.628c-0.057-0.203-0.176-0.4-0.365-0.498c-0.283-0.147-0.649-0.031-0.874,0.193c-0.226,0.224-0.341,0.531-0.437,0.831c0.27-0.116,0.585-0.108,0.852,0.013c0.09,0.04,0.09,0.689,0.111,0.808c0.048,0.278,0.112,0.554,0.178,0.828c0.133,0.558,0.301,1.112,0.559,1.629c0.408,0.82,1.076,1.555,1.953,1.85c0.471,0.158,0.981,0.182,1.476,0.13c1.166-0.124,2.448-0.67,3.053-1.693c0.729-1.233,1.067-2.499,1.349-3.883c0.037-0.006,0.382-0.06,0.385-0.044c-0.086-0.36-0.234-0.706-0.435-1.018c-0.091-0.142-0.237-0.294-0.402-0.252C5.974-64.946,5.921-64.742,5.898-64.574z"></path></g></g></g><!---0038-00690002800041--><g><path d="M-27.665-31.262c0.11,0.123,0.279,0.171,0.438,0.214c1.611,0.429,3.255,0.861,4.919,0.769c1.927-0.107,3.805-0.946,5.169-2.312c0.29-0.29,0.566-0.619,0.667-1.017c0.069-0.273,0.05-0.56,0.028-0.84c-0.123-1.509-0.351-3.01-0.683-4.488c-2.856-0.031-5.715,0.121-8.552,0.454c-1.39,0.163-3.779-0.85-3.937,0.82C-29.345-35.759-27.75-31.357-27.665-31.262z"></path><path style="" d="M-26.236-63.231c-0.807,0.735-1.436,1.642-2.057,2.54c-1.317,1.905-2.634,3.809-3.95,5.714c-0.475,0.687-0.966,1.416-1.036,2.248c-0.056,0.662,0.161,1.313,0.376,1.941c0.365,1.07,0.73,2.14,1.096,3.211c0.112,0.329,0.226,0.681,0.139,1.017c-0.064,0.247-0.228,0.454-0.388,0.652c-0.555,0.688-2.288,2.843-2.375,3.322c-0.064,0.347,2.432,4.364,4.663,5.022s5.188,1.641,7.495,1.343c2.062-0.266,3.976-1.273,5.715-2.412c1.451-0.95,1.354-4.702,1.293-4.906c-0.072-0.241-0.007-0.501,0.084-0.736c0.652-1.683,2.615-2.999,2.259-4.769c-0.105-0.521-0.41-0.976-0.642-1.454c-0.98-2.017-0.662-4.386-0.521-6.625c0.141-2.238-0.027-4.75-1.653-6.294C-18.339-65.886-23.699-65.54-26.236-63.231z" fill="#232323"></path><path style="" d="M-15.266-43.538c-0.017-0.055-0.005-0.112-0.009-0.169c-0.667,0.504-1.357,0.977-2.069,1.414c-0.324,0.199-0.679,0.398-1.059,0.371c-0.351-0.025-0.656-0.24-0.939-0.448c-3.547-2.597-6.973-5.359-10.263-8.274c-0.336-0.298-0.689-0.626-0.79-1.064c-0.097-0.418,0.057-0.85,0.214-1.249c0.734-1.862,1.612-3.668,2.624-5.395c0.602,0.454,1.204,0.908,1.807,1.362c0.458-2.536,1.032-5.05,1.714-7.534c-0.841,0.315-1.601,0.747-2.2,1.292c-0.807,0.735-1.436,1.642-2.057,2.54c-1.317,1.905-2.634,3.809-3.95,5.714c-0.475,0.687-0.966,1.416-1.036,2.248c-0.056,0.662,0.161,1.313,0.376,1.941c0.365,1.07,0.73,2.14,1.096,3.21c0.112,0.329,0.226,0.681,0.139,1.017c-0.064,0.247-0.228,0.454-0.388,0.652c-0.555,0.688-2.288,2.843-2.375,3.322c-0.064,0.347,2.362,4.818,3.522,5.175s6.329,1.488,8.636,1.191c2.062-0.266,3.976-1.273,5.715-2.412c0.826-0.541,1.883-1.86,2.115-2.438C-14.212-41.649-14.92-42.911-15.266-43.538z" fill="#161616"></path><path style="" d="M-20.137-39.798c-1.292,0.086-4.648,0.245-6.523-0.326s-3.996-2.156-4.173-2.579s1.447-2.093,1.65-2.093c0.345,0,2.042,1.394,3.646,2.266C-23.707-41.535-22.094-40.695-20.137-39.798z" fill="#232323"></path><path style="" d="M-25.087-34.435c0.427,1.508,0.618,2.559,1.045,4.067c0.576,0.073,1.153,0.12,1.735,0.088c1.927-0.107,3.805-0.946,5.169-2.311c0.29-0.29,0.566-0.619,0.667-1.017c0.069-0.273,0.05-0.56,0.028-0.84c-0.048-0.595-0.286-1.688-0.367-2.28C-18.615-34.824-21.821-34.026-25.087-34.435z" fill="#161616"></path><path d="M-32.057-45.908c-0.078,0.097-0.183,0.228-0.3,0.374c0.442,0.075,0.886,0.143,1.329,0.206c1.559,0.221,3.119,0.441,4.678,0.662c-2.887-2.201-4.941-5.275-6.866-8.37c-0.021,0.102-0.054,0.201-0.063,0.306c-0.056,0.662,0.161,1.313,0.376,1.941c0.365,1.07,0.73,2.14,1.096,3.211c0.112,0.329,0.226,0.681,0.139,1.017C-31.733-46.313-31.897-46.107-32.057-45.908z"></path></g><!---0032-00830002500033--><g><path style="" d="M-28.848-59.674c0.993,2.502,3.028,4.572,5.512,5.609s5.387,1.026,7.864-0.028c0.546-0.232,1.089-0.527,1.449-0.999c0.805-1.056,0.438-2.542,0.386-3.869c-0.106-2.739,1.292-5.274,2.145-7.879c0.633-1.933,0.974-3.961,1.007-5.995c0.029-1.763-0.231-3.662-1.429-4.956c-1.547-1.671-4.024-1.797-6.12-1.498c-1.702,0.243-2.896,2.183-3.953,4.158C-24.652-70.157-26.947-64.986-28.848-59.674z" fill="#232323"></path><path style="" d="M-26.325-55.798c1.177-6.523,3.682-14.101,6.313-20.186c0.268-0.62,0.561-1.26,1.086-1.685c0.513-0.415,1.184-0.572,1.833-0.689c1.293-0.233,3.61-0.234,4.634,0.096c-1.301-1.076-3.436-1.718-5.431-1.18c-2.299,0.62-3.04,2.336-4.098,4.311c-2.663,4.974-4.959,10.145-6.859,15.457C-28.693-58.812-26.927-56.253-26.325-55.798z" fill="#161616"></path><path style="" d="M-14.023-55.093c0.702-0.921,0.512-2.169,0.418-3.353c-0.972,0.701-2.475,1.831-2.956,1.938c-0.995,0.221-6.186-3.839-6.186-3.839s2.823,7.522,5.652,7.362C-15.637-53.067-14.382-54.621-14.023-55.093z" fill="#161616"></path><path style="" d="M-18.101-75.806c-1.195-0.465-2.389-0.425-3.556,0.072c-0.064,0.115-0.127,0.231-0.19,0.347l0.333,0.665c1.013-0.508,2.011-0.557,3.051-0.152c3.043,1.185,5.6,6.089,6.526,8.516l0.144,0.378c0.105-0.286,0.208-0.573,0.302-0.861c0.067-0.205,0.117-0.415,0.178-0.622C-12.151-69.388-14.635-74.456-18.101-75.806z" fill="#161616"></path><path style="" d="M-11.14-68.07c0.348-1.344,0.551-2.722,0.619-4.108c-0.562-1.605-1.505-3.597-1.505-3.597C-11.951-74.016-11.363-69.675-11.14-68.07z" fill="#161616"></path></g></svg>
