<?xml version="1.0" encoding="UTF-8" standalone="no"?>
<svg xmlns="http://www.w3.org/2000/svg" viewBox="-28.284305572509766 -133.79629516601562 46.6440544128418 139.4430389404297" width="100%" height="100%"><!--00009-00580001000017--><!--00005-00700001000018--><!---0001-00860001300023--><!---0019-00950002600054--><g transform="translate(0, -27) scale(0.7)" preserveAspectRatio="none"><!--00006-01160001400012--><g><path style="fill:#FFFFFF;" d="M17.403-108.108c-0.413,0.843-1.147,1.447-1.936,1.944c-1.685,1.066-5.325,1.176-6.972-0.506 c-0.179-0.766-0.598-3.06-0.107-4.439c2.467-5.197,7.935-3.351,10.011-0.716C18.28-111.15,18.028-109.383,17.403-108.108z"></path><path style="fill:#D9D9D9;" d="M8.176-109.97c0.027-0.41,0.092-0.803,0.212-1.14c2.467-5.197,7.935-3.351,10.011-0.716 c-0.058,0.327-0.148,0.913-0.295,1.572C14.592-110.969,10.576-110.794,8.176-109.97z"></path><path style="fill:#0A0302;" d="M18.12-113.511c0.502,0.395,0.827,1.144,0.915,1.872c-0.29,1.41-0.658,3.001-2.015,4.141 c0.691-1.357,0.861-2.415,0.944-3.748C18.031-112.043,18.083-112.764,18.12-113.511z"></path></g></g><g transform="translate(0, -27) scale(0.7)" preserveAspectRatio="none"><!--00006-01160001100011--><g><g><path style="fill:#3FA2FF;" d="M15.896-110.396c0.052,1.393-0.412,4.296-3.643,4.399c-2.708,0.086-4.054-2.286-3.794-4.524 c0.312-2.688,2.312-3.812,4.125-3.672C14.207-114.068,15.791-113.19,15.896-110.396z"></path></g><path style="fill:#FFFFE8;fill-opacity:0.5;" d="M15.24-110.344c0.043,1.148-0.34,3.54-3.003,3.625 c-2.231,0.071-3.341-1.884-3.127-3.728c0.258-2.215,1.906-3.142,3.4-3.027C13.848-113.37,15.153-112.646,15.24-110.344z"></path><path style="fill:#FFFFE8;fill-opacity:0.75;" d="M15.275-110.337c-0.054-1.429-0.585-2.223-1.255-2.663 c-0.068,0.1-0.129,0.203-0.178,0.311c0.318,0.222,0.567,0.523,0.736,0.909c0.007,0.018-1.829,1.177-1.972,1.206 c-0.153,0.031-0.092-1.258-0.085-1.619c0.007-0.309,0.014-0.619,0.02-0.928c0.524,0.042,0.954,0.191,1.3,0.433 c0.049-0.108,0.11-0.211,0.178-0.311c-0.473-0.31-1.013-0.45-1.514-0.489c-0.718-0.056-1.485,0.134-2.115,0.597 c0.139,0.072,0.268,0.145,0.367,0.227c0.411-0.261,0.87-0.407,1.327-0.423c-0.054,0.002,0.091,2.454,0,2.513 c-0.094,0.062-1.834-1.007-2.186-1.221c0.228-0.381,0.529-0.66,0.859-0.87c-0.099-0.082-0.228-0.155-0.367-0.227 c-0.667,0.489-1.181,1.284-1.316,2.44c-0.017,0.144-0.005,0.286-0.006,0.429c0.099,0,0.208,0,0.341,0 c-0.001-0.132,0.004-0.265,0.019-0.398c0.046-0.394,0.15-0.731,0.285-1.032c0.457,0.265,1.849,0.879,1.936,1.3 c0.092,0.45-2.057,1.195-1.992,1.355c-0.155-0.379-0.244-0.795-0.249-1.225c-0.133,0-0.242,0-0.341,0 c-0.004,0.906,0.289,1.778,0.853,2.392c0.236,0.257,0.514,0.45,0.815,0.602c0-0.112,0-0.226,0-0.354 c-0.201-0.117-0.39-0.252-0.552-0.429c-0.142-0.154-0.264-0.327-0.367-0.515c0.286-0.185,0.573-0.371,0.859-0.557 c0.237-0.154,0.474-0.307,0.711-0.46c0.164-0.106,0.489-0.384,0.679-0.241c0.112,0.084,0.088,0.732,0.082,0.945 c-0.003,0.107-0.053,1.601-0.063,1.602c-0.508,0.006-0.959-0.117-1.349-0.344c0,0.128,0,0.242,0,0.354 c0.413,0.209,0.875,0.328,1.385,0.328c0.039,0,0.079,0,0.118-0.002c0.551-0.018,1.027-0.148,1.44-0.366 c0-0.15-0.002-0.297-0.01-0.437c-0.324,0.206-0.709,0.336-1.154,0.383c-0.007-0.609-0.01-1.218-0.006-1.828 c0.001-0.154-0.074-0.742,0.083-0.79c0.108-0.033,0.36,0.196,0.455,0.255c0.111,0.07,1.507,0.897,1.491,0.934 c-0.11,0.252-0.257,0.5-0.46,0.717c-0.12,0.129-0.26,0.234-0.408,0.328c0.008,0.14,0.01,0.287,0.01,0.437 c0.262-0.138,0.505-0.305,0.708-0.523c0.725-0.776,0.866-1.845,0.885-2.431c-0.095,0-0.202,0-0.328,0 c-0.01,0.277-0.049,0.661-0.177,1.066c0.011-0.035-0.951-0.528-1.019-0.566c-0.269-0.149-0.929-0.47-0.897-0.653 c0.026-0.154,0.771-0.594,1.017-0.726c0.301-0.162,0.618-0.298,0.914-0.469c0.093,0.307,0.151,0.652,0.166,1.044 c0.003,0.069,0.002,0.179-0.003,0.305c0.125,0,0.233,0,0.328,0C15.277-110.151,15.278-110.264,15.275-110.337z"></path><path style="fill-opacity:0.2;" d="M15.817-111.514c-0.51-1.55-1.562-2.55-3.233-2.679c-0.74-0.057-1.497,0.098-2.147,0.459 c-1.011,0.562-1.481,1.236-1.728,2.213C10.816-112.339,13.781-112.498,15.817-111.514z"></path></g></g><g transform="translate(0, -27) scale(0.7)" preserveAspectRatio="none"><!--00006-01190001600011--><g><path style="fill:#F4D5BF;" d="M11.03-117.153c-2.243,0.553-2.909,2.845-2.705,4.944c3.153-3.86,8.049-1.562,10.506-0.139 C17.529-117.998,13.061-117.653,11.03-117.153z"></path><path style="fill:#4D2017;fill-opacity:0.45;" d="M10.947-116.38c-1.829,0.293-2.845,2.72-2.622,4.171 c1.862-2.856,6.75-2.072,10.248-0.687C16.567-115.802,13.817-116.841,10.947-116.38z"></path><path style="fill:#1A0804;" d="M18.12-113.511c0.581,0.105,1.391,0.198,2.218,0.048c-0.205,0.752-0.757,1.456-1.303,1.824 c-0.325,0.181-0.739,0.417-1.071,0.393c-1.199-1.557-2.949-2.459-5.436-2.546c-0.897-0.032-3.742,0.828-4.424,3.418 c-0.036-1.378,0.171-2.628,0.921-3.162C11.811-115.527,15.058-115.241,18.12-113.511z"></path></g></g><g transform="translate(0, -27) scale(0.7)" preserveAspectRatio="none"><!---0016-01160001500012--><g><path style="fill:#FFFFFF;" d="M-12.083-107.161c0.538,0.773,1.401,1.257,2.312,1.627c1.948,0.792,5.931,0.322,7.551-1.612 c0.116-0.791,0.336-3.14-0.343-4.434c-3.229-4.778-9-2.073-10.992,0.878C-13.354-110.047-12.896-108.33-12.083-107.161z"></path><path style="fill:#D9D9D9;" d="M-2.212-110.48c-0.073-0.403-0.184-0.784-0.35-1.1c-3.229-4.778-9-2.073-10.992,0.878 c0.097,0.317,0.256,0.885,0.485,1.518C-9.313-110.453-4.915-110.918-2.212-110.48z"></path><path style="fill:#0A0302;" d="M-13.425-112.421c-0.507,0.472-0.783,1.27-0.803,2.007c0.462,1.357,1.029,2.881,2.627,3.799 c-0.894-1.24-1.189-2.265-1.418-3.579C-13.175-110.976-13.306-111.684-13.425-112.421z"></path></g></g><g transform="translate(0, -27) scale(0.7)" preserveAspectRatio="none"><!---0012-01160001000011--><g><g><path style="fill:#3FA2FF;" d="M-2.812-110.375c0.052,1.393-0.412,4.296-3.644,4.399c-2.708,0.087-4.054-2.286-3.794-4.524 c0.312-2.688,2.312-3.812,4.125-3.672C-4.501-114.047-2.917-113.169-2.812-110.375z"></path></g><path style="fill:#FFFFE8;fill-opacity:0.5;" d="M-3.453-110.324c0.043,1.154-0.341,3.559-3.018,3.644 c-2.243,0.072-3.358-1.894-3.143-3.748c0.259-2.226,1.916-3.158,3.418-3.042C-4.852-113.366-3.54-112.639-3.453-110.324z"></path><path style="fill:#FFFFE8;fill-opacity:0.75;" d="M-3.417-110.317c-0.054-1.436-0.588-2.234-1.262-2.677 c-0.068,0.1-0.129,0.204-0.179,0.313c0.32,0.224,0.57,0.525,0.74,0.913c0.007,0.018-1.838,1.183-1.982,1.212 c-0.154,0.031-0.093-1.264-0.085-1.627c0.007-0.311,0.014-0.622,0.02-0.933c0.527,0.042,0.959,0.192,1.307,0.435 c0.049-0.108,0.111-0.212,0.179-0.313c-0.475-0.312-1.018-0.453-1.522-0.491c-0.722-0.056-1.492,0.135-2.126,0.6 c0.139,0.072,0.27,0.146,0.369,0.228c0.413-0.262,0.875-0.409,1.334-0.425c-0.054,0.002,0.091,2.466,0,2.526 c-0.094,0.062-1.843-1.012-2.198-1.227c0.229-0.383,0.532-0.664,0.864-0.874c-0.099-0.082-0.23-0.156-0.369-0.228 c-0.67,0.492-1.188,1.291-1.323,2.453c-0.017,0.145-0.005,0.287-0.006,0.431c0.1,0,0.209,0,0.343,0 c-0.001-0.132,0.004-0.266,0.019-0.4c0.046-0.396,0.151-0.735,0.287-1.037c0.459,0.266,1.859,0.883,1.946,1.307 c0.093,0.453-2.068,1.201-2.002,1.362c-0.156-0.381-0.246-0.799-0.25-1.232c-0.134,0-0.243,0-0.343,0 c-0.004,0.911,0.29,1.788,0.857,2.404c0.237,0.258,0.517,0.452,0.819,0.605c0-0.113,0-0.227,0-0.356 c-0.202-0.117-0.392-0.254-0.555-0.431c-0.142-0.155-0.265-0.329-0.369-0.518c0.288-0.187,0.576-0.373,0.864-0.56 c0.238-0.154,0.476-0.308,0.714-0.463c0.165-0.107,0.492-0.386,0.682-0.243c0.112,0.084,0.088,0.736,0.083,0.95 c-0.003,0.107-0.054,1.61-0.063,1.61c-0.51,0.006-0.964-0.118-1.356-0.346c0,0.129,0,0.243,0,0.356 c0.415,0.21,0.88,0.329,1.392,0.329c0.039,0,0.079,0,0.118-0.002c0.554-0.018,1.032-0.149,1.447-0.368 c0-0.15-0.002-0.298-0.01-0.439c-0.326,0.207-0.713,0.338-1.16,0.385c-0.007-0.612-0.01-1.225-0.006-1.837 c0.001-0.155-0.074-0.745,0.083-0.794c0.108-0.034,0.362,0.197,0.457,0.256c0.112,0.07,1.515,0.902,1.499,0.939 c-0.111,0.254-0.259,0.502-0.463,0.721c-0.121,0.13-0.261,0.235-0.41,0.33c0.008,0.141,0.01,0.288,0.01,0.439 c0.264-0.139,0.508-0.306,0.712-0.525c0.728-0.78,0.87-1.855,0.89-2.443c-0.095,0-0.204,0-0.33,0 c-0.011,0.279-0.05,0.665-0.178,1.072c0.011-0.035-0.956-0.531-1.025-0.569c-0.271-0.15-0.934-0.472-0.902-0.657 c0.027-0.155,0.775-0.597,1.022-0.73c0.303-0.163,0.621-0.3,0.919-0.471c0.093,0.309,0.152,0.656,0.167,1.049 c0.003,0.07,0.002,0.18-0.003,0.307c0.126,0,0.235,0,0.33,0C-3.415-110.13-3.415-110.244-3.417-110.317z"></path><path style="fill-opacity:0.2;" d="M-2.891-111.494c-0.51-1.55-1.562-2.55-3.233-2.679c-0.74-0.057-1.497,0.098-2.147,0.459 c-1.011,0.562-1.481,1.236-1.728,2.213C-7.892-112.318-4.927-112.478-2.891-111.494z"></path></g></g><g transform="translate(0, -27) scale(0.7)" preserveAspectRatio="none"><!---0018-01190001700011--><g><path style="fill:#F4D5BF;" d="M-6.069-117.172c2.502,0.193,3.466,2.368,3.462,4.488c-3.839-3.338-8.94-0.274-11.473,1.532 C-13.246-116.979-8.336-117.346-6.069-117.172z"></path><path style="fill:#4D2017;fill-opacity:0.45;" d="M-5.899-116.416c2.024,0.001,3.384,2.253,3.292,3.733 c-2.327-2.545-7.577-0.988-11.248,0.947C-11.968-114.947-9.077-116.418-5.899-116.416z"></path><path style="fill:#1A0804;" d="M-13.425-112.421c-0.622,0.196-1.496,0.418-2.414,0.4c0.302,0.715,0.977,1.327,1.61,1.607 c0.373,0.129,0.849,0.297,1.209,0.221c1.146-1.74,2.961-2.914,5.665-3.397c0.975-0.174,4.166,0.228,5.179,2.697 c-0.104-1.376-0.459-2.587-1.332-2.999C-6.753-115.43-10.264-114.629-13.425-112.421z"></path></g></g></svg>
