<svg xmlns:xlink="http://www.w3.org/1999/xlink" xmlns="http://www.w3.org/2000/svg" aria-label="user avatar" viewBox="-40.94377899169922 -146.29818725585938 68.82828521728516 163.4471893310547" preserveAspectRatio="xMidYMid meet" width="300"  height="400" >
            <g><g><g><path fill="#EFC1B7" d="M-10.374-85.54l0.912-6.023c4.003-4.042,8.345-0.219,8.345-0.219l0.863,5.822 C0.564-82.458-4.808-81.689-10.374-85.54z"></path></g><path fill="#EFC1B7" d="M-10.374-85.54l0.912-6.023c4.003-4.042,8.345-0.219,8.345-0.219l0.863,5.822 C0.564-82.458-4.808-81.689-10.374-85.54z"></path><path fill="#FEE2CA" d="M-2.63-81.815c1.292-0.019,1.629-2.104,1.82-3.093c-1.587,0.997-3.248,0.29-4.844-0.33 C-5.271-83.801-4.25-81.791-2.63-81.815z"></path><g transform="translate(0, -27) scale(0.7)" preserveAspectRatio="none"><g><path fill="#EFC1B7" d="M-24.264-146.928c17.06-11.301,45.582-5.833,45.634,18.391c1.183,6.835-1.475,12.496-2.472,19.07 c-0.646,4.262-0.646,11.626-4.947,15.585c-5.359,4.934-7.784,8.99-13.509,8.104c-19.084-2.898-27.638-15.839-31.256-23.03 C-35.312-117.747-36.104-139.083-24.264-146.928z"></path><path fill="#FEE2CA" d="M18.899-109.467c-0.646,4.262-0.646,11.626-4.947,15.585c-5.359,4.934-7.784,8.99-13.509,8.104 c-5.906-0.914-11.747-4.16-15.672-8.501c-3.23-3.573-7.69-13.093-8.729-20.122c-2.297-15.556,8.274-36.222,34.478-27.561 c4.012,1.326,9.647,6.469,10.851,13.425C22.554-121.702,19.896-116.042,18.899-109.467z"></path></g><g><path fill="#FEE2CA" d="M-20.873-100.867c-1.804-2.5-3.505-7.273-3.425-9.147c-3.063-5.558-7.912-2.784-7.895,0.563 C-32.174-105.555-27.125-100.096-20.873-100.867z"></path><path fill="#EFC1B7" d="M-25.614-103.754c-0.184,1.826,4.244,0.551,4.244,0.551s-1.19-2.205-1.681-3.248 c-0.965-2.048-2.649-4.4-5.383-4.4c-1.743,0-2.832,1.71-1.833,3.397c-0.095-1.038,0.164-1.923,1.398-1.706 c0.888,0.155,2.041,0.763,2.54,1.481c-1.816-0.146-1.315,1.647-0.37,2.335c1.09,0.792,2.458-0.037,2.909,1.323 C-24.327-103.61-25.006-103.841-25.614-103.754z"></path></g></g>

</g>
        </g></svg>
