<svg xmlns:xlink="http://www.w3.org/1999/xlink" xmlns="http://www.w3.org/2000/svg" viewBox="-40.94377899169922 -146.29818725585938 68.82828521728516 163.4471893310547" preserveAspectRatio="xMidYMid meet" width="300"  height="400"><!--00001-00740002600035--><g><path d="M11.719-46.238c-0.959-0.143-1.928-0.289-2.831-0.643c-0.903-0.354-1.748-0.938-2.233-1.779c-0.938-1.626-0.321-3.661-0.372-5.537C6.2-57.281,4.26-60.02,3.767-63.066c-0.472-2.92,0.331-5.775,2.878-7.28c1.527-0.903,3.885-0.527,5.345,0.555s1.935,1.712,3.006,3.18c0.392,0.538,0.805,1.068,1.089,1.67c0.282,0.597,0.431,1.247,0.577,1.891c0.102,0.45,0.204,0.899,0.306,1.349c0.034,0.148,0.052,0.317,0.117,0.458c0.044,0.096,0.114,0.167,0.175,0.251c0.205,0.281,0.373,0.578,0.6,0.845c0.458,0.537,0.999,0.994,1.524,1.462c0.914,0.816,1.786,1.681,2.61,2.589c0.244,0.269,0.488,0.548,0.627,0.883c0.13,0.312,0.162,0.656,0.172,0.994c0.061,2.079-0.696,4.172-2.074,5.73c-0.208,0.236-0.43,0.459-0.665,0.668c-0.204,0.182-0.44,0.337-0.62,0.544c-0.341,0.39-0.88,0.553-1.361,0.72c-0.935,0.325-1.921,0.502-2.91,0.523c-0.497,0.011-0.982-0.06-1.476-0.076c-0.16-0.005-0.31,0.028-0.468,0.045C12.725-46.009,12.202-46.165,11.719-46.238z"></path><path style="" d="M10.767-46.524c0.203,0.607,1.148,3.443,1.688,3.848c0.54,0.405,4.118,1.013,6.885-0.27c2.768-1.283,2.97-3.578,2.835-3.78c-0.135-0.203-0.988-2.431-0.988-2.431s-2.117,1.959-5.627,2.566C12.05-45.984,10.767-46.524,10.767-46.524z" fill="#1C1C1C"></path><path style="" d="M21.993-56.094c-0.824-0.908-1.695-1.772-2.61-2.589c-0.525-0.469-1.066-0.925-1.523-1.462c-0.227-0.267-0.395-0.564-0.6-0.845c-0.061-0.084-0.132-0.155-0.175-0.251c-0.05-0.11-0.073-0.234-0.096-0.354c-1.021,1.891-1.982,3.816-2.841,5.787c-0.114,0.262-0.228,0.532-0.232,0.817c-0.007,0.604,0.499,1.117,1.07,1.316c0.57,0.199,1.193,0.153,1.795,0.104c-0.873,2.419-3.165,4.264-5.715,4.601c2.202,1,4.785,1.78,6.985,0.777c0.905-0.413,1.656-1.093,2.392-1.764c0.855-0.78,1.63-1.945,2.311-3.271c0.031-0.329,0.049-0.659,0.039-0.989c-0.01-0.338-0.042-0.682-0.172-0.994C22.481-55.546,22.237-55.826,21.993-56.094z" fill="#2D2D2D"></path><path d="M14.187-46.4c-2.469,0.266-3.42-0.124-3.42-0.124c0.203,0.607,1.148,3.443,1.688,3.848c0.332,0.249,1.812,0.573,3.546,0.489C15.442-43.442,14.637-45.271,14.187-46.4z"></path></g><!---0004-00870002200030--><g><path d="M11.561-75.551c0.188,1.229,0.175,2.496,0.541,3.684c0.29,0.941,0.808,1.797,1.397,2.587c0.671,0.9,1.474,1.81,1.56,2.93c0.059,0.764-0.236,1.515-0.627,2.173c-0.96,1.614-2.554,2.838-4.361,3.349c-1.807,0.511-3.468,0.31-5.13-0.563c-1.142-0.599-2.24-3.574-2.43-4.527c-0.34-1.701-2.565-8.668-2.9-10.413c-0.336-1.745-0.345-1.667,0.024-2.649c0.368-0.981,2.067-1.244,3.12-1.944c0.912-0.606,1.598-3.779,3.226-2.716c0.371,0.242,0.772,0.46,1.125,0.725c0.754,0.564,1.435,1.223,2.029,1.954c0.596,0.734,1.104,1.541,1.505,2.398c0.401,0.856,0.697,1.762,0.868,2.692C11.526-75.766,11.545-75.659,11.561-75.551z"></path><path style="" d="M12.102-71.867c-0.366-1.188-0.353-2.456-0.541-3.684c-0.017-0.107-0.035-0.214-0.054-0.321c-0.172-0.93-0.467-1.836-0.868-2.691c-0.39-0.831-1.233,7.329-0.352,9.777c0.587,1.63,1.775,3.047,3.248,3.959c0.274,0.17,0.582,0.324,0.903,0.298c0.081-0.007,0.148-0.046,0.22-0.072c0.269-0.549,0.447-1.144,0.401-1.748c-0.086-1.12-0.889-2.029-1.56-2.93C12.91-70.07,12.392-70.926,12.102-71.867z" fill="#2D2D2D"></path></g><!---0025-00980003700057--><g><path style="" d="M7.158-50.085c0.833-0.595,2.306-2.654,2.241-4.692c-0.055-1.705-0.679-3.492-1.209-5.989c-0.133-0.626-0.271-1.228-0.387-1.859c-0.059-0.321-0.043-6.724,0.08-8.067c0.276-2.994,0.743-6.368,0.039-9.48c-0.191-0.844-0.936-3.271-1.017-3.218c-1.626,1.062-5.83,3.035-7.476,4.07c-0.588,0.369-0.749,0.806-1.539,0.517c-0.945-0.345-1.891-0.691-2.801-1.113c-1.218-0.565-2.363-1.263-3.584-1.82c-1.847-0.843-3.049-1.014-5.094-0.907c-2.045,0.107-3.203,0.567-4.599,1.995c-2.236,2.289-0.62,6.22-0.012,9.293c0.608,3.073,1.274,5.228,0.973,8.342c-0.187,1.931-2.669,8.633-2.44,9.544c0.141,0.561,0.463,1.066,0.823,1.531c1.5,1.937,3.762,3.325,6.234,3.824c3.953,0.798,7.974,1.174,11.927,0.381C0.3-47.93,1.382-48.038,2.35-48.298C3.811-48.689,6.325-49.489,7.158-50.085z" fill="#2D2D2D"></path><path d="M7.802-63.801c-0.039-0.296,0.108-7.694,0.108-7.694c-2.424,6.16-5.851,12.35-6.042,13.38C3.182-58.49,6.121-61.589,7.802-63.801z"></path><path d="M-9.437-91.61c-4.669,1.269-6.135,2.652-5.047,3.604c1.088,0.952,4.156,2.424,4.156,2.424L-9.437-91.61z"></path><path d="M-1.08-91.781l0.925,6.096c0,0,3.219,0.171,4.829,1.404c0.793,0.607,1.288-3.045,0.835-3.861s-1.768-1.677-2.584-1.904S-1.08-91.781-1.08-91.781z"></path><path style="" d="M7.259-88.993c-2.794-3.077-7.595-5.256-10.798-5.581c-1.065-0.108-2.242-0.092-3.302-0.039c0.311,0.441,0.622,0.87,0.928,1.29c0.128-0.011,0.245-0.031,0.38-0.035c2.603-0.068,4.273,1.413,4.418,1.576c0.018,0.304,1.169,0.697,1.169,0.697s1.847,0.644,2.721,1.191c1.361,0.85,1.719,1.25,1.932,1.549c0.197,0.277,0.298,0.613,0.341,0.95c0.199,1.586-0.818,3.047-1.839,4.277c-0.994,1.198-2.051,2.343-3.151,3.445c-2.067-0.472-3.78-1.946-5.492-3.235c-2.091-1.575-4.349-2.927-6.723-4.028c-0.726-0.336-1.511-0.692-1.907-1.387c-0.078-0.136-0.139-0.291-0.118-0.447c0.023-0.172,0.142-0.314,0.261-0.441c1.292-1.39,3.594-1.85,4.305-2.063c0.395-0.675,1.497-1.865,3.702-2.05c-0.307-0.419-0.618-0.849-0.928-1.29c-0.376,0.019-0.738,0.043-1.074,0.068l-0.001,0.007c-0.722,0.045-3.078,0.424-3.786,0.623c-2.751,0.776-5.453,1.756-7.629,3.572c-0.288,0.241-0.575,0.508-0.711,0.858c-0.127,0.327-0.109,0.691-0.076,1.04c0.101,1.045,0.325,2.078,0.666,3.07c-0.538,0.629-1.075,1.257-1.613,1.886c-0.106,0.124-0.216,0.256-0.245,0.416c-0.031,0.171,0.036,0.343,0.107,0.502c0.439,0.976,1.107,1.849,1.935,2.528c0.121,0.099,0.248,0.196,0.398,0.238c0.289,0.081,0.589-0.056,0.862-0.181c2.653-1.218,5.664-1.644,8.551-1.209c2.791,0.42,4.971,2.651,7.514,3.877c0.759,0.366,1.547,0.731,2.389,0.763c1.008,0.038,1.991-0.418,2.749-1.084c0.758-0.666,1.317-1.528,1.801-2.413c-0.936,0.223-1.891,0.43-2.846,0.506c2.351-0.524,4.505-1.965,5.814-3.993c0.302-0.468,0.614-1.214,0.706-1.763C8.908-86.71,8.219-87.937,7.259-88.993z" fill="#2D2D2D"></path><g><path style="" d="M-17.154-49.872c-0.066,0.566-0.132,3.582-0.132,3.582s4.682,0.566,7.32,1.383c2.638,0.817,6.594,0.88,10.419,0.44s8.045-2.262,8.045-2.262l-0.132-3.896c0,0-4.814,2.011-9.825,2.514c-2.886,0.29-7.051-0.592-10.353-1.194C-14.244-49.75-17.154-49.872-17.154-49.872z" fill="#2D2D2D"></path><path d="M8.497-46.73l-0.141-4.749c0,0-4.804,2.864-9.816,3.367c-2.886,0.29-7.051-0.592-10.353-1.194c-2.432-0.443-5.361-1.009-5.361-1.009c-0.066,0.566-0.564,3.92-0.564,3.92s2.74,0.383,5.019,0.829c0.027-0.928,0.047-1.523,0.179-2.559c1.048,0.422,1.87,0.6,2.825,0.764c-0.139,0.65-0.209,1.313-0.208,1.976c0,0.168,0.014,0.338,0.047,0.502c0.277,0.083,0.567,0.158,0.87,0.225c-0.081-0.844-0.111-1.693-0.059-2.539c0.862,0.1,1.725,0.2,2.587,0.299c0.064,0.903,0.273,1.794,0.605,2.642c0.248,0.014,0.492,0.032,0.746,0.04C-5.19-45.163-5.212-46-5.201-46.95c2.9,0.217,5.498-0.178,7.408-0.799c-0.228,0.84-0.21,1.839-0.354,3.065c0.328-0.062,0.654-0.132,0.977-0.207c0.048-0.369,0.323-2.213,0.472-3.124c0.823-0.16,1.536-0.325,2.306-0.644c-0.168,1.206-0.222,1.911-0.39,3.117C7.115-46.134,8.497-46.73,8.497-46.73z"></path></g><path d="M-10.537-47.745c0.62,0.096,1.242,0.182,1.864,0.25c0,0,0.001,0,0.001,0c2.286,0.198,4.099,0.562,6.37,0.15c-1.44-0.33-6.928-0.882-10.178-4.851c0.198-0.608,0.401-2.059,1.01-2.639c0.125-0.21,3.421,2.462,7.008,2.255c-2.283-2.279-6.661-10.139-6.661-10.139s-0.086-6.92-0.548-8.73c-0.008-0.403-1.141-4.104-2.539-6.491c-0.845-1.443-2.626-2.613-3.562-3.106c-0.138,0.125-0.275,0.253-0.417,0.398c-2.237,2.289-0.62,6.22-0.012,9.293c0.608,3.073,1.274,5.228,0.973,8.342c-0.018,0.184-0.062,0.422-0.117,0.684c-0.01,0.044-0.017,0.086-0.027,0.13c-0.565,2.543-2.499,7.92-2.295,8.73c0.141,0.561,0.463,1.066,0.823,1.531c1.5,1.937,3.762,3.325,6.234,3.824c0.626,0.126,1.254,0.239,1.882,0.339C-10.665-47.764-10.601-47.755-10.537-47.745z"></path><g><path d="M-14.95-86c0,0-2.051-0.757-4.505-3.465l-0.604,0.066c-0.095,0.305-0.09,0.634-0.059,0.954c0.096,0.994,0.311,1.976,0.626,2.924C-17.543-86.087-14.95-86-14.95-86z"></path></g><path d="M-10.304-83.613c2.775,1.742,4.631,2.229,4.631,2.229s-0.521-0.744-2.115-1.584C-9.55-83.896-10.304-83.613-10.304-83.613z"></path><path d="M4.132-82.011c-1.542,0.597-2.253,0.747-2.568,0.779c-0.483,0.527-0.983,1.037-1.488,1.543l-0.282,0.347c3.202,0.151,6.432-1.504,8.17-4.198c0.302-0.468,0.614-1.214,0.706-1.763c0.179-1.06-0.153-2.031-0.749-2.887C7.768-84.564,6.465-82.914,4.132-82.011z"></path><g><path style="" d="M4.71-73.785C4.622-73.862,4.528-73.928,4.436-74c-0.106,0.088-0.195,0.193-0.266,0.316c0.09,0.071,0.19,0.125,0.277,0.201c1.384,1.211,2.188,2.903,2.264,4.764c0.16,3.932-2.992,7.433-7.028,7.804c-1.992,0.184-3.883-0.412-5.325-1.675c-1.384-1.211-2.188-2.903-2.264-4.764c-0.16-3.932,2.992-7.433,7.028-7.804c0.236-0.022,0.472-0.033,0.705-0.033c1.612,0,3.116,0.536,4.344,1.507C4.241-73.807,4.33-73.912,4.436-74c-1.488-1.182-3.368-1.736-5.352-1.556c-4.244,0.391-7.559,4.078-7.39,8.219c0.081,1.971,0.933,3.764,2.4,5.048c1.346,1.178,3.057,1.806,4.883,1.806c0.246,0,0.493-0.011,0.743-0.034c4.244-0.391,7.559-4.078,7.39-8.219C7.03-70.707,6.177-72.501,4.71-73.785z" fill="#FFFFFF"></path><path style="" d="M6.382-70.828c-0.035-0.071-0.11-0.114-0.191-0.096c-0.015,0.003-1.576,0.274-2.652,0.4c-0.847,0.1-1.652,0.172-1.962,0.199l-0.515-1.372c-0.132,0-0.259,0-0.382,0l0.609,1.623c0.028,0.074,0.102,0.124,0.182,0.115c0.01-0.001,1.025-0.084,2.11-0.212c0.668-0.078,1.519-0.212,2.079-0.304l-3.2,2.949c-0.053,0.049-0.071,0.124-0.047,0.192l1.498,4.14l-3.891-2.18c-0.064-0.036-0.144-0.029-0.202,0.018l-3.844,3.157l1.323-4.646c0.022-0.077-0.011-0.16-0.08-0.202l-1.413-0.843l-2.556-1.526c0.571,0.005,1.43,0.001,2.255-0.04c1.403-0.071,2.483-0.16,2.494-0.161c0.075-0.006,0.138-0.058,0.158-0.13l0.476-1.709c-0.119,0.013-0.239-0.005-0.358-0.049l-0.43,1.542c-0.322,0.025-1.236,0.093-2.358,0.15c-1.394,0.071-2.883,0.029-2.897,0.03c-0.082-0.02-0.154,0.05-0.177,0.128c-0.023,0.078,0.01,0.162,0.08,0.203l3.015,1.8l1.409,0.841l-1.442,5.065c-0.021,0.075,0.009,0.155,0.074,0.198c0.03,0.02,0.064,0.029,0.098,0.029c0.041,0,0.081-0.014,0.114-0.041l4.191-3.443l4.203,2.355c0.066,0.037,0.147,0.03,0.204-0.019c0.057-0.048,0.078-0.127,0.052-0.197l-1.621-4.48l3.554-3.275C6.401-70.672,6.417-70.757,6.382-70.828z" fill="#FFFFFF"></path><path style="" d="M-1.369-71.454l0.912-3.27l1.136,3.028c0.123,0,0.25,0,0.382,0l-1.376-3.667c-0.027-0.073-0.097-0.112-0.176-0.116c-0.077,0.003-0.144,0.056-0.165,0.13l-1.072,3.845C-1.608-71.459-1.489-71.441-1.369-71.454z" fill="#FFFFFF"></path><path style="" d="M2.746-67.458l-1.063-2.688c-0.029-0.073-0.096-0.125-0.18-0.112l-1.513,0.113c0,0.119,0,0.238,0,0.358l1.409-0.105l0.966,2.445l-2.452,2.014l-2.552-1.499l0.744-2.714l1.885-0.141c0-0.119,0-0.238,0-0.358l-2.038,0.152c-0.075,0.006-0.139,0.058-0.159,0.131l-0.813,2.966c-0.021,0.077,0.012,0.16,0.082,0.201l2.778,1.631c0.028,0.016,0.059,0.025,0.091,0.025c0.041,0,0.081-0.014,0.114-0.041l2.649-2.176C2.753-67.304,2.775-67.386,2.746-67.458z" fill="#FFFFFF"></path></g><path d="M-14.617-48.736c2.918,1.463,9.694,2.398,14.967,1.471c5.272-0.927,7.216-2.264,8.035-3.093l-0.029-1.122c0,0-3.413,3.855-11.807,3.904c-8.395,0.049-10.918-1.914-10.918-1.914L-14.617-48.736z"></path><path d="M1.134-77.554c-1.126,0.24-2.299-0.077-3.36-0.525c-2.423-1.024-4.497-2.718-6.806-3.978c-2.309-1.26-5.091-2.079-7.56-1.172c-0.871,0.32-1.679,0.848-2.598,0.976c-0.804,0.113-1.758-0.237-2.067-0.942c-0.018,0.04-0.043,0.078-0.051,0.121c-0.031,0.171,0.036,0.343,0.107,0.502c0.439,0.976,1.107,1.849,1.935,2.528c0.121,0.099,0.722,0.682,1.375,0.387c2.661-1.201,4.212-1.758,7.099-1.323c2.791,0.421,6.308,2.434,8.851,3.66c0.759,0.366,1.547,0.731,2.389,0.763c1.008,0.038,1.991-0.418,2.749-1.084c0.758-0.666,1.317-1.528,1.801-2.413c-0.048,0.011-0.097,0.022-0.144,0.033c-0.046,0.039-0.095,0.075-0.14,0.114C3.622-78.957,2.547-77.855,1.134-77.554z"></path></g><!---0038-00720002700041--><g><path style="" d="M-19.634-39.575c-2.438,1.793-5.826,2.034-8.596,0.813c-2.77-1.22-4.891-3.613-6.338-6.272c-0.029-0.053-0.146-0.237,0.044-0.511c0.581-0.836,2.183-2.458,3.003-3.298c0.133-0.136,0.271-0.283,0.309-0.469c0.039-0.188-0.032-0.38-0.101-0.559c-0.278-0.716-0.557-1.431-0.835-2.147c-0.146-0.376-0.295-0.779-0.21-1.174c0.078-0.361,0.339-0.651,0.601-0.911c1.027-1.021,2.226-1.887,3.074-3.061c1.46-2.022,1.68-4.645,2.223-7.079c0.074-0.332,0.157-0.669,0.33-0.962c0.208-0.352,0.531-0.618,0.859-0.862c0.924-0.685,1.94-1.246,3.012-1.664c1.488-0.58,3.164-0.397,4.504,0.474c1.34,0.87,2.24,2.335,2.573,3.898c0.122,0.569,0.173,1.151,0.229,1.73c0.148,1.529,0.331,3.056,0.64,4.56c0.065,0.318,0.137,0.64,0.109,0.964c-0.041,0.479-0.293,0.912-0.566,1.308c-0.696,1.013-1.574,1.939-1.953,3.108c-0.488,1.509,0.211,3.22,0.426,4.791c0.214,1.564,0.472,3.301-0.427,4.598C-17.042-41.839-18.396-40.485-19.634-39.575z" fill="#2D2D2D"></path><path style="" d="M-30.93-40.442c-0.124,0.87-0.511,4.367-0.263,4.74c0.248,0.373,3.106,2.174,6.087,2.112c2.982-0.062,4.41-0.87,4.41-0.87l0.621-4.845c0,0-1.937,1.393-5.528,0.87C-29.388-38.987-30.93-40.442-30.93-40.442z" fill="#2D2D2D"></path><path d="M-26.471-49.31c-0.612,0.221-1.586,0.349-2.371-0.197c-0.411-0.286-1.761-1.709-2.355-1.98c-0.314-0.143-0.5-0.261-0.844-0.254c0.242,0.624,0.485,1.247,0.727,1.871c0.07,0.179,0.14,0.371,0.101,0.559c-0.038,0.186-0.177,0.333-0.309,0.469c-0.241,0.247-0.481,0.494-0.722,0.74c0.995,1.152,2.191,2.132,3.537,2.842c0.165,0.087,0.343,0.173,0.529,0.16c0.173-0.011,0.328-0.105,0.473-0.202c1.939-1.292,4.274-5.326,4.274-5.326S-25.36-49.711-26.471-49.31z"></path><path d="M-14.953-61.628c-0.044-0.449,0.1-0.256,0.028-0.701c-1.211,3.51-5.401,7.609-7.351,7.481c0.89,0.793,1.65,1.527,2.264,2.645c0.641,1.168,0.656,2.624-0.081,3.734c-0.737,1.11-1.91,1.844-3.069,2.502c-1.159,0.658-2.366,1.297-3.25,2.295c1.243,0.388,2.552,0.561,3.853,0.51c-1.519,1.977-4.443,2.459-6.809,1.671c-2.089-0.696-3.801-2.192-5.241-3.876c-0.034,0.101-0.024,0.217,0.039,0.333c1.447,2.658,3.568,5.052,6.338,6.272c2.77,1.22,6.158,0.98,8.596-0.813c1.238-0.91,2.593-2.265,2.911-2.724c0.899-1.297,0.641-3.035,0.427-4.598c-0.215-1.571-0.914-3.282-0.426-4.791c0.378-1.169,1.257-2.095,1.953-3.108c0.272-0.396,0.525-0.829,0.565-1.308c0.027-0.323-0.044-0.646-0.109-0.964C-14.622-58.572-14.805-60.099-14.953-61.628z"></path><path d="M-23.568-60.629c0.043-0.267-0.118-0.52-0.275-0.741c-0.428-0.601-0.88-1.185-1.355-1.75c-0.357-0.424-0.745-0.851-1.259-1.061c-0.005-0.002-0.011-0.002-0.017-0.004c-0.446,2.02-0.689,4.161-1.598,5.982c0.182-0.006,0.612,0.1,2.013-0.449C-24.655-59.201-23.617-60.328-23.568-60.629z"></path><path d="M-23.044-38.412c-0.021,1.55-0.042,3.1-0.064,4.65c1.623-0.255,2.413-0.698,2.413-0.698l0.621-4.845C-20.073-39.305-21.104-38.621-23.044-38.412z"></path></g><!---0030-00850002100030--><g><path style="" d="M-23.012-71.802c-0.078,0.371-0.243,0.718-0.405,1.06c-0.758,1.597-1.516,3.193-2.274,4.79c-0.177,0.372-0.355,0.752-0.404,1.161c-0.05,0.417,0.04,0.838,0.146,1.244c0.351,1.351,0.895,2.67,1.752,3.772c0.857,1.102,2.047,1.977,3.406,2.296c1.717,0.403,3.529-0.103,5.104-0.895c0.808-0.406,1.229-1.132,1.765-1.86c0.347-0.472,1.955-9.608,1.954-10.096c-0.002-1.069,0.296-2.115,0.393-3.18c0.121-1.328,1.133-3.658-0.936-6.336c-0.58-0.75-2.059-1.383-3.52-1.201c-2.011,0.251-2.869,1.15-3.816,2.097C-21.267-77.528-22.942-72.131-23.012-71.802z" fill="#2D2D2D"></path><path d="M-11.968-70.33c0-0.003,0-0.006,0-0.009c-0.13,0.167-0.259,0.333-0.389,0.5c-0.123,0.158-1.027,0.877-1.368,0.877c-0.342,0-2.112-1.796-3.416-2.168c-0.124-0.031,1.922,5.47,1.983,6.129c0.074,0.791,0.565,1.898,0.226,2.617c-0.724,1.535-1.919,3.35-3.06,4.845c0.592-0.08,1.849-0.605,2.304-0.833c0.808-0.406,1.229-1.132,1.765-1.86C-13.574-60.707-11.967-69.843-11.968-70.33z"></path><path d="M-20.093-78.659c-0.103,0.15-0.208,0.308-0.314,0.473c6.915,0.984,8.129,8.035,8.141,8.107l0.193,0.166c0.089-0.337,0.152-0.741,0.214-1.139C-12.498-73.117-14.603-77.754-20.093-78.659z"></path></g></svg>
