<svg xmlns:xlink="http://www.w3.org/1999/xlink" xmlns="http://www.w3.org/2000/svg" aria-label="user avatar" viewBox="-40.94377899169922 -146.29818725585938 68.82828521728516 163.4471893310547" preserveAspectRatio="xMidYMid meet" width="300"  height="400" >
            <g><g><path fill="#EFC1B7" d="M-0.119-11.38c-1.812,0.319-2.338,2.3-2.021,3.712c-0.674,1.645-0.886,3.685-0.358,4.715 c0.706,1.376,3.173,1.304,4.37,2.192C3.611,0.53,4.513,0.76,6.637,0.516c1.232-0.143,3.977-0.813,3.573-2.825 C9.852-4.1,5.704-4.699,3.327-7.94C3.141-9.455,2.529-11.844-0.119-11.38z"></path><path fill="#EFC1B7" d="M4.438-31.563c-0.612,1.854-0.599,5.153-2.25,6.375C-0.201-23.419-2.217-24.872-2.5-27.5 c-0.283-2.629-0.766-8.479-0.875-11.563c-2.194-6.504,2.5-15,8-11.25c2.457,1.675,2.12,5.081,1.956,7.625 C6.334-38.846,5.663-35.273,4.438-31.563z"></path><path fill="#EFC1B7" d="M-4.487-21.563c-0.024-1.418,1.823-7.051,3.237-7.75c1.532-0.755,3.227-0.474,4.188,1 c1.11,1.702,0.064,3.296-0.25,5.125C2.239-20.59,2.868-8.481,2.875-7.625C2.878-6.537-0.899-5.602-1.56-7.688 c-0.777-2.454-0.219-5.042-1.234-7.438C-3.366-16.473-4.45-19.403-4.487-21.563z"></path><path fill="#FEE2CA" d="M-7.963-25.176c-1.762,5.577-6.048,1.982-6.537-1.324c-0.399-2.689-1.28-11.562-0.625-15 c-1.017-3.146,0.14-7.107,2-8.394c4.652-3.22,7.179,1.513,7.714,5.394C-5.05-41.897-7.323-27.193-7.963-25.176z"></path><path fill="#EFC1B7" d="M-14.5-26.5c0.183,1.235,0.896,2.51,1.809,3.332c0.12-0.57,0.305-1.159,0.193-1.749 c-1.136-6-0.835-12.905-0.252-16.169c-0.583-2.498-0.575-4.32-0.472-6.496c0.038-0.803,0.121-1.593,0.21-2.382 c-0.039,0.026-0.074,0.042-0.113,0.069c-1.86,1.287-3.017,5.248-2,8.394C-15.78-38.062-14.899-29.189-14.5-26.5z"></path><path fill="#FEE2CA" d="M-15.503-17.938c0.014-1.508,1.255-7.246,2.687-7.946c1.553-0.761,3.396-1.021,4.316,0.571 c1.066,1.839,0.052,3.939-0.313,5.875C-9.329-16.693-9.108-3.91-9.063-3C-9-1.749-12.833-1.204-13.438-3.438 c-0.713-2.625-0.175-5.426-1.125-8.001C-15.098-12.885-15.524-15.645-15.503-17.938z"></path><path fill="#EFC1B7" d="M-14.563-11.438c0.95,2.575,0.412,5.375,1.125,8.001c0.17,0.63,1.147,1.292,1.672,1.526 c0.018-0.118-0.473-1.146-0.466-1.26c0.037-0.653-1.566-10.386-1.654-13.079c-0.115-3.5,1.412-6.86,1.388-8.667 c-0.005-0.362-0.021-0.724-0.046-1.086c-0.091,0.04-0.183,0.076-0.272,0.119c-1.431,0.7-2.672,6.438-2.687,7.946 C-15.524-15.645-15.098-12.885-14.563-11.438z"></path><path fill="#FEE2CA" d="M-11.544-7.146c-1.893,0.191-2.585,2.196-2.362,3.676c-0.823,1.645-1.196,3.732-0.729,4.836 c0.624,1.472,3.175,1.585,4.341,2.589c1.699,1.463,2.612,1.771,4.818,1.676c1.282-0.055,4.163-0.538,3.898-2.644 C-1.811,1.112-6.046,0.182-8.25-3.34C-8.328-4.916-8.78-7.427-11.544-7.146z"></path>

</g>
        </g></svg>
