<svg xmlns:xlink="http://www.w3.org/1999/xlink" xmlns="http://www.w3.org/2000/svg" aria-label="user avatar" viewBox="-40.94377899169922 -146.29818725585938 68.82828521728516 163.4471893310547" preserveAspectRatio="xMidYMid meet" width="300"  height="400" >
            <g><g><g><path fill="#FEE2CA" d="M10.366-67.916c-4.63-1.803-3.469,4.047-1.523,7.045c2.261,3.481,2.458,8.617,4.519,8.182 C16.482-53.349,12.745-66.989,10.366-67.916z"></path><path fill="#EFC1B7" d="M13.052-63.248c-0.821-2.394-1.839-4.338-2.686-4.668c-4.63-1.803-3.469,4.047-1.523,7.045 c0.293,0.451,0.55,0.93,0.782,1.42C9.75-61.833,11.309-63.417,13.052-63.248z"></path></g><path fill="#EFC1B7" d="M2.188-77.313c-0.934-2.642-1.617-5.436,0.438-6.625c1.494-0.863,3.635,0.781,3.956,2.313 C7.363-77.907,14.723-63.998,9.375-64C6.338-64.001,3.835-72.649,2.188-77.313z"></path><path fill="#FEE2CA" d="M16.655-42.371c1.154,0.066,0.91-1.146,1.067-1.767c0.105-0.415,0.241-0.565,0.47-0.943 c0.28-0.462,0.206-2.837-0.196-3.988c-0.494-1.416-1.819-3.438-2.856-4.82c-0.859-3.598-6.128-2.485-3.815,1.413 c0.539,1.938,0.188,4.373,0.856,5.865c0.143,0.32,0.668,1.362,1.258,1.038c0.606-0.332-0.216-1.928,0.149-2.445 c0.41,0.166,0.982,0.413,1.28,0.718C15.223-46.938,16.103-42.891,16.655-42.371z"></path><g><path fill="#FEE2CA" d="M-21.054-63.337c4.251-2.525,3.642,4.102,1.429,7.399c-2.826,4.211-1,11.029-4.283,11.029 C-27.563-44.909-24.045-61.56-21.054-63.337z"></path><path fill="#EFC1B7" d="M-20.264-63.72c-0.09,0.034-0.192,0.088-0.288,0.132c-0.295,0.427-0.617,0.864-0.783,1.312 c0.003-0.308,0.029-0.601,0.055-0.894c-2.262,1.878-4.709,11.687-4.089,16.103c1.446-1.969,0.993-4.758,1.601-7.104 c0.286-1.102,0.11-2.434,0.54-3.445c0.526-1.239,1.766-2.068,2.337-3.301C-20.476-61.813-20.307-62.742-20.264-63.72z"></path></g><g><path fill="#FEE2CA" d="M-15.878-81.813c3.666-1.438,4,3.236,2.816,5.938c-1.052,2.404-3.911,12.144-5.313,14.438 c-1.313,1.708-3.74,2.573-3.875-0.688C-22.349-64.561-19.34-80.455-15.878-81.813z"></path><path fill="#EFC1B7" d="M-19.394-71.168c0.395-1.04,0.935-2.043,1.371-3.082c0.208-0.496,0.454-0.88,0.522-1.417 c0.11-0.86-0.004-1.586,0.281-2.433c0.353-1.045,0.841-2.011,1.784-2.819c0.462-0.396,1.055-0.683,1.484-1.036 c-0.5-0.182-1.131-0.171-1.928,0.142c-3.462,1.357-6.471,17.251-6.372,19.688c0.047,1.145,0.38,1.772,0.846,2.042 c0.196-0.262,0.375-0.536,0.513-0.834c0.463-0.999,0.629-2.034,0.646-3.137c-0.343,0.572-0.861,1.166-1.088,1.778 c0.016-1.64,0.39-3.043,0.731-4.641C-20.3-68.341-19.915-69.797-19.394-71.168z"></path></g>

<path fill="#FEE2CA" d="M-21.899-45.582c0.006-0.014,0.979,1.434,1.127,1.835c0.337,0.912,1.172,3.284,0.237,3.822 c-0.625,0.36-0.957-2.333-1.824-1.639c-0.607,0.484-0.842,0.363-1.204,1.848c-0.463,1.902-0.374,4.164-0.852,4.244 c-1.433,0.239-0.61-1.002-0.727-2.437c-0.539,1.942,0.071,2.928-0.54,2.842c-0.643-0.091-0.723-0.797-1.15-1.19 c-0.204-0.188-0.451-0.35-0.6-0.582c-0.052-0.08-0.205-0.774-0.16-0.752c-0.975-0.475-0.66-2.163-0.58-2.968 c0.094-0.935,0.213-1.941,0.582-2.821c0.638-1.524,0.994-1.511,1.437-3.09C-25.002-50.82-21.125-49.494-21.899-45.582z"></path></g>
        </g></svg>
